%TF.GenerationSoftware,KiCad,Pcbnew,(6.0.10)*%
%TF.CreationDate,2023-02-16T10:20:13+01:00*%
%TF.ProjectId,Weerstation,57656572-7374-4617-9469-6f6e2e6b6963,rev?*%
%TF.SameCoordinates,Original*%
%TF.FileFunction,Copper,L2,Bot*%
%TF.FilePolarity,Positive*%
%FSLAX46Y46*%
G04 Gerber Fmt 4.6, Leading zero omitted, Abs format (unit mm)*
G04 Created by KiCad (PCBNEW (6.0.10)) date 2023-02-16 10:20:13*
%MOMM*%
%LPD*%
G01*
G04 APERTURE LIST*
G04 Aperture macros list*
%AMRoundRect*
0 Rectangle with rounded corners*
0 $1 Rounding radius*
0 $2 $3 $4 $5 $6 $7 $8 $9 X,Y pos of 4 corners*
0 Add a 4 corners polygon primitive as box body*
4,1,4,$2,$3,$4,$5,$6,$7,$8,$9,$2,$3,0*
0 Add four circle primitives for the rounded corners*
1,1,$1+$1,$2,$3*
1,1,$1+$1,$4,$5*
1,1,$1+$1,$6,$7*
1,1,$1+$1,$8,$9*
0 Add four rect primitives between the rounded corners*
20,1,$1+$1,$2,$3,$4,$5,0*
20,1,$1+$1,$4,$5,$6,$7,0*
20,1,$1+$1,$6,$7,$8,$9,0*
20,1,$1+$1,$8,$9,$2,$3,0*%
G04 Aperture macros list end*
%TA.AperFunction,ComponentPad*%
%ADD10R,1.700000X1.700000*%
%TD*%
%TA.AperFunction,ComponentPad*%
%ADD11O,1.700000X1.700000*%
%TD*%
%TA.AperFunction,ComponentPad*%
%ADD12C,1.600000*%
%TD*%
%TA.AperFunction,ComponentPad*%
%ADD13O,1.600000X1.600000*%
%TD*%
%TA.AperFunction,ComponentPad*%
%ADD14R,1.500000X1.500000*%
%TD*%
%TA.AperFunction,ComponentPad*%
%ADD15C,1.500000*%
%TD*%
%TA.AperFunction,ComponentPad*%
%ADD16R,1.800000X1.800000*%
%TD*%
%TA.AperFunction,ComponentPad*%
%ADD17C,1.800000*%
%TD*%
%TA.AperFunction,ComponentPad*%
%ADD18R,1.600000X1.600000*%
%TD*%
%TA.AperFunction,ComponentPad*%
%ADD19R,2.000000X2.000000*%
%TD*%
%TA.AperFunction,ComponentPad*%
%ADD20C,2.000000*%
%TD*%
%TA.AperFunction,ComponentPad*%
%ADD21R,1.100000X1.800000*%
%TD*%
%TA.AperFunction,ComponentPad*%
%ADD22RoundRect,0.275000X-0.275000X-0.625000X0.275000X-0.625000X0.275000X0.625000X-0.275000X0.625000X0*%
%TD*%
%TA.AperFunction,ComponentPad*%
%ADD23C,2.500000*%
%TD*%
%TA.AperFunction,ComponentPad*%
%ADD24R,2.000000X1.905000*%
%TD*%
%TA.AperFunction,ComponentPad*%
%ADD25O,2.000000X1.905000*%
%TD*%
%TA.AperFunction,ViaPad*%
%ADD26C,5.000000*%
%TD*%
%TA.AperFunction,ViaPad*%
%ADD27C,0.800000*%
%TD*%
%TA.AperFunction,Conductor*%
%ADD28C,0.600000*%
%TD*%
G04 APERTURE END LIST*
D10*
%TO.P,J1,1,Pin_1*%
%TO.N,Net-(J1-Pad1)*%
X9093200Y8468600D03*
D11*
%TO.P,J1,2,Pin_2*%
%TO.N,Net-(J1-Pad2)*%
X9093200Y5928600D03*
%TO.P,J1,3,Pin_3*%
%TO.N,GND*%
X9093200Y3388600D03*
%TD*%
D12*
%TO.P,R5,1*%
%TO.N,Net-(D1-Pad2)*%
X14173200Y-9550400D03*
D13*
%TO.P,R5,2*%
%TO.N,+3V3*%
X14173200Y609600D03*
%TD*%
D14*
%TO.P,U2,1,VCC*%
%TO.N,+3V3*%
X5283200Y40396100D03*
D15*
%TO.P,U2,2,IO*%
%TO.N,Net-(R4-Pad2)*%
X2743200Y40396100D03*
%TO.P,U2,3,NC*%
%TO.N,unconnected-(U2-Pad3)*%
X203200Y40396100D03*
%TO.P,U2,4,GND*%
%TO.N,GND*%
X-2336800Y40396100D03*
%TD*%
D10*
%TO.P,J3,1,Pin_1*%
%TO.N,+5V*%
X3515200Y-14376400D03*
D11*
%TO.P,J3,2,Pin_2*%
%TO.N,Net-(J3-Pad2)*%
X6055200Y-14376400D03*
%TO.P,J3,3,Pin_3*%
%TO.N,Net-(J3-Pad3)*%
X8595200Y-14376400D03*
%TO.P,J3,4,Pin_4*%
%TO.N,GND*%
X11135200Y-14376400D03*
%TD*%
D12*
%TO.P,C3,1*%
%TO.N,+3V3*%
X12903200Y41717600D03*
%TO.P,C3,2*%
%TO.N,GND*%
X12903200Y36717600D03*
%TD*%
D16*
%TO.P,D1,1,K*%
%TO.N,Net-(D1-Pad1)*%
X17724200Y-14122400D03*
D17*
%TO.P,D1,2,A*%
%TO.N,Net-(D1-Pad2)*%
X20264200Y-14122400D03*
%TD*%
D12*
%TO.P,C7,1*%
%TO.N,+5V*%
X-7376800Y14833600D03*
%TO.P,C7,2*%
%TO.N,GND*%
X-2376800Y14833600D03*
%TD*%
D18*
%TO.P,C6,1*%
%TO.N,+5V*%
X-13766800Y14833600D03*
D12*
%TO.P,C6,2*%
%TO.N,GND*%
X-13766800Y12333600D03*
%TD*%
%TO.P,C2,1*%
%TO.N,+3V3*%
X-22402800Y1117600D03*
%TO.P,C2,2*%
%TO.N,GND*%
X-27402800Y1117600D03*
%TD*%
D19*
%TO.P,BZ1,1,-*%
%TO.N,+5V*%
X-37626800Y-416400D03*
D20*
%TO.P,BZ1,2,+*%
%TO.N,Net-(BZ1-Pad2)*%
X-37626800Y-8016400D03*
%TD*%
%TO.P,SW1,1,1*%
%TO.N,Net-(R2-Pad2)*%
X4758764Y-9296400D03*
X4758764Y-2796400D03*
%TO.P,SW1,2,2*%
%TO.N,GND*%
X9258764Y-9296400D03*
X9258764Y-2796400D03*
%TD*%
D18*
%TO.P,C4,1*%
%TO.N,+3V3*%
X1473200Y32613600D03*
D12*
%TO.P,C4,2*%
%TO.N,GND*%
X3973200Y32613600D03*
%TD*%
D10*
%TO.P,J6,1,Pin_1*%
%TO.N,GND*%
X-30276800Y28798600D03*
D11*
%TO.P,J6,2,Pin_2*%
X-30276800Y31338600D03*
%TO.P,J6,3,Pin_3*%
%TO.N,Net-(J6-Pad3)*%
X-27736800Y28798600D03*
%TO.P,J6,4,Pin_4*%
%TO.N,unconnected-(J6-Pad4)*%
X-27736800Y31338600D03*
%TO.P,J6,5,Pin_5*%
%TO.N,unconnected-(J6-Pad5)*%
X-25196800Y28798600D03*
%TO.P,J6,6,Pin_6*%
%TO.N,unconnected-(J6-Pad6)*%
X-25196800Y31338600D03*
%TO.P,J6,7,Pin_7*%
%TO.N,unconnected-(J6-Pad7)*%
X-22656800Y28798600D03*
%TO.P,J6,8,Pin_8*%
%TO.N,unconnected-(J6-Pad8)*%
X-22656800Y31338600D03*
%TO.P,J6,9,Pin_9*%
%TO.N,unconnected-(J6-Pad9)*%
X-20116800Y28798600D03*
%TO.P,J6,10,Pin_10*%
%TO.N,Net-(J6-Pad10)*%
X-20116800Y31338600D03*
%TO.P,J6,11,Pin_11*%
%TO.N,Net-(F1-Pad2)*%
X-17576800Y28798600D03*
%TO.P,J6,12,Pin_12*%
X-17576800Y31338600D03*
%TD*%
D12*
%TO.P,R6,1*%
%TO.N,Net-(J6-Pad10)*%
X-20566800Y23993600D03*
D13*
%TO.P,R6,2*%
%TO.N,GND*%
X-30726800Y23993600D03*
%TD*%
D12*
%TO.P,R1,1*%
%TO.N,+3V3*%
X-21386800Y-10566400D03*
D13*
%TO.P,R1,2*%
%TO.N,Net-(C1-Pad2)*%
X-31546800Y-10566400D03*
%TD*%
D10*
%TO.P,J2,1,Pin_1*%
%TO.N,+3V3*%
X-23291800Y18384600D03*
D11*
%TO.P,J2,2,Pin_2*%
%TO.N,GND*%
X-23291800Y15844600D03*
%TO.P,J2,3,Pin_3*%
%TO.N,Net-(J2-Pad3)*%
X-23291800Y13304600D03*
%TO.P,J2,4,Pin_4*%
%TO.N,Net-(J2-Pad4)*%
X-23291800Y10764600D03*
%TO.P,J2,5,Pin_5*%
%TO.N,unconnected-(J2-Pad5)*%
X-23291800Y8224600D03*
%TD*%
D12*
%TO.P,C5,1*%
%TO.N,+3V3*%
X-7416800Y30073600D03*
%TO.P,C5,2*%
%TO.N,GND*%
X-2416800Y30073600D03*
%TD*%
%TO.P,R4,1*%
%TO.N,+3V3*%
X17333200Y41673600D03*
D13*
%TO.P,R4,2*%
%TO.N,Net-(R4-Pad2)*%
X17333200Y31513600D03*
%TD*%
D21*
%TO.P,Q1,1,C*%
%TO.N,Net-(BZ1-Pad2)*%
X-37266800Y-14706400D03*
D22*
%TO.P,Q1,2,B*%
%TO.N,Net-(R3-Pad2)*%
X-35996800Y-12636400D03*
%TO.P,Q1,3,E*%
%TO.N,GND*%
X-34726800Y-14706400D03*
%TD*%
D23*
%TO.P,U1,39,GND*%
%TO.N,GND*%
X-10186800Y-6320400D03*
%TD*%
D24*
%TO.P,U3,1,GND*%
%TO.N,GND*%
X-7756800Y24993600D03*
D25*
%TO.P,U3,2,VO*%
%TO.N,+3V3*%
X-7756800Y22453600D03*
%TO.P,U3,3,VI*%
%TO.N,+5V*%
X-7756800Y19913600D03*
%TD*%
D12*
%TO.P,C1,1*%
%TO.N,GND*%
X-27442800Y-3454400D03*
%TO.P,C1,2*%
%TO.N,Net-(C1-Pad2)*%
X-22442800Y-3454400D03*
%TD*%
%TO.P,F1,1*%
%TO.N,+5V*%
X-12547600Y19405600D03*
%TO.P,F1,2*%
%TO.N,Net-(F1-Pad2)*%
X-17547600Y19405600D03*
%TD*%
%TO.P,R2,1*%
%TO.N,+3V3*%
X3993200Y11023600D03*
D13*
%TO.P,R2,2*%
%TO.N,Net-(R2-Pad2)*%
X3993200Y863600D03*
%TD*%
D10*
%TO.P,J4,1,Pin_1*%
%TO.N,Net-(J4-Pad1)*%
X20269200Y-5486400D03*
D11*
%TO.P,J4,2,Pin_2*%
%TO.N,Net-(J4-Pad2)*%
X20269200Y-2946400D03*
%TO.P,J4,3,Pin_3*%
%TO.N,GND*%
X20269200Y-406400D03*
%TO.P,J4,4,Pin_4*%
%TO.N,+3V3*%
X20269200Y2133600D03*
%TD*%
D12*
%TO.P,R7,1*%
%TO.N,GND*%
X-43966800Y23993600D03*
D13*
%TO.P,R7,2*%
%TO.N,Net-(J6-Pad3)*%
X-33806800Y23993600D03*
%TD*%
D12*
%TO.P,R3,1*%
%TO.N,Net-(R3-Pad1)*%
X-21541800Y-14816400D03*
D13*
%TO.P,R3,2*%
%TO.N,Net-(R3-Pad2)*%
X-31701800Y-14816400D03*
%TD*%
D10*
%TO.P,J5,1,Pin_1*%
%TO.N,Net-(J4-Pad1)*%
X20269200Y9758600D03*
D11*
%TO.P,J5,2,Pin_2*%
%TO.N,Net-(J4-Pad2)*%
X20269200Y12298600D03*
%TO.P,J5,3,Pin_3*%
%TO.N,GND*%
X20269200Y14838600D03*
%TO.P,J5,4,Pin_4*%
%TO.N,+3V3*%
X20269200Y17378600D03*
%TO.P,J5,5,Pin_5*%
%TO.N,Net-(J5-Pad5)*%
X20269200Y19918600D03*
%TD*%
D26*
%TO.N,GND*%
X49733200Y-13106400D03*
X27113200Y-12786400D03*
X42113200Y-12786400D03*
D27*
X457200Y3911600D03*
D26*
X-41706800Y-13106400D03*
X49733200Y40233600D03*
X-41706800Y40233600D03*
D27*
%TO.N,Net-(J3-Pad2)*%
X-1574800Y-12852400D03*
%TO.N,Net-(J3-Pad3)*%
X-1574800Y-11582400D03*
%TO.N,Net-(R4-Pad2)*%
X-19862800Y-3708400D03*
%TD*%
D28*
%TO.N,+5V*%
X-32562800Y4165600D02*
X-28498800Y4165600D01*
X-34086800Y-11074400D02*
X-34086800Y-426400D01*
X-34086800Y2641600D02*
X-32562800Y4165600D01*
X-34086800Y-426400D02*
X-34086800Y2641600D01*
X-4114800Y-14376400D02*
X-5892800Y-12598400D01*
X-34076800Y-416400D02*
X-37626800Y-416400D01*
X-7376800Y12587600D02*
X-7376800Y14833600D01*
X-34086800Y-426400D02*
X-34076800Y-416400D01*
X-32562800Y-12598400D02*
X-34086800Y-11074400D01*
X-28498800Y4165600D02*
X-15798800Y4165600D01*
X-15798800Y4165600D02*
X-7376800Y12587600D01*
X-5892800Y-12598400D02*
X-32562800Y-12598400D01*
X3515200Y-14376400D02*
X-4114800Y-14376400D01*
%TO.N,Net-(C1-Pad2)*%
X-22442800Y-3454400D02*
X-22442800Y-5526400D01*
X-22442800Y-5526400D02*
X-27482800Y-10566400D01*
X-27482800Y-10566400D02*
X-31546800Y-10566400D01*
%TO.N,+3V3*%
X21788200Y17378600D02*
X22809200Y16357600D01*
X3993200Y6437990D02*
X3993200Y11023600D01*
X3993200Y11023600D02*
X3993200Y17901600D01*
X3993200Y17901600D02*
X-558800Y22453600D01*
X20269200Y17378600D02*
X21788200Y17378600D01*
X14173200Y609600D02*
X9821590Y609600D01*
X-21386800Y-7010400D02*
X-21386800Y-10566400D01*
X22809200Y3149600D02*
X21793200Y2133600D01*
X9821590Y609600D02*
X3993200Y6437990D01*
X3993200Y11023600D02*
X-3352800Y11023600D01*
X21793200Y2133600D02*
X20269200Y2133600D01*
X-558800Y22453600D02*
X-7756800Y22453600D01*
X-3352800Y11023600D02*
X-21386800Y-7010400D01*
X22809200Y16357600D02*
X22809200Y3149600D01*
%TO.N,Net-(F1-Pad2)*%
X-17576800Y28798600D02*
X-17576800Y31338600D01*
X-17547600Y19405600D02*
X-17547600Y28769400D01*
X-17547600Y28769400D02*
X-17576800Y28798600D01*
%TO.N,Net-(J3-Pad2)*%
X6055200Y-14376400D02*
X6055200Y-14016400D01*
X6055200Y-14016400D02*
X4891200Y-12852400D01*
X4891200Y-12852400D02*
X-1574800Y-12852400D01*
%TO.N,Net-(J3-Pad3)*%
X8595200Y-14376400D02*
X5801200Y-11582400D01*
X5801200Y-11582400D02*
X-1574800Y-11582400D01*
%TO.N,Net-(R2-Pad2)*%
X4758764Y-9296400D02*
X4758764Y-2796400D01*
%TO.N,Net-(R4-Pad2)*%
X-19862800Y-2438400D02*
X-3776800Y13647600D01*
X-3776800Y13647600D02*
X-3776800Y16019600D01*
X2743200Y37693600D02*
X-812800Y34137600D01*
X-10718800Y18897600D02*
X-10718800Y31597600D01*
X-9194800Y17373600D02*
X-10718800Y18897600D01*
X-5130800Y17373600D02*
X-9194800Y17373600D01*
X2743200Y37693600D02*
X2743200Y40396100D01*
X-3776800Y16019600D02*
X-5130800Y17373600D01*
X-8178800Y34137600D02*
X-812800Y34137600D01*
X-19862800Y-3708400D02*
X-19862800Y-2438400D01*
X-10718800Y31597600D02*
X-8178800Y34137600D01*
%TD*%
%TA.AperFunction,Conductor*%
%TO.N,GND*%
G36*
X23005321Y44785098D02*
G01*
X23051814Y44731442D01*
X23063200Y44679100D01*
X23063200Y30073600D01*
X45923200Y30073600D01*
X45923200Y44679100D01*
X45943202Y44747221D01*
X45996858Y44793714D01*
X46049200Y44805100D01*
X53378700Y44805100D01*
X53446821Y44785098D01*
X53493314Y44731442D01*
X53504700Y44679100D01*
X53504700Y-17551900D01*
X53484698Y-17620021D01*
X53431042Y-17666514D01*
X53378700Y-17677900D01*
X-45352300Y-17677900D01*
X-45420421Y-17657898D01*
X-45466914Y-17604242D01*
X-45478300Y-17551900D01*
X-45478300Y-15654534D01*
X-38325300Y-15654534D01*
X-38318545Y-15716716D01*
X-38267415Y-15853105D01*
X-38180061Y-15969661D01*
X-38063505Y-16057015D01*
X-37927116Y-16108145D01*
X-37864934Y-16114900D01*
X-36668666Y-16114900D01*
X-36606484Y-16108145D01*
X-36470095Y-16057015D01*
X-36353539Y-15969661D01*
X-36266185Y-15853105D01*
X-36215055Y-15716716D01*
X-36208300Y-15654534D01*
X-36208300Y-15415522D01*
X-35784799Y-15415522D01*
X-35784749Y-15417251D01*
X-35783330Y-15427171D01*
X-35746600Y-15586267D01*
X-35741950Y-15599470D01*
X-35671629Y-15744935D01*
X-35664163Y-15756791D01*
X-35563361Y-15883065D01*
X-35553465Y-15892961D01*
X-35427191Y-15993763D01*
X-35415335Y-16001229D01*
X-35269870Y-16071550D01*
X-35256667Y-16076200D01*
X-35097564Y-16112932D01*
X-35087667Y-16114349D01*
X-35085893Y-16114400D01*
X-34998915Y-16114400D01*
X-34983676Y-16109925D01*
X-34982471Y-16108535D01*
X-34980800Y-16100852D01*
X-34980800Y-16096284D01*
X-34472800Y-16096284D01*
X-34468325Y-16111523D01*
X-34466935Y-16112728D01*
X-34459252Y-16114399D01*
X-34367678Y-16114399D01*
X-34365949Y-16114349D01*
X-34356029Y-16112930D01*
X-34196933Y-16076200D01*
X-34183730Y-16071550D01*
X-34038265Y-16001229D01*
X-34026409Y-15993763D01*
X-33900135Y-15892961D01*
X-33890239Y-15883065D01*
X-33789437Y-15756791D01*
X-33781971Y-15744935D01*
X-33711650Y-15599470D01*
X-33707000Y-15586267D01*
X-33670268Y-15427164D01*
X-33668851Y-15417267D01*
X-33668800Y-15415493D01*
X-33668800Y-14978515D01*
X-33673275Y-14963276D01*
X-33674665Y-14962071D01*
X-33682348Y-14960400D01*
X-34454685Y-14960400D01*
X-34469924Y-14964875D01*
X-34471129Y-14966265D01*
X-34472800Y-14973948D01*
X-34472800Y-16096284D01*
X-34980800Y-16096284D01*
X-34980800Y-14978515D01*
X-34985275Y-14963276D01*
X-34986665Y-14962071D01*
X-34994348Y-14960400D01*
X-35766684Y-14960400D01*
X-35781923Y-14964875D01*
X-35783128Y-14966265D01*
X-35784799Y-14973948D01*
X-35784799Y-15415522D01*
X-36208300Y-15415522D01*
X-36208300Y-14170900D01*
X-36188298Y-14102779D01*
X-36134642Y-14056286D01*
X-36082300Y-14044900D01*
X-35910800Y-14044900D01*
X-35842679Y-14064902D01*
X-35796186Y-14118558D01*
X-35784800Y-14170900D01*
X-35784800Y-14434285D01*
X-35780325Y-14449524D01*
X-35778935Y-14450729D01*
X-35771252Y-14452400D01*
X-34998915Y-14452400D01*
X-34983676Y-14447925D01*
X-34982471Y-14446535D01*
X-34980800Y-14438852D01*
X-34980800Y-14434285D01*
X-34472800Y-14434285D01*
X-34468325Y-14449524D01*
X-34466935Y-14450729D01*
X-34459252Y-14452400D01*
X-33686916Y-14452400D01*
X-33671677Y-14447925D01*
X-33670472Y-14446535D01*
X-33668801Y-14438852D01*
X-33668801Y-13997278D01*
X-33668851Y-13995549D01*
X-33670270Y-13985629D01*
X-33707000Y-13826533D01*
X-33711650Y-13813330D01*
X-33781971Y-13667865D01*
X-33789437Y-13656009D01*
X-33890239Y-13529735D01*
X-33900135Y-13519839D01*
X-34026409Y-13419037D01*
X-34038265Y-13411571D01*
X-34183730Y-13341250D01*
X-34196933Y-13336600D01*
X-34356036Y-13299868D01*
X-34365933Y-13298451D01*
X-34367707Y-13298400D01*
X-34454685Y-13298400D01*
X-34469924Y-13302875D01*
X-34471129Y-13304265D01*
X-34472800Y-13311948D01*
X-34472800Y-14434285D01*
X-34980800Y-14434285D01*
X-34980800Y-13549309D01*
X-34977571Y-13520965D01*
X-34947355Y-13390087D01*
X-34938567Y-13352023D01*
X-34938300Y-13347392D01*
X-34938300Y-11925408D01*
X-34938567Y-11920777D01*
X-34978109Y-11749505D01*
X-35033046Y-11635860D01*
X-35051545Y-11597593D01*
X-35051546Y-11597591D01*
X-35054612Y-11591249D01*
X-35164276Y-11453876D01*
X-35301649Y-11344212D01*
X-35309755Y-11340293D01*
X-35438017Y-11278290D01*
X-35459905Y-11267709D01*
X-35631177Y-11228167D01*
X-35635808Y-11227900D01*
X-36357792Y-11227900D01*
X-36362423Y-11228167D01*
X-36533695Y-11267709D01*
X-36555583Y-11278290D01*
X-36683844Y-11340293D01*
X-36691951Y-11344212D01*
X-36829324Y-11453876D01*
X-36938988Y-11591249D01*
X-36942054Y-11597591D01*
X-36942055Y-11597593D01*
X-36960554Y-11635860D01*
X-37015491Y-11749505D01*
X-37055033Y-11920777D01*
X-37055300Y-11925408D01*
X-37055300Y-13171900D01*
X-37075302Y-13240021D01*
X-37128958Y-13286514D01*
X-37181300Y-13297900D01*
X-37864934Y-13297900D01*
X-37927116Y-13304655D01*
X-38063505Y-13355785D01*
X-38180061Y-13443139D01*
X-38267415Y-13559695D01*
X-38318545Y-13696084D01*
X-38325300Y-13758266D01*
X-38325300Y-15654534D01*
X-45478300Y-15654534D01*
X-45478300Y-8016400D01*
X-39139965Y-8016400D01*
X-39121335Y-8253111D01*
X-39120181Y-8257918D01*
X-39120180Y-8257924D01*
X-39106209Y-8316116D01*
X-39065905Y-8483994D01*
X-38975040Y-8703363D01*
X-38972454Y-8707583D01*
X-38853559Y-8901602D01*
X-38853555Y-8901608D01*
X-38850976Y-8905816D01*
X-38696769Y-9086369D01*
X-38693013Y-9089577D01*
X-38673237Y-9106467D01*
X-38516216Y-9240576D01*
X-38512008Y-9243155D01*
X-38512002Y-9243159D01*
X-38317983Y-9362054D01*
X-38313763Y-9364640D01*
X-38309193Y-9366533D01*
X-38309189Y-9366535D01*
X-38098967Y-9453611D01*
X-38094394Y-9455505D01*
X-38024804Y-9472212D01*
X-37868324Y-9509780D01*
X-37868318Y-9509781D01*
X-37863511Y-9510935D01*
X-37626800Y-9529565D01*
X-37390089Y-9510935D01*
X-37385282Y-9509781D01*
X-37385276Y-9509780D01*
X-37228796Y-9472212D01*
X-37159206Y-9455505D01*
X-37154633Y-9453611D01*
X-36944411Y-9366535D01*
X-36944407Y-9366533D01*
X-36939837Y-9364640D01*
X-36935617Y-9362054D01*
X-36741598Y-9243159D01*
X-36741592Y-9243155D01*
X-36737384Y-9240576D01*
X-36580363Y-9106467D01*
X-36560587Y-9089577D01*
X-36556831Y-9086369D01*
X-36402624Y-8905816D01*
X-36400045Y-8901608D01*
X-36400041Y-8901602D01*
X-36281146Y-8707583D01*
X-36278560Y-8703363D01*
X-36187695Y-8483994D01*
X-36147391Y-8316116D01*
X-36133420Y-8257924D01*
X-36133419Y-8257918D01*
X-36132265Y-8253111D01*
X-36113635Y-8016400D01*
X-36132265Y-7779689D01*
X-36139608Y-7749100D01*
X-36186540Y-7553618D01*
X-36187695Y-7548806D01*
X-36250375Y-7397482D01*
X-36276665Y-7334011D01*
X-36276667Y-7334007D01*
X-36278560Y-7329437D01*
X-36281146Y-7325217D01*
X-36400041Y-7131198D01*
X-36400045Y-7131192D01*
X-36402624Y-7126984D01*
X-36556831Y-6946431D01*
X-36737384Y-6792224D01*
X-36741592Y-6789645D01*
X-36741598Y-6789641D01*
X-36935617Y-6670746D01*
X-36939837Y-6668160D01*
X-36944407Y-6666267D01*
X-36944411Y-6666265D01*
X-37154633Y-6579189D01*
X-37154635Y-6579188D01*
X-37159206Y-6577295D01*
X-37239409Y-6558040D01*
X-37385276Y-6523020D01*
X-37385282Y-6523019D01*
X-37390089Y-6521865D01*
X-37626800Y-6503235D01*
X-37863511Y-6521865D01*
X-37868318Y-6523019D01*
X-37868324Y-6523020D01*
X-38014191Y-6558040D01*
X-38094394Y-6577295D01*
X-38098965Y-6579188D01*
X-38098967Y-6579189D01*
X-38309189Y-6666265D01*
X-38309193Y-6666267D01*
X-38313763Y-6668160D01*
X-38317983Y-6670746D01*
X-38512002Y-6789641D01*
X-38512008Y-6789645D01*
X-38516216Y-6792224D01*
X-38696769Y-6946431D01*
X-38850976Y-7126984D01*
X-38853555Y-7131192D01*
X-38853559Y-7131198D01*
X-38972454Y-7325217D01*
X-38975040Y-7329437D01*
X-38976933Y-7334007D01*
X-38976935Y-7334011D01*
X-39003225Y-7397482D01*
X-39065905Y-7548806D01*
X-39067060Y-7553618D01*
X-39113991Y-7749100D01*
X-39121335Y-7779689D01*
X-39139965Y-8016400D01*
X-45478300Y-8016400D01*
X-45478300Y-1464534D01*
X-39135300Y-1464534D01*
X-39128545Y-1526716D01*
X-39077415Y-1663105D01*
X-38990061Y-1779661D01*
X-38873505Y-1867015D01*
X-38737116Y-1918145D01*
X-38674934Y-1924900D01*
X-36578666Y-1924900D01*
X-36516484Y-1918145D01*
X-36380095Y-1867015D01*
X-36263539Y-1779661D01*
X-36176185Y-1663105D01*
X-36125055Y-1526716D01*
X-36118300Y-1464534D01*
X-36118300Y-1350900D01*
X-36098298Y-1282779D01*
X-36044642Y-1236286D01*
X-35992300Y-1224900D01*
X-35021300Y-1224900D01*
X-34953179Y-1244902D01*
X-34906686Y-1298558D01*
X-34895300Y-1350900D01*
X-34895300Y-11065186D01*
X-34895307Y-11066506D01*
X-34896251Y-11156621D01*
X-34887089Y-11198997D01*
X-34885031Y-11211563D01*
X-34880197Y-11254655D01*
X-34877881Y-11261306D01*
X-34877880Y-11261310D01*
X-34869167Y-11286330D01*
X-34865004Y-11301142D01*
X-34857919Y-11333910D01*
X-34839592Y-11373213D01*
X-34834810Y-11384989D01*
X-34820545Y-11425952D01*
X-34816811Y-11431927D01*
X-34816810Y-11431930D01*
X-34802773Y-11454395D01*
X-34795434Y-11467912D01*
X-34784241Y-11491914D01*
X-34781262Y-11498302D01*
X-34776945Y-11503867D01*
X-34776944Y-11503869D01*
X-34754694Y-11532553D01*
X-34747398Y-11543012D01*
X-34728911Y-11572598D01*
X-34724426Y-11579776D01*
X-34719466Y-11584771D01*
X-34719465Y-11584772D01*
X-34695824Y-11608579D01*
X-34695239Y-11609204D01*
X-34694722Y-11609870D01*
X-34668732Y-11635860D01*
X-34596615Y-11708482D01*
X-34595578Y-11709140D01*
X-34594349Y-11710243D01*
X-33141034Y-13163558D01*
X-33140106Y-13164495D01*
X-33132854Y-13171900D01*
X-33077029Y-13228907D01*
X-33040579Y-13252398D01*
X-33030254Y-13259817D01*
X-32996357Y-13286876D01*
X-32990018Y-13289940D01*
X-32990014Y-13289943D01*
X-32966162Y-13301474D01*
X-32952749Y-13309001D01*
X-32930487Y-13323347D01*
X-32930484Y-13323348D01*
X-32924562Y-13327165D01*
X-32917943Y-13329574D01*
X-32917939Y-13329576D01*
X-32883827Y-13341992D01*
X-32872083Y-13346953D01*
X-32839401Y-13362752D01*
X-32839399Y-13362753D01*
X-32833052Y-13365821D01*
X-32816117Y-13369731D01*
X-32800373Y-13373366D01*
X-32785632Y-13377732D01*
X-32754115Y-13389203D01*
X-32747129Y-13390085D01*
X-32747123Y-13390087D01*
X-32711099Y-13394638D01*
X-32698547Y-13396874D01*
X-32663186Y-13405038D01*
X-32663183Y-13405038D01*
X-32656315Y-13406624D01*
X-32649269Y-13406649D01*
X-32649266Y-13406649D01*
X-32615744Y-13406766D01*
X-32614862Y-13406795D01*
X-32614031Y-13406900D01*
X-32577381Y-13406900D01*
X-32576941Y-13406901D01*
X-32478457Y-13407245D01*
X-32478452Y-13407245D01*
X-32474930Y-13407257D01*
X-32473730Y-13406989D01*
X-32472093Y-13406900D01*
X-32343642Y-13406900D01*
X-32275521Y-13426902D01*
X-32229028Y-13480558D01*
X-32218924Y-13550832D01*
X-32248418Y-13615412D01*
X-32290392Y-13647095D01*
X-32353562Y-13676551D01*
X-32353567Y-13676554D01*
X-32358549Y-13678877D01*
X-32463411Y-13752302D01*
X-32541589Y-13807043D01*
X-32541592Y-13807045D01*
X-32546100Y-13810202D01*
X-32707998Y-13972100D01*
X-32839323Y-14159651D01*
X-32841646Y-14164633D01*
X-32841649Y-14164638D01*
X-32852585Y-14188091D01*
X-32936084Y-14367157D01*
X-32937506Y-14372465D01*
X-32937507Y-14372467D01*
X-32958477Y-14450729D01*
X-32995343Y-14588313D01*
X-33015298Y-14816400D01*
X-32995343Y-15044487D01*
X-32993919Y-15049800D01*
X-32993919Y-15049802D01*
X-32937982Y-15258558D01*
X-32936084Y-15265643D01*
X-32933761Y-15270624D01*
X-32933761Y-15270625D01*
X-32841649Y-15468162D01*
X-32841646Y-15468167D01*
X-32839323Y-15473149D01*
X-32786114Y-15549139D01*
X-32712315Y-15654534D01*
X-32707998Y-15660700D01*
X-32546100Y-15822598D01*
X-32541592Y-15825755D01*
X-32541589Y-15825757D01*
X-32502532Y-15853105D01*
X-32358549Y-15953923D01*
X-32353567Y-15956246D01*
X-32353562Y-15956249D01*
X-32156025Y-16048361D01*
X-32151043Y-16050684D01*
X-32145735Y-16052106D01*
X-32145733Y-16052107D01*
X-31935202Y-16108519D01*
X-31935200Y-16108519D01*
X-31929887Y-16109943D01*
X-31701800Y-16129898D01*
X-31473713Y-16109943D01*
X-31468400Y-16108519D01*
X-31468398Y-16108519D01*
X-31257867Y-16052107D01*
X-31257865Y-16052106D01*
X-31252557Y-16050684D01*
X-31247575Y-16048361D01*
X-31050038Y-15956249D01*
X-31050033Y-15956246D01*
X-31045051Y-15953923D01*
X-30901068Y-15853105D01*
X-30862011Y-15825757D01*
X-30862008Y-15825755D01*
X-30857500Y-15822598D01*
X-30695602Y-15660700D01*
X-30691284Y-15654534D01*
X-30617486Y-15549139D01*
X-30564277Y-15473149D01*
X-30561954Y-15468167D01*
X-30561951Y-15468162D01*
X-30469839Y-15270625D01*
X-30469839Y-15270624D01*
X-30467516Y-15265643D01*
X-30465617Y-15258558D01*
X-30409681Y-15049802D01*
X-30409681Y-15049800D01*
X-30408257Y-15044487D01*
X-30388302Y-14816400D01*
X-30408257Y-14588313D01*
X-30445123Y-14450729D01*
X-30466093Y-14372467D01*
X-30466094Y-14372465D01*
X-30467516Y-14367157D01*
X-30551015Y-14188091D01*
X-30561951Y-14164638D01*
X-30561954Y-14164633D01*
X-30564277Y-14159651D01*
X-30695602Y-13972100D01*
X-30857500Y-13810202D01*
X-30862008Y-13807045D01*
X-30862011Y-13807043D01*
X-30940189Y-13752302D01*
X-31045051Y-13678877D01*
X-31050033Y-13676554D01*
X-31050038Y-13676551D01*
X-31113208Y-13647095D01*
X-31166493Y-13600178D01*
X-31185954Y-13531901D01*
X-31165412Y-13463941D01*
X-31111390Y-13417875D01*
X-31059958Y-13406900D01*
X-22183642Y-13406900D01*
X-22115521Y-13426902D01*
X-22069028Y-13480558D01*
X-22058924Y-13550832D01*
X-22088418Y-13615412D01*
X-22130392Y-13647095D01*
X-22193562Y-13676551D01*
X-22193567Y-13676554D01*
X-22198549Y-13678877D01*
X-22303411Y-13752302D01*
X-22381589Y-13807043D01*
X-22381592Y-13807045D01*
X-22386100Y-13810202D01*
X-22547998Y-13972100D01*
X-22679323Y-14159651D01*
X-22681646Y-14164633D01*
X-22681649Y-14164638D01*
X-22692585Y-14188091D01*
X-22776084Y-14367157D01*
X-22777506Y-14372465D01*
X-22777507Y-14372467D01*
X-22798477Y-14450729D01*
X-22835343Y-14588313D01*
X-22855298Y-14816400D01*
X-22835343Y-15044487D01*
X-22833919Y-15049800D01*
X-22833919Y-15049802D01*
X-22777982Y-15258558D01*
X-22776084Y-15265643D01*
X-22773761Y-15270624D01*
X-22773761Y-15270625D01*
X-22681649Y-15468162D01*
X-22681646Y-15468167D01*
X-22679323Y-15473149D01*
X-22626114Y-15549139D01*
X-22552315Y-15654534D01*
X-22547998Y-15660700D01*
X-22386100Y-15822598D01*
X-22381592Y-15825755D01*
X-22381589Y-15825757D01*
X-22342532Y-15853105D01*
X-22198549Y-15953923D01*
X-22193567Y-15956246D01*
X-22193562Y-15956249D01*
X-21996025Y-16048361D01*
X-21991043Y-16050684D01*
X-21985735Y-16052106D01*
X-21985733Y-16052107D01*
X-21775202Y-16108519D01*
X-21775200Y-16108519D01*
X-21769887Y-16109943D01*
X-21541800Y-16129898D01*
X-21313713Y-16109943D01*
X-21308400Y-16108519D01*
X-21308398Y-16108519D01*
X-21097867Y-16052107D01*
X-21097865Y-16052106D01*
X-21092557Y-16050684D01*
X-21087575Y-16048361D01*
X-20890038Y-15956249D01*
X-20890033Y-15956246D01*
X-20885051Y-15953923D01*
X-20741068Y-15853105D01*
X-20702011Y-15825757D01*
X-20702008Y-15825755D01*
X-20697500Y-15822598D01*
X-20535602Y-15660700D01*
X-20531284Y-15654534D01*
X-20457486Y-15549139D01*
X-20404277Y-15473149D01*
X-20401954Y-15468167D01*
X-20401951Y-15468162D01*
X-20309839Y-15270625D01*
X-20309839Y-15270624D01*
X-20307516Y-15265643D01*
X-20305617Y-15258558D01*
X-20249681Y-15049802D01*
X-20249681Y-15049800D01*
X-20248257Y-15044487D01*
X-20228302Y-14816400D01*
X-20248257Y-14588313D01*
X-20285123Y-14450729D01*
X-20306093Y-14372467D01*
X-20306094Y-14372465D01*
X-20307516Y-14367157D01*
X-20391015Y-14188091D01*
X-20401951Y-14164638D01*
X-20401954Y-14164633D01*
X-20404277Y-14159651D01*
X-20535602Y-13972100D01*
X-20697500Y-13810202D01*
X-20702008Y-13807045D01*
X-20702011Y-13807043D01*
X-20780189Y-13752302D01*
X-20885051Y-13678877D01*
X-20890033Y-13676554D01*
X-20890038Y-13676551D01*
X-20953208Y-13647095D01*
X-21006493Y-13600178D01*
X-21025954Y-13531901D01*
X-21005412Y-13463941D01*
X-20951390Y-13417875D01*
X-20899958Y-13406900D01*
X-6279882Y-13406900D01*
X-6211761Y-13426902D01*
X-6190787Y-13443805D01*
X-4693128Y-14941463D01*
X-4692199Y-14942400D01*
X-4667611Y-14967508D01*
X-4629029Y-15006907D01*
X-4623110Y-15010722D01*
X-4623102Y-15010728D01*
X-4592586Y-15030394D01*
X-4582241Y-15037827D01*
X-4548357Y-15064876D01*
X-4542018Y-15067940D01*
X-4542017Y-15067941D01*
X-4518163Y-15079472D01*
X-4504746Y-15087001D01*
X-4476562Y-15105165D01*
X-4469945Y-15107573D01*
X-4469940Y-15107576D01*
X-4435827Y-15119992D01*
X-4424084Y-15124953D01*
X-4391400Y-15140753D01*
X-4391391Y-15140756D01*
X-4385051Y-15143821D01*
X-4378186Y-15145406D01*
X-4352372Y-15151366D01*
X-4337632Y-15155732D01*
X-4306115Y-15167203D01*
X-4299130Y-15168085D01*
X-4299123Y-15168087D01*
X-4263108Y-15172637D01*
X-4250557Y-15174872D01*
X-4208315Y-15184625D01*
X-4201271Y-15184650D01*
X-4201267Y-15184650D01*
X-4167726Y-15184767D01*
X-4166857Y-15184796D01*
X-4166031Y-15184900D01*
X-4129667Y-15184900D01*
X-4129227Y-15184901D01*
X-4030464Y-15185246D01*
X-4030458Y-15185246D01*
X-4026930Y-15185258D01*
X-4025727Y-15184989D01*
X-4024083Y-15184900D01*
X2033909Y-15184900D01*
X2102030Y-15204902D01*
X2148523Y-15258558D01*
X2159172Y-15297292D01*
X2163455Y-15336716D01*
X2214585Y-15473105D01*
X2301939Y-15589661D01*
X2418495Y-15677015D01*
X2554884Y-15728145D01*
X2617066Y-15734900D01*
X4413334Y-15734900D01*
X4475516Y-15728145D01*
X4611905Y-15677015D01*
X4728461Y-15589661D01*
X4815815Y-15473105D01*
X4837999Y-15413929D01*
X4859798Y-15355782D01*
X4902440Y-15299018D01*
X4969002Y-15274318D01*
X5038350Y-15289526D01*
X5073017Y-15317514D01*
X5101450Y-15350338D01*
X5273326Y-15493032D01*
X5466200Y-15605738D01*
X5674892Y-15685430D01*
X5679960Y-15686461D01*
X5679963Y-15686462D01*
X5775062Y-15705810D01*
X5893797Y-15729967D01*
X5898972Y-15730157D01*
X5898974Y-15730157D01*
X6111873Y-15737964D01*
X6111877Y-15737964D01*
X6117037Y-15738153D01*
X6122157Y-15737497D01*
X6122159Y-15737497D01*
X6333488Y-15710425D01*
X6333489Y-15710425D01*
X6338616Y-15709768D01*
X6343566Y-15708283D01*
X6547629Y-15647061D01*
X6547634Y-15647059D01*
X6552584Y-15645574D01*
X6753194Y-15547296D01*
X6935060Y-15417573D01*
X7093296Y-15259889D01*
X7134970Y-15201894D01*
X7223653Y-15078477D01*
X7224976Y-15079428D01*
X7271845Y-15036257D01*
X7341780Y-15024025D01*
X7407226Y-15051544D01*
X7435075Y-15083394D01*
X7495187Y-15181488D01*
X7641450Y-15350338D01*
X7813326Y-15493032D01*
X8006200Y-15605738D01*
X8214892Y-15685430D01*
X8219960Y-15686461D01*
X8219963Y-15686462D01*
X8315062Y-15705810D01*
X8433797Y-15729967D01*
X8438972Y-15730157D01*
X8438974Y-15730157D01*
X8651873Y-15737964D01*
X8651877Y-15737964D01*
X8657037Y-15738153D01*
X8662157Y-15737497D01*
X8662159Y-15737497D01*
X8873488Y-15710425D01*
X8873489Y-15710425D01*
X8878616Y-15709768D01*
X8883566Y-15708283D01*
X9087629Y-15647061D01*
X9087634Y-15647059D01*
X9092584Y-15645574D01*
X9293194Y-15547296D01*
X9475060Y-15417573D01*
X9633296Y-15259889D01*
X9674970Y-15201894D01*
X9763653Y-15078477D01*
X9764840Y-15079330D01*
X9812160Y-15035762D01*
X9882097Y-15023545D01*
X9947538Y-15051078D01*
X9975366Y-15082911D01*
X10032894Y-15176788D01*
X10038977Y-15185099D01*
X10178413Y-15346067D01*
X10185780Y-15353283D01*
X10349634Y-15489316D01*
X10358081Y-15495231D01*
X10541956Y-15602679D01*
X10551242Y-15607129D01*
X10750201Y-15683103D01*
X10760099Y-15685979D01*
X10863450Y-15707006D01*
X10877499Y-15705810D01*
X10881200Y-15695465D01*
X10881200Y-15694917D01*
X11389200Y-15694917D01*
X11393264Y-15708759D01*
X11406678Y-15710793D01*
X11413384Y-15709934D01*
X11423462Y-15707792D01*
X11627455Y-15646591D01*
X11637042Y-15642833D01*
X11828295Y-15549139D01*
X11837145Y-15543864D01*
X12010528Y-15420192D01*
X12018400Y-15413539D01*
X12169252Y-15263212D01*
X12175930Y-15255365D01*
X12300203Y-15082420D01*
X12305513Y-15073583D01*
X12307020Y-15070534D01*
X16315700Y-15070534D01*
X16322455Y-15132716D01*
X16373585Y-15269105D01*
X16460939Y-15385661D01*
X16577495Y-15473015D01*
X16713884Y-15524145D01*
X16776066Y-15530900D01*
X18672334Y-15530900D01*
X18734516Y-15524145D01*
X18870905Y-15473015D01*
X18987461Y-15385661D01*
X19074815Y-15269105D01*
X19099380Y-15203578D01*
X19142022Y-15146814D01*
X19208583Y-15122114D01*
X19277932Y-15137321D01*
X19297847Y-15150864D01*
X19448925Y-15276291D01*
X19453549Y-15280130D01*
X19653522Y-15396984D01*
X19658347Y-15398826D01*
X19658348Y-15398827D01*
X19707439Y-15417573D01*
X19869894Y-15479609D01*
X19874960Y-15480640D01*
X19874961Y-15480640D01*
X19917605Y-15489316D01*
X20096856Y-15525785D01*
X20226289Y-15530531D01*
X20323149Y-15534083D01*
X20323153Y-15534083D01*
X20328313Y-15534272D01*
X20333433Y-15533616D01*
X20333435Y-15533616D01*
X20407366Y-15524145D01*
X20558047Y-15504842D01*
X20562995Y-15503357D01*
X20563002Y-15503356D01*
X20774947Y-15439769D01*
X20779890Y-15438286D01*
X20822171Y-15417573D01*
X20983249Y-15338662D01*
X20983252Y-15338660D01*
X20987884Y-15336391D01*
X21176443Y-15201894D01*
X21340503Y-15038405D01*
X21346260Y-15030394D01*
X21393340Y-14964875D01*
X21475658Y-14850317D01*
X21578278Y-14642680D01*
X21645608Y-14421071D01*
X21675840Y-14191441D01*
X21677527Y-14122400D01*
X21671133Y-14044633D01*
X21658973Y-13896718D01*
X21658972Y-13896712D01*
X21658549Y-13891567D01*
X21630337Y-13779250D01*
X21603384Y-13671944D01*
X21603383Y-13671940D01*
X21602125Y-13666933D01*
X21559153Y-13568103D01*
X21511830Y-13459268D01*
X21511828Y-13459265D01*
X21509770Y-13454531D01*
X21383964Y-13260065D01*
X21366615Y-13240998D01*
X21296607Y-13164061D01*
X21228087Y-13088758D01*
X21224036Y-13085559D01*
X21224032Y-13085555D01*
X21050377Y-12948411D01*
X21050372Y-12948408D01*
X21046323Y-12945210D01*
X21041807Y-12942717D01*
X21041804Y-12942715D01*
X20848079Y-12835773D01*
X20848075Y-12835771D01*
X20843555Y-12833276D01*
X20838686Y-12831552D01*
X20838682Y-12831550D01*
X20630103Y-12757688D01*
X20630099Y-12757687D01*
X20625228Y-12755962D01*
X20620135Y-12755055D01*
X20620132Y-12755054D01*
X20402295Y-12716251D01*
X20402289Y-12716250D01*
X20397206Y-12715345D01*
X20324296Y-12714454D01*
X20170781Y-12712579D01*
X20170779Y-12712579D01*
X20165611Y-12712516D01*
X19936664Y-12747550D01*
X19716514Y-12819506D01*
X19711926Y-12821894D01*
X19711922Y-12821896D01*
X19515661Y-12924063D01*
X19511072Y-12926452D01*
X19506939Y-12929555D01*
X19506936Y-12929557D01*
X19343257Y-13052451D01*
X19325855Y-13065517D01*
X19308370Y-13083814D01*
X19246846Y-13119244D01*
X19175933Y-13115787D01*
X19118147Y-13074541D01*
X19099294Y-13040992D01*
X19077968Y-12984105D01*
X19077967Y-12984103D01*
X19074815Y-12975695D01*
X18987461Y-12859139D01*
X18870905Y-12771785D01*
X18734516Y-12720655D01*
X18672334Y-12713900D01*
X16776066Y-12713900D01*
X16713884Y-12720655D01*
X16577495Y-12771785D01*
X16460939Y-12859139D01*
X16373585Y-12975695D01*
X16322455Y-13112084D01*
X16315700Y-13174266D01*
X16315700Y-15070534D01*
X12307020Y-15070534D01*
X12399870Y-14882667D01*
X12403669Y-14873072D01*
X12465577Y-14669310D01*
X12467755Y-14659237D01*
X12469186Y-14648362D01*
X12466975Y-14634178D01*
X12453817Y-14630400D01*
X11407315Y-14630400D01*
X11392076Y-14634875D01*
X11390871Y-14636265D01*
X11389200Y-14643948D01*
X11389200Y-15694917D01*
X10881200Y-15694917D01*
X10881200Y-14104285D01*
X11389200Y-14104285D01*
X11393675Y-14119524D01*
X11395065Y-14120729D01*
X11402748Y-14122400D01*
X12453544Y-14122400D01*
X12467075Y-14118427D01*
X12468380Y-14109347D01*
X12426414Y-13942275D01*
X12423094Y-13932524D01*
X12338172Y-13737214D01*
X12333305Y-13728139D01*
X12217626Y-13549326D01*
X12211336Y-13541157D01*
X12068006Y-13383640D01*
X12060473Y-13376615D01*
X11893339Y-13244622D01*
X11884752Y-13238917D01*
X11698317Y-13135999D01*
X11688905Y-13131769D01*
X11488159Y-13060680D01*
X11478188Y-13058046D01*
X11407037Y-13045372D01*
X11393740Y-13046832D01*
X11389200Y-13061389D01*
X11389200Y-14104285D01*
X10881200Y-14104285D01*
X10881200Y-13059502D01*
X10877282Y-13046158D01*
X10863006Y-13044171D01*
X10824524Y-13050060D01*
X10814488Y-13052451D01*
X10612068Y-13118612D01*
X10602559Y-13122609D01*
X10413663Y-13220942D01*
X10404938Y-13226436D01*
X10234633Y-13354305D01*
X10226926Y-13361148D01*
X10079790Y-13515117D01*
X10073309Y-13523122D01*
X9968698Y-13676474D01*
X9913787Y-13721476D01*
X9843262Y-13729647D01*
X9779515Y-13698393D01*
X9758818Y-13673909D01*
X9678022Y-13549017D01*
X9678020Y-13549014D01*
X9675214Y-13544677D01*
X9524870Y-13379451D01*
X9520819Y-13376252D01*
X9520815Y-13376248D01*
X9353614Y-13244200D01*
X9353610Y-13244198D01*
X9349559Y-13240998D01*
X9335006Y-13232964D01*
X9297336Y-13212169D01*
X9153989Y-13133038D01*
X9149120Y-13131314D01*
X9149116Y-13131312D01*
X8948287Y-13060195D01*
X8948283Y-13060194D01*
X8943412Y-13058469D01*
X8938319Y-13057562D01*
X8938316Y-13057561D01*
X8728573Y-13020200D01*
X8728567Y-13020199D01*
X8723484Y-13019294D01*
X8652970Y-13018433D01*
X8505282Y-13016628D01*
X8505280Y-13016628D01*
X8500111Y-13016565D01*
X8482688Y-13019231D01*
X8457912Y-13023022D01*
X8387549Y-13013554D01*
X8349759Y-12987567D01*
X6379434Y-11017242D01*
X6378506Y-11016305D01*
X6320357Y-10956925D01*
X6320356Y-10956924D01*
X6315429Y-10951893D01*
X6278979Y-10928402D01*
X6268654Y-10920983D01*
X6234757Y-10893924D01*
X6204562Y-10879327D01*
X6191145Y-10871798D01*
X6162962Y-10853635D01*
X6156345Y-10851227D01*
X6156340Y-10851224D01*
X6122227Y-10838808D01*
X6110484Y-10833847D01*
X6077797Y-10818046D01*
X6077792Y-10818044D01*
X6071451Y-10814979D01*
X6064593Y-10813396D01*
X6064591Y-10813395D01*
X6038774Y-10807435D01*
X6024031Y-10803068D01*
X5992515Y-10791597D01*
X5985525Y-10790714D01*
X5985517Y-10790712D01*
X5949499Y-10786162D01*
X5936947Y-10783926D01*
X5901586Y-10775762D01*
X5901583Y-10775762D01*
X5894715Y-10774176D01*
X5887669Y-10774151D01*
X5887666Y-10774151D01*
X5854144Y-10774034D01*
X5853262Y-10774005D01*
X5852431Y-10773900D01*
X5815781Y-10773900D01*
X5815341Y-10773899D01*
X5716857Y-10773555D01*
X5716852Y-10773555D01*
X5713330Y-10773543D01*
X5712130Y-10773811D01*
X5710493Y-10773900D01*
X5681556Y-10773900D01*
X5613435Y-10753898D01*
X5566942Y-10700242D01*
X5556838Y-10629968D01*
X5586332Y-10565388D01*
X5615721Y-10540467D01*
X5634320Y-10529070D01*
X8390924Y-10529070D01*
X8396651Y-10536720D01*
X8567806Y-10641605D01*
X8576601Y-10646087D01*
X8786752Y-10733134D01*
X8796137Y-10736183D01*
X9017318Y-10789285D01*
X9027065Y-10790828D01*
X9253834Y-10808675D01*
X9263694Y-10808675D01*
X9490463Y-10790828D01*
X9500210Y-10789285D01*
X9721391Y-10736183D01*
X9730776Y-10733134D01*
X9940927Y-10646087D01*
X9949722Y-10641605D01*
X10117209Y-10538968D01*
X10126671Y-10528510D01*
X10122888Y-10519734D01*
X9271576Y-9668422D01*
X9257632Y-9660808D01*
X9255799Y-9660939D01*
X9249184Y-9665190D01*
X8397684Y-10516690D01*
X8390924Y-10529070D01*
X5634320Y-10529070D01*
X5643966Y-10523159D01*
X5643972Y-10523155D01*
X5648180Y-10520576D01*
X5828733Y-10366369D01*
X5982940Y-10185816D01*
X5985519Y-10181608D01*
X5985523Y-10181602D01*
X6104418Y-9987583D01*
X6107004Y-9983363D01*
X6108993Y-9978563D01*
X6195975Y-9768567D01*
X6195976Y-9768565D01*
X6197869Y-9763994D01*
X6222642Y-9660808D01*
X6252144Y-9537924D01*
X6252145Y-9537918D01*
X6253299Y-9533111D01*
X6271541Y-9301330D01*
X7746489Y-9301330D01*
X7764336Y-9528099D01*
X7765879Y-9537846D01*
X7818981Y-9759027D01*
X7822030Y-9768412D01*
X7909077Y-9978563D01*
X7913559Y-9987358D01*
X8016196Y-10154845D01*
X8026654Y-10164307D01*
X8035430Y-10160524D01*
X8886742Y-9309212D01*
X8893120Y-9297532D01*
X9623172Y-9297532D01*
X9623303Y-9299365D01*
X9627554Y-9305980D01*
X10479054Y-10157480D01*
X10491434Y-10164240D01*
X10499084Y-10158513D01*
X10603969Y-9987358D01*
X10608451Y-9978563D01*
X10695498Y-9768412D01*
X10698547Y-9759027D01*
X10748635Y-9550400D01*
X12859702Y-9550400D01*
X12879657Y-9778487D01*
X12881081Y-9783800D01*
X12881081Y-9783802D01*
X12935685Y-9987583D01*
X12938916Y-9999643D01*
X12941239Y-10004624D01*
X12941239Y-10004625D01*
X13033351Y-10202162D01*
X13033354Y-10202167D01*
X13035677Y-10207149D01*
X13038834Y-10211657D01*
X13149411Y-10369577D01*
X13167002Y-10394700D01*
X13328900Y-10556598D01*
X13333408Y-10559755D01*
X13333411Y-10559757D01*
X13411589Y-10614498D01*
X13516451Y-10687923D01*
X13521433Y-10690246D01*
X13521438Y-10690249D01*
X13718975Y-10782361D01*
X13723957Y-10784684D01*
X13729265Y-10786106D01*
X13729267Y-10786107D01*
X13939798Y-10842519D01*
X13939800Y-10842519D01*
X13945113Y-10843943D01*
X14173200Y-10863898D01*
X14401287Y-10843943D01*
X14406600Y-10842519D01*
X14406602Y-10842519D01*
X14617133Y-10786107D01*
X14617135Y-10786106D01*
X14622443Y-10784684D01*
X14627425Y-10782361D01*
X14824962Y-10690249D01*
X14824967Y-10690246D01*
X14829949Y-10687923D01*
X14934811Y-10614498D01*
X15012989Y-10559757D01*
X15012992Y-10559755D01*
X15017500Y-10556598D01*
X15179398Y-10394700D01*
X15196990Y-10369577D01*
X15307566Y-10211657D01*
X15310723Y-10207149D01*
X15313046Y-10202167D01*
X15313049Y-10202162D01*
X15405161Y-10004625D01*
X15405161Y-10004624D01*
X15407484Y-9999643D01*
X15410716Y-9987583D01*
X15465319Y-9783802D01*
X15465319Y-9783800D01*
X15466743Y-9778487D01*
X15486698Y-9550400D01*
X15466743Y-9322313D01*
X15445534Y-9243159D01*
X15408907Y-9106467D01*
X15408906Y-9106465D01*
X15407484Y-9101157D01*
X15398837Y-9082613D01*
X15313049Y-8898638D01*
X15313046Y-8898633D01*
X15310723Y-8893651D01*
X15179398Y-8706100D01*
X15017500Y-8544202D01*
X15012992Y-8541045D01*
X15012989Y-8541043D01*
X14865764Y-8437955D01*
X14829949Y-8412877D01*
X14824967Y-8410554D01*
X14824962Y-8410551D01*
X14627425Y-8318439D01*
X14627424Y-8318439D01*
X14622443Y-8316116D01*
X14617135Y-8314694D01*
X14617133Y-8314693D01*
X14406602Y-8258281D01*
X14406600Y-8258281D01*
X14401287Y-8256857D01*
X14173200Y-8236902D01*
X13945113Y-8256857D01*
X13939800Y-8258281D01*
X13939798Y-8258281D01*
X13729267Y-8314693D01*
X13729265Y-8314694D01*
X13723957Y-8316116D01*
X13718976Y-8318439D01*
X13718975Y-8318439D01*
X13521438Y-8410551D01*
X13521433Y-8410554D01*
X13516451Y-8412877D01*
X13480636Y-8437955D01*
X13333411Y-8541043D01*
X13333408Y-8541045D01*
X13328900Y-8544202D01*
X13167002Y-8706100D01*
X13035677Y-8893651D01*
X13033354Y-8898633D01*
X13033351Y-8898638D01*
X12947563Y-9082613D01*
X12938916Y-9101157D01*
X12937494Y-9106465D01*
X12937493Y-9106467D01*
X12900866Y-9243159D01*
X12879657Y-9322313D01*
X12859702Y-9550400D01*
X10748635Y-9550400D01*
X10751649Y-9537846D01*
X10753192Y-9528099D01*
X10771039Y-9301330D01*
X10771039Y-9291470D01*
X10753192Y-9064701D01*
X10751649Y-9054954D01*
X10698547Y-8833773D01*
X10695498Y-8824388D01*
X10608451Y-8614237D01*
X10603969Y-8605442D01*
X10501332Y-8437955D01*
X10490874Y-8428493D01*
X10482098Y-8432276D01*
X9630786Y-9283588D01*
X9623172Y-9297532D01*
X8893120Y-9297532D01*
X8894356Y-9295268D01*
X8894225Y-9293435D01*
X8889974Y-9286820D01*
X8038474Y-8435320D01*
X8026094Y-8428560D01*
X8018444Y-8434287D01*
X7913559Y-8605442D01*
X7909077Y-8614237D01*
X7822030Y-8824388D01*
X7818981Y-8833773D01*
X7765879Y-9054954D01*
X7764336Y-9064701D01*
X7746489Y-9291470D01*
X7746489Y-9301330D01*
X6271541Y-9301330D01*
X6271929Y-9296400D01*
X6253299Y-9059689D01*
X6197869Y-8828806D01*
X6195975Y-8824233D01*
X6108899Y-8614011D01*
X6108897Y-8614007D01*
X6107004Y-8609437D01*
X6065092Y-8541043D01*
X5985523Y-8411198D01*
X5985519Y-8411192D01*
X5982940Y-8406984D01*
X5828733Y-8226431D01*
X5648180Y-8072224D01*
X5635233Y-8064290D01*
X8390857Y-8064290D01*
X8394640Y-8073066D01*
X9245952Y-8924378D01*
X9259896Y-8931992D01*
X9261729Y-8931861D01*
X9268344Y-8927610D01*
X10119844Y-8076110D01*
X10126604Y-8063730D01*
X10120877Y-8056080D01*
X9949722Y-7951195D01*
X9940927Y-7946713D01*
X9730776Y-7859666D01*
X9721391Y-7856617D01*
X9500210Y-7803515D01*
X9490463Y-7801972D01*
X9263694Y-7784125D01*
X9253834Y-7784125D01*
X9027065Y-7801972D01*
X9017318Y-7803515D01*
X8796137Y-7856617D01*
X8786752Y-7859666D01*
X8576601Y-7946713D01*
X8567806Y-7951195D01*
X8400319Y-8053832D01*
X8390857Y-8064290D01*
X5635233Y-8064290D01*
X5627428Y-8059507D01*
X5579798Y-8006862D01*
X5567264Y-7952076D01*
X5567264Y-4140724D01*
X5587266Y-4072603D01*
X5627428Y-4033293D01*
X5634319Y-4029070D01*
X8390924Y-4029070D01*
X8396651Y-4036720D01*
X8567806Y-4141605D01*
X8576601Y-4146087D01*
X8786752Y-4233134D01*
X8796137Y-4236183D01*
X9017318Y-4289285D01*
X9027065Y-4290828D01*
X9253834Y-4308675D01*
X9263694Y-4308675D01*
X9490463Y-4290828D01*
X9500210Y-4289285D01*
X9721391Y-4236183D01*
X9730776Y-4233134D01*
X9940927Y-4146087D01*
X9949722Y-4141605D01*
X10117209Y-4038968D01*
X10126671Y-4028510D01*
X10122888Y-4019734D01*
X9271576Y-3168422D01*
X9257632Y-3160808D01*
X9255799Y-3160939D01*
X9249184Y-3165190D01*
X8397684Y-4016690D01*
X8390924Y-4029070D01*
X5634319Y-4029070D01*
X5648180Y-4020576D01*
X5761675Y-3923642D01*
X5824977Y-3869577D01*
X5828733Y-3866369D01*
X5982940Y-3685816D01*
X5985519Y-3681608D01*
X5985523Y-3681602D01*
X6104418Y-3487583D01*
X6107004Y-3483363D01*
X6108993Y-3478563D01*
X6195975Y-3268567D01*
X6195976Y-3268565D01*
X6197869Y-3263994D01*
X6253299Y-3033111D01*
X6271541Y-2801330D01*
X7746489Y-2801330D01*
X7764336Y-3028099D01*
X7765879Y-3037846D01*
X7818981Y-3259027D01*
X7822030Y-3268412D01*
X7909077Y-3478563D01*
X7913559Y-3487358D01*
X8016196Y-3654845D01*
X8026654Y-3664307D01*
X8035430Y-3660524D01*
X8886742Y-2809212D01*
X8893120Y-2797532D01*
X9623172Y-2797532D01*
X9623303Y-2799365D01*
X9627554Y-2805980D01*
X10479054Y-3657480D01*
X10491434Y-3664240D01*
X10499084Y-3658513D01*
X10603969Y-3487358D01*
X10608451Y-3478563D01*
X10695498Y-3268412D01*
X10698547Y-3259027D01*
X10751649Y-3037846D01*
X10753192Y-3028099D01*
X10762243Y-2913095D01*
X18906451Y-2913095D01*
X18906748Y-2918248D01*
X18906748Y-2918251D01*
X18912065Y-3010467D01*
X18919310Y-3136115D01*
X18920447Y-3141161D01*
X18920448Y-3141167D01*
X18938439Y-3220998D01*
X18968422Y-3354039D01*
X19052466Y-3561016D01*
X19055165Y-3565420D01*
X19115722Y-3664240D01*
X19169187Y-3751488D01*
X19315450Y-3920338D01*
X19319430Y-3923642D01*
X19324181Y-3927587D01*
X19363816Y-3986490D01*
X19365313Y-4057471D01*
X19328197Y-4117993D01*
X19287925Y-4142512D01*
X19191951Y-4178491D01*
X19172495Y-4185785D01*
X19055939Y-4273139D01*
X18968585Y-4389695D01*
X18917455Y-4526084D01*
X18910700Y-4588266D01*
X18910700Y-6384534D01*
X18917455Y-6446716D01*
X18968585Y-6583105D01*
X19055939Y-6699661D01*
X19172495Y-6787015D01*
X19308884Y-6838145D01*
X19371066Y-6844900D01*
X21167334Y-6844900D01*
X21229516Y-6838145D01*
X21365905Y-6787015D01*
X21482461Y-6699661D01*
X21569815Y-6583105D01*
X21620945Y-6446716D01*
X21627700Y-6384534D01*
X21627700Y-4588266D01*
X21620945Y-4526084D01*
X21569815Y-4389695D01*
X21482461Y-4273139D01*
X21365905Y-4185785D01*
X21353332Y-4181072D01*
X21247403Y-4141360D01*
X21190639Y-4098718D01*
X21165939Y-4032156D01*
X21181147Y-3962808D01*
X21202693Y-3934127D01*
X21303635Y-3833537D01*
X21307296Y-3829889D01*
X21315259Y-3818808D01*
X21434635Y-3652677D01*
X21437653Y-3648477D01*
X21498662Y-3525035D01*
X21534336Y-3452853D01*
X21534337Y-3452851D01*
X21536630Y-3448211D01*
X21601570Y-3234469D01*
X21630729Y-3012990D01*
X21630811Y-3009640D01*
X21632274Y-2949765D01*
X21632274Y-2949761D01*
X21632356Y-2946400D01*
X21614052Y-2723761D01*
X21559631Y-2507102D01*
X21470554Y-2302240D01*
X21416505Y-2218693D01*
X21352022Y-2119017D01*
X21352020Y-2119014D01*
X21349214Y-2114677D01*
X21198870Y-1949451D01*
X21194819Y-1946252D01*
X21194815Y-1946248D01*
X21027614Y-1814200D01*
X21027610Y-1814198D01*
X21023559Y-1810998D01*
X20981769Y-1787929D01*
X20931798Y-1737497D01*
X20917026Y-1668054D01*
X20942142Y-1601648D01*
X20969494Y-1575041D01*
X21144528Y-1450192D01*
X21152400Y-1443539D01*
X21303252Y-1293212D01*
X21309930Y-1285365D01*
X21434203Y-1112420D01*
X21439513Y-1103583D01*
X21533870Y-912667D01*
X21537669Y-903072D01*
X21599577Y-699310D01*
X21601755Y-689237D01*
X21603186Y-678362D01*
X21600975Y-664178D01*
X21587817Y-660400D01*
X18952425Y-660400D01*
X18938894Y-664373D01*
X18937457Y-674366D01*
X18967765Y-808846D01*
X18970845Y-818675D01*
X19050970Y-1016003D01*
X19055613Y-1025194D01*
X19166894Y-1206788D01*
X19172977Y-1215099D01*
X19312413Y-1376067D01*
X19319780Y-1383283D01*
X19483634Y-1519316D01*
X19492081Y-1525231D01*
X19561169Y-1565603D01*
X19609893Y-1617242D01*
X19622964Y-1687025D01*
X19596233Y-1752796D01*
X19555784Y-1786152D01*
X19542807Y-1792907D01*
X19538674Y-1796010D01*
X19538671Y-1796012D01*
X19379700Y-1915371D01*
X19364165Y-1927035D01*
X19209829Y-2088538D01*
X19206915Y-2092810D01*
X19206914Y-2092811D01*
X19160823Y-2160378D01*
X19083943Y-2273080D01*
X19053802Y-2338014D01*
X19010240Y-2431861D01*
X18989888Y-2475705D01*
X18930189Y-2690970D01*
X18906451Y-2913095D01*
X10762243Y-2913095D01*
X10771039Y-2801330D01*
X10771039Y-2791470D01*
X10753192Y-2564701D01*
X10751649Y-2554954D01*
X10698547Y-2333773D01*
X10695498Y-2324388D01*
X10608451Y-2114237D01*
X10603969Y-2105442D01*
X10501332Y-1937955D01*
X10490874Y-1928493D01*
X10482098Y-1932276D01*
X9630786Y-2783588D01*
X9623172Y-2797532D01*
X8893120Y-2797532D01*
X8894356Y-2795268D01*
X8894225Y-2793435D01*
X8889974Y-2786820D01*
X8038474Y-1935320D01*
X8026094Y-1928560D01*
X8018444Y-1934287D01*
X7913559Y-2105442D01*
X7909077Y-2114237D01*
X7822030Y-2324388D01*
X7818981Y-2333773D01*
X7765879Y-2554954D01*
X7764336Y-2564701D01*
X7746489Y-2791470D01*
X7746489Y-2801330D01*
X6271541Y-2801330D01*
X6271929Y-2796400D01*
X6253299Y-2559689D01*
X6245660Y-2527867D01*
X6211881Y-2387169D01*
X6197869Y-2328806D01*
X6192145Y-2314986D01*
X6108899Y-2114011D01*
X6108897Y-2114007D01*
X6107004Y-2109437D01*
X6065663Y-2041975D01*
X5985523Y-1911198D01*
X5985519Y-1911192D01*
X5982940Y-1906984D01*
X5828733Y-1726431D01*
X5648180Y-1572224D01*
X5643972Y-1569645D01*
X5643966Y-1569641D01*
X5635234Y-1564290D01*
X8390857Y-1564290D01*
X8394640Y-1573066D01*
X9245952Y-2424378D01*
X9259896Y-2431992D01*
X9261729Y-2431861D01*
X9268344Y-2427610D01*
X10119844Y-1576110D01*
X10126604Y-1563730D01*
X10120877Y-1556080D01*
X9949722Y-1451195D01*
X9940927Y-1446713D01*
X9730776Y-1359666D01*
X9721391Y-1356617D01*
X9500210Y-1303515D01*
X9490463Y-1301972D01*
X9263694Y-1284125D01*
X9253834Y-1284125D01*
X9027065Y-1301972D01*
X9017318Y-1303515D01*
X8796137Y-1356617D01*
X8786752Y-1359666D01*
X8576601Y-1446713D01*
X8567806Y-1451195D01*
X8400319Y-1553832D01*
X8390857Y-1564290D01*
X5635234Y-1564290D01*
X5449947Y-1450746D01*
X5445727Y-1448160D01*
X5441157Y-1446267D01*
X5441153Y-1446265D01*
X5230931Y-1359189D01*
X5230929Y-1359188D01*
X5226358Y-1357295D01*
X5146155Y-1338040D01*
X5000288Y-1303020D01*
X5000282Y-1303019D01*
X4995475Y-1301865D01*
X4758764Y-1283235D01*
X4522053Y-1301865D01*
X4517246Y-1303019D01*
X4517240Y-1303020D01*
X4371373Y-1338040D01*
X4291170Y-1357295D01*
X4286599Y-1359188D01*
X4286597Y-1359189D01*
X4076375Y-1446265D01*
X4076371Y-1446267D01*
X4071801Y-1448160D01*
X4067581Y-1450746D01*
X3873562Y-1569641D01*
X3873556Y-1569645D01*
X3869348Y-1572224D01*
X3688795Y-1726431D01*
X3534588Y-1906984D01*
X3532009Y-1911192D01*
X3532005Y-1911198D01*
X3451865Y-2041975D01*
X3410524Y-2109437D01*
X3408631Y-2114007D01*
X3408629Y-2114011D01*
X3325383Y-2314986D01*
X3319659Y-2328806D01*
X3305647Y-2387169D01*
X3271869Y-2527867D01*
X3264229Y-2559689D01*
X3245599Y-2796400D01*
X3264229Y-3033111D01*
X3319659Y-3263994D01*
X3321552Y-3268565D01*
X3321553Y-3268567D01*
X3408536Y-3478563D01*
X3410524Y-3483363D01*
X3413110Y-3487583D01*
X3532005Y-3681602D01*
X3532009Y-3681608D01*
X3534588Y-3685816D01*
X3688795Y-3866369D01*
X3692551Y-3869577D01*
X3755853Y-3923642D01*
X3869348Y-4020576D01*
X3890100Y-4033293D01*
X3937730Y-4085938D01*
X3950264Y-4140724D01*
X3950264Y-7952076D01*
X3930262Y-8020197D01*
X3890100Y-8059507D01*
X3869348Y-8072224D01*
X3688795Y-8226431D01*
X3534588Y-8406984D01*
X3532009Y-8411192D01*
X3532005Y-8411198D01*
X3452436Y-8541043D01*
X3410524Y-8609437D01*
X3408631Y-8614007D01*
X3408629Y-8614011D01*
X3321553Y-8824233D01*
X3319659Y-8828806D01*
X3264229Y-9059689D01*
X3245599Y-9296400D01*
X3264229Y-9533111D01*
X3265383Y-9537918D01*
X3265384Y-9537924D01*
X3294886Y-9660808D01*
X3319659Y-9763994D01*
X3321552Y-9768565D01*
X3321553Y-9768567D01*
X3408536Y-9978563D01*
X3410524Y-9983363D01*
X3413110Y-9987583D01*
X3532005Y-10181602D01*
X3532009Y-10181608D01*
X3534588Y-10185816D01*
X3688795Y-10366369D01*
X3869348Y-10520576D01*
X3873556Y-10523155D01*
X3873562Y-10523159D01*
X3901807Y-10540467D01*
X3949438Y-10593115D01*
X3961045Y-10663157D01*
X3932942Y-10728354D01*
X3874051Y-10768008D01*
X3835972Y-10773900D01*
X-1130306Y-10773900D01*
X-1181555Y-10763007D01*
X-1286481Y-10716291D01*
X-1286482Y-10716291D01*
X-1292512Y-10713606D01*
X-1413340Y-10687923D01*
X-1472856Y-10675272D01*
X-1472861Y-10675272D01*
X-1479313Y-10673900D01*
X-1670287Y-10673900D01*
X-1676739Y-10675272D01*
X-1676744Y-10675272D01*
X-1736260Y-10687923D01*
X-1857088Y-10713606D01*
X-1863118Y-10716291D01*
X-1863119Y-10716291D01*
X-2025522Y-10788597D01*
X-2025524Y-10788598D01*
X-2031552Y-10791282D01*
X-2036893Y-10795162D01*
X-2036894Y-10795163D01*
X-2053785Y-10807435D01*
X-2186053Y-10903534D01*
X-2190474Y-10908444D01*
X-2190475Y-10908445D01*
X-2287592Y-11016305D01*
X-2313840Y-11045456D01*
X-2325993Y-11066506D01*
X-2402526Y-11199065D01*
X-2409327Y-11210844D01*
X-2468342Y-11392472D01*
X-2469032Y-11399033D01*
X-2469032Y-11399035D01*
X-2471162Y-11419304D01*
X-2488304Y-11582400D01*
X-2487614Y-11588965D01*
X-2469868Y-11757806D01*
X-2468342Y-11772328D01*
X-2409327Y-11953956D01*
X-2406024Y-11959678D01*
X-2406023Y-11959679D01*
X-2398375Y-11972925D01*
X-2313840Y-12119344D01*
X-2301462Y-12133091D01*
X-2270746Y-12197097D01*
X-2279510Y-12267550D01*
X-2301461Y-12301707D01*
X-2313840Y-12315456D01*
X-2409327Y-12480844D01*
X-2468342Y-12662472D01*
X-2469032Y-12669033D01*
X-2469032Y-12669035D01*
X-2479500Y-12768633D01*
X-2488304Y-12852400D01*
X-2487614Y-12858965D01*
X-2470967Y-13017348D01*
X-2468342Y-13042328D01*
X-2409327Y-13223956D01*
X-2406024Y-13229678D01*
X-2406023Y-13229679D01*
X-2319870Y-13378900D01*
X-2303132Y-13447895D01*
X-2326352Y-13514987D01*
X-2382160Y-13558874D01*
X-2428989Y-13567900D01*
X-3727718Y-13567900D01*
X-3795839Y-13547898D01*
X-3816813Y-13530995D01*
X-5314566Y-12033242D01*
X-5315494Y-12032305D01*
X-5373643Y-11972925D01*
X-5373644Y-11972924D01*
X-5378571Y-11967893D01*
X-5415021Y-11944402D01*
X-5425346Y-11936983D01*
X-5459243Y-11909924D01*
X-5489438Y-11895327D01*
X-5502855Y-11887798D01*
X-5531038Y-11869635D01*
X-5537655Y-11867227D01*
X-5537660Y-11867224D01*
X-5571773Y-11854808D01*
X-5583516Y-11849847D01*
X-5616203Y-11834046D01*
X-5616208Y-11834044D01*
X-5622549Y-11830979D01*
X-5629407Y-11829396D01*
X-5629409Y-11829395D01*
X-5655226Y-11823435D01*
X-5669969Y-11819068D01*
X-5701485Y-11807597D01*
X-5708475Y-11806714D01*
X-5708483Y-11806712D01*
X-5744501Y-11802162D01*
X-5757053Y-11799926D01*
X-5792414Y-11791762D01*
X-5792417Y-11791762D01*
X-5799285Y-11790176D01*
X-5806331Y-11790151D01*
X-5806334Y-11790151D01*
X-5839856Y-11790034D01*
X-5840738Y-11790005D01*
X-5841569Y-11789900D01*
X-5878219Y-11789900D01*
X-5878659Y-11789899D01*
X-5977143Y-11789555D01*
X-5977148Y-11789555D01*
X-5980670Y-11789543D01*
X-5981870Y-11789811D01*
X-5983507Y-11789900D01*
X-20456035Y-11789900D01*
X-20524156Y-11769898D01*
X-20570649Y-11716242D01*
X-20580753Y-11645968D01*
X-20551259Y-11581388D01*
X-20542416Y-11572682D01*
X-20542500Y-11572598D01*
X-20380602Y-11410700D01*
X-20367838Y-11392472D01*
X-20304811Y-11302460D01*
X-20249277Y-11223149D01*
X-20246954Y-11218167D01*
X-20246951Y-11218162D01*
X-20154839Y-11020625D01*
X-20154839Y-11020624D01*
X-20152516Y-11015643D01*
X-20115091Y-10875974D01*
X-20094681Y-10799802D01*
X-20094681Y-10799800D01*
X-20093257Y-10794487D01*
X-20073302Y-10566400D01*
X-20093257Y-10338313D01*
X-20094681Y-10332998D01*
X-20151093Y-10122467D01*
X-20151094Y-10122465D01*
X-20152516Y-10117157D01*
X-20212937Y-9987583D01*
X-20246951Y-9914638D01*
X-20246954Y-9914633D01*
X-20249277Y-9909651D01*
X-20380602Y-9722100D01*
X-20541395Y-9561307D01*
X-20575421Y-9498995D01*
X-20578300Y-9472212D01*
X-20578300Y-7729533D01*
X-11231188Y-7729533D01*
X-11222475Y-7741053D01*
X-11124782Y-7812684D01*
X-11116872Y-7817627D01*
X-10893910Y-7934933D01*
X-10885347Y-7938656D01*
X-10647496Y-8021718D01*
X-10638487Y-8024132D01*
X-10390958Y-8071127D01*
X-10381702Y-8072181D01*
X-10129943Y-8082073D01*
X-10120629Y-8081747D01*
X-9870185Y-8054320D01*
X-9861008Y-8052619D01*
X-9617369Y-7988474D01*
X-9608549Y-7985437D01*
X-9377064Y-7885983D01*
X-9368792Y-7881676D01*
X-9154551Y-7749100D01*
X-9147612Y-7744058D01*
X-9139282Y-7731419D01*
X-9145344Y-7721066D01*
X-10173988Y-6692422D01*
X-10187932Y-6684808D01*
X-10189765Y-6684939D01*
X-10196380Y-6689190D01*
X-11224530Y-7717340D01*
X-11231188Y-7729533D01*
X-20578300Y-7729533D01*
X-20578300Y-7397482D01*
X-20558298Y-7329361D01*
X-20541395Y-7308387D01*
X-19511931Y-6278923D01*
X-11948902Y-6278923D01*
X-11936813Y-6530575D01*
X-11935676Y-6539835D01*
X-11886526Y-6786935D01*
X-11884032Y-6795928D01*
X-11798900Y-7033039D01*
X-11795100Y-7041574D01*
X-11675854Y-7263501D01*
X-11670843Y-7271368D01*
X-11607354Y-7356390D01*
X-11596096Y-7364839D01*
X-11583677Y-7358067D01*
X-10558822Y-6333212D01*
X-10552444Y-6321532D01*
X-9822392Y-6321532D01*
X-9822261Y-6323365D01*
X-9818010Y-6329980D01*
X-8786887Y-7361103D01*
X-8774507Y-7367863D01*
X-8766166Y-7361619D01*
X-8640035Y-7165527D01*
X-8635588Y-7157336D01*
X-8532109Y-6927622D01*
X-8528918Y-6918855D01*
X-8460531Y-6676376D01*
X-8458671Y-6667234D01*
X-8426684Y-6415796D01*
X-8426203Y-6409508D01*
X-8423953Y-6323560D01*
X-8424104Y-6317251D01*
X-8442888Y-6064474D01*
X-8444264Y-6055268D01*
X-8499871Y-5809526D01*
X-8502595Y-5800615D01*
X-8593912Y-5565792D01*
X-8597923Y-5557383D01*
X-8722946Y-5338640D01*
X-8728157Y-5330914D01*
X-8765409Y-5283661D01*
X-8777334Y-5275190D01*
X-8788866Y-5281676D01*
X-9814778Y-6307588D01*
X-9822392Y-6321532D01*
X-10552444Y-6321532D01*
X-10551208Y-6319268D01*
X-10551339Y-6317435D01*
X-10555590Y-6310820D01*
X-11585479Y-5280931D01*
X-11598787Y-5273664D01*
X-11608826Y-5280786D01*
X-11619039Y-5293066D01*
X-11624454Y-5300658D01*
X-11755154Y-5516046D01*
X-11759392Y-5524363D01*
X-11856819Y-5756699D01*
X-11859780Y-5765549D01*
X-11921794Y-6009731D01*
X-11923416Y-6018928D01*
X-11948657Y-6269598D01*
X-11948902Y-6278923D01*
X-19511931Y-6278923D01*
X-18142211Y-4909203D01*
X-11233584Y-4909203D01*
X-11229011Y-4918979D01*
X-10199612Y-5948378D01*
X-10185668Y-5955992D01*
X-10183835Y-5955861D01*
X-10177220Y-5951610D01*
X-9148381Y-4922771D01*
X-9141997Y-4911081D01*
X-9151409Y-4898970D01*
X-9288207Y-4804070D01*
X-9296235Y-4799342D01*
X-9522207Y-4687905D01*
X-9530840Y-4684417D01*
X-9770802Y-4607605D01*
X-9779862Y-4605429D01*
X-10028540Y-4564929D01*
X-10037827Y-4564117D01*
X-10289747Y-4560819D01*
X-10299058Y-4561389D01*
X-10548703Y-4595364D01*
X-10557822Y-4597302D01*
X-10799702Y-4667804D01*
X-10808433Y-4671067D01*
X-11037242Y-4776551D01*
X-11045394Y-4781070D01*
X-11224447Y-4898462D01*
X-11233584Y-4909203D01*
X-18142211Y-4909203D01*
X-12369408Y863600D01*
X2679702Y863600D01*
X2699657Y635513D01*
X2701081Y630200D01*
X2701081Y630198D01*
X2747599Y456594D01*
X2758916Y414357D01*
X2761239Y409376D01*
X2761239Y409375D01*
X2853351Y211838D01*
X2853354Y211833D01*
X2855677Y206851D01*
X2888233Y160357D01*
X2981103Y27725D01*
X2987002Y19300D01*
X3148900Y-142598D01*
X3153408Y-145755D01*
X3153411Y-145757D01*
X3204033Y-181203D01*
X3336451Y-273923D01*
X3341433Y-276246D01*
X3341438Y-276249D01*
X3538975Y-368361D01*
X3543957Y-370684D01*
X3549265Y-372106D01*
X3549267Y-372107D01*
X3759798Y-428519D01*
X3759800Y-428519D01*
X3765113Y-429943D01*
X3993200Y-449898D01*
X4221287Y-429943D01*
X4226600Y-428519D01*
X4226602Y-428519D01*
X4437133Y-372107D01*
X4437135Y-372106D01*
X4442443Y-370684D01*
X4447425Y-368361D01*
X4644962Y-276249D01*
X4644967Y-276246D01*
X4649949Y-273923D01*
X4782367Y-181203D01*
X4832989Y-145757D01*
X4832992Y-145755D01*
X4837500Y-142598D01*
X4999398Y19300D01*
X5005298Y27725D01*
X5098167Y160357D01*
X5130723Y206851D01*
X5133046Y211833D01*
X5133049Y211838D01*
X5225161Y409375D01*
X5225161Y409376D01*
X5227484Y414357D01*
X5238802Y456594D01*
X5285319Y630198D01*
X5285319Y630200D01*
X5286743Y635513D01*
X5306698Y863600D01*
X5286743Y1091687D01*
X5243168Y1254311D01*
X5228907Y1307533D01*
X5228906Y1307535D01*
X5227484Y1312843D01*
X5222212Y1324149D01*
X5133049Y1515362D01*
X5133046Y1515367D01*
X5130723Y1520349D01*
X4999398Y1707900D01*
X4837500Y1869798D01*
X4832992Y1872955D01*
X4832989Y1872957D01*
X4724312Y1949053D01*
X4649949Y2001123D01*
X4644967Y2003446D01*
X4644962Y2003449D01*
X4447425Y2095561D01*
X4447424Y2095561D01*
X4442443Y2097884D01*
X4437135Y2099306D01*
X4437133Y2099307D01*
X4226602Y2155719D01*
X4226600Y2155719D01*
X4221287Y2157143D01*
X3993200Y2177098D01*
X3765113Y2157143D01*
X3759800Y2155719D01*
X3759798Y2155719D01*
X3549267Y2099307D01*
X3549265Y2099306D01*
X3543957Y2097884D01*
X3538976Y2095561D01*
X3538975Y2095561D01*
X3341438Y2003449D01*
X3341433Y2003446D01*
X3336451Y2001123D01*
X3262088Y1949053D01*
X3153411Y1872957D01*
X3153408Y1872955D01*
X3148900Y1869798D01*
X2987002Y1707900D01*
X2855677Y1520349D01*
X2853354Y1515367D01*
X2853351Y1515362D01*
X2764188Y1324149D01*
X2758916Y1312843D01*
X2757494Y1307535D01*
X2757493Y1307533D01*
X2743232Y1254311D01*
X2699657Y1091687D01*
X2679702Y863600D01*
X-12369408Y863600D01*
X-3054813Y10178195D01*
X-2992501Y10212221D01*
X-2965718Y10215100D01*
X2899012Y10215100D01*
X2967133Y10195098D01*
X2988107Y10178195D01*
X3147795Y10018507D01*
X3181821Y9956195D01*
X3184700Y9929412D01*
X3184700Y6447204D01*
X3184693Y6445884D01*
X3183749Y6355769D01*
X3192911Y6313393D01*
X3194969Y6300827D01*
X3199803Y6257735D01*
X3202119Y6251084D01*
X3202120Y6251080D01*
X3210833Y6226060D01*
X3214996Y6211248D01*
X3222081Y6178480D01*
X3240408Y6139177D01*
X3245190Y6127401D01*
X3259455Y6086438D01*
X3263189Y6080463D01*
X3263190Y6080460D01*
X3277227Y6057995D01*
X3284566Y6044478D01*
X3295759Y6020476D01*
X3298738Y6014088D01*
X3303055Y6008523D01*
X3303056Y6008521D01*
X3325306Y5979837D01*
X3332602Y5969378D01*
X3337272Y5961905D01*
X3355574Y5932614D01*
X3360534Y5927619D01*
X3360535Y5927618D01*
X3384176Y5903811D01*
X3384761Y5903186D01*
X3385278Y5902520D01*
X3411268Y5876530D01*
X3483385Y5803908D01*
X3484422Y5803250D01*
X3485651Y5802147D01*
X9243356Y44442D01*
X9244284Y43505D01*
X9271804Y15403D01*
X9307361Y-20907D01*
X9343811Y-44398D01*
X9354136Y-51817D01*
X9388033Y-78876D01*
X9394374Y-81941D01*
X9394375Y-81942D01*
X9418227Y-93472D01*
X9431644Y-101001D01*
X9459828Y-119165D01*
X9466445Y-121573D01*
X9466450Y-121576D01*
X9500563Y-133992D01*
X9512306Y-138953D01*
X9544993Y-154754D01*
X9544998Y-154756D01*
X9551339Y-157821D01*
X9558197Y-159404D01*
X9558199Y-159405D01*
X9584016Y-165365D01*
X9598759Y-169732D01*
X9630275Y-181203D01*
X9637265Y-182086D01*
X9637273Y-182088D01*
X9673291Y-186638D01*
X9685843Y-188874D01*
X9721204Y-197038D01*
X9721207Y-197038D01*
X9728075Y-198624D01*
X9735121Y-198649D01*
X9735124Y-198649D01*
X9768646Y-198766D01*
X9769528Y-198795D01*
X9770359Y-198900D01*
X9807009Y-198900D01*
X9807449Y-198901D01*
X9905933Y-199245D01*
X9905938Y-199245D01*
X9909460Y-199257D01*
X9910660Y-198989D01*
X9912297Y-198900D01*
X13079012Y-198900D01*
X13147133Y-218902D01*
X13168107Y-235805D01*
X13328900Y-396598D01*
X13333408Y-399755D01*
X13333411Y-399757D01*
X13404336Y-449419D01*
X13516451Y-527923D01*
X13521433Y-530246D01*
X13521438Y-530249D01*
X13718975Y-622361D01*
X13723957Y-624684D01*
X13729265Y-626106D01*
X13729267Y-626107D01*
X13939798Y-682519D01*
X13939800Y-682519D01*
X13945113Y-683943D01*
X14173200Y-703898D01*
X14401287Y-683943D01*
X14406600Y-682519D01*
X14406602Y-682519D01*
X14617133Y-626107D01*
X14617135Y-626106D01*
X14622443Y-624684D01*
X14627425Y-622361D01*
X14824962Y-530249D01*
X14824967Y-530246D01*
X14829949Y-527923D01*
X14942064Y-449419D01*
X15012989Y-399757D01*
X15012992Y-399755D01*
X15017500Y-396598D01*
X15179398Y-234700D01*
X15204560Y-198766D01*
X15249915Y-133992D01*
X15310723Y-47149D01*
X15313046Y-42167D01*
X15313049Y-42162D01*
X15405161Y155375D01*
X15405161Y155376D01*
X15407484Y160357D01*
X15421279Y211838D01*
X15465319Y376198D01*
X15465319Y376200D01*
X15466743Y381513D01*
X15486698Y609600D01*
X15466743Y837687D01*
X15432799Y964368D01*
X15408907Y1053533D01*
X15408906Y1053535D01*
X15407484Y1058843D01*
X15391824Y1092427D01*
X15313049Y1261362D01*
X15313046Y1261367D01*
X15310723Y1266349D01*
X15199658Y1424966D01*
X15182557Y1449389D01*
X15182555Y1449392D01*
X15179398Y1453900D01*
X15017500Y1615798D01*
X15012992Y1618955D01*
X15012989Y1618957D01*
X14885965Y1707900D01*
X14829949Y1747123D01*
X14824967Y1749446D01*
X14824962Y1749449D01*
X14627425Y1841561D01*
X14627424Y1841561D01*
X14622443Y1843884D01*
X14617135Y1845306D01*
X14617133Y1845307D01*
X14406602Y1901719D01*
X14406600Y1901719D01*
X14401287Y1903143D01*
X14173200Y1923098D01*
X13945113Y1903143D01*
X13939800Y1901719D01*
X13939798Y1901719D01*
X13729267Y1845307D01*
X13729265Y1845306D01*
X13723957Y1843884D01*
X13718976Y1841561D01*
X13718975Y1841561D01*
X13521438Y1749449D01*
X13521433Y1749446D01*
X13516451Y1747123D01*
X13460435Y1707900D01*
X13333411Y1618957D01*
X13333408Y1618955D01*
X13328900Y1615798D01*
X13168107Y1455005D01*
X13105795Y1420979D01*
X13079012Y1418100D01*
X10208671Y1418100D01*
X10140550Y1438102D01*
X10119576Y1455005D01*
X9623989Y1950592D01*
X9589963Y2012904D01*
X9595028Y2083719D01*
X9637575Y2140555D01*
X9657651Y2152838D01*
X9686365Y2166905D01*
X18906451Y2166905D01*
X18906748Y2161752D01*
X18906748Y2161749D01*
X18911247Y2083719D01*
X18919310Y1943885D01*
X18920447Y1938839D01*
X18920448Y1938833D01*
X18942370Y1841561D01*
X18968422Y1725961D01*
X19013154Y1615798D01*
X19049071Y1527346D01*
X19052466Y1518984D01*
X19085115Y1465706D01*
X19162023Y1340203D01*
X19169187Y1328512D01*
X19315450Y1159662D01*
X19487326Y1016968D01*
X19561155Y973826D01*
X19609879Y922188D01*
X19622950Y852405D01*
X19596219Y786633D01*
X19555762Y753273D01*
X19547657Y749054D01*
X19538938Y743564D01*
X19368633Y615695D01*
X19360926Y608852D01*
X19213790Y454883D01*
X19207304Y446873D01*
X19087298Y270951D01*
X19082200Y261977D01*
X18992538Y68817D01*
X18988975Y59130D01*
X18933589Y-140583D01*
X18935112Y-149007D01*
X18947492Y-152400D01*
X21587544Y-152400D01*
X21601075Y-148427D01*
X21602380Y-139347D01*
X21560414Y27725D01*
X21557094Y37476D01*
X21472172Y232786D01*
X21467305Y241861D01*
X21351626Y420674D01*
X21345336Y428843D01*
X21202006Y586360D01*
X21194473Y593385D01*
X21027339Y725378D01*
X21018756Y731080D01*
X20981802Y751480D01*
X20931831Y801913D01*
X20917059Y871355D01*
X20942175Y937761D01*
X20969527Y964368D01*
X20992997Y981109D01*
X21149060Y1092427D01*
X21307296Y1250111D01*
X21315381Y1261362D01*
X21323476Y1272627D01*
X21379471Y1316274D01*
X21425798Y1325100D01*
X21783986Y1325100D01*
X21785306Y1325093D01*
X21875421Y1324149D01*
X21917797Y1333311D01*
X21930363Y1335369D01*
X21973455Y1340203D01*
X21980106Y1342519D01*
X21980110Y1342520D01*
X22005130Y1351233D01*
X22019942Y1355396D01*
X22045819Y1360991D01*
X22052710Y1362481D01*
X22092013Y1380808D01*
X22103789Y1385590D01*
X22144752Y1399855D01*
X22150727Y1403589D01*
X22150730Y1403590D01*
X22173195Y1417627D01*
X22186712Y1424966D01*
X22210714Y1436159D01*
X22210715Y1436160D01*
X22217102Y1439138D01*
X22230318Y1449389D01*
X22251353Y1465706D01*
X22261812Y1473002D01*
X22292604Y1492242D01*
X22292607Y1492244D01*
X22298576Y1495974D01*
X22327379Y1524576D01*
X22328004Y1525161D01*
X22328670Y1525678D01*
X22354660Y1551668D01*
X22427282Y1623785D01*
X22427940Y1624822D01*
X22429043Y1626051D01*
X23374358Y2571366D01*
X23375295Y2572294D01*
X23434675Y2630443D01*
X23434676Y2630444D01*
X23439707Y2635371D01*
X23463198Y2671821D01*
X23470617Y2682146D01*
X23497676Y2716043D01*
X23512273Y2746238D01*
X23519802Y2759655D01*
X23534148Y2781916D01*
X23537965Y2787838D01*
X23540373Y2794455D01*
X23540376Y2794460D01*
X23552792Y2828573D01*
X23557753Y2840316D01*
X23573554Y2873003D01*
X23573556Y2873008D01*
X23576621Y2879349D01*
X23584165Y2912028D01*
X23588532Y2926769D01*
X23600003Y2958285D01*
X23600886Y2965275D01*
X23600888Y2965283D01*
X23605438Y3001301D01*
X23607674Y3013853D01*
X23615838Y3049214D01*
X23615838Y3049217D01*
X23617424Y3056085D01*
X23617469Y3068815D01*
X23617566Y3096656D01*
X23617595Y3097538D01*
X23617700Y3098369D01*
X23617700Y3135172D01*
X23617994Y3219332D01*
X23618045Y3233943D01*
X23618045Y3233948D01*
X23618057Y3237470D01*
X23617789Y3238670D01*
X23617700Y3240307D01*
X23617700Y16348386D01*
X23617707Y16349706D01*
X23618298Y16406128D01*
X23618651Y16439821D01*
X23609489Y16482197D01*
X23607430Y16494768D01*
X23605388Y16512977D01*
X23602597Y16537855D01*
X23596603Y16555070D01*
X23591567Y16569530D01*
X23587404Y16584342D01*
X23581809Y16610219D01*
X23580319Y16617110D01*
X23561992Y16656413D01*
X23557210Y16668189D01*
X23542945Y16709152D01*
X23536408Y16719614D01*
X23525173Y16737595D01*
X23517834Y16751112D01*
X23506641Y16775114D01*
X23506640Y16775115D01*
X23503662Y16781502D01*
X23477094Y16815753D01*
X23469798Y16826212D01*
X23450558Y16857004D01*
X23450556Y16857007D01*
X23446826Y16862976D01*
X23418224Y16891779D01*
X23417639Y16892404D01*
X23417122Y16893070D01*
X23391132Y16919060D01*
X23319015Y16991682D01*
X23317978Y16992340D01*
X23316749Y16993443D01*
X22366434Y17943758D01*
X22365506Y17944695D01*
X22307357Y18004075D01*
X22307356Y18004076D01*
X22302429Y18009107D01*
X22265979Y18032598D01*
X22255654Y18040017D01*
X22221757Y18067076D01*
X22191562Y18081673D01*
X22178145Y18089202D01*
X22157720Y18102365D01*
X22149962Y18107365D01*
X22143345Y18109773D01*
X22143340Y18109776D01*
X22109227Y18122192D01*
X22097484Y18127153D01*
X22064797Y18142954D01*
X22064792Y18142956D01*
X22058451Y18146021D01*
X22051593Y18147604D01*
X22051591Y18147605D01*
X22025774Y18153565D01*
X22011031Y18157932D01*
X21979515Y18169403D01*
X21972525Y18170286D01*
X21972517Y18170288D01*
X21936499Y18174838D01*
X21923947Y18177074D01*
X21888586Y18185238D01*
X21888583Y18185238D01*
X21881715Y18186824D01*
X21874669Y18186849D01*
X21874666Y18186849D01*
X21841144Y18186966D01*
X21840262Y18186995D01*
X21839431Y18187100D01*
X21802781Y18187100D01*
X21802341Y18187101D01*
X21703857Y18187445D01*
X21703852Y18187445D01*
X21700330Y18187457D01*
X21699130Y18187189D01*
X21697493Y18187100D01*
X21426050Y18187100D01*
X21357929Y18207102D01*
X21332856Y18228301D01*
X21202351Y18371724D01*
X21202348Y18371727D01*
X21198870Y18375549D01*
X21194819Y18378748D01*
X21194815Y18378752D01*
X21027614Y18510800D01*
X21027610Y18510802D01*
X21023559Y18514002D01*
X20982253Y18536804D01*
X20932284Y18587236D01*
X20917512Y18656679D01*
X20942628Y18723084D01*
X20969980Y18749691D01*
X21013803Y18780950D01*
X21149060Y18877427D01*
X21189616Y18917841D01*
X21303635Y19031463D01*
X21307296Y19035111D01*
X21366794Y19117911D01*
X21434635Y19212323D01*
X21437653Y19216523D01*
X21445546Y19232492D01*
X21534336Y19412147D01*
X21534337Y19412149D01*
X21536630Y19416789D01*
X21575344Y19544211D01*
X21600065Y19625577D01*
X21600065Y19625579D01*
X21601570Y19630531D01*
X21630729Y19852010D01*
X21632356Y19918600D01*
X21614052Y20141239D01*
X21559631Y20357898D01*
X21470554Y20562760D01*
X21408962Y20657967D01*
X21352022Y20745983D01*
X21352020Y20745986D01*
X21349214Y20750323D01*
X21198870Y20915549D01*
X21194819Y20918748D01*
X21194815Y20918752D01*
X21027614Y21050800D01*
X21027610Y21050802D01*
X21023559Y21054002D01*
X20827989Y21161962D01*
X20823120Y21163686D01*
X20823116Y21163688D01*
X20622287Y21234805D01*
X20622283Y21234806D01*
X20617412Y21236531D01*
X20612319Y21237438D01*
X20612316Y21237439D01*
X20402573Y21274800D01*
X20402567Y21274801D01*
X20397484Y21275706D01*
X20323652Y21276608D01*
X20179281Y21278372D01*
X20179279Y21278372D01*
X20174111Y21278435D01*
X19953291Y21244645D01*
X19740956Y21175243D01*
X19542807Y21072093D01*
X19538674Y21068990D01*
X19538671Y21068988D01*
X19514447Y21050800D01*
X19364165Y20937965D01*
X19209829Y20776462D01*
X19206915Y20772190D01*
X19206914Y20772189D01*
X19156948Y20698942D01*
X19083943Y20591920D01*
X19068203Y20558010D01*
X18997590Y20405887D01*
X18989888Y20389295D01*
X18930189Y20174030D01*
X18906451Y19951905D01*
X18906748Y19946752D01*
X18906748Y19946749D01*
X18912402Y19848692D01*
X18919310Y19728885D01*
X18920447Y19723839D01*
X18920448Y19723833D01*
X18930365Y19679829D01*
X18968422Y19510961D01*
X19052466Y19303984D01*
X19055165Y19299580D01*
X19160151Y19128258D01*
X19169187Y19113512D01*
X19315450Y18944662D01*
X19487326Y18801968D01*
X19528562Y18777872D01*
X19560645Y18759124D01*
X19609369Y18707486D01*
X19622440Y18637703D01*
X19595709Y18571931D01*
X19555255Y18538573D01*
X19542807Y18532093D01*
X19538674Y18528990D01*
X19538671Y18528988D01*
X19371269Y18403299D01*
X19364165Y18397965D01*
X19209829Y18236462D01*
X19206915Y18232190D01*
X19206914Y18232189D01*
X19152851Y18152935D01*
X19083943Y18051920D01*
X19074894Y18032425D01*
X19010215Y17893085D01*
X18989888Y17849295D01*
X18930189Y17634030D01*
X18906451Y17411905D01*
X18906748Y17406752D01*
X18906748Y17406749D01*
X18919012Y17194053D01*
X18919310Y17188885D01*
X18920447Y17183839D01*
X18920448Y17183833D01*
X18941737Y17089371D01*
X18968422Y16970961D01*
X19014695Y16857004D01*
X19047947Y16775114D01*
X19052466Y16763984D01*
X19068637Y16737595D01*
X19164562Y16581060D01*
X19169187Y16573512D01*
X19315450Y16404662D01*
X19419358Y16318396D01*
X19474967Y16272229D01*
X19487326Y16261968D01*
X19514079Y16246335D01*
X19561155Y16218826D01*
X19609879Y16167188D01*
X19622950Y16097405D01*
X19596219Y16031633D01*
X19555762Y15998273D01*
X19547657Y15994054D01*
X19538938Y15988564D01*
X19368633Y15860695D01*
X19360926Y15853852D01*
X19213790Y15699883D01*
X19207304Y15691873D01*
X19087298Y15515951D01*
X19082200Y15506977D01*
X18992538Y15313817D01*
X18988975Y15304130D01*
X18933589Y15104417D01*
X18935112Y15095993D01*
X18947492Y15092600D01*
X21587544Y15092600D01*
X21601075Y15096573D01*
X21602380Y15105653D01*
X21560414Y15272725D01*
X21557094Y15282476D01*
X21472172Y15477786D01*
X21467305Y15486861D01*
X21351626Y15665674D01*
X21345336Y15673843D01*
X21202006Y15831360D01*
X21194473Y15838385D01*
X21027339Y15970378D01*
X21018756Y15976080D01*
X20981802Y15996480D01*
X20931831Y16046913D01*
X20917059Y16116355D01*
X20942175Y16182761D01*
X20969527Y16209368D01*
X21021353Y16246335D01*
X21149060Y16337427D01*
X21160058Y16348386D01*
X21255506Y16443502D01*
X21307296Y16495111D01*
X21310310Y16499305D01*
X21310319Y16499316D01*
X21313161Y16503271D01*
X21369158Y16546916D01*
X21439862Y16553357D01*
X21504574Y16518834D01*
X21963795Y16059613D01*
X21997821Y15997301D01*
X22000700Y15970518D01*
X22000700Y3536682D01*
X21980698Y3468561D01*
X21963795Y3447587D01*
X21505649Y2989441D01*
X21443337Y2955415D01*
X21372522Y2960480D01*
X21323360Y2993737D01*
X21202351Y3126724D01*
X21202348Y3126727D01*
X21198870Y3130549D01*
X21194819Y3133748D01*
X21194815Y3133752D01*
X21027614Y3265800D01*
X21027610Y3265802D01*
X21023559Y3269002D01*
X20827989Y3376962D01*
X20823120Y3378686D01*
X20823116Y3378688D01*
X20622287Y3449805D01*
X20622283Y3449806D01*
X20617412Y3451531D01*
X20612319Y3452438D01*
X20612316Y3452439D01*
X20402573Y3489800D01*
X20402567Y3489801D01*
X20397484Y3490706D01*
X20323652Y3491608D01*
X20179281Y3493372D01*
X20179279Y3493372D01*
X20174111Y3493435D01*
X19953291Y3459645D01*
X19740956Y3390243D01*
X19542807Y3287093D01*
X19538674Y3283990D01*
X19538671Y3283988D01*
X19437808Y3208258D01*
X19364165Y3152965D01*
X19209829Y2991462D01*
X19206915Y2987190D01*
X19206914Y2987189D01*
X19138030Y2886209D01*
X19083943Y2806920D01*
X19039206Y2710542D01*
X19013902Y2656028D01*
X18989888Y2604295D01*
X18930189Y2389030D01*
X18906451Y2166905D01*
X9686365Y2166905D01*
X9786295Y2215861D01*
X9795145Y2221136D01*
X9968528Y2344808D01*
X9976400Y2351461D01*
X10127252Y2501788D01*
X10133930Y2509635D01*
X10258203Y2682580D01*
X10263513Y2691417D01*
X10357870Y2882333D01*
X10361669Y2891928D01*
X10423577Y3095690D01*
X10425755Y3105763D01*
X10427186Y3116638D01*
X10424975Y3130822D01*
X10411817Y3134600D01*
X8965200Y3134600D01*
X8897079Y3154602D01*
X8850586Y3208258D01*
X8839200Y3260600D01*
X8839200Y3516600D01*
X8859202Y3584721D01*
X8912858Y3631214D01*
X8965200Y3642600D01*
X10411544Y3642600D01*
X10425075Y3646573D01*
X10426380Y3655653D01*
X10384414Y3822725D01*
X10381094Y3832476D01*
X10296172Y4027786D01*
X10291305Y4036861D01*
X10175626Y4215674D01*
X10169336Y4223843D01*
X10026006Y4381360D01*
X10018473Y4388385D01*
X9851339Y4520378D01*
X9842756Y4526080D01*
X9805802Y4546480D01*
X9755831Y4596913D01*
X9741059Y4666355D01*
X9766175Y4732761D01*
X9793527Y4759368D01*
X9860247Y4806959D01*
X9973060Y4887427D01*
X10004138Y4918396D01*
X10062925Y4976979D01*
X10131296Y5045111D01*
X10190794Y5127911D01*
X10258635Y5222323D01*
X10261653Y5226523D01*
X10360630Y5426789D01*
X10425570Y5640531D01*
X10454729Y5862010D01*
X10455739Y5903351D01*
X10456274Y5925235D01*
X10456274Y5925239D01*
X10456356Y5928600D01*
X10438052Y6151239D01*
X10383631Y6367898D01*
X10294554Y6572760D01*
X10173214Y6760323D01*
X10169732Y6764150D01*
X10025998Y6922112D01*
X9994946Y6985958D01*
X10003341Y7056457D01*
X10048517Y7111225D01*
X10074961Y7124894D01*
X10181497Y7164833D01*
X10189905Y7167985D01*
X10306461Y7255339D01*
X10393815Y7371895D01*
X10444945Y7508284D01*
X10451700Y7570466D01*
X10451700Y9366734D01*
X10444945Y9428916D01*
X10393815Y9565305D01*
X10306461Y9681861D01*
X10189905Y9769215D01*
X10053516Y9820345D01*
X9991334Y9827100D01*
X8195066Y9827100D01*
X8132884Y9820345D01*
X7996495Y9769215D01*
X7879939Y9681861D01*
X7792585Y9565305D01*
X7741455Y9428916D01*
X7734700Y9366734D01*
X7734700Y7570466D01*
X7741455Y7508284D01*
X7792585Y7371895D01*
X7879939Y7255339D01*
X7996495Y7167985D01*
X8004904Y7164833D01*
X8004905Y7164832D01*
X8113651Y7124065D01*
X8170416Y7081424D01*
X8195116Y7014862D01*
X8179909Y6945513D01*
X8160516Y6919032D01*
X8033829Y6786462D01*
X7907943Y6601920D01*
X7892203Y6568010D01*
X7836127Y6447204D01*
X7813888Y6399295D01*
X7754189Y6184030D01*
X7730451Y5961905D01*
X7730748Y5956752D01*
X7730748Y5956749D01*
X7736211Y5862010D01*
X7743310Y5738885D01*
X7744447Y5733839D01*
X7744448Y5733833D01*
X7764319Y5645661D01*
X7792422Y5520961D01*
X7876466Y5313984D01*
X7993187Y5123512D01*
X8139450Y4954662D01*
X8311326Y4811968D01*
X8377120Y4773521D01*
X8385155Y4768826D01*
X8433879Y4717188D01*
X8446950Y4647405D01*
X8420219Y4581633D01*
X8379762Y4548273D01*
X8371657Y4544054D01*
X8362938Y4538564D01*
X8192633Y4410695D01*
X8184926Y4403852D01*
X8037790Y4249883D01*
X8031304Y4241873D01*
X7911298Y4065951D01*
X7906200Y4056977D01*
X7858910Y3955099D01*
X7812086Y3901732D01*
X7743843Y3882151D01*
X7675847Y3902574D01*
X7655527Y3919054D01*
X7358908Y4215674D01*
X4838605Y6735977D01*
X4804579Y6798289D01*
X4801700Y6825072D01*
X4801700Y9929412D01*
X4821702Y9997533D01*
X4838605Y10018507D01*
X4999398Y10179300D01*
X5130723Y10366851D01*
X5133046Y10371833D01*
X5133049Y10371838D01*
X5225161Y10569375D01*
X5225161Y10569376D01*
X5227484Y10574357D01*
X5248642Y10653317D01*
X5285319Y10790198D01*
X5285319Y10790200D01*
X5286743Y10795513D01*
X5306698Y11023600D01*
X5286743Y11251687D01*
X5284700Y11259313D01*
X5228907Y11467533D01*
X5228906Y11467535D01*
X5227484Y11472843D01*
X5225161Y11477825D01*
X5133049Y11675362D01*
X5133046Y11675367D01*
X5130723Y11680349D01*
X5023852Y11832976D01*
X5002557Y11863389D01*
X5002555Y11863392D01*
X4999398Y11867900D01*
X4838605Y12028693D01*
X4804579Y12091005D01*
X4801700Y12117788D01*
X4801700Y12331905D01*
X18906451Y12331905D01*
X18906748Y12326752D01*
X18906748Y12326749D01*
X18917764Y12135691D01*
X18919310Y12108885D01*
X18920447Y12103839D01*
X18920448Y12103833D01*
X18934230Y12042679D01*
X18968422Y11890961D01*
X19052466Y11683984D01*
X19169187Y11493512D01*
X19315450Y11324662D01*
X19319430Y11321358D01*
X19324181Y11317413D01*
X19363816Y11258510D01*
X19365313Y11187529D01*
X19328197Y11127007D01*
X19287925Y11102488D01*
X19191951Y11066509D01*
X19172495Y11059215D01*
X19055939Y10971861D01*
X18968585Y10855305D01*
X18917455Y10718916D01*
X18910700Y10656734D01*
X18910700Y8860466D01*
X18917455Y8798284D01*
X18968585Y8661895D01*
X19055939Y8545339D01*
X19172495Y8457985D01*
X19308884Y8406855D01*
X19371066Y8400100D01*
X21167334Y8400100D01*
X21229516Y8406855D01*
X21365905Y8457985D01*
X21482461Y8545339D01*
X21569815Y8661895D01*
X21620945Y8798284D01*
X21627700Y8860466D01*
X21627700Y10656734D01*
X21620945Y10718916D01*
X21569815Y10855305D01*
X21482461Y10971861D01*
X21365905Y11059215D01*
X21353332Y11063928D01*
X21247403Y11103640D01*
X21190639Y11146282D01*
X21165939Y11212844D01*
X21181147Y11282192D01*
X21202693Y11310873D01*
X21303635Y11411463D01*
X21307296Y11415111D01*
X21348781Y11472843D01*
X21434635Y11592323D01*
X21437653Y11596523D01*
X21448883Y11619244D01*
X21534336Y11792147D01*
X21534337Y11792149D01*
X21536630Y11796789D01*
X21587679Y11964810D01*
X21600065Y12005577D01*
X21600065Y12005579D01*
X21601570Y12010531D01*
X21630729Y12232010D01*
X21630811Y12235360D01*
X21632274Y12295235D01*
X21632274Y12295239D01*
X21632356Y12298600D01*
X21614052Y12521239D01*
X21559631Y12737898D01*
X21470554Y12942760D01*
X21397927Y13055024D01*
X21352022Y13125983D01*
X21352020Y13125986D01*
X21349214Y13130323D01*
X21198870Y13295549D01*
X21194819Y13298748D01*
X21194815Y13298752D01*
X21027614Y13430800D01*
X21027610Y13430802D01*
X21023559Y13434002D01*
X20981769Y13457071D01*
X20931798Y13507503D01*
X20917026Y13576946D01*
X20942142Y13643352D01*
X20969494Y13669959D01*
X21144528Y13794808D01*
X21152400Y13801461D01*
X21303252Y13951788D01*
X21309930Y13959635D01*
X21434203Y14132580D01*
X21439513Y14141417D01*
X21533870Y14332333D01*
X21537669Y14341928D01*
X21599577Y14545690D01*
X21601755Y14555763D01*
X21603186Y14566638D01*
X21600975Y14580822D01*
X21587817Y14584600D01*
X18952425Y14584600D01*
X18938894Y14580627D01*
X18937457Y14570634D01*
X18967765Y14436154D01*
X18970845Y14426325D01*
X19050970Y14228997D01*
X19055613Y14219806D01*
X19166894Y14038212D01*
X19172977Y14029901D01*
X19312413Y13868933D01*
X19319780Y13861717D01*
X19483634Y13725684D01*
X19492081Y13719769D01*
X19561169Y13679397D01*
X19609893Y13627758D01*
X19622964Y13557975D01*
X19596233Y13492204D01*
X19555784Y13458848D01*
X19542807Y13452093D01*
X19538674Y13448990D01*
X19538671Y13448988D01*
X19368300Y13321070D01*
X19364165Y13317965D01*
X19209829Y13156462D01*
X19083943Y12971920D01*
X19051489Y12902004D01*
X19003281Y12798147D01*
X18989888Y12769295D01*
X18930189Y12554030D01*
X18906451Y12331905D01*
X4801700Y12331905D01*
X4801700Y17892435D01*
X4801707Y17893754D01*
X4802188Y17939695D01*
X4802650Y17983821D01*
X4801163Y17990699D01*
X4801162Y17990709D01*
X4793491Y18026187D01*
X4791430Y18038769D01*
X4790482Y18047225D01*
X4786597Y18081855D01*
X4784039Y18089202D01*
X4776079Y18112057D01*
X4775568Y18113526D01*
X4771405Y18128335D01*
X4765807Y18154229D01*
X4765806Y18154232D01*
X4764319Y18161110D01*
X4745992Y18200413D01*
X4741210Y18212189D01*
X4726945Y18253152D01*
X4723210Y18259130D01*
X4709173Y18281595D01*
X4701834Y18295112D01*
X4690641Y18319114D01*
X4690640Y18319115D01*
X4687662Y18325502D01*
X4661094Y18359753D01*
X4653798Y18370212D01*
X4634558Y18401004D01*
X4634556Y18401007D01*
X4630826Y18406976D01*
X4625865Y18411972D01*
X4602224Y18435779D01*
X4601639Y18436404D01*
X4601122Y18437070D01*
X4575132Y18463060D01*
X4503015Y18535682D01*
X4501978Y18536340D01*
X4500749Y18537443D01*
X584592Y22453600D01*
X6639854Y22453600D01*
X6640124Y22449481D01*
X6646557Y22351337D01*
X6659217Y22158174D01*
X6660019Y22154141D01*
X6660020Y22154135D01*
X6713456Y21885499D01*
X6716976Y21867803D01*
X6718303Y21863894D01*
X6718304Y21863890D01*
X6794897Y21638255D01*
X6812141Y21587455D01*
X6943085Y21321927D01*
X6972669Y21277652D01*
X7034575Y21185003D01*
X7107567Y21075762D01*
X7110281Y21072668D01*
X7110285Y21072662D01*
X7276804Y20882785D01*
X7302773Y20853173D01*
X7305862Y20850464D01*
X7522262Y20660685D01*
X7522268Y20660681D01*
X7525362Y20657967D01*
X7528788Y20655678D01*
X7528793Y20655674D01*
X7674958Y20558010D01*
X7771527Y20493485D01*
X7775226Y20491661D01*
X7775231Y20491658D01*
X7886339Y20436866D01*
X8037055Y20362541D01*
X8040960Y20361216D01*
X8040961Y20361215D01*
X8313490Y20268704D01*
X8313494Y20268703D01*
X8317403Y20267376D01*
X8321447Y20266572D01*
X8321453Y20266570D01*
X8603735Y20210420D01*
X8603741Y20210419D01*
X8607774Y20209617D01*
X8611879Y20209348D01*
X8611886Y20209347D01*
X8899081Y20190524D01*
X8903200Y20190254D01*
X8907319Y20190524D01*
X9194514Y20209347D01*
X9194521Y20209348D01*
X9198626Y20209617D01*
X9202659Y20210419D01*
X9202665Y20210420D01*
X9484947Y20266570D01*
X9484953Y20266572D01*
X9488997Y20267376D01*
X9492906Y20268703D01*
X9492910Y20268704D01*
X9765439Y20361215D01*
X9765440Y20361216D01*
X9769345Y20362541D01*
X9920061Y20436866D01*
X10031169Y20491658D01*
X10031174Y20491661D01*
X10034873Y20493485D01*
X10131442Y20558010D01*
X10277607Y20655674D01*
X10277612Y20655678D01*
X10281038Y20657967D01*
X10284132Y20660681D01*
X10284138Y20660685D01*
X10500538Y20850464D01*
X10503627Y20853173D01*
X10529596Y20882785D01*
X10696115Y21072662D01*
X10696119Y21072668D01*
X10698833Y21075762D01*
X10771826Y21185003D01*
X10833731Y21277652D01*
X10863315Y21321927D01*
X10994259Y21587455D01*
X11011503Y21638255D01*
X11088096Y21863890D01*
X11088097Y21863894D01*
X11089424Y21867803D01*
X11092944Y21885499D01*
X11146380Y22154135D01*
X11146381Y22154141D01*
X11147183Y22158174D01*
X11159844Y22351337D01*
X11166276Y22449481D01*
X11166546Y22453600D01*
X11157170Y22596652D01*
X11147453Y22744914D01*
X11147452Y22744921D01*
X11147183Y22749026D01*
X11145420Y22757893D01*
X11090230Y23035347D01*
X11090228Y23035353D01*
X11089424Y23039397D01*
X11085935Y23049677D01*
X10995585Y23315839D01*
X10995584Y23315840D01*
X10994259Y23319745D01*
X10926679Y23456783D01*
X10865142Y23581569D01*
X10865139Y23581574D01*
X10863315Y23585273D01*
X10804821Y23672815D01*
X10701126Y23828007D01*
X10701122Y23828012D01*
X10698833Y23831438D01*
X10696119Y23834532D01*
X10696115Y23834538D01*
X10506336Y24050938D01*
X10503627Y24054027D01*
X10500538Y24056736D01*
X10284138Y24246515D01*
X10284132Y24246519D01*
X10281038Y24249233D01*
X10277612Y24251522D01*
X10277607Y24251526D01*
X10038306Y24411421D01*
X10034873Y24413715D01*
X10031174Y24415539D01*
X10031169Y24415542D01*
X9894887Y24482748D01*
X9769345Y24544659D01*
X9765439Y24545985D01*
X9492910Y24638496D01*
X9492906Y24638497D01*
X9488997Y24639824D01*
X9484953Y24640628D01*
X9484947Y24640630D01*
X9202665Y24696780D01*
X9202659Y24696781D01*
X9198626Y24697583D01*
X9194521Y24697852D01*
X9194514Y24697853D01*
X8907319Y24716676D01*
X8903200Y24716946D01*
X8899081Y24716676D01*
X8611886Y24697853D01*
X8611879Y24697852D01*
X8607774Y24697583D01*
X8603741Y24696781D01*
X8603735Y24696780D01*
X8321453Y24640630D01*
X8321447Y24640628D01*
X8317403Y24639824D01*
X8313494Y24638497D01*
X8313490Y24638496D01*
X8040961Y24545985D01*
X8037055Y24544659D01*
X7911513Y24482748D01*
X7775231Y24415542D01*
X7775226Y24415539D01*
X7771527Y24413715D01*
X7768094Y24411421D01*
X7528793Y24251526D01*
X7528788Y24251522D01*
X7525362Y24249233D01*
X7522268Y24246519D01*
X7522262Y24246515D01*
X7305862Y24056736D01*
X7302773Y24054027D01*
X7300064Y24050938D01*
X7110285Y23834538D01*
X7110281Y23834532D01*
X7107567Y23831438D01*
X7105278Y23828012D01*
X7105274Y23828007D01*
X7001579Y23672815D01*
X6943085Y23585273D01*
X6941261Y23581574D01*
X6941258Y23581569D01*
X6879721Y23456783D01*
X6812141Y23319745D01*
X6810816Y23315840D01*
X6810815Y23315839D01*
X6720466Y23049677D01*
X6716976Y23039397D01*
X6716172Y23035353D01*
X6716170Y23035347D01*
X6660981Y22757893D01*
X6659217Y22749026D01*
X6658948Y22744921D01*
X6658947Y22744914D01*
X6649230Y22596652D01*
X6639854Y22453600D01*
X584592Y22453600D01*
X19434Y23018758D01*
X18506Y23019695D01*
X-39643Y23079075D01*
X-39644Y23079076D01*
X-44571Y23084107D01*
X-81021Y23107598D01*
X-91346Y23115017D01*
X-125243Y23142076D01*
X-155438Y23156673D01*
X-168855Y23164202D01*
X-197038Y23182365D01*
X-203655Y23184773D01*
X-203660Y23184776D01*
X-237773Y23197192D01*
X-249516Y23202153D01*
X-282203Y23217954D01*
X-282208Y23217956D01*
X-288549Y23221021D01*
X-295407Y23222604D01*
X-295409Y23222605D01*
X-321226Y23228565D01*
X-335969Y23232932D01*
X-367485Y23244403D01*
X-374475Y23245286D01*
X-374483Y23245288D01*
X-410501Y23249838D01*
X-423053Y23252074D01*
X-458414Y23260238D01*
X-458417Y23260238D01*
X-465285Y23261824D01*
X-472331Y23261849D01*
X-472334Y23261849D01*
X-505856Y23261966D01*
X-506738Y23261995D01*
X-507569Y23262100D01*
X-544219Y23262100D01*
X-544659Y23262101D01*
X-643143Y23262445D01*
X-643148Y23262445D01*
X-646670Y23262457D01*
X-647870Y23262189D01*
X-649507Y23262100D01*
X-6426314Y23262100D01*
X-6494435Y23282102D01*
X-6527074Y23312447D01*
X-6585526Y23390298D01*
X-6610432Y23456783D01*
X-6595440Y23526179D01*
X-6545309Y23576452D01*
X-6528998Y23583932D01*
X-6518748Y23587775D01*
X-6503151Y23596314D01*
X-6401076Y23672815D01*
X-6388515Y23685376D01*
X-6312014Y23787451D01*
X-6303476Y23803046D01*
X-6258322Y23923494D01*
X-6254695Y23938749D01*
X-6249169Y23989614D01*
X-6248800Y23996428D01*
X-6248800Y24721485D01*
X-6253275Y24736724D01*
X-6254665Y24737929D01*
X-6262348Y24739600D01*
X-9246684Y24739600D01*
X-9261923Y24735125D01*
X-9263128Y24733735D01*
X-9264799Y24726052D01*
X-9264799Y23996431D01*
X-9264429Y23989610D01*
X-9258905Y23938748D01*
X-9255279Y23923496D01*
X-9210124Y23803046D01*
X-9201586Y23787451D01*
X-9125085Y23685376D01*
X-9112524Y23672815D01*
X-9010449Y23596314D01*
X-8994855Y23587776D01*
X-8983287Y23583440D01*
X-8926521Y23540799D01*
X-8901820Y23474238D01*
X-8917026Y23404889D01*
X-8928632Y23387365D01*
X-9022167Y23268930D01*
X-9022170Y23268925D01*
X-9025368Y23264876D01*
X-9027861Y23260360D01*
X-9027863Y23260357D01*
X-9138977Y23059074D01*
X-9141474Y23054550D01*
X-9143198Y23049681D01*
X-9143200Y23049677D01*
X-9212427Y22854186D01*
X-9221670Y22828085D01*
X-9222577Y22822992D01*
X-9222578Y22822989D01*
X-9247944Y22680581D01*
X-9263801Y22591563D01*
X-9266736Y22351337D01*
X-9230396Y22113856D01*
X-9193706Y22001603D01*
X-9157366Y21890417D01*
X-9157363Y21890411D01*
X-9155758Y21885499D01*
X-9153371Y21880913D01*
X-9153369Y21880909D01*
X-9146546Y21867803D01*
X-9044825Y21672400D01*
X-8900577Y21480280D01*
X-8726888Y21314299D01*
X-8689897Y21289065D01*
X-8644896Y21234156D01*
X-8636725Y21163632D01*
X-8667979Y21099884D01*
X-8692460Y21079189D01*
X-8694093Y21078132D01*
X-8698777Y21075102D01*
X-8876470Y20913414D01*
X-8900659Y20882785D01*
X-9022167Y20728930D01*
X-9022170Y20728925D01*
X-9025368Y20724876D01*
X-9027861Y20720360D01*
X-9027863Y20720357D01*
X-9138977Y20519074D01*
X-9141474Y20514550D01*
X-9143198Y20509681D01*
X-9143200Y20509677D01*
X-9195304Y20362541D01*
X-9221670Y20288085D01*
X-9222577Y20282992D01*
X-9222578Y20282989D01*
X-9262768Y20057362D01*
X-9263801Y20051563D01*
X-9263864Y20046399D01*
X-9266204Y19854843D01*
X-9266736Y19811337D01*
X-9230396Y19573856D01*
X-9200146Y19481305D01*
X-9157366Y19350417D01*
X-9157363Y19350411D01*
X-9155758Y19345499D01*
X-9153371Y19340913D01*
X-9153369Y19340909D01*
X-9065543Y19172198D01*
X-9044825Y19132400D01*
X-9041715Y19128258D01*
X-8908907Y18951375D01*
X-8900577Y18940280D01*
X-8726888Y18774299D01*
X-8722616Y18771385D01*
X-8554464Y18656679D01*
X-8528422Y18638914D01*
X-8523739Y18636740D01*
X-8523735Y18636738D01*
X-8315205Y18539942D01*
X-8315201Y18539941D01*
X-8310510Y18537763D01*
X-8079002Y18473560D01*
X-8073865Y18473011D01*
X-7886207Y18452956D01*
X-7886199Y18452956D01*
X-7882872Y18452600D01*
X-7648398Y18452600D01*
X-7645825Y18452812D01*
X-7645814Y18452812D01*
X-7544854Y18461113D01*
X-7469863Y18467278D01*
X-7236856Y18525806D01*
X-7082278Y18593018D01*
X-7021274Y18619543D01*
X-7021271Y18619545D01*
X-7016537Y18621603D01*
X-6883782Y18707486D01*
X-6819163Y18749290D01*
X-6819160Y18749292D01*
X-6814823Y18752098D01*
X-6637130Y18913786D01*
X-6576453Y18990617D01*
X-6491433Y19098270D01*
X-6491430Y19098275D01*
X-6488232Y19102324D01*
X-6479627Y19117911D01*
X-6374623Y19308126D01*
X-6374621Y19308130D01*
X-6372126Y19312650D01*
X-6358079Y19352315D01*
X-6293656Y19534240D01*
X-6293655Y19534244D01*
X-6291930Y19539115D01*
X-6286617Y19568941D01*
X-6250705Y19770548D01*
X-6250704Y19770554D01*
X-6249799Y19775637D01*
X-6246864Y20015863D01*
X-6283204Y20253344D01*
X-6333062Y20405887D01*
X-6356234Y20476783D01*
X-6356237Y20476789D01*
X-6357842Y20481701D01*
X-6365170Y20495779D01*
X-6466384Y20690207D01*
X-6468775Y20694800D01*
X-6613023Y20886920D01*
X-6786712Y21052901D01*
X-6823703Y21078135D01*
X-6868704Y21133044D01*
X-6876875Y21203568D01*
X-6845621Y21267316D01*
X-6821140Y21288011D01*
X-6819165Y21289289D01*
X-6814823Y21292098D01*
X-6637130Y21453786D01*
X-6523875Y21597192D01*
X-6465958Y21638255D01*
X-6424993Y21645100D01*
X-945882Y21645100D01*
X-877761Y21625098D01*
X-856787Y21608195D01*
X3147795Y17603613D01*
X3181821Y17541301D01*
X3184700Y17514518D01*
X3184700Y12117788D01*
X3164698Y12049667D01*
X3147795Y12028693D01*
X2988107Y11869005D01*
X2925795Y11834979D01*
X2899012Y11832100D01*
X-3343636Y11832100D01*
X-3344955Y11832107D01*
X-3435021Y11833050D01*
X-3441907Y11831561D01*
X-3441909Y11831561D01*
X-3460487Y11827544D01*
X-3477386Y11823890D01*
X-3489965Y11821830D01*
X-3526059Y11817782D01*
X-3526062Y11817781D01*
X-3533055Y11816997D01*
X-3564732Y11805966D01*
X-3579542Y11801804D01*
X-3605422Y11796209D01*
X-3605426Y11796208D01*
X-3612311Y11794719D01*
X-3618695Y11791742D01*
X-3618701Y11791740D01*
X-3651607Y11776396D01*
X-3663416Y11771601D01*
X-3704352Y11757345D01*
X-3710324Y11753613D01*
X-3710331Y11753610D01*
X-3732795Y11739573D01*
X-3746312Y11732234D01*
X-3770319Y11721039D01*
X-3770323Y11721037D01*
X-3776702Y11718062D01*
X-3804616Y11696410D01*
X-3810956Y11691492D01*
X-3821405Y11684203D01*
X-3858176Y11661226D01*
X-3863175Y11656261D01*
X-3863177Y11656260D01*
X-3886985Y11632617D01*
X-3887608Y11632034D01*
X-3888270Y11631521D01*
X-3914117Y11605674D01*
X-3927561Y11592323D01*
X-3986882Y11533415D01*
X-3987541Y11532377D01*
X-3988647Y11531144D01*
X-18839205Y-3319413D01*
X-18901517Y-3353439D01*
X-18972332Y-3348374D01*
X-19029168Y-3305827D01*
X-19053979Y-3239307D01*
X-19054300Y-3230318D01*
X-19054300Y-2825482D01*
X-19034298Y-2757361D01*
X-19017395Y-2736387D01*
X-3211642Y13069366D01*
X-3210705Y13070294D01*
X-3151325Y13128443D01*
X-3151324Y13128444D01*
X-3146293Y13133371D01*
X-3122802Y13169821D01*
X-3115383Y13180146D01*
X-3088324Y13214043D01*
X-3085260Y13220382D01*
X-3085257Y13220386D01*
X-3073726Y13244238D01*
X-3066199Y13257651D01*
X-3051853Y13279913D01*
X-3051852Y13279916D01*
X-3048035Y13285838D01*
X-3045624Y13292461D01*
X-3033208Y13326573D01*
X-3028247Y13338317D01*
X-3012448Y13370999D01*
X-3012447Y13371001D01*
X-3009379Y13377348D01*
X-3001834Y13410027D01*
X-2997466Y13424775D01*
X-2995273Y13430800D01*
X-2985997Y13456285D01*
X-2985115Y13463271D01*
X-2985113Y13463277D01*
X-2981321Y13493292D01*
X-2952939Y13558368D01*
X-2893879Y13597769D01*
X-2823704Y13599206D01*
X-2610112Y13541975D01*
X-2599319Y13540072D01*
X-2382275Y13521083D01*
X-2371325Y13521083D01*
X-2154281Y13540072D01*
X-2143488Y13541975D01*
X-1933039Y13598364D01*
X-1922747Y13602110D01*
X-1725289Y13694186D01*
X-1715794Y13699669D01*
X-1663752Y13736109D01*
X-1655376Y13746588D01*
X-1662444Y13760034D01*
X-2646915Y14744505D01*
X-2680941Y14806817D01*
X-2679106Y14832468D01*
X-2012392Y14832468D01*
X-2012261Y14830635D01*
X-2008010Y14824020D01*
X-1302513Y14118523D01*
X-1290738Y14112093D01*
X-1278723Y14121389D01*
X-1242869Y14172594D01*
X-1237386Y14182089D01*
X-1145310Y14379547D01*
X-1141564Y14389839D01*
X-1085175Y14600288D01*
X-1083272Y14611081D01*
X-1064283Y14828125D01*
X-1064283Y14839075D01*
X-1083272Y15056119D01*
X-1085175Y15066912D01*
X-1141564Y15277361D01*
X-1145310Y15287653D01*
X-1237386Y15485111D01*
X-1242869Y15494606D01*
X-1279309Y15546648D01*
X-1289788Y15555024D01*
X-1303234Y15547956D01*
X-2004778Y14846412D01*
X-2012392Y14832468D01*
X-2679106Y14832468D01*
X-2675876Y14877632D01*
X-2646915Y14922695D01*
X-1661723Y15907887D01*
X-1655293Y15919662D01*
X-1664589Y15931677D01*
X-1715794Y15967531D01*
X-1725289Y15973014D01*
X-1922747Y16065090D01*
X-1933039Y16068836D01*
X-2143488Y16125225D01*
X-2154281Y16127128D01*
X-2371325Y16146117D01*
X-2382275Y16146117D01*
X-2599319Y16127128D01*
X-2610113Y16125225D01*
X-2822887Y16068213D01*
X-2893864Y16069903D01*
X-2952659Y16109697D01*
X-2980713Y16175874D01*
X-2982618Y16192858D01*
X-2982618Y16192859D01*
X-2983403Y16199855D01*
X-2994432Y16231526D01*
X-2998595Y16246335D01*
X-3004193Y16272229D01*
X-3004194Y16272232D01*
X-3005681Y16279110D01*
X-3024008Y16318413D01*
X-3028790Y16330189D01*
X-3043055Y16371152D01*
X-3046790Y16377130D01*
X-3060827Y16399595D01*
X-3068166Y16413112D01*
X-3079359Y16437114D01*
X-3079360Y16437115D01*
X-3082338Y16443502D01*
X-3108906Y16477753D01*
X-3116202Y16488212D01*
X-3135442Y16519004D01*
X-3135444Y16519007D01*
X-3139174Y16524976D01*
X-3167776Y16553779D01*
X-3168361Y16554404D01*
X-3168878Y16555070D01*
X-3194868Y16581060D01*
X-3266985Y16653682D01*
X-3268022Y16654340D01*
X-3269251Y16655443D01*
X-4552566Y17938758D01*
X-4553494Y17939695D01*
X-4611643Y17999075D01*
X-4611644Y17999076D01*
X-4616571Y18004107D01*
X-4653021Y18027598D01*
X-4663346Y18035017D01*
X-4697243Y18062076D01*
X-4713928Y18070142D01*
X-4727437Y18076672D01*
X-4740855Y18084202D01*
X-4769038Y18102365D01*
X-4775655Y18104773D01*
X-4775660Y18104776D01*
X-4809773Y18117192D01*
X-4821516Y18122153D01*
X-4854203Y18137954D01*
X-4854208Y18137956D01*
X-4860549Y18141021D01*
X-4867407Y18142604D01*
X-4867409Y18142605D01*
X-4885692Y18146826D01*
X-4893228Y18148565D01*
X-4907969Y18152932D01*
X-4939485Y18164403D01*
X-4946475Y18165286D01*
X-4946483Y18165288D01*
X-4982501Y18169838D01*
X-4995053Y18172074D01*
X-5030414Y18180238D01*
X-5030417Y18180238D01*
X-5037285Y18181824D01*
X-5044331Y18181849D01*
X-5044334Y18181849D01*
X-5077856Y18181966D01*
X-5078738Y18181995D01*
X-5079569Y18182100D01*
X-5116219Y18182100D01*
X-5116659Y18182101D01*
X-5215143Y18182445D01*
X-5215148Y18182445D01*
X-5218670Y18182457D01*
X-5219870Y18182189D01*
X-5221507Y18182100D01*
X-8807719Y18182100D01*
X-8875840Y18202102D01*
X-8896810Y18219001D01*
X-9873397Y19195589D01*
X-9907421Y19257899D01*
X-9910300Y19284682D01*
X-9910300Y25265715D01*
X-9264800Y25265715D01*
X-9260325Y25250476D01*
X-9258935Y25249271D01*
X-9251252Y25247600D01*
X-8028915Y25247600D01*
X-8013676Y25252075D01*
X-8012471Y25253465D01*
X-8010800Y25261148D01*
X-8010800Y25265715D01*
X-7502800Y25265715D01*
X-7498325Y25250476D01*
X-7496935Y25249271D01*
X-7489252Y25247600D01*
X-6266916Y25247600D01*
X-6251677Y25252075D01*
X-6250472Y25253465D01*
X-6248801Y25261148D01*
X-6248801Y25990769D01*
X-6249171Y25997590D01*
X-6254695Y26048452D01*
X-6258321Y26063704D01*
X-6303476Y26184154D01*
X-6312014Y26199749D01*
X-6388515Y26301824D01*
X-6401076Y26314385D01*
X-6503151Y26390886D01*
X-6518746Y26399424D01*
X-6639194Y26444578D01*
X-6654449Y26448205D01*
X-6705314Y26453731D01*
X-6712128Y26454100D01*
X-7484685Y26454100D01*
X-7499924Y26449625D01*
X-7501129Y26448235D01*
X-7502800Y26440552D01*
X-7502800Y25265715D01*
X-8010800Y25265715D01*
X-8010800Y26435984D01*
X-8015275Y26451223D01*
X-8016665Y26452428D01*
X-8024348Y26454099D01*
X-8801469Y26454099D01*
X-8808290Y26453729D01*
X-8859152Y26448205D01*
X-8874404Y26444579D01*
X-8994854Y26399424D01*
X-9010449Y26390886D01*
X-9112524Y26314385D01*
X-9125085Y26301824D01*
X-9201586Y26199749D01*
X-9210124Y26184154D01*
X-9255278Y26063706D01*
X-9258905Y26048451D01*
X-9264431Y25997586D01*
X-9264800Y25990772D01*
X-9264800Y25265715D01*
X-9910300Y25265715D01*
X-9910300Y30073600D01*
X-8730298Y30073600D01*
X-8710343Y29845513D01*
X-8708919Y29840200D01*
X-8708919Y29840198D01*
X-8671775Y29701578D01*
X-8651084Y29624357D01*
X-8648761Y29619376D01*
X-8648761Y29619375D01*
X-8556649Y29421838D01*
X-8556646Y29421833D01*
X-8554323Y29416851D01*
X-8551166Y29412343D01*
X-8429018Y29237898D01*
X-8422998Y29229300D01*
X-8261100Y29067402D01*
X-8256592Y29064245D01*
X-8256589Y29064243D01*
X-8195173Y29021239D01*
X-8073549Y28936077D01*
X-8068567Y28933754D01*
X-8068562Y28933751D01*
X-7872035Y28842110D01*
X-7866043Y28839316D01*
X-7860735Y28837894D01*
X-7860733Y28837893D01*
X-7650202Y28781481D01*
X-7650200Y28781481D01*
X-7644887Y28780057D01*
X-7416800Y28760102D01*
X-7188713Y28780057D01*
X-7183400Y28781481D01*
X-7183398Y28781481D01*
X-6972867Y28837893D01*
X-6972865Y28837894D01*
X-6967557Y28839316D01*
X-6961565Y28842110D01*
X-6765038Y28933751D01*
X-6765033Y28933754D01*
X-6760051Y28936077D01*
X-6686557Y28987538D01*
X-3138307Y28987538D01*
X-3129011Y28975523D01*
X-3077806Y28939669D01*
X-3068311Y28934186D01*
X-2870853Y28842110D01*
X-2860561Y28838364D01*
X-2650112Y28781975D01*
X-2639319Y28780072D01*
X-2422275Y28761083D01*
X-2411325Y28761083D01*
X-2194281Y28780072D01*
X-2183488Y28781975D01*
X-1973039Y28838364D01*
X-1962747Y28842110D01*
X-1765289Y28934186D01*
X-1755794Y28939669D01*
X-1703752Y28976109D01*
X-1695376Y28986588D01*
X-1702444Y29000034D01*
X-2403988Y29701578D01*
X-2417932Y29709192D01*
X-2419765Y29709061D01*
X-2426380Y29704810D01*
X-3131877Y28999313D01*
X-3138307Y28987538D01*
X-6686557Y28987538D01*
X-6638427Y29021239D01*
X-6577011Y29064243D01*
X-6577008Y29064245D01*
X-6572500Y29067402D01*
X-6410602Y29229300D01*
X-6404581Y29237898D01*
X-6282434Y29412343D01*
X-6279277Y29416851D01*
X-6276954Y29421833D01*
X-6276951Y29421838D01*
X-6184839Y29619375D01*
X-6184839Y29619376D01*
X-6182516Y29624357D01*
X-6161824Y29701578D01*
X-6124681Y29840198D01*
X-6124681Y29840200D01*
X-6123257Y29845513D01*
X-6103781Y30068125D01*
X-3729317Y30068125D01*
X-3710328Y29851081D01*
X-3708425Y29840288D01*
X-3652036Y29629839D01*
X-3648290Y29619547D01*
X-3556214Y29422089D01*
X-3550731Y29412594D01*
X-3514291Y29360552D01*
X-3503812Y29352176D01*
X-3490366Y29359244D01*
X-2788822Y30060788D01*
X-2782444Y30072468D01*
X-2052392Y30072468D01*
X-2052261Y30070635D01*
X-2048010Y30064020D01*
X-1342513Y29358523D01*
X-1330738Y29352093D01*
X-1318723Y29361389D01*
X-1282869Y29412594D01*
X-1277386Y29422089D01*
X-1185310Y29619547D01*
X-1181564Y29629839D01*
X-1125175Y29840288D01*
X-1123272Y29851081D01*
X-1104283Y30068125D01*
X-1104283Y30079075D01*
X-1123272Y30296119D01*
X-1125175Y30306912D01*
X-1181564Y30517361D01*
X-1185310Y30527653D01*
X-1277386Y30725111D01*
X-1282869Y30734606D01*
X-1319309Y30786648D01*
X-1329788Y30795024D01*
X-1343234Y30787956D01*
X-2044778Y30086412D01*
X-2052392Y30072468D01*
X-2782444Y30072468D01*
X-2781208Y30074732D01*
X-2781339Y30076565D01*
X-2785590Y30083180D01*
X-3491087Y30788677D01*
X-3502862Y30795107D01*
X-3514877Y30785811D01*
X-3550731Y30734606D01*
X-3556214Y30725111D01*
X-3648290Y30527653D01*
X-3652036Y30517361D01*
X-3708425Y30306912D01*
X-3710328Y30296119D01*
X-3729317Y30079075D01*
X-3729317Y30068125D01*
X-6103781Y30068125D01*
X-6103302Y30073600D01*
X-6123257Y30301687D01*
X-6139246Y30361360D01*
X-6181093Y30517533D01*
X-6181094Y30517535D01*
X-6182516Y30522843D01*
X-6189543Y30537912D01*
X-6276951Y30725362D01*
X-6276954Y30725367D01*
X-6279277Y30730349D01*
X-6410602Y30917900D01*
X-6572500Y31079798D01*
X-6577008Y31082955D01*
X-6577011Y31082957D01*
X-6687914Y31160612D01*
X-3138224Y31160612D01*
X-3131156Y31147166D01*
X-2429612Y30445622D01*
X-2415668Y30438008D01*
X-2413835Y30438139D01*
X-2407220Y30442390D01*
X-1701723Y31147887D01*
X-1695293Y31159662D01*
X-1704589Y31171677D01*
X-1755794Y31207531D01*
X-1765289Y31213014D01*
X-1962747Y31305090D01*
X-1973039Y31308836D01*
X-2183488Y31365225D01*
X-2194281Y31367128D01*
X-2411325Y31386117D01*
X-2422275Y31386117D01*
X-2639319Y31367128D01*
X-2650112Y31365225D01*
X-2860561Y31308836D01*
X-2870853Y31305090D01*
X-3068311Y31213014D01*
X-3077806Y31207531D01*
X-3129848Y31171091D01*
X-3138224Y31160612D01*
X-6687914Y31160612D01*
X-6702880Y31171091D01*
X-6760051Y31211123D01*
X-6765033Y31213446D01*
X-6765038Y31213449D01*
X-6962575Y31305561D01*
X-6962576Y31305561D01*
X-6967557Y31307884D01*
X-6972865Y31309306D01*
X-6972867Y31309307D01*
X-7183398Y31365719D01*
X-7183400Y31365719D01*
X-7188713Y31367143D01*
X-7416800Y31387098D01*
X-7644887Y31367143D01*
X-7650200Y31365719D01*
X-7650202Y31365719D01*
X-7860733Y31309307D01*
X-7860735Y31309306D01*
X-7866043Y31307884D01*
X-7871024Y31305561D01*
X-7871025Y31305561D01*
X-8068562Y31213449D01*
X-8068567Y31213446D01*
X-8073549Y31211123D01*
X-8130720Y31171091D01*
X-8256589Y31082957D01*
X-8256592Y31082955D01*
X-8261100Y31079798D01*
X-8422998Y30917900D01*
X-8554323Y30730349D01*
X-8556646Y30725367D01*
X-8556649Y30725362D01*
X-8644057Y30537912D01*
X-8651084Y30522843D01*
X-8652506Y30517535D01*
X-8652507Y30517533D01*
X-8694354Y30361360D01*
X-8710343Y30301687D01*
X-8730298Y30073600D01*
X-9910300Y30073600D01*
X-9910300Y31210518D01*
X-9890298Y31278639D01*
X-9873395Y31299613D01*
X-9407542Y31765466D01*
X164700Y31765466D01*
X171455Y31703284D01*
X222585Y31566895D01*
X309939Y31450339D01*
X426495Y31362985D01*
X562884Y31311855D01*
X625066Y31305100D01*
X2321334Y31305100D01*
X2383516Y31311855D01*
X2519905Y31362985D01*
X2636461Y31450339D01*
X2694319Y31527538D01*
X3251693Y31527538D01*
X3260989Y31515523D01*
X3312194Y31479669D01*
X3321689Y31474186D01*
X3519147Y31382110D01*
X3529439Y31378364D01*
X3739888Y31321975D01*
X3750681Y31320072D01*
X3967725Y31301083D01*
X3978675Y31301083D01*
X4195719Y31320072D01*
X4206512Y31321975D01*
X4416961Y31378364D01*
X4427253Y31382110D01*
X4624711Y31474186D01*
X4634206Y31479669D01*
X4682665Y31513600D01*
X16019702Y31513600D01*
X16039657Y31285513D01*
X16041081Y31280200D01*
X16041081Y31280198D01*
X16094779Y31079798D01*
X16098916Y31064357D01*
X16101239Y31059376D01*
X16101239Y31059375D01*
X16193351Y30861838D01*
X16193354Y30861833D01*
X16195677Y30856851D01*
X16198834Y30852343D01*
X16287923Y30725111D01*
X16327002Y30669300D01*
X16488900Y30507402D01*
X16493408Y30504245D01*
X16493411Y30504243D01*
X16557118Y30459635D01*
X16676451Y30376077D01*
X16681433Y30373754D01*
X16681438Y30373751D01*
X16878501Y30281860D01*
X16883957Y30279316D01*
X16889265Y30277894D01*
X16889267Y30277893D01*
X17099798Y30221481D01*
X17099800Y30221481D01*
X17105113Y30220057D01*
X17333200Y30200102D01*
X17561287Y30220057D01*
X17566600Y30221481D01*
X17566602Y30221481D01*
X17777133Y30277893D01*
X17777135Y30277894D01*
X17782443Y30279316D01*
X17787899Y30281860D01*
X17984962Y30373751D01*
X17984967Y30373754D01*
X17989949Y30376077D01*
X18109282Y30459635D01*
X18172989Y30504243D01*
X18172992Y30504245D01*
X18177500Y30507402D01*
X18339398Y30669300D01*
X18378478Y30725111D01*
X18467566Y30852343D01*
X18470723Y30856851D01*
X18473046Y30861833D01*
X18473049Y30861838D01*
X18565161Y31059375D01*
X18565161Y31059376D01*
X18567484Y31064357D01*
X18571622Y31079798D01*
X18625319Y31280198D01*
X18625319Y31280200D01*
X18626743Y31285513D01*
X18646698Y31513600D01*
X18626743Y31741687D01*
X18621277Y31762086D01*
X18568907Y31957533D01*
X18568906Y31957535D01*
X18567484Y31962843D01*
X18556169Y31987108D01*
X18473049Y32165362D01*
X18473046Y32165367D01*
X18470723Y32170349D01*
X18357982Y32331360D01*
X18342557Y32353389D01*
X18342555Y32353392D01*
X18339398Y32357900D01*
X18177500Y32519798D01*
X18172992Y32522955D01*
X18172989Y32522957D01*
X18088721Y32581962D01*
X17989949Y32651123D01*
X17984967Y32653446D01*
X17984962Y32653449D01*
X17787425Y32745561D01*
X17787424Y32745561D01*
X17782443Y32747884D01*
X17777135Y32749306D01*
X17777133Y32749307D01*
X17566602Y32805719D01*
X17566600Y32805719D01*
X17561287Y32807143D01*
X17333200Y32827098D01*
X17105113Y32807143D01*
X17099800Y32805719D01*
X17099798Y32805719D01*
X16889267Y32749307D01*
X16889265Y32749306D01*
X16883957Y32747884D01*
X16878976Y32745561D01*
X16878975Y32745561D01*
X16681438Y32653449D01*
X16681433Y32653446D01*
X16676451Y32651123D01*
X16577679Y32581962D01*
X16493411Y32522957D01*
X16493408Y32522955D01*
X16488900Y32519798D01*
X16327002Y32357900D01*
X16323845Y32353392D01*
X16323843Y32353389D01*
X16308418Y32331360D01*
X16195677Y32170349D01*
X16193354Y32165367D01*
X16193351Y32165362D01*
X16110231Y31987108D01*
X16098916Y31962843D01*
X16097494Y31957535D01*
X16097493Y31957533D01*
X16045123Y31762086D01*
X16039657Y31741687D01*
X16019702Y31513600D01*
X4682665Y31513600D01*
X4686248Y31516109D01*
X4694624Y31526588D01*
X4687556Y31540034D01*
X3986012Y32241578D01*
X3972068Y32249192D01*
X3970235Y32249061D01*
X3963620Y32244810D01*
X3258123Y31539313D01*
X3251693Y31527538D01*
X2694319Y31527538D01*
X2723815Y31566895D01*
X2774945Y31703284D01*
X2781700Y31765466D01*
X2781700Y31768785D01*
X2805353Y31835710D01*
X2851356Y31871404D01*
X2850341Y31873334D01*
X2861200Y31879042D01*
X2861445Y31879232D01*
X2861603Y31879253D01*
X2899634Y31899244D01*
X3601178Y32600788D01*
X3607556Y32612468D01*
X4337608Y32612468D01*
X4337739Y32610635D01*
X4341990Y32604020D01*
X5047487Y31898523D01*
X5059262Y31892093D01*
X5071277Y31901389D01*
X5107131Y31952594D01*
X5112614Y31962089D01*
X5204690Y32159547D01*
X5208436Y32169839D01*
X5264825Y32380288D01*
X5266728Y32391081D01*
X5285717Y32608125D01*
X5285717Y32619075D01*
X5266728Y32836119D01*
X5264825Y32846912D01*
X5208436Y33057361D01*
X5204690Y33067653D01*
X5112614Y33265111D01*
X5107131Y33274606D01*
X5070691Y33326648D01*
X5060212Y33335024D01*
X5046766Y33327956D01*
X4345222Y32626412D01*
X4337608Y32612468D01*
X3607556Y32612468D01*
X3608792Y32614732D01*
X3608661Y32616565D01*
X3604410Y32623180D01*
X2898913Y33328677D01*
X2857171Y33351471D01*
X2847171Y33353647D01*
X2796973Y33403853D01*
X2781749Y33457414D01*
X2781700Y33458319D01*
X2781700Y33461734D01*
X2774945Y33523916D01*
X2723815Y33660305D01*
X2693607Y33700612D01*
X3251776Y33700612D01*
X3258844Y33687166D01*
X3960388Y32985622D01*
X3974332Y32978008D01*
X3976165Y32978139D01*
X3982780Y32982390D01*
X4688277Y33687887D01*
X4694707Y33699662D01*
X4685411Y33711677D01*
X4634206Y33747531D01*
X4624711Y33753014D01*
X4427253Y33845090D01*
X4416961Y33848836D01*
X4206512Y33905225D01*
X4195719Y33907128D01*
X3978675Y33926117D01*
X3967725Y33926117D01*
X3750681Y33907128D01*
X3739888Y33905225D01*
X3529439Y33848836D01*
X3519147Y33845090D01*
X3321689Y33753014D01*
X3312194Y33747531D01*
X3260152Y33711091D01*
X3251776Y33700612D01*
X2693607Y33700612D01*
X2636461Y33776861D01*
X2519905Y33864215D01*
X2383516Y33915345D01*
X2321334Y33922100D01*
X625066Y33922100D01*
X562884Y33915345D01*
X426495Y33864215D01*
X405975Y33848836D01*
X367794Y33820221D01*
X301288Y33795373D01*
X290176Y33797784D01*
X276341Y33734186D01*
X266579Y33719006D01*
X222585Y33660305D01*
X171455Y33523916D01*
X164700Y33461734D01*
X164700Y31765466D01*
X-9407542Y31765466D01*
X-7880813Y33292195D01*
X-7818501Y33326221D01*
X-7791718Y33329100D01*
X-822014Y33329100D01*
X-820694Y33329093D01*
X-730579Y33328149D01*
X-688203Y33337311D01*
X-675637Y33339369D01*
X-632545Y33344203D01*
X-625894Y33346519D01*
X-625890Y33346520D01*
X-600870Y33355233D01*
X-586058Y33359396D01*
X-560181Y33364991D01*
X-553290Y33366481D01*
X-513987Y33384808D01*
X-502211Y33389590D01*
X-461248Y33403855D01*
X-455273Y33407589D01*
X-455270Y33407590D01*
X-432805Y33421627D01*
X-419288Y33428966D01*
X-395286Y33440159D01*
X-395285Y33440160D01*
X-388898Y33443138D01*
X-370493Y33457414D01*
X-354647Y33469706D01*
X-344188Y33477002D01*
X-313396Y33496242D01*
X-313393Y33496244D01*
X-307424Y33499974D01*
X-278621Y33528576D01*
X-277996Y33529161D01*
X-277330Y33529678D01*
X-251340Y33555668D01*
X-178718Y33627785D01*
X-178060Y33628822D01*
X-176957Y33630051D01*
X76658Y33883666D01*
X138970Y33917692D01*
X169702Y33915494D01*
X166545Y33929966D01*
X191319Y33996500D01*
X203134Y34010142D01*
X1824530Y35631538D01*
X12181693Y35631538D01*
X12190989Y35619523D01*
X12242194Y35583669D01*
X12251689Y35578186D01*
X12449147Y35486110D01*
X12459439Y35482364D01*
X12669888Y35425975D01*
X12680681Y35424072D01*
X12897725Y35405083D01*
X12908675Y35405083D01*
X13125719Y35424072D01*
X13136512Y35425975D01*
X13346961Y35482364D01*
X13357253Y35486110D01*
X13554711Y35578186D01*
X13564206Y35583669D01*
X13616248Y35620109D01*
X13624624Y35630588D01*
X13617556Y35644034D01*
X12916012Y36345578D01*
X12902068Y36353192D01*
X12900235Y36353061D01*
X12893620Y36348810D01*
X12188123Y35643313D01*
X12181693Y35631538D01*
X1824530Y35631538D01*
X2905117Y36712125D01*
X11590683Y36712125D01*
X11609672Y36495081D01*
X11611575Y36484288D01*
X11667964Y36273839D01*
X11671710Y36263547D01*
X11763786Y36066089D01*
X11769269Y36056594D01*
X11805709Y36004552D01*
X11816188Y35996176D01*
X11829634Y36003244D01*
X12531178Y36704788D01*
X12537556Y36716468D01*
X13267608Y36716468D01*
X13267739Y36714635D01*
X13271990Y36708020D01*
X13977487Y36002523D01*
X13989262Y35996093D01*
X14001277Y36005389D01*
X14037131Y36056594D01*
X14042614Y36066089D01*
X14134690Y36263547D01*
X14138436Y36273839D01*
X14194825Y36484288D01*
X14196728Y36495081D01*
X14215717Y36712125D01*
X14215717Y36723075D01*
X14196728Y36940119D01*
X14194825Y36950912D01*
X14138436Y37161361D01*
X14134690Y37171653D01*
X14042614Y37369111D01*
X14037131Y37378606D01*
X14000691Y37430648D01*
X13990212Y37439024D01*
X13976766Y37431956D01*
X13275222Y36730412D01*
X13267608Y36716468D01*
X12537556Y36716468D01*
X12538792Y36718732D01*
X12538661Y36720565D01*
X12534410Y36727180D01*
X11828913Y37432677D01*
X11817138Y37439107D01*
X11805123Y37429811D01*
X11769269Y37378606D01*
X11763786Y37369111D01*
X11671710Y37171653D01*
X11667964Y37161361D01*
X11611575Y36950912D01*
X11609672Y36940119D01*
X11590683Y36723075D01*
X11590683Y36712125D01*
X2905117Y36712125D01*
X3308358Y37115366D01*
X3309295Y37116294D01*
X3368675Y37174443D01*
X3368676Y37174444D01*
X3373707Y37179371D01*
X3397198Y37215821D01*
X3404617Y37226146D01*
X3431676Y37260043D01*
X3434740Y37266382D01*
X3434743Y37266386D01*
X3446274Y37290238D01*
X3453801Y37303651D01*
X3468147Y37325913D01*
X3468148Y37325916D01*
X3471965Y37331838D01*
X3474376Y37338461D01*
X3486792Y37372573D01*
X3491753Y37384317D01*
X3507552Y37416999D01*
X3507553Y37417001D01*
X3510621Y37423348D01*
X3518166Y37456027D01*
X3522534Y37470775D01*
X3534003Y37502285D01*
X3534885Y37509271D01*
X3534887Y37509277D01*
X3539438Y37545301D01*
X3541674Y37557853D01*
X3549838Y37593214D01*
X3549838Y37593217D01*
X3551424Y37600085D01*
X3551566Y37640656D01*
X3551595Y37641538D01*
X3551700Y37642369D01*
X3551700Y37679172D01*
X3552057Y37781470D01*
X3551789Y37782670D01*
X3551700Y37784307D01*
X3551700Y37804612D01*
X12181776Y37804612D01*
X12188844Y37791166D01*
X12890388Y37089622D01*
X12904332Y37082008D01*
X12906165Y37082139D01*
X12912780Y37086390D01*
X13618277Y37791887D01*
X13624707Y37803662D01*
X13615411Y37815677D01*
X13564206Y37851531D01*
X13554711Y37857014D01*
X13357253Y37949090D01*
X13346961Y37952836D01*
X13136512Y38009225D01*
X13125719Y38011128D01*
X12908675Y38030117D01*
X12897725Y38030117D01*
X12680681Y38011128D01*
X12669888Y38009225D01*
X12459439Y37952836D01*
X12449147Y37949090D01*
X12251689Y37857014D01*
X12242194Y37851531D01*
X12190152Y37815091D01*
X12181776Y37804612D01*
X3551700Y37804612D01*
X3551700Y39372623D01*
X3571702Y39440744D01*
X3588605Y39461718D01*
X3710949Y39584062D01*
X3723078Y39601383D01*
X3795487Y39704795D01*
X3850944Y39749123D01*
X3921563Y39756432D01*
X3984924Y39724401D01*
X4020909Y39663200D01*
X4024700Y39632524D01*
X4024700Y39597966D01*
X4031455Y39535784D01*
X4082585Y39399395D01*
X4169939Y39282839D01*
X4286495Y39195485D01*
X4422884Y39144355D01*
X4485066Y39137600D01*
X6081334Y39137600D01*
X6143516Y39144355D01*
X6279905Y39195485D01*
X6396461Y39282839D01*
X6483815Y39399395D01*
X6534945Y39535784D01*
X6541700Y39597966D01*
X6541700Y41194234D01*
X6534945Y41256416D01*
X6483815Y41392805D01*
X6396461Y41509361D01*
X6279905Y41596715D01*
X6143516Y41647845D01*
X6081334Y41654600D01*
X4485066Y41654600D01*
X4422884Y41647845D01*
X4286495Y41596715D01*
X4169939Y41509361D01*
X4082585Y41392805D01*
X4031455Y41256416D01*
X4024700Y41194234D01*
X4024700Y41159676D01*
X4004698Y41091555D01*
X3951042Y41045062D01*
X3880768Y41034958D01*
X3816188Y41064452D01*
X3795487Y41087405D01*
X3714108Y41203627D01*
X3714106Y41203630D01*
X3710949Y41208138D01*
X3555238Y41363849D01*
X3374854Y41490156D01*
X3175276Y41583220D01*
X2962571Y41640215D01*
X2743200Y41659407D01*
X2523829Y41640215D01*
X2311124Y41583220D01*
X2217762Y41539685D01*
X2116534Y41492482D01*
X2116529Y41492479D01*
X2111547Y41490156D01*
X2107040Y41487000D01*
X2107038Y41486999D01*
X1935673Y41367008D01*
X1935670Y41367006D01*
X1931162Y41363849D01*
X1775451Y41208138D01*
X1772294Y41203630D01*
X1772292Y41203627D01*
X1680414Y41072411D01*
X1649144Y41027753D01*
X1646821Y41022771D01*
X1646818Y41022766D01*
X1587395Y40895331D01*
X1540478Y40842046D01*
X1472201Y40822585D01*
X1404241Y40843127D01*
X1359005Y40895331D01*
X1299582Y41022766D01*
X1299579Y41022771D01*
X1297256Y41027753D01*
X1265986Y41072411D01*
X1174108Y41203627D01*
X1174106Y41203630D01*
X1170949Y41208138D01*
X1015238Y41363849D01*
X834854Y41490156D01*
X635276Y41583220D01*
X422571Y41640215D01*
X203200Y41659407D01*
X-16171Y41640215D01*
X-228876Y41583220D01*
X-322238Y41539685D01*
X-423466Y41492482D01*
X-423471Y41492479D01*
X-428453Y41490156D01*
X-432960Y41487000D01*
X-432962Y41486999D01*
X-604327Y41367008D01*
X-604330Y41367006D01*
X-608838Y41363849D01*
X-764549Y41208138D01*
X-767706Y41203630D01*
X-767708Y41203627D01*
X-859586Y41072411D01*
X-890856Y41027753D01*
X-893179Y41022771D01*
X-893182Y41022766D01*
X-952881Y40894740D01*
X-999798Y40841455D01*
X-1068076Y40821994D01*
X-1136036Y40842536D01*
X-1181271Y40894740D01*
X-1240854Y41022517D01*
X-1246334Y41032007D01*
X-1275211Y41073249D01*
X-1285687Y41081623D01*
X-1299134Y41074555D01*
X-1964779Y40408911D01*
X-1972392Y40394968D01*
X-1972261Y40393134D01*
X-1968010Y40386520D01*
X-1298409Y39716920D01*
X-1286639Y39710493D01*
X-1274624Y39719789D01*
X-1246334Y39760193D01*
X-1240854Y39769683D01*
X-1181271Y39897460D01*
X-1134354Y39950745D01*
X-1066076Y39970206D01*
X-998116Y39949664D01*
X-952881Y39897460D01*
X-893182Y39769434D01*
X-893179Y39769429D01*
X-890856Y39764447D01*
X-887700Y39759940D01*
X-887699Y39759938D01*
X-776677Y39601383D01*
X-764549Y39584062D01*
X-608838Y39428351D01*
X-428454Y39302044D01*
X-228876Y39208980D01*
X-16171Y39151985D01*
X203200Y39132793D01*
X422571Y39151985D01*
X635276Y39208980D01*
X834854Y39302044D01*
X1015238Y39428351D01*
X1170949Y39584062D01*
X1183078Y39601383D01*
X1294099Y39759938D01*
X1294100Y39759940D01*
X1297256Y39764447D01*
X1299579Y39769429D01*
X1299582Y39769434D01*
X1359005Y39896869D01*
X1405922Y39950154D01*
X1474199Y39969615D01*
X1542159Y39949073D01*
X1587395Y39896869D01*
X1646818Y39769434D01*
X1646821Y39769429D01*
X1649144Y39764447D01*
X1652300Y39759940D01*
X1652301Y39759938D01*
X1763323Y39601383D01*
X1775451Y39584062D01*
X1897795Y39461718D01*
X1931821Y39399406D01*
X1934700Y39372623D01*
X1934700Y38080681D01*
X1914698Y38012560D01*
X1897795Y37991586D01*
X-1110787Y34983005D01*
X-1173099Y34948979D01*
X-1199882Y34946100D01*
X-8169636Y34946100D01*
X-8170955Y34946107D01*
X-8261021Y34947050D01*
X-8267907Y34945561D01*
X-8267909Y34945561D01*
X-8286487Y34941544D01*
X-8303386Y34937890D01*
X-8315965Y34935830D01*
X-8352059Y34931782D01*
X-8352062Y34931781D01*
X-8359055Y34930997D01*
X-8390732Y34919966D01*
X-8405542Y34915804D01*
X-8431422Y34910209D01*
X-8431426Y34910208D01*
X-8438311Y34908719D01*
X-8444695Y34905742D01*
X-8444701Y34905740D01*
X-8477607Y34890396D01*
X-8489416Y34885601D01*
X-8530352Y34871345D01*
X-8536324Y34867613D01*
X-8536331Y34867610D01*
X-8558795Y34853573D01*
X-8572312Y34846234D01*
X-8596319Y34835039D01*
X-8596323Y34835037D01*
X-8602702Y34832062D01*
X-8630616Y34810410D01*
X-8636956Y34805492D01*
X-8647405Y34798203D01*
X-8684176Y34775226D01*
X-8689175Y34770261D01*
X-8689177Y34770260D01*
X-8712985Y34746617D01*
X-8713608Y34746034D01*
X-8714270Y34745521D01*
X-8740118Y34719673D01*
X-8812882Y34647415D01*
X-8813541Y34646377D01*
X-8814647Y34645144D01*
X-11283958Y32175834D01*
X-11284895Y32174906D01*
X-11285980Y32173843D01*
X-11349307Y32111829D01*
X-11372798Y32075379D01*
X-11380217Y32065054D01*
X-11407276Y32031157D01*
X-11410341Y32024816D01*
X-11410342Y32024815D01*
X-11421872Y32000963D01*
X-11429401Y31987546D01*
X-11447565Y31959362D01*
X-11449973Y31952745D01*
X-11449976Y31952740D01*
X-11462392Y31918627D01*
X-11467353Y31906884D01*
X-11483154Y31874197D01*
X-11483156Y31874192D01*
X-11486221Y31867851D01*
X-11487804Y31860993D01*
X-11487805Y31860991D01*
X-11493765Y31835174D01*
X-11498132Y31820431D01*
X-11509603Y31788915D01*
X-11510486Y31781925D01*
X-11510488Y31781917D01*
X-11515038Y31745899D01*
X-11517274Y31733347D01*
X-11524214Y31703284D01*
X-11527024Y31691115D01*
X-11527049Y31684069D01*
X-11527049Y31684066D01*
X-11527166Y31650544D01*
X-11527195Y31649662D01*
X-11527300Y31648831D01*
X-11527300Y31612181D01*
X-11527301Y31611741D01*
X-11527643Y31513600D01*
X-11527657Y31509730D01*
X-11527389Y31508530D01*
X-11527300Y31506893D01*
X-11527300Y20530605D01*
X-11547302Y20462484D01*
X-11600958Y20415991D01*
X-11671232Y20405887D01*
X-11725570Y20427392D01*
X-11890851Y20543123D01*
X-11895833Y20545446D01*
X-11895838Y20545449D01*
X-12093375Y20637561D01*
X-12093376Y20637561D01*
X-12098357Y20639884D01*
X-12103665Y20641306D01*
X-12103667Y20641307D01*
X-12314198Y20697719D01*
X-12314200Y20697719D01*
X-12319513Y20699143D01*
X-12547600Y20719098D01*
X-12775687Y20699143D01*
X-12781000Y20697719D01*
X-12781002Y20697719D01*
X-12991533Y20641307D01*
X-12991535Y20641306D01*
X-12996843Y20639884D01*
X-13001824Y20637561D01*
X-13001825Y20637561D01*
X-13199362Y20545449D01*
X-13199367Y20545446D01*
X-13204349Y20543123D01*
X-13271963Y20495779D01*
X-13387389Y20414957D01*
X-13387392Y20414955D01*
X-13391900Y20411798D01*
X-13553798Y20249900D01*
X-13556955Y20245392D01*
X-13556957Y20245389D01*
X-13606923Y20174030D01*
X-13685123Y20062349D01*
X-13687446Y20057367D01*
X-13687449Y20057362D01*
X-13734230Y19957038D01*
X-13781884Y19854843D01*
X-13783306Y19849535D01*
X-13783307Y19849533D01*
X-13827336Y19685215D01*
X-13841143Y19633687D01*
X-13861098Y19405600D01*
X-13841143Y19177513D01*
X-13781884Y18956357D01*
X-13779561Y18951376D01*
X-13779561Y18951375D01*
X-13687449Y18753838D01*
X-13687446Y18753833D01*
X-13685123Y18748851D01*
X-13553798Y18561300D01*
X-13391900Y18399402D01*
X-13387392Y18396245D01*
X-13387389Y18396243D01*
X-13342478Y18364796D01*
X-13204349Y18268077D01*
X-13199367Y18265754D01*
X-13199362Y18265751D01*
X-13004396Y18174838D01*
X-12996843Y18171316D01*
X-12991535Y18169894D01*
X-12991533Y18169893D01*
X-12781002Y18113481D01*
X-12781000Y18113481D01*
X-12775687Y18112057D01*
X-12547600Y18092102D01*
X-12319513Y18112057D01*
X-12314200Y18113481D01*
X-12314198Y18113481D01*
X-12103667Y18169893D01*
X-12103665Y18169894D01*
X-12098357Y18171316D01*
X-12090804Y18174838D01*
X-11895838Y18265751D01*
X-11895833Y18265754D01*
X-11890851Y18268077D01*
X-11752722Y18364796D01*
X-11707811Y18396243D01*
X-11707808Y18396245D01*
X-11703300Y18399402D01*
X-11607685Y18495017D01*
X-11545373Y18529043D01*
X-11474558Y18523978D01*
X-11417722Y18481431D01*
X-11414981Y18477384D01*
X-11413262Y18473698D01*
X-11408945Y18468133D01*
X-11408944Y18468131D01*
X-11386694Y18439447D01*
X-11379398Y18428988D01*
X-11360911Y18399402D01*
X-11356426Y18392224D01*
X-11351466Y18387229D01*
X-11351465Y18387228D01*
X-11327824Y18363421D01*
X-11327239Y18362796D01*
X-11326722Y18362130D01*
X-11300732Y18336140D01*
X-11228615Y18263518D01*
X-11227578Y18262860D01*
X-11226349Y18261757D01*
X-9773034Y16808442D01*
X-9772106Y16807505D01*
X-9725174Y16759580D01*
X-9709029Y16743093D01*
X-9672579Y16719602D01*
X-9662254Y16712183D01*
X-9628357Y16685124D01*
X-9622018Y16682060D01*
X-9622014Y16682057D01*
X-9598162Y16670526D01*
X-9584749Y16662999D01*
X-9562487Y16648653D01*
X-9562484Y16648652D01*
X-9556562Y16644835D01*
X-9549943Y16642426D01*
X-9549939Y16642424D01*
X-9515827Y16630008D01*
X-9504083Y16625047D01*
X-9471401Y16609248D01*
X-9471399Y16609247D01*
X-9465052Y16606179D01*
X-9448117Y16602269D01*
X-9432373Y16598634D01*
X-9417632Y16594268D01*
X-9386115Y16582797D01*
X-9379129Y16581915D01*
X-9379123Y16581913D01*
X-9343099Y16577362D01*
X-9330547Y16575126D01*
X-9295186Y16566962D01*
X-9295183Y16566962D01*
X-9288315Y16565376D01*
X-9281269Y16565351D01*
X-9281266Y16565351D01*
X-9247744Y16565234D01*
X-9246862Y16565205D01*
X-9246031Y16565100D01*
X-9209381Y16565100D01*
X-9208941Y16565099D01*
X-9110457Y16564755D01*
X-9110452Y16564755D01*
X-9106930Y16564743D01*
X-9105730Y16565011D01*
X-9104093Y16565100D01*
X-5517882Y16565100D01*
X-5449761Y16545098D01*
X-5428787Y16528195D01*
X-4622205Y15721613D01*
X-4588179Y15659301D01*
X-4585300Y15632518D01*
X-4585300Y14034681D01*
X-4605302Y13966560D01*
X-4622205Y13945586D01*
X-6418510Y12149281D01*
X-6480822Y12115255D01*
X-6551637Y12120320D01*
X-6608473Y12162867D01*
X-6633284Y12229387D01*
X-6621046Y12293214D01*
X-6612445Y12311007D01*
X-6609379Y12317349D01*
X-6601834Y12350028D01*
X-6597466Y12364775D01*
X-6585997Y12396285D01*
X-6585115Y12403270D01*
X-6585113Y12403277D01*
X-6580563Y12439292D01*
X-6578328Y12451843D01*
X-6570160Y12487222D01*
X-6568575Y12494085D01*
X-6568540Y12503911D01*
X-6568433Y12534674D01*
X-6568404Y12535543D01*
X-6568300Y12536369D01*
X-6568300Y12572886D01*
X-6568211Y12598323D01*
X-6567954Y12671936D01*
X-6567954Y12671942D01*
X-6567942Y12675470D01*
X-6568211Y12676673D01*
X-6568300Y12678317D01*
X-6568300Y13739412D01*
X-6548298Y13807533D01*
X-6531395Y13828507D01*
X-6370602Y13989300D01*
X-6239277Y14176851D01*
X-6236954Y14181833D01*
X-6236951Y14181838D01*
X-6144839Y14379375D01*
X-6144839Y14379376D01*
X-6142516Y14384357D01*
X-6131270Y14426325D01*
X-6084681Y14600198D01*
X-6084681Y14600200D01*
X-6083257Y14605513D01*
X-6063302Y14833600D01*
X-6083257Y15061687D01*
X-6092605Y15096573D01*
X-6141093Y15277533D01*
X-6141094Y15277535D01*
X-6142516Y15282843D01*
X-6216803Y15442154D01*
X-6236951Y15485362D01*
X-6236954Y15485367D01*
X-6239277Y15490349D01*
X-6370602Y15677900D01*
X-6532500Y15839798D01*
X-6537008Y15842955D01*
X-6537011Y15842957D01*
X-6646557Y15919662D01*
X-6720051Y15971123D01*
X-6725033Y15973446D01*
X-6725038Y15973449D01*
X-6922575Y16065561D01*
X-6922576Y16065561D01*
X-6927557Y16067884D01*
X-6932865Y16069306D01*
X-6932867Y16069307D01*
X-7143398Y16125719D01*
X-7143400Y16125719D01*
X-7148713Y16127143D01*
X-7376800Y16147098D01*
X-7604887Y16127143D01*
X-7610200Y16125719D01*
X-7610202Y16125719D01*
X-7820733Y16069307D01*
X-7820735Y16069306D01*
X-7826043Y16067884D01*
X-7831024Y16065561D01*
X-7831025Y16065561D01*
X-8028562Y15973449D01*
X-8028567Y15973446D01*
X-8033549Y15971123D01*
X-8107043Y15919662D01*
X-8216589Y15842957D01*
X-8216592Y15842955D01*
X-8221100Y15839798D01*
X-8382998Y15677900D01*
X-8514323Y15490349D01*
X-8516646Y15485367D01*
X-8516649Y15485362D01*
X-8536797Y15442154D01*
X-8611084Y15282843D01*
X-8612506Y15277535D01*
X-8612507Y15277533D01*
X-8660995Y15096573D01*
X-8670343Y15061687D01*
X-8690298Y14833600D01*
X-8670343Y14605513D01*
X-8668919Y14600200D01*
X-8668919Y14600198D01*
X-8622329Y14426325D01*
X-8611084Y14384357D01*
X-8608761Y14379376D01*
X-8608761Y14379375D01*
X-8516649Y14181838D01*
X-8516646Y14181833D01*
X-8514323Y14176851D01*
X-8382998Y13989300D01*
X-8222205Y13828507D01*
X-8188179Y13766195D01*
X-8185300Y13739412D01*
X-8185300Y12974682D01*
X-8205302Y12906561D01*
X-8222205Y12885587D01*
X-16096787Y5011005D01*
X-16159099Y4976979D01*
X-16185882Y4974100D01*
X-32553636Y4974100D01*
X-32554955Y4974107D01*
X-32645021Y4975050D01*
X-32651907Y4973561D01*
X-32651909Y4973561D01*
X-32670487Y4969544D01*
X-32687386Y4965890D01*
X-32699965Y4963830D01*
X-32736059Y4959782D01*
X-32736062Y4959781D01*
X-32743055Y4958997D01*
X-32774732Y4947966D01*
X-32789542Y4943804D01*
X-32815422Y4938209D01*
X-32815426Y4938208D01*
X-32822311Y4936719D01*
X-32828695Y4933742D01*
X-32828701Y4933740D01*
X-32861607Y4918396D01*
X-32873416Y4913601D01*
X-32914352Y4899345D01*
X-32920324Y4895613D01*
X-32920331Y4895610D01*
X-32942795Y4881573D01*
X-32956312Y4874234D01*
X-32980319Y4863039D01*
X-32980323Y4863037D01*
X-32986702Y4860062D01*
X-33014616Y4838410D01*
X-33020956Y4833492D01*
X-33031405Y4826203D01*
X-33068176Y4803226D01*
X-33073175Y4798261D01*
X-33073177Y4798260D01*
X-33096985Y4774617D01*
X-33097608Y4774034D01*
X-33098270Y4773521D01*
X-33124119Y4747672D01*
X-33154816Y4717188D01*
X-33196882Y4675415D01*
X-33197541Y4674377D01*
X-33198647Y4673144D01*
X-34651957Y3219835D01*
X-34652894Y3218907D01*
X-34717307Y3155829D01*
X-34740798Y3119379D01*
X-34748217Y3109054D01*
X-34775276Y3075157D01*
X-34778341Y3068816D01*
X-34778342Y3068815D01*
X-34789872Y3044963D01*
X-34797401Y3031546D01*
X-34815565Y3003362D01*
X-34817973Y2996745D01*
X-34817976Y2996740D01*
X-34830392Y2962627D01*
X-34835353Y2950884D01*
X-34851154Y2918197D01*
X-34851156Y2918192D01*
X-34854221Y2911851D01*
X-34855804Y2904993D01*
X-34855805Y2904991D01*
X-34861765Y2879174D01*
X-34866132Y2864431D01*
X-34877603Y2832915D01*
X-34878486Y2825925D01*
X-34878488Y2825917D01*
X-34883038Y2789899D01*
X-34885274Y2777347D01*
X-34892456Y2746237D01*
X-34895024Y2735115D01*
X-34895049Y2728069D01*
X-34895049Y2728066D01*
X-34895166Y2694544D01*
X-34895195Y2693662D01*
X-34895300Y2692831D01*
X-34895300Y2656181D01*
X-34895301Y2655741D01*
X-34895595Y2571366D01*
X-34895657Y2553730D01*
X-34895389Y2552530D01*
X-34895300Y2550893D01*
X-34895300Y518100D01*
X-34915302Y449979D01*
X-34968958Y403486D01*
X-35021300Y392100D01*
X-35992300Y392100D01*
X-36060421Y412102D01*
X-36106914Y465758D01*
X-36118300Y518100D01*
X-36118300Y631734D01*
X-36125055Y693916D01*
X-36176185Y830305D01*
X-36263539Y946861D01*
X-36380095Y1034215D01*
X-36516484Y1085345D01*
X-36578666Y1092100D01*
X-38674934Y1092100D01*
X-38737116Y1085345D01*
X-38873505Y1034215D01*
X-38990061Y946861D01*
X-39077415Y830305D01*
X-39128545Y693916D01*
X-39135300Y631734D01*
X-39135300Y-1464534D01*
X-45478300Y-1464534D01*
X-45478300Y8257905D01*
X-24654549Y8257905D01*
X-24654252Y8252752D01*
X-24654252Y8252749D01*
X-24648789Y8158010D01*
X-24641690Y8034885D01*
X-24640553Y8029839D01*
X-24640552Y8029833D01*
X-24620681Y7941661D01*
X-24592578Y7816961D01*
X-24508534Y7609984D01*
X-24391813Y7419512D01*
X-24245550Y7250662D01*
X-24168954Y7187071D01*
X-24084378Y7116855D01*
X-24073674Y7107968D01*
X-23880800Y6995262D01*
X-23875975Y6993420D01*
X-23875974Y6993419D01*
X-23803188Y6965625D01*
X-23672108Y6915570D01*
X-23667040Y6914539D01*
X-23667037Y6914538D01*
X-23559783Y6892717D01*
X-23453203Y6871033D01*
X-23448028Y6870843D01*
X-23448026Y6870843D01*
X-23235127Y6863036D01*
X-23235123Y6863036D01*
X-23229963Y6862847D01*
X-23224843Y6863503D01*
X-23224841Y6863503D01*
X-23013512Y6890575D01*
X-23013511Y6890575D01*
X-23008384Y6891232D01*
X-23003434Y6892717D01*
X-22799371Y6953939D01*
X-22799366Y6953941D01*
X-22794416Y6955426D01*
X-22593806Y7053704D01*
X-22411940Y7183427D01*
X-22253704Y7341111D01*
X-22231583Y7371895D01*
X-22126365Y7518323D01*
X-22123347Y7522523D01*
X-22024370Y7722789D01*
X-21959430Y7936531D01*
X-21930271Y8158010D01*
X-21928644Y8224600D01*
X-21946948Y8447239D01*
X-22001369Y8663898D01*
X-22090446Y8868760D01*
X-22211786Y9056323D01*
X-22362130Y9221549D01*
X-22366181Y9224748D01*
X-22366185Y9224752D01*
X-22533386Y9356800D01*
X-22533390Y9356802D01*
X-22537441Y9360002D01*
X-22578747Y9382804D01*
X-22628716Y9433236D01*
X-22643488Y9502679D01*
X-22618372Y9569084D01*
X-22591020Y9595691D01*
X-22547197Y9626950D01*
X-22411940Y9723427D01*
X-22371396Y9763829D01*
X-22257365Y9877463D01*
X-22253704Y9881111D01*
X-22194206Y9963911D01*
X-22126365Y10058323D01*
X-22123347Y10062523D01*
X-22067558Y10175403D01*
X-22026664Y10258147D01*
X-22026663Y10258149D01*
X-22024370Y10262789D01*
X-21959430Y10476531D01*
X-21930271Y10698010D01*
X-21928644Y10764600D01*
X-21946948Y10987239D01*
X-22001369Y11203898D01*
X-22020344Y11247538D01*
X-14488307Y11247538D01*
X-14479011Y11235523D01*
X-14427806Y11199669D01*
X-14418311Y11194186D01*
X-14220853Y11102110D01*
X-14210561Y11098364D01*
X-14000112Y11041975D01*
X-13989319Y11040072D01*
X-13772275Y11021083D01*
X-13761325Y11021083D01*
X-13544281Y11040072D01*
X-13533488Y11041975D01*
X-13323039Y11098364D01*
X-13312747Y11102110D01*
X-13115289Y11194186D01*
X-13105794Y11199669D01*
X-13053752Y11236109D01*
X-13045376Y11246588D01*
X-13052444Y11260034D01*
X-13753988Y11961578D01*
X-13767932Y11969192D01*
X-13769765Y11969061D01*
X-13776380Y11964810D01*
X-14481877Y11259313D01*
X-14488307Y11247538D01*
X-22020344Y11247538D01*
X-22090446Y11408760D01*
X-22142750Y11489610D01*
X-22208978Y11591983D01*
X-22208980Y11591986D01*
X-22211786Y11596323D01*
X-22362130Y11761549D01*
X-22366181Y11764748D01*
X-22366185Y11764752D01*
X-22533386Y11896800D01*
X-22533390Y11896802D01*
X-22537441Y11900002D01*
X-22578747Y11922804D01*
X-22628716Y11973236D01*
X-22643488Y12042679D01*
X-22618372Y12109084D01*
X-22591020Y12135691D01*
X-22547197Y12166950D01*
X-22411940Y12263427D01*
X-22380020Y12295235D01*
X-22347016Y12328125D01*
X-15079317Y12328125D01*
X-15060328Y12111081D01*
X-15058425Y12100288D01*
X-15002036Y11889839D01*
X-14998290Y11879547D01*
X-14906214Y11682089D01*
X-14900731Y11672594D01*
X-14864291Y11620552D01*
X-14853812Y11612176D01*
X-14840366Y11619244D01*
X-14138822Y12320788D01*
X-14132444Y12332468D01*
X-13402392Y12332468D01*
X-13402261Y12330635D01*
X-13398010Y12324020D01*
X-12692513Y11618523D01*
X-12680738Y11612093D01*
X-12668723Y11621389D01*
X-12632869Y11672594D01*
X-12627386Y11682089D01*
X-12535310Y11879547D01*
X-12531564Y11889839D01*
X-12475175Y12100288D01*
X-12473272Y12111081D01*
X-12454283Y12328125D01*
X-12454283Y12339075D01*
X-12473272Y12556119D01*
X-12475175Y12566912D01*
X-12531564Y12777361D01*
X-12535310Y12787653D01*
X-12627386Y12985111D01*
X-12632869Y12994606D01*
X-12669309Y13046648D01*
X-12679788Y13055024D01*
X-12693234Y13047956D01*
X-13394778Y12346412D01*
X-13402392Y12332468D01*
X-14132444Y12332468D01*
X-14131208Y12334732D01*
X-14131339Y12336565D01*
X-14135590Y12343180D01*
X-14841087Y13048677D01*
X-14852862Y13055107D01*
X-14864877Y13045811D01*
X-14900731Y12994606D01*
X-14906214Y12985111D01*
X-14998290Y12787653D01*
X-15002036Y12777361D01*
X-15058425Y12566912D01*
X-15060328Y12556119D01*
X-15079317Y12339075D01*
X-15079317Y12328125D01*
X-22347016Y12328125D01*
X-22330591Y12344493D01*
X-22253704Y12421111D01*
X-22194206Y12503911D01*
X-22126365Y12598323D01*
X-22123347Y12602523D01*
X-22087294Y12675470D01*
X-22026664Y12798147D01*
X-22026663Y12798149D01*
X-22024370Y12802789D01*
X-21959430Y13016531D01*
X-21930271Y13238010D01*
X-21928958Y13291730D01*
X-21928726Y13301235D01*
X-21928726Y13301239D01*
X-21928644Y13304600D01*
X-21946948Y13527239D01*
X-22001369Y13743898D01*
X-22090446Y13948760D01*
X-22114192Y13985466D01*
X-15075300Y13985466D01*
X-15068545Y13923284D01*
X-15017415Y13786895D01*
X-14930061Y13670339D01*
X-14813505Y13582985D01*
X-14677116Y13531855D01*
X-14634624Y13527239D01*
X-14618314Y13525467D01*
X-14618311Y13525467D01*
X-14614934Y13525100D01*
X-14611615Y13525100D01*
X-14544690Y13501447D01*
X-14508996Y13455444D01*
X-14507066Y13456459D01*
X-14501358Y13445600D01*
X-14501168Y13445355D01*
X-14501147Y13445197D01*
X-14481156Y13407166D01*
X-13779612Y12705622D01*
X-13765668Y12698008D01*
X-13763835Y12698139D01*
X-13757220Y12702390D01*
X-13051723Y13407887D01*
X-13028929Y13449629D01*
X-13026753Y13459629D01*
X-12976547Y13509827D01*
X-12922986Y13525051D01*
X-12922081Y13525100D01*
X-12918666Y13525100D01*
X-12915270Y13525469D01*
X-12915268Y13525469D01*
X-12898976Y13527239D01*
X-12856484Y13531855D01*
X-12720095Y13582985D01*
X-12603539Y13670339D01*
X-12516185Y13786895D01*
X-12465055Y13923284D01*
X-12458300Y13985466D01*
X-12458300Y15681734D01*
X-12465055Y15743916D01*
X-12516185Y15880305D01*
X-12603539Y15996861D01*
X-12720095Y16084215D01*
X-12856484Y16135345D01*
X-12918666Y16142100D01*
X-14614934Y16142100D01*
X-14677116Y16135345D01*
X-14813505Y16084215D01*
X-14930061Y15996861D01*
X-15017415Y15880305D01*
X-15068545Y15743916D01*
X-15075300Y15681734D01*
X-15075300Y13985466D01*
X-22114192Y13985466D01*
X-22196111Y14112093D01*
X-22208978Y14131983D01*
X-22208980Y14131986D01*
X-22211786Y14136323D01*
X-22362130Y14301549D01*
X-22366181Y14304748D01*
X-22366185Y14304752D01*
X-22533386Y14436800D01*
X-22533390Y14436802D01*
X-22537441Y14440002D01*
X-22579231Y14463071D01*
X-22629202Y14513503D01*
X-22643974Y14582946D01*
X-22618858Y14649352D01*
X-22591506Y14675959D01*
X-22416472Y14800808D01*
X-22408600Y14807461D01*
X-22257748Y14957788D01*
X-22251070Y14965635D01*
X-22126797Y15138580D01*
X-22121487Y15147417D01*
X-22027130Y15338333D01*
X-22023331Y15347928D01*
X-21961423Y15551690D01*
X-21959245Y15561763D01*
X-21957814Y15572638D01*
X-21960025Y15586822D01*
X-21973183Y15590600D01*
X-24608575Y15590600D01*
X-24622106Y15586627D01*
X-24623543Y15576634D01*
X-24593235Y15442154D01*
X-24590155Y15432325D01*
X-24510030Y15234997D01*
X-24505387Y15225806D01*
X-24394106Y15044212D01*
X-24388023Y15035901D01*
X-24248587Y14874933D01*
X-24241220Y14867717D01*
X-24077366Y14731684D01*
X-24068919Y14725769D01*
X-23999831Y14685397D01*
X-23951107Y14633758D01*
X-23938036Y14563975D01*
X-23964767Y14498204D01*
X-24005216Y14464848D01*
X-24018193Y14458093D01*
X-24022326Y14454990D01*
X-24022329Y14454988D01*
X-24185690Y14332333D01*
X-24196835Y14323965D01*
X-24200407Y14320227D01*
X-24341728Y14172343D01*
X-24351171Y14162462D01*
X-24477057Y13977920D01*
X-24524085Y13876607D01*
X-24565727Y13786895D01*
X-24571112Y13775295D01*
X-24630811Y13560030D01*
X-24654549Y13337905D01*
X-24654252Y13332752D01*
X-24654252Y13332749D01*
X-24648789Y13238010D01*
X-24641690Y13114885D01*
X-24640553Y13109839D01*
X-24640552Y13109833D01*
X-24628200Y13055024D01*
X-24592578Y12896961D01*
X-24554339Y12802789D01*
X-24511845Y12698139D01*
X-24508534Y12689984D01*
X-24499640Y12675470D01*
X-24405127Y12521239D01*
X-24391813Y12499512D01*
X-24245550Y12330662D01*
X-24073674Y12187968D01*
X-24015618Y12154043D01*
X-24000355Y12145124D01*
X-23951631Y12093486D01*
X-23938560Y12023703D01*
X-23965291Y11957931D01*
X-24005745Y11924573D01*
X-24018193Y11918093D01*
X-24022326Y11914990D01*
X-24022329Y11914988D01*
X-24182512Y11794719D01*
X-24196835Y11783965D01*
X-24208651Y11771600D01*
X-24341901Y11632162D01*
X-24351171Y11622462D01*
X-24354085Y11618190D01*
X-24354086Y11618189D01*
X-24371962Y11591983D01*
X-24477057Y11437920D01*
X-24492797Y11404010D01*
X-24559963Y11259313D01*
X-24571112Y11235295D01*
X-24630811Y11020030D01*
X-24654549Y10797905D01*
X-24654252Y10792752D01*
X-24654252Y10792749D01*
X-24648789Y10698010D01*
X-24641690Y10574885D01*
X-24640553Y10569839D01*
X-24640552Y10569833D01*
X-24620681Y10481661D01*
X-24592578Y10356961D01*
X-24508534Y10149984D01*
X-24391813Y9959512D01*
X-24245550Y9790662D01*
X-24073674Y9647968D01*
X-24003205Y9606789D01*
X-24000355Y9605124D01*
X-23951631Y9553486D01*
X-23938560Y9483703D01*
X-23965291Y9417931D01*
X-24005745Y9384573D01*
X-24018193Y9378093D01*
X-24022326Y9374990D01*
X-24022329Y9374988D01*
X-24046553Y9356800D01*
X-24196835Y9243965D01*
X-24351171Y9082462D01*
X-24477057Y8897920D01*
X-24571112Y8695295D01*
X-24630811Y8480030D01*
X-24654549Y8257905D01*
X-45478300Y8257905D01*
X-45478300Y17486466D01*
X-24650300Y17486466D01*
X-24643545Y17424284D01*
X-24592415Y17287895D01*
X-24505061Y17171339D01*
X-24388505Y17083985D01*
X-24380096Y17080833D01*
X-24380095Y17080832D01*
X-24270840Y17039874D01*
X-24214075Y16997233D01*
X-24189375Y16930671D01*
X-24204582Y16861322D01*
X-24223975Y16834841D01*
X-24347210Y16705883D01*
X-24353696Y16697873D01*
X-24473702Y16521951D01*
X-24478800Y16512977D01*
X-24568462Y16319817D01*
X-24572025Y16310130D01*
X-24627411Y16110417D01*
X-24625888Y16101993D01*
X-24613508Y16098600D01*
X-21973456Y16098600D01*
X-21959925Y16102573D01*
X-21958620Y16111653D01*
X-22000586Y16278725D01*
X-22003906Y16288476D01*
X-22088828Y16483786D01*
X-22093695Y16492861D01*
X-22209374Y16671674D01*
X-22215664Y16679843D01*
X-22359507Y16837923D01*
X-22390559Y16901769D01*
X-22382165Y16972267D01*
X-22336988Y17027036D01*
X-22310544Y17040705D01*
X-22203503Y17080833D01*
X-22195095Y17083985D01*
X-22078539Y17171339D01*
X-21991185Y17287895D01*
X-21940055Y17424284D01*
X-21933300Y17486466D01*
X-21933300Y19282734D01*
X-21940055Y19344916D01*
X-21991185Y19481305D01*
X-22078539Y19597861D01*
X-22195095Y19685215D01*
X-22331484Y19736345D01*
X-22393666Y19743100D01*
X-24189934Y19743100D01*
X-24252116Y19736345D01*
X-24388505Y19685215D01*
X-24505061Y19597861D01*
X-24592415Y19481305D01*
X-24643545Y19344916D01*
X-24650300Y19282734D01*
X-24650300Y17486466D01*
X-45478300Y17486466D01*
X-45478300Y22907538D01*
X-44688307Y22907538D01*
X-44679011Y22895523D01*
X-44627806Y22859669D01*
X-44618311Y22854186D01*
X-44420853Y22762110D01*
X-44410561Y22758364D01*
X-44200112Y22701975D01*
X-44189319Y22700072D01*
X-43972275Y22681083D01*
X-43961325Y22681083D01*
X-43744281Y22700072D01*
X-43733488Y22701975D01*
X-43523039Y22758364D01*
X-43512747Y22762110D01*
X-43315289Y22854186D01*
X-43305794Y22859669D01*
X-43253752Y22896109D01*
X-43245376Y22906588D01*
X-43252444Y22920034D01*
X-43953988Y23621578D01*
X-43967932Y23629192D01*
X-43969765Y23629061D01*
X-43976380Y23624810D01*
X-44681877Y22919313D01*
X-44688307Y22907538D01*
X-45478300Y22907538D01*
X-45478300Y23623805D01*
X-45458298Y23691926D01*
X-45404642Y23738419D01*
X-45334368Y23748523D01*
X-45269788Y23719029D01*
X-45230593Y23656416D01*
X-45202036Y23549839D01*
X-45198290Y23539547D01*
X-45106214Y23342089D01*
X-45100731Y23332594D01*
X-45064291Y23280552D01*
X-45053812Y23272176D01*
X-45040366Y23279244D01*
X-44338822Y23980788D01*
X-44332444Y23992468D01*
X-43602392Y23992468D01*
X-43602261Y23990635D01*
X-43598010Y23984020D01*
X-42892513Y23278523D01*
X-42880738Y23272093D01*
X-42868723Y23281389D01*
X-42832869Y23332594D01*
X-42827386Y23342089D01*
X-42735310Y23539547D01*
X-42731564Y23549839D01*
X-42675175Y23760288D01*
X-42673272Y23771081D01*
X-42654283Y23988125D01*
X-42654283Y23993600D01*
X-35120298Y23993600D01*
X-35100343Y23765513D01*
X-35098919Y23760200D01*
X-35098919Y23760198D01*
X-35051556Y23583440D01*
X-35041084Y23544357D01*
X-35038761Y23539376D01*
X-35038761Y23539375D01*
X-34946649Y23341838D01*
X-34946646Y23341833D01*
X-34944323Y23336851D01*
X-34871560Y23232935D01*
X-34820508Y23160026D01*
X-34812998Y23149300D01*
X-34651100Y22987402D01*
X-34646592Y22984245D01*
X-34646589Y22984243D01*
X-34568411Y22929502D01*
X-34463549Y22856077D01*
X-34458567Y22853754D01*
X-34458562Y22853751D01*
X-34262035Y22762110D01*
X-34256043Y22759316D01*
X-34250735Y22757894D01*
X-34250733Y22757893D01*
X-34040202Y22701481D01*
X-34040200Y22701481D01*
X-34034887Y22700057D01*
X-33806800Y22680102D01*
X-33578713Y22700057D01*
X-33573400Y22701481D01*
X-33573398Y22701481D01*
X-33362867Y22757893D01*
X-33362865Y22757894D01*
X-33357557Y22759316D01*
X-33351565Y22762110D01*
X-33155038Y22853751D01*
X-33155033Y22853754D01*
X-33150051Y22856077D01*
X-33045189Y22929502D01*
X-32967011Y22984243D01*
X-32967008Y22984245D01*
X-32962500Y22987402D01*
X-32800602Y23149300D01*
X-32793091Y23160026D01*
X-32742040Y23232935D01*
X-32669277Y23336851D01*
X-32666954Y23341833D01*
X-32666951Y23341838D01*
X-32574839Y23539375D01*
X-32574839Y23539376D01*
X-32572516Y23544357D01*
X-32562043Y23583440D01*
X-32523555Y23727078D01*
X-32009527Y23727078D01*
X-31962036Y23549839D01*
X-31958290Y23539547D01*
X-31866214Y23342089D01*
X-31860731Y23332593D01*
X-31735772Y23154133D01*
X-31728716Y23145725D01*
X-31574675Y22991684D01*
X-31566267Y22984628D01*
X-31387807Y22859669D01*
X-31378311Y22854186D01*
X-31180853Y22762110D01*
X-31170561Y22758364D01*
X-30998297Y22712206D01*
X-30984201Y22712542D01*
X-30980800Y22720484D01*
X-30980800Y22725633D01*
X-30472800Y22725633D01*
X-30468827Y22712102D01*
X-30460278Y22710873D01*
X-30283039Y22758364D01*
X-30272747Y22762110D01*
X-30075289Y22854186D01*
X-30065793Y22859669D01*
X-29887333Y22984628D01*
X-29878925Y22991684D01*
X-29724884Y23145725D01*
X-29717828Y23154133D01*
X-29592869Y23332593D01*
X-29587386Y23342089D01*
X-29495310Y23539547D01*
X-29491564Y23549839D01*
X-29445406Y23722103D01*
X-29445742Y23736199D01*
X-29453684Y23739600D01*
X-30454685Y23739600D01*
X-30469924Y23735125D01*
X-30471129Y23733735D01*
X-30472800Y23726052D01*
X-30472800Y22725633D01*
X-30980800Y22725633D01*
X-30980800Y23721485D01*
X-30985275Y23736724D01*
X-30986665Y23737929D01*
X-30994348Y23739600D01*
X-31994767Y23739600D01*
X-32008298Y23735627D01*
X-32009527Y23727078D01*
X-32523555Y23727078D01*
X-32514681Y23760198D01*
X-32514681Y23760200D01*
X-32513257Y23765513D01*
X-32493302Y23993600D01*
X-21880298Y23993600D01*
X-21860343Y23765513D01*
X-21858919Y23760200D01*
X-21858919Y23760198D01*
X-21811556Y23583440D01*
X-21801084Y23544357D01*
X-21798761Y23539376D01*
X-21798761Y23539375D01*
X-21706649Y23341838D01*
X-21706646Y23341833D01*
X-21704323Y23336851D01*
X-21631560Y23232935D01*
X-21580508Y23160026D01*
X-21572998Y23149300D01*
X-21411100Y22987402D01*
X-21406592Y22984245D01*
X-21406589Y22984243D01*
X-21328411Y22929502D01*
X-21223549Y22856077D01*
X-21218567Y22853754D01*
X-21218562Y22853751D01*
X-21022035Y22762110D01*
X-21016043Y22759316D01*
X-21010735Y22757894D01*
X-21010733Y22757893D01*
X-20800202Y22701481D01*
X-20800200Y22701481D01*
X-20794887Y22700057D01*
X-20566800Y22680102D01*
X-20338713Y22700057D01*
X-20333400Y22701481D01*
X-20333398Y22701481D01*
X-20122867Y22757893D01*
X-20122865Y22757894D01*
X-20117557Y22759316D01*
X-20111565Y22762110D01*
X-19915038Y22853751D01*
X-19915033Y22853754D01*
X-19910051Y22856077D01*
X-19805189Y22929502D01*
X-19727011Y22984243D01*
X-19727008Y22984245D01*
X-19722500Y22987402D01*
X-19560602Y23149300D01*
X-19553091Y23160026D01*
X-19502040Y23232935D01*
X-19429277Y23336851D01*
X-19426954Y23341833D01*
X-19426951Y23341838D01*
X-19334839Y23539375D01*
X-19334839Y23539376D01*
X-19332516Y23544357D01*
X-19322043Y23583440D01*
X-19274681Y23760198D01*
X-19274681Y23760200D01*
X-19273257Y23765513D01*
X-19253302Y23993600D01*
X-19273257Y24221687D01*
X-19274681Y24227002D01*
X-19331093Y24437533D01*
X-19331094Y24437535D01*
X-19332516Y24442843D01*
X-19334839Y24447825D01*
X-19426951Y24645362D01*
X-19426954Y24645367D01*
X-19429277Y24650349D01*
X-19560602Y24837900D01*
X-19722500Y24999798D01*
X-19727008Y25002955D01*
X-19727011Y25002957D01*
X-19852880Y25091091D01*
X-19910051Y25131123D01*
X-19915033Y25133446D01*
X-19915038Y25133449D01*
X-20112575Y25225561D01*
X-20112576Y25225561D01*
X-20117557Y25227884D01*
X-20122865Y25229306D01*
X-20122867Y25229307D01*
X-20333398Y25285719D01*
X-20333400Y25285719D01*
X-20338713Y25287143D01*
X-20566800Y25307098D01*
X-20794887Y25287143D01*
X-20800200Y25285719D01*
X-20800202Y25285719D01*
X-21010733Y25229307D01*
X-21010735Y25229306D01*
X-21016043Y25227884D01*
X-21021024Y25225561D01*
X-21021025Y25225561D01*
X-21218562Y25133449D01*
X-21218567Y25133446D01*
X-21223549Y25131123D01*
X-21280720Y25091091D01*
X-21406589Y25002957D01*
X-21406592Y25002955D01*
X-21411100Y24999798D01*
X-21572998Y24837900D01*
X-21704323Y24650349D01*
X-21706646Y24645367D01*
X-21706649Y24645362D01*
X-21798761Y24447825D01*
X-21801084Y24442843D01*
X-21802506Y24437535D01*
X-21802507Y24437533D01*
X-21858919Y24227002D01*
X-21860343Y24221687D01*
X-21880298Y23993600D01*
X-32493302Y23993600D01*
X-32513257Y24221687D01*
X-32514681Y24227002D01*
X-32524889Y24265097D01*
X-32008194Y24265097D01*
X-32007858Y24251001D01*
X-31999916Y24247600D01*
X-30998915Y24247600D01*
X-30983676Y24252075D01*
X-30982471Y24253465D01*
X-30980800Y24261148D01*
X-30980800Y24265715D01*
X-30472800Y24265715D01*
X-30468325Y24250476D01*
X-30466935Y24249271D01*
X-30459252Y24247600D01*
X-29458833Y24247600D01*
X-29445302Y24251573D01*
X-29444073Y24260122D01*
X-29491564Y24437361D01*
X-29495310Y24447653D01*
X-29587386Y24645111D01*
X-29592869Y24654607D01*
X-29717828Y24833067D01*
X-29724884Y24841475D01*
X-29878925Y24995516D01*
X-29887333Y25002572D01*
X-30065793Y25127531D01*
X-30075289Y25133014D01*
X-30272747Y25225090D01*
X-30283039Y25228836D01*
X-30455303Y25274994D01*
X-30469399Y25274658D01*
X-30472800Y25266716D01*
X-30472800Y24265715D01*
X-30980800Y24265715D01*
X-30980800Y25261567D01*
X-30984773Y25275098D01*
X-30993322Y25276327D01*
X-31170561Y25228836D01*
X-31180853Y25225090D01*
X-31378311Y25133014D01*
X-31387807Y25127531D01*
X-31566267Y25002572D01*
X-31574675Y24995516D01*
X-31728716Y24841475D01*
X-31735772Y24833067D01*
X-31860731Y24654607D01*
X-31866214Y24645111D01*
X-31958290Y24447653D01*
X-31962036Y24437361D01*
X-32008194Y24265097D01*
X-32524889Y24265097D01*
X-32571093Y24437533D01*
X-32571094Y24437535D01*
X-32572516Y24442843D01*
X-32574839Y24447825D01*
X-32666951Y24645362D01*
X-32666954Y24645367D01*
X-32669277Y24650349D01*
X-32800602Y24837900D01*
X-32962500Y24999798D01*
X-32967008Y25002955D01*
X-32967011Y25002957D01*
X-33092880Y25091091D01*
X-33150051Y25131123D01*
X-33155033Y25133446D01*
X-33155038Y25133449D01*
X-33352575Y25225561D01*
X-33352576Y25225561D01*
X-33357557Y25227884D01*
X-33362865Y25229306D01*
X-33362867Y25229307D01*
X-33573398Y25285719D01*
X-33573400Y25285719D01*
X-33578713Y25287143D01*
X-33806800Y25307098D01*
X-34034887Y25287143D01*
X-34040200Y25285719D01*
X-34040202Y25285719D01*
X-34250733Y25229307D01*
X-34250735Y25229306D01*
X-34256043Y25227884D01*
X-34261024Y25225561D01*
X-34261025Y25225561D01*
X-34458562Y25133449D01*
X-34458567Y25133446D01*
X-34463549Y25131123D01*
X-34520720Y25091091D01*
X-34646589Y25002957D01*
X-34646592Y25002955D01*
X-34651100Y24999798D01*
X-34812998Y24837900D01*
X-34944323Y24650349D01*
X-34946646Y24645367D01*
X-34946649Y24645362D01*
X-35038761Y24447825D01*
X-35041084Y24442843D01*
X-35042506Y24437535D01*
X-35042507Y24437533D01*
X-35098919Y24227002D01*
X-35100343Y24221687D01*
X-35120298Y23993600D01*
X-42654283Y23993600D01*
X-42654283Y23999075D01*
X-42673272Y24216119D01*
X-42675175Y24226912D01*
X-42731564Y24437361D01*
X-42735310Y24447653D01*
X-42827386Y24645111D01*
X-42832869Y24654606D01*
X-42869309Y24706648D01*
X-42879788Y24715024D01*
X-42893234Y24707956D01*
X-43594778Y24006412D01*
X-43602392Y23992468D01*
X-44332444Y23992468D01*
X-44331208Y23994732D01*
X-44331339Y23996565D01*
X-44335590Y24003180D01*
X-45041087Y24708677D01*
X-45052862Y24715107D01*
X-45064877Y24705811D01*
X-45100731Y24654606D01*
X-45106214Y24645111D01*
X-45198290Y24447653D01*
X-45202036Y24437361D01*
X-45230593Y24330784D01*
X-45267545Y24270161D01*
X-45331405Y24239140D01*
X-45401900Y24247568D01*
X-45456647Y24292771D01*
X-45478300Y24363395D01*
X-45478300Y25080612D01*
X-44688224Y25080612D01*
X-44681156Y25067166D01*
X-43979612Y24365622D01*
X-43965668Y24358008D01*
X-43963835Y24358139D01*
X-43957220Y24362390D01*
X-43251723Y25067887D01*
X-43245293Y25079662D01*
X-43254589Y25091677D01*
X-43305794Y25127531D01*
X-43315289Y25133014D01*
X-43512747Y25225090D01*
X-43523039Y25228836D01*
X-43733488Y25285225D01*
X-43744281Y25287128D01*
X-43961325Y25306117D01*
X-43972275Y25306117D01*
X-44189319Y25287128D01*
X-44200112Y25285225D01*
X-44410561Y25228836D01*
X-44420853Y25225090D01*
X-44618311Y25133014D01*
X-44627806Y25127531D01*
X-44679848Y25091091D01*
X-44688224Y25080612D01*
X-45478300Y25080612D01*
X-45478300Y27903931D01*
X-31634799Y27903931D01*
X-31634429Y27897110D01*
X-31628905Y27846248D01*
X-31625279Y27830996D01*
X-31580124Y27710546D01*
X-31571586Y27694951D01*
X-31495085Y27592876D01*
X-31482524Y27580315D01*
X-31380449Y27503814D01*
X-31364854Y27495276D01*
X-31244406Y27450122D01*
X-31229151Y27446495D01*
X-31178286Y27440969D01*
X-31171472Y27440600D01*
X-30548915Y27440600D01*
X-30533676Y27445075D01*
X-30532471Y27446465D01*
X-30530800Y27454148D01*
X-30530800Y27458716D01*
X-30022800Y27458716D01*
X-30018325Y27443477D01*
X-30016935Y27442272D01*
X-30009252Y27440601D01*
X-29382131Y27440601D01*
X-29375310Y27440971D01*
X-29324448Y27446495D01*
X-29309196Y27450121D01*
X-29188746Y27495276D01*
X-29173151Y27503814D01*
X-29071076Y27580315D01*
X-29058515Y27592876D01*
X-28982014Y27694951D01*
X-28973476Y27710546D01*
X-28932575Y27819648D01*
X-28889933Y27876412D01*
X-28823372Y27901112D01*
X-28754023Y27885904D01*
X-28719356Y27857916D01*
X-28693935Y27828569D01*
X-28693931Y27828565D01*
X-28690550Y27824662D01*
X-28518674Y27681968D01*
X-28325800Y27569262D01*
X-28117108Y27489570D01*
X-28112040Y27488539D01*
X-28112037Y27488538D01*
X-28004783Y27466717D01*
X-27898203Y27445033D01*
X-27893028Y27444843D01*
X-27893026Y27444843D01*
X-27680127Y27437036D01*
X-27680123Y27437036D01*
X-27674963Y27436847D01*
X-27669843Y27437503D01*
X-27669841Y27437503D01*
X-27458512Y27464575D01*
X-27458511Y27464575D01*
X-27453384Y27465232D01*
X-27448434Y27466717D01*
X-27244371Y27527939D01*
X-27244366Y27527941D01*
X-27239416Y27529426D01*
X-27038806Y27627704D01*
X-26856940Y27757427D01*
X-26698704Y27915111D01*
X-26568347Y28096523D01*
X-26567024Y28095572D01*
X-26520155Y28138743D01*
X-26450220Y28150975D01*
X-26384774Y28123456D01*
X-26356925Y28091606D01*
X-26296813Y27993512D01*
X-26150550Y27824662D01*
X-25978674Y27681968D01*
X-25785800Y27569262D01*
X-25577108Y27489570D01*
X-25572040Y27488539D01*
X-25572037Y27488538D01*
X-25464783Y27466717D01*
X-25358203Y27445033D01*
X-25353028Y27444843D01*
X-25353026Y27444843D01*
X-25140127Y27437036D01*
X-25140123Y27437036D01*
X-25134963Y27436847D01*
X-25129843Y27437503D01*
X-25129841Y27437503D01*
X-24918512Y27464575D01*
X-24918511Y27464575D01*
X-24913384Y27465232D01*
X-24908434Y27466717D01*
X-24704371Y27527939D01*
X-24704366Y27527941D01*
X-24699416Y27529426D01*
X-24498806Y27627704D01*
X-24316940Y27757427D01*
X-24158704Y27915111D01*
X-24028347Y28096523D01*
X-24027024Y28095572D01*
X-23980155Y28138743D01*
X-23910220Y28150975D01*
X-23844774Y28123456D01*
X-23816925Y28091606D01*
X-23756813Y27993512D01*
X-23610550Y27824662D01*
X-23438674Y27681968D01*
X-23245800Y27569262D01*
X-23037108Y27489570D01*
X-23032040Y27488539D01*
X-23032037Y27488538D01*
X-22924783Y27466717D01*
X-22818203Y27445033D01*
X-22813028Y27444843D01*
X-22813026Y27444843D01*
X-22600127Y27437036D01*
X-22600123Y27437036D01*
X-22594963Y27436847D01*
X-22589843Y27437503D01*
X-22589841Y27437503D01*
X-22378512Y27464575D01*
X-22378511Y27464575D01*
X-22373384Y27465232D01*
X-22368434Y27466717D01*
X-22164371Y27527939D01*
X-22164366Y27527941D01*
X-22159416Y27529426D01*
X-21958806Y27627704D01*
X-21776940Y27757427D01*
X-21618704Y27915111D01*
X-21488347Y28096523D01*
X-21487024Y28095572D01*
X-21440155Y28138743D01*
X-21370220Y28150975D01*
X-21304774Y28123456D01*
X-21276925Y28091606D01*
X-21216813Y27993512D01*
X-21070550Y27824662D01*
X-20898674Y27681968D01*
X-20705800Y27569262D01*
X-20497108Y27489570D01*
X-20492040Y27488539D01*
X-20492037Y27488538D01*
X-20384783Y27466717D01*
X-20278203Y27445033D01*
X-20273028Y27444843D01*
X-20273026Y27444843D01*
X-20060127Y27437036D01*
X-20060123Y27437036D01*
X-20054963Y27436847D01*
X-20049843Y27437503D01*
X-20049841Y27437503D01*
X-19838512Y27464575D01*
X-19838511Y27464575D01*
X-19833384Y27465232D01*
X-19828434Y27466717D01*
X-19624371Y27527939D01*
X-19624366Y27527941D01*
X-19619416Y27529426D01*
X-19418806Y27627704D01*
X-19236940Y27757427D01*
X-19078704Y27915111D01*
X-18948347Y28096523D01*
X-18947024Y28095572D01*
X-18900155Y28138743D01*
X-18830220Y28150975D01*
X-18764774Y28123456D01*
X-18736925Y28091606D01*
X-18676813Y27993512D01*
X-18530550Y27824662D01*
X-18453954Y27761071D01*
X-18401615Y27717618D01*
X-18361980Y27658715D01*
X-18356100Y27620674D01*
X-18356100Y20499788D01*
X-18376102Y20431667D01*
X-18393005Y20410693D01*
X-18553798Y20249900D01*
X-18556955Y20245392D01*
X-18556957Y20245389D01*
X-18606923Y20174030D01*
X-18685123Y20062349D01*
X-18687446Y20057367D01*
X-18687449Y20057362D01*
X-18734230Y19957038D01*
X-18781884Y19854843D01*
X-18783306Y19849535D01*
X-18783307Y19849533D01*
X-18827336Y19685215D01*
X-18841143Y19633687D01*
X-18861098Y19405600D01*
X-18841143Y19177513D01*
X-18781884Y18956357D01*
X-18779561Y18951376D01*
X-18779561Y18951375D01*
X-18687449Y18753838D01*
X-18687446Y18753833D01*
X-18685123Y18748851D01*
X-18553798Y18561300D01*
X-18391900Y18399402D01*
X-18387392Y18396245D01*
X-18387389Y18396243D01*
X-18342478Y18364796D01*
X-18204349Y18268077D01*
X-18199367Y18265754D01*
X-18199362Y18265751D01*
X-18004396Y18174838D01*
X-17996843Y18171316D01*
X-17991535Y18169894D01*
X-17991533Y18169893D01*
X-17781002Y18113481D01*
X-17781000Y18113481D01*
X-17775687Y18112057D01*
X-17547600Y18092102D01*
X-17319513Y18112057D01*
X-17314200Y18113481D01*
X-17314198Y18113481D01*
X-17103667Y18169893D01*
X-17103665Y18169894D01*
X-17098357Y18171316D01*
X-17090804Y18174838D01*
X-16895838Y18265751D01*
X-16895833Y18265754D01*
X-16890851Y18268077D01*
X-16752722Y18364796D01*
X-16707811Y18396243D01*
X-16707808Y18396245D01*
X-16703300Y18399402D01*
X-16541402Y18561300D01*
X-16410077Y18748851D01*
X-16407754Y18753833D01*
X-16407751Y18753838D01*
X-16315639Y18951375D01*
X-16315639Y18951376D01*
X-16313316Y18956357D01*
X-16254057Y19177513D01*
X-16234102Y19405600D01*
X-16254057Y19633687D01*
X-16267864Y19685215D01*
X-16311893Y19849533D01*
X-16311894Y19849535D01*
X-16313316Y19854843D01*
X-16360970Y19957038D01*
X-16407751Y20057362D01*
X-16407754Y20057367D01*
X-16410077Y20062349D01*
X-16488277Y20174030D01*
X-16538243Y20245389D01*
X-16538245Y20245392D01*
X-16541402Y20249900D01*
X-16702195Y20410693D01*
X-16736221Y20473005D01*
X-16739100Y20499788D01*
X-16739100Y27663866D01*
X-16719098Y27731987D01*
X-16696853Y27757340D01*
X-16696940Y27757427D01*
X-16695642Y27758720D01*
X-16695639Y27758724D01*
X-16538704Y27915111D01*
X-16408347Y28096523D01*
X-16387480Y28138743D01*
X-16311664Y28292147D01*
X-16311663Y28292149D01*
X-16309370Y28296789D01*
X-16244430Y28510531D01*
X-16215271Y28732010D01*
X-16215189Y28735360D01*
X-16213726Y28795235D01*
X-16213726Y28795239D01*
X-16213644Y28798600D01*
X-16231948Y29021239D01*
X-16286369Y29237898D01*
X-16375446Y29442760D01*
X-16489703Y29619375D01*
X-16493978Y29625983D01*
X-16493980Y29625986D01*
X-16496786Y29630323D01*
X-16647130Y29795549D01*
X-16651175Y29798743D01*
X-16651184Y29798752D01*
X-16720392Y29853409D01*
X-16761455Y29911326D01*
X-16768300Y29952291D01*
X-16768300Y30181632D01*
X-16748298Y30249753D01*
X-16715469Y30284210D01*
X-16701146Y30294426D01*
X-16701139Y30294432D01*
X-16696940Y30297427D01*
X-16643502Y30350678D01*
X-16555867Y30438008D01*
X-16538704Y30455111D01*
X-16486577Y30527653D01*
X-16411365Y30632323D01*
X-16408347Y30636523D01*
X-16394805Y30663922D01*
X-16311664Y30832147D01*
X-16311663Y30832149D01*
X-16309370Y30836789D01*
X-16244430Y31050531D01*
X-16215271Y31272010D01*
X-16214807Y31290993D01*
X-16213726Y31335235D01*
X-16213726Y31335239D01*
X-16213644Y31338600D01*
X-16231948Y31561239D01*
X-16286369Y31777898D01*
X-16375446Y31982760D01*
X-16455117Y32105913D01*
X-16493978Y32165983D01*
X-16493980Y32165986D01*
X-16496786Y32170323D01*
X-16647130Y32335549D01*
X-16651181Y32338748D01*
X-16651185Y32338752D01*
X-16818386Y32470800D01*
X-16818390Y32470802D01*
X-16822441Y32474002D01*
X-16858772Y32494058D01*
X-16911123Y32522957D01*
X-17018011Y32581962D01*
X-17022880Y32583686D01*
X-17022884Y32583688D01*
X-17223713Y32654805D01*
X-17223717Y32654806D01*
X-17228588Y32656531D01*
X-17233681Y32657438D01*
X-17233684Y32657439D01*
X-17443427Y32694800D01*
X-17443433Y32694801D01*
X-17448516Y32695706D01*
X-17522348Y32696608D01*
X-17666719Y32698372D01*
X-17666721Y32698372D01*
X-17671889Y32698435D01*
X-17892709Y32664645D01*
X-18105044Y32595243D01*
X-18303193Y32492093D01*
X-18307326Y32488990D01*
X-18307329Y32488988D01*
X-18477700Y32361070D01*
X-18481835Y32357965D01*
X-18636171Y32196462D01*
X-18743599Y32038979D01*
X-18798507Y31993979D01*
X-18869032Y31985808D01*
X-18932779Y32017062D01*
X-18953476Y32041546D01*
X-19033978Y32165983D01*
X-19033980Y32165986D01*
X-19036786Y32170323D01*
X-19187130Y32335549D01*
X-19191181Y32338748D01*
X-19191185Y32338752D01*
X-19358386Y32470800D01*
X-19358390Y32470802D01*
X-19362441Y32474002D01*
X-19398772Y32494058D01*
X-19451123Y32522957D01*
X-19558011Y32581962D01*
X-19562880Y32583686D01*
X-19562884Y32583688D01*
X-19763713Y32654805D01*
X-19763717Y32654806D01*
X-19768588Y32656531D01*
X-19773681Y32657438D01*
X-19773684Y32657439D01*
X-19983427Y32694800D01*
X-19983433Y32694801D01*
X-19988516Y32695706D01*
X-20062348Y32696608D01*
X-20206719Y32698372D01*
X-20206721Y32698372D01*
X-20211889Y32698435D01*
X-20432709Y32664645D01*
X-20645044Y32595243D01*
X-20843193Y32492093D01*
X-20847326Y32488990D01*
X-20847329Y32488988D01*
X-21017700Y32361070D01*
X-21021835Y32357965D01*
X-21176171Y32196462D01*
X-21283599Y32038979D01*
X-21338507Y31993979D01*
X-21409032Y31985808D01*
X-21472779Y32017062D01*
X-21493476Y32041546D01*
X-21573978Y32165983D01*
X-21573980Y32165986D01*
X-21576786Y32170323D01*
X-21727130Y32335549D01*
X-21731181Y32338748D01*
X-21731185Y32338752D01*
X-21898386Y32470800D01*
X-21898390Y32470802D01*
X-21902441Y32474002D01*
X-21938772Y32494058D01*
X-21991123Y32522957D01*
X-22098011Y32581962D01*
X-22102880Y32583686D01*
X-22102884Y32583688D01*
X-22303713Y32654805D01*
X-22303717Y32654806D01*
X-22308588Y32656531D01*
X-22313681Y32657438D01*
X-22313684Y32657439D01*
X-22523427Y32694800D01*
X-22523433Y32694801D01*
X-22528516Y32695706D01*
X-22602348Y32696608D01*
X-22746719Y32698372D01*
X-22746721Y32698372D01*
X-22751889Y32698435D01*
X-22972709Y32664645D01*
X-23185044Y32595243D01*
X-23383193Y32492093D01*
X-23387326Y32488990D01*
X-23387329Y32488988D01*
X-23557700Y32361070D01*
X-23561835Y32357965D01*
X-23716171Y32196462D01*
X-23823599Y32038979D01*
X-23878507Y31993979D01*
X-23949032Y31985808D01*
X-24012779Y32017062D01*
X-24033476Y32041546D01*
X-24113978Y32165983D01*
X-24113980Y32165986D01*
X-24116786Y32170323D01*
X-24267130Y32335549D01*
X-24271181Y32338748D01*
X-24271185Y32338752D01*
X-24438386Y32470800D01*
X-24438390Y32470802D01*
X-24442441Y32474002D01*
X-24478772Y32494058D01*
X-24531123Y32522957D01*
X-24638011Y32581962D01*
X-24642880Y32583686D01*
X-24642884Y32583688D01*
X-24843713Y32654805D01*
X-24843717Y32654806D01*
X-24848588Y32656531D01*
X-24853681Y32657438D01*
X-24853684Y32657439D01*
X-25063427Y32694800D01*
X-25063433Y32694801D01*
X-25068516Y32695706D01*
X-25142348Y32696608D01*
X-25286719Y32698372D01*
X-25286721Y32698372D01*
X-25291889Y32698435D01*
X-25512709Y32664645D01*
X-25725044Y32595243D01*
X-25923193Y32492093D01*
X-25927326Y32488990D01*
X-25927329Y32488988D01*
X-26097700Y32361070D01*
X-26101835Y32357965D01*
X-26256171Y32196462D01*
X-26363599Y32038979D01*
X-26418507Y31993979D01*
X-26489032Y31985808D01*
X-26552779Y32017062D01*
X-26573476Y32041546D01*
X-26653978Y32165983D01*
X-26653980Y32165986D01*
X-26656786Y32170323D01*
X-26807130Y32335549D01*
X-26811181Y32338748D01*
X-26811185Y32338752D01*
X-26978386Y32470800D01*
X-26978390Y32470802D01*
X-26982441Y32474002D01*
X-27018772Y32494058D01*
X-27071123Y32522957D01*
X-27178011Y32581962D01*
X-27182880Y32583686D01*
X-27182884Y32583688D01*
X-27383713Y32654805D01*
X-27383717Y32654806D01*
X-27388588Y32656531D01*
X-27393681Y32657438D01*
X-27393684Y32657439D01*
X-27603427Y32694800D01*
X-27603433Y32694801D01*
X-27608516Y32695706D01*
X-27682348Y32696608D01*
X-27826719Y32698372D01*
X-27826721Y32698372D01*
X-27831889Y32698435D01*
X-28052709Y32664645D01*
X-28265044Y32595243D01*
X-28463193Y32492093D01*
X-28467326Y32488990D01*
X-28467329Y32488988D01*
X-28637700Y32361070D01*
X-28641835Y32357965D01*
X-28796171Y32196462D01*
X-28799080Y32192197D01*
X-28799086Y32192189D01*
X-28810586Y32175331D01*
X-28903596Y32038982D01*
X-28903902Y32038534D01*
X-28958813Y31993531D01*
X-29029338Y31985360D01*
X-29093085Y32016614D01*
X-29113782Y32041098D01*
X-29194374Y32165674D01*
X-29200664Y32173843D01*
X-29343994Y32331360D01*
X-29351527Y32338385D01*
X-29518661Y32470378D01*
X-29527248Y32476083D01*
X-29713683Y32579001D01*
X-29723095Y32583231D01*
X-29923841Y32654320D01*
X-29933812Y32656954D01*
X-30004963Y32669628D01*
X-30018260Y32668168D01*
X-30022800Y32653611D01*
X-30022800Y27458716D01*
X-30530800Y27458716D01*
X-30530800Y28526485D01*
X-30535275Y28541724D01*
X-30536665Y28542929D01*
X-30544348Y28544600D01*
X-31616684Y28544600D01*
X-31631923Y28540125D01*
X-31633128Y28538735D01*
X-31634799Y28531052D01*
X-31634799Y27903931D01*
X-45478300Y27903931D01*
X-45478300Y29070715D01*
X-31634800Y29070715D01*
X-31630325Y29055476D01*
X-31628935Y29054271D01*
X-31621252Y29052600D01*
X-30548915Y29052600D01*
X-30533676Y29057075D01*
X-30532471Y29058465D01*
X-30530800Y29066148D01*
X-30530800Y31066485D01*
X-30535275Y31081724D01*
X-30536665Y31082929D01*
X-30544348Y31084600D01*
X-31593575Y31084600D01*
X-31607106Y31080627D01*
X-31608543Y31070634D01*
X-31578235Y30936154D01*
X-31575155Y30926325D01*
X-31495030Y30728997D01*
X-31490387Y30719806D01*
X-31379106Y30538212D01*
X-31373023Y30529901D01*
X-31233587Y30368933D01*
X-31226222Y30361719D01*
X-31220834Y30357246D01*
X-31181201Y30298342D01*
X-31179705Y30227361D01*
X-31216822Y30166839D01*
X-31257093Y30142322D01*
X-31364852Y30101925D01*
X-31380449Y30093386D01*
X-31482524Y30016885D01*
X-31495085Y30004324D01*
X-31571586Y29902249D01*
X-31580124Y29886654D01*
X-31625278Y29766206D01*
X-31628905Y29750951D01*
X-31634431Y29700086D01*
X-31634800Y29693272D01*
X-31634800Y29070715D01*
X-45478300Y29070715D01*
X-45478300Y31604417D01*
X-31612411Y31604417D01*
X-31610888Y31595993D01*
X-31598508Y31592600D01*
X-30548915Y31592600D01*
X-30533676Y31597075D01*
X-30532471Y31598465D01*
X-30530800Y31606148D01*
X-30530800Y32655498D01*
X-30534718Y32668842D01*
X-30548994Y32670829D01*
X-30587476Y32664940D01*
X-30597512Y32662549D01*
X-30799932Y32596388D01*
X-30809441Y32592391D01*
X-30998337Y32494058D01*
X-31007062Y32488564D01*
X-31177367Y32360695D01*
X-31185074Y32353852D01*
X-31332210Y32199883D01*
X-31338696Y32191873D01*
X-31458702Y32015951D01*
X-31463800Y32006977D01*
X-31553462Y31813817D01*
X-31557025Y31804130D01*
X-31612411Y31604417D01*
X-45478300Y31604417D01*
X-45478300Y39345939D01*
X-3022407Y39345939D01*
X-3013113Y39333925D01*
X-2972712Y39305636D01*
X-2963216Y39300153D01*
X-2773687Y39211774D01*
X-2763395Y39208028D01*
X-2561399Y39153904D01*
X-2550604Y39152001D01*
X-2342275Y39133774D01*
X-2331325Y39133774D01*
X-2122996Y39152001D01*
X-2112201Y39153904D01*
X-1910205Y39208028D01*
X-1899913Y39211774D01*
X-1710384Y39300153D01*
X-1700888Y39305636D01*
X-1659652Y39334510D01*
X-1651277Y39344988D01*
X-1658343Y39358432D01*
X-2323989Y40024079D01*
X-2337932Y40031692D01*
X-2339766Y40031561D01*
X-2346380Y40027310D01*
X-3015980Y39357709D01*
X-3022407Y39345939D01*
X-45478300Y39345939D01*
X-45478300Y40390625D01*
X-3599126Y40390625D01*
X-3580899Y40182296D01*
X-3578996Y40171501D01*
X-3524872Y39969505D01*
X-3521126Y39959213D01*
X-3432746Y39769683D01*
X-3427266Y39760193D01*
X-3398389Y39718951D01*
X-3387913Y39710577D01*
X-3374466Y39717645D01*
X-2708821Y40383289D01*
X-2701208Y40397232D01*
X-2701339Y40399066D01*
X-2705590Y40405680D01*
X-3375191Y41075280D01*
X-3386961Y41081707D01*
X-3398976Y41072411D01*
X-3427266Y41032007D01*
X-3432746Y41022517D01*
X-3521126Y40832987D01*
X-3524872Y40822695D01*
X-3578996Y40620699D01*
X-3580899Y40609904D01*
X-3599126Y40401575D01*
X-3599126Y40390625D01*
X-45478300Y40390625D01*
X-45478300Y41447213D01*
X-3022323Y41447213D01*
X-3015255Y41433766D01*
X-2349611Y40768121D01*
X-2335668Y40760508D01*
X-2333834Y40760639D01*
X-2327220Y40764890D01*
X-1657620Y41434491D01*
X-1651193Y41446261D01*
X-1660487Y41458275D01*
X-1700888Y41486564D01*
X-1710384Y41492047D01*
X-1899913Y41580426D01*
X-1910205Y41584172D01*
X-2112201Y41638296D01*
X-2122996Y41640199D01*
X-2331325Y41658426D01*
X-2342275Y41658426D01*
X-2550604Y41640199D01*
X-2561399Y41638296D01*
X-2763395Y41584172D01*
X-2773687Y41580426D01*
X-2963217Y41492046D01*
X-2972707Y41486566D01*
X-3013949Y41457689D01*
X-3022323Y41447213D01*
X-45478300Y41447213D01*
X-45478300Y41717600D01*
X11589702Y41717600D01*
X11609657Y41489513D01*
X11611081Y41484200D01*
X11611081Y41484198D01*
X11633645Y41399991D01*
X11668916Y41268357D01*
X11671239Y41263376D01*
X11671239Y41263375D01*
X11763351Y41065838D01*
X11763354Y41065833D01*
X11765677Y41060851D01*
X11796486Y41016851D01*
X11881990Y40894740D01*
X11897002Y40873300D01*
X12058900Y40711402D01*
X12063408Y40708245D01*
X12063411Y40708243D01*
X12116173Y40671299D01*
X12246451Y40580077D01*
X12251433Y40577754D01*
X12251438Y40577751D01*
X12448975Y40485639D01*
X12453957Y40483316D01*
X12459265Y40481894D01*
X12459267Y40481893D01*
X12669798Y40425481D01*
X12669800Y40425481D01*
X12675113Y40424057D01*
X12903200Y40404102D01*
X13131287Y40424057D01*
X13136600Y40425481D01*
X13136602Y40425481D01*
X13347133Y40481893D01*
X13347135Y40481894D01*
X13352443Y40483316D01*
X13357425Y40485639D01*
X13554962Y40577751D01*
X13554967Y40577754D01*
X13559949Y40580077D01*
X13690227Y40671299D01*
X13742989Y40708243D01*
X13742992Y40708245D01*
X13747500Y40711402D01*
X13909398Y40873300D01*
X13924411Y40894740D01*
X14009914Y41016851D01*
X14040723Y41060851D01*
X14043046Y41065833D01*
X14043049Y41065838D01*
X14135161Y41263375D01*
X14135161Y41263376D01*
X14137484Y41268357D01*
X14172756Y41399991D01*
X14195319Y41484198D01*
X14195319Y41484200D01*
X14196743Y41489513D01*
X14212849Y41673600D01*
X16019702Y41673600D01*
X16039657Y41445513D01*
X16041081Y41440200D01*
X16041081Y41440198D01*
X16060693Y41367008D01*
X16098916Y41224357D01*
X16101239Y41219376D01*
X16101239Y41219375D01*
X16193351Y41021838D01*
X16193354Y41021833D01*
X16195677Y41016851D01*
X16327002Y40829300D01*
X16488900Y40667402D01*
X16493408Y40664245D01*
X16493411Y40664243D01*
X16555599Y40620699D01*
X16676451Y40536077D01*
X16681433Y40533754D01*
X16681438Y40533751D01*
X16878975Y40441639D01*
X16883957Y40439316D01*
X16889265Y40437894D01*
X16889267Y40437893D01*
X17099798Y40381481D01*
X17099800Y40381481D01*
X17105113Y40380057D01*
X17333200Y40360102D01*
X17561287Y40380057D01*
X17566600Y40381481D01*
X17566602Y40381481D01*
X17777133Y40437893D01*
X17777135Y40437894D01*
X17782443Y40439316D01*
X17787425Y40441639D01*
X17984962Y40533751D01*
X17984967Y40533754D01*
X17989949Y40536077D01*
X18110801Y40620699D01*
X18172989Y40664243D01*
X18172992Y40664245D01*
X18177500Y40667402D01*
X18339398Y40829300D01*
X18470723Y41016851D01*
X18473046Y41021833D01*
X18473049Y41021838D01*
X18565161Y41219375D01*
X18565161Y41219376D01*
X18567484Y41224357D01*
X18605708Y41367008D01*
X18625319Y41440198D01*
X18625319Y41440200D01*
X18626743Y41445513D01*
X18646698Y41673600D01*
X18626743Y41901687D01*
X18567484Y42122843D01*
X18546967Y42166843D01*
X18473049Y42325362D01*
X18473046Y42325367D01*
X18470723Y42330349D01*
X18339398Y42517900D01*
X18177500Y42679798D01*
X18172992Y42682955D01*
X18172989Y42682957D01*
X18094811Y42737698D01*
X17989949Y42811123D01*
X17984967Y42813446D01*
X17984962Y42813449D01*
X17787425Y42905561D01*
X17787424Y42905561D01*
X17782443Y42907884D01*
X17777135Y42909306D01*
X17777133Y42909307D01*
X17566602Y42965719D01*
X17566600Y42965719D01*
X17561287Y42967143D01*
X17333200Y42987098D01*
X17105113Y42967143D01*
X17099800Y42965719D01*
X17099798Y42965719D01*
X16889267Y42909307D01*
X16889265Y42909306D01*
X16883957Y42907884D01*
X16878976Y42905561D01*
X16878975Y42905561D01*
X16681438Y42813449D01*
X16681433Y42813446D01*
X16676451Y42811123D01*
X16571589Y42737698D01*
X16493411Y42682957D01*
X16493408Y42682955D01*
X16488900Y42679798D01*
X16327002Y42517900D01*
X16195677Y42330349D01*
X16193354Y42325367D01*
X16193351Y42325362D01*
X16119433Y42166843D01*
X16098916Y42122843D01*
X16039657Y41901687D01*
X16019702Y41673600D01*
X14212849Y41673600D01*
X14216698Y41717600D01*
X14196743Y41945687D01*
X14137484Y42166843D01*
X14063566Y42325362D01*
X14043049Y42369362D01*
X14043046Y42369367D01*
X14040723Y42374349D01*
X13909398Y42561900D01*
X13747500Y42723798D01*
X13742992Y42726955D01*
X13742989Y42726957D01*
X13619465Y42813449D01*
X13559949Y42855123D01*
X13554967Y42857446D01*
X13554962Y42857449D01*
X13357425Y42949561D01*
X13357424Y42949561D01*
X13352443Y42951884D01*
X13347135Y42953306D01*
X13347133Y42953307D01*
X13136602Y43009719D01*
X13136600Y43009719D01*
X13131287Y43011143D01*
X12903200Y43031098D01*
X12675113Y43011143D01*
X12669800Y43009719D01*
X12669798Y43009719D01*
X12459267Y42953307D01*
X12459265Y42953306D01*
X12453957Y42951884D01*
X12448976Y42949561D01*
X12448975Y42949561D01*
X12251438Y42857449D01*
X12251433Y42857446D01*
X12246451Y42855123D01*
X12186935Y42813449D01*
X12063411Y42726957D01*
X12063408Y42726955D01*
X12058900Y42723798D01*
X11897002Y42561900D01*
X11765677Y42374349D01*
X11763354Y42369367D01*
X11763351Y42369362D01*
X11742834Y42325362D01*
X11668916Y42166843D01*
X11609657Y41945687D01*
X11589702Y41717600D01*
X-45478300Y41717600D01*
X-45478300Y44679100D01*
X-45458298Y44747221D01*
X-45404642Y44793714D01*
X-45352300Y44805100D01*
X22937200Y44805100D01*
X23005321Y44785098D01*
G37*
%TD.AperFunction*%
%TA.AperFunction,Conductor*%
G36*
X-15366165Y3393938D02*
G01*
X-15327309Y3334518D01*
X-15326746Y3263524D01*
X-15358825Y3208967D01*
X-20427958Y-1860166D01*
X-20428895Y-1861094D01*
X-20487153Y-1918145D01*
X-20493307Y-1924171D01*
X-20516798Y-1960621D01*
X-20524217Y-1970946D01*
X-20551276Y-2004843D01*
X-20554341Y-2011184D01*
X-20554342Y-2011185D01*
X-20565872Y-2035037D01*
X-20573401Y-2048454D01*
X-20591565Y-2076638D01*
X-20593973Y-2083255D01*
X-20593976Y-2083260D01*
X-20606392Y-2117373D01*
X-20611353Y-2129116D01*
X-20627154Y-2161803D01*
X-20627156Y-2161808D01*
X-20630221Y-2168149D01*
X-20631804Y-2175007D01*
X-20631805Y-2175009D01*
X-20637765Y-2200826D01*
X-20642132Y-2215569D01*
X-20653603Y-2247085D01*
X-20654486Y-2254075D01*
X-20654488Y-2254083D01*
X-20659038Y-2290101D01*
X-20661274Y-2302653D01*
X-20671024Y-2344885D01*
X-20671049Y-2351931D01*
X-20671049Y-2351934D01*
X-20671166Y-2385456D01*
X-20671195Y-2386338D01*
X-20671300Y-2387169D01*
X-20671300Y-2423972D01*
X-20671657Y-2526270D01*
X-20671389Y-2527470D01*
X-20671300Y-2529107D01*
X-20671300Y-3258003D01*
X-20688180Y-3321002D01*
X-20697327Y-3336844D01*
X-20756342Y-3518472D01*
X-20757032Y-3525033D01*
X-20757032Y-3525035D01*
X-20769518Y-3643838D01*
X-20776304Y-3708400D01*
X-20756342Y-3898328D01*
X-20697327Y-4079956D01*
X-20694024Y-4085678D01*
X-20694023Y-4085679D01*
X-20665746Y-4134655D01*
X-20601840Y-4245344D01*
X-20597422Y-4250251D01*
X-20597421Y-4250252D01*
X-20560886Y-4290828D01*
X-20474053Y-4387266D01*
X-20459137Y-4398103D01*
X-20345773Y-4480467D01*
X-20319552Y-4499518D01*
X-20313525Y-4502201D01*
X-20313517Y-4502206D01*
X-20279285Y-4517447D01*
X-20225190Y-4563427D01*
X-20204541Y-4631355D01*
X-20223894Y-4699663D01*
X-20241440Y-4721648D01*
X-21484509Y-5964717D01*
X-21546821Y-5998743D01*
X-21617636Y-5993678D01*
X-21674472Y-5951131D01*
X-21699283Y-5884611D01*
X-21687044Y-5820782D01*
X-21681603Y-5809526D01*
X-21675379Y-5796652D01*
X-21667834Y-5763973D01*
X-21663466Y-5749225D01*
X-21651997Y-5717715D01*
X-21651115Y-5710729D01*
X-21651113Y-5710723D01*
X-21646562Y-5674699D01*
X-21644326Y-5662147D01*
X-21636162Y-5626786D01*
X-21636162Y-5626783D01*
X-21634576Y-5619915D01*
X-21634434Y-5579344D01*
X-21634405Y-5578462D01*
X-21634300Y-5577631D01*
X-21634300Y-5540828D01*
X-21634297Y-5540041D01*
X-21633955Y-5442057D01*
X-21633955Y-5442052D01*
X-21633943Y-5438530D01*
X-21634211Y-5437330D01*
X-21634300Y-5435693D01*
X-21634300Y-4548588D01*
X-21614298Y-4480467D01*
X-21597395Y-4459493D01*
X-21436602Y-4298700D01*
X-21430009Y-4289285D01*
X-21321736Y-4134655D01*
X-21305277Y-4111149D01*
X-21302954Y-4106167D01*
X-21302951Y-4106162D01*
X-21210839Y-3908625D01*
X-21210839Y-3908624D01*
X-21208516Y-3903643D01*
X-21188753Y-3829889D01*
X-21150681Y-3687802D01*
X-21150681Y-3687800D01*
X-21149257Y-3682487D01*
X-21129302Y-3454400D01*
X-21149257Y-3226313D01*
X-21172072Y-3141167D01*
X-21207093Y-3010467D01*
X-21207094Y-3010465D01*
X-21208516Y-3005157D01*
X-21210839Y-3000175D01*
X-21302951Y-2802638D01*
X-21302954Y-2802633D01*
X-21305277Y-2797651D01*
X-21436602Y-2610100D01*
X-21598500Y-2448202D01*
X-21603008Y-2445045D01*
X-21603011Y-2445043D01*
X-21728880Y-2356909D01*
X-21786051Y-2316877D01*
X-21791033Y-2314554D01*
X-21791038Y-2314551D01*
X-21988575Y-2222439D01*
X-21988576Y-2222439D01*
X-21993557Y-2220116D01*
X-21998865Y-2218694D01*
X-21998867Y-2218693D01*
X-22209398Y-2162281D01*
X-22209400Y-2162281D01*
X-22214713Y-2160857D01*
X-22442800Y-2140902D01*
X-22670887Y-2160857D01*
X-22676200Y-2162281D01*
X-22676202Y-2162281D01*
X-22886733Y-2218693D01*
X-22886735Y-2218694D01*
X-22892043Y-2220116D01*
X-22897024Y-2222439D01*
X-22897025Y-2222439D01*
X-23094562Y-2314551D01*
X-23094567Y-2314554D01*
X-23099549Y-2316877D01*
X-23156720Y-2356909D01*
X-23282589Y-2445043D01*
X-23282592Y-2445045D01*
X-23287100Y-2448202D01*
X-23448998Y-2610100D01*
X-23580323Y-2797651D01*
X-23582646Y-2802633D01*
X-23582649Y-2802638D01*
X-23674761Y-3000175D01*
X-23677084Y-3005157D01*
X-23678506Y-3010465D01*
X-23678507Y-3010467D01*
X-23713528Y-3141167D01*
X-23736343Y-3226313D01*
X-23756298Y-3454400D01*
X-23736343Y-3682487D01*
X-23734919Y-3687800D01*
X-23734919Y-3687802D01*
X-23696846Y-3829889D01*
X-23677084Y-3903643D01*
X-23674761Y-3908624D01*
X-23674761Y-3908625D01*
X-23582649Y-4106162D01*
X-23582646Y-4106167D01*
X-23580323Y-4111149D01*
X-23563864Y-4134655D01*
X-23455590Y-4289285D01*
X-23448998Y-4298700D01*
X-23288205Y-4459493D01*
X-23254179Y-4521805D01*
X-23251300Y-4548588D01*
X-23251300Y-5139319D01*
X-23271302Y-5207440D01*
X-23288205Y-5228414D01*
X-27780787Y-9720995D01*
X-27843099Y-9755021D01*
X-27869882Y-9757900D01*
X-30452612Y-9757900D01*
X-30520733Y-9737898D01*
X-30541707Y-9720995D01*
X-30702500Y-9560202D01*
X-30707008Y-9557045D01*
X-30707011Y-9557043D01*
X-30789912Y-9498995D01*
X-30890051Y-9428877D01*
X-30895033Y-9426554D01*
X-30895038Y-9426551D01*
X-31092575Y-9334439D01*
X-31092576Y-9334439D01*
X-31097557Y-9332116D01*
X-31102865Y-9330694D01*
X-31102867Y-9330693D01*
X-31313398Y-9274281D01*
X-31313400Y-9274281D01*
X-31318713Y-9272857D01*
X-31546800Y-9252902D01*
X-31774887Y-9272857D01*
X-31780200Y-9274281D01*
X-31780202Y-9274281D01*
X-31990733Y-9330693D01*
X-31990735Y-9330694D01*
X-31996043Y-9332116D01*
X-32001024Y-9334439D01*
X-32001025Y-9334439D01*
X-32198562Y-9426551D01*
X-32198567Y-9426554D01*
X-32203549Y-9428877D01*
X-32303688Y-9498995D01*
X-32386589Y-9557043D01*
X-32386592Y-9557045D01*
X-32391100Y-9560202D01*
X-32552998Y-9722100D01*
X-32684323Y-9909651D01*
X-32686646Y-9914633D01*
X-32686649Y-9914638D01*
X-32720663Y-9987583D01*
X-32781084Y-10117157D01*
X-32782506Y-10122465D01*
X-32782507Y-10122467D01*
X-32838919Y-10332998D01*
X-32840343Y-10338313D01*
X-32860298Y-10566400D01*
X-32840343Y-10794487D01*
X-32838920Y-10799798D01*
X-32838918Y-10799809D01*
X-32821870Y-10863430D01*
X-32823559Y-10934406D01*
X-32863352Y-10993203D01*
X-32928617Y-11021151D01*
X-32998630Y-11009378D01*
X-33032671Y-10985137D01*
X-33241395Y-10776413D01*
X-33275421Y-10714101D01*
X-33278300Y-10687318D01*
X-33278300Y-4540462D01*
X-28164307Y-4540462D01*
X-28155011Y-4552477D01*
X-28103806Y-4588331D01*
X-28094311Y-4593814D01*
X-27896853Y-4685890D01*
X-27886561Y-4689636D01*
X-27676112Y-4746025D01*
X-27665319Y-4747928D01*
X-27448275Y-4766917D01*
X-27437325Y-4766917D01*
X-27220281Y-4747928D01*
X-27209488Y-4746025D01*
X-26999039Y-4689636D01*
X-26988747Y-4685890D01*
X-26791289Y-4593814D01*
X-26781794Y-4588331D01*
X-26729752Y-4551891D01*
X-26721376Y-4541412D01*
X-26728444Y-4527966D01*
X-27429988Y-3826422D01*
X-27443932Y-3818808D01*
X-27445765Y-3818939D01*
X-27452380Y-3823190D01*
X-28157877Y-4528687D01*
X-28164307Y-4540462D01*
X-33278300Y-4540462D01*
X-33278300Y-3459875D01*
X-28755317Y-3459875D01*
X-28736328Y-3676919D01*
X-28734425Y-3687712D01*
X-28678036Y-3898161D01*
X-28674290Y-3908453D01*
X-28582214Y-4105911D01*
X-28576731Y-4115406D01*
X-28540291Y-4167448D01*
X-28529812Y-4175824D01*
X-28516366Y-4168756D01*
X-27814822Y-3467212D01*
X-27808444Y-3455532D01*
X-27078392Y-3455532D01*
X-27078261Y-3457365D01*
X-27074010Y-3463980D01*
X-26368513Y-4169477D01*
X-26356738Y-4175907D01*
X-26344723Y-4166611D01*
X-26308869Y-4115406D01*
X-26303386Y-4105911D01*
X-26211310Y-3908453D01*
X-26207564Y-3898161D01*
X-26151175Y-3687712D01*
X-26149272Y-3676919D01*
X-26130283Y-3459875D01*
X-26130283Y-3448925D01*
X-26149272Y-3231881D01*
X-26151175Y-3221088D01*
X-26207564Y-3010639D01*
X-26211310Y-3000347D01*
X-26303386Y-2802889D01*
X-26308869Y-2793394D01*
X-26345309Y-2741352D01*
X-26355788Y-2732976D01*
X-26369234Y-2740044D01*
X-27070778Y-3441588D01*
X-27078392Y-3455532D01*
X-27808444Y-3455532D01*
X-27807208Y-3453268D01*
X-27807339Y-3451435D01*
X-27811590Y-3444820D01*
X-28517087Y-2739323D01*
X-28528862Y-2732893D01*
X-28540877Y-2742189D01*
X-28576731Y-2793394D01*
X-28582214Y-2802889D01*
X-28674290Y-3000347D01*
X-28678036Y-3010639D01*
X-28734425Y-3221088D01*
X-28736328Y-3231881D01*
X-28755317Y-3448925D01*
X-28755317Y-3459875D01*
X-33278300Y-3459875D01*
X-33278300Y-2367388D01*
X-28164224Y-2367388D01*
X-28157156Y-2380834D01*
X-27455612Y-3082378D01*
X-27441668Y-3089992D01*
X-27439835Y-3089861D01*
X-27433220Y-3085610D01*
X-26727723Y-2380113D01*
X-26721293Y-2368338D01*
X-26730589Y-2356323D01*
X-26781794Y-2320469D01*
X-26791289Y-2314986D01*
X-26988747Y-2222910D01*
X-26999039Y-2219164D01*
X-27209488Y-2162775D01*
X-27220281Y-2160872D01*
X-27437325Y-2141883D01*
X-27448275Y-2141883D01*
X-27665319Y-2160872D01*
X-27676112Y-2162775D01*
X-27886561Y-2219164D01*
X-27896853Y-2222910D01*
X-28094311Y-2314986D01*
X-28103806Y-2320469D01*
X-28155848Y-2356909D01*
X-28164224Y-2367388D01*
X-33278300Y-2367388D01*
X-33278300Y-566392D01*
X-33275071Y-538048D01*
X-33270160Y-516774D01*
X-33268576Y-509915D01*
X-33268447Y-473108D01*
X-33267562Y-458633D01*
X-33264038Y-429075D01*
X-33264038Y-429074D01*
X-33263204Y-422080D01*
X-33267394Y-382216D01*
X-33268083Y-368605D01*
X-33267968Y-335573D01*
X-33267943Y-328530D01*
X-33275266Y-295767D01*
X-33278300Y-268283D01*
X-33278300Y31538D01*
X-28124307Y31538D01*
X-28115011Y19523D01*
X-28063806Y-16331D01*
X-28054311Y-21814D01*
X-27856853Y-113890D01*
X-27846561Y-117636D01*
X-27636112Y-174025D01*
X-27625319Y-175928D01*
X-27408275Y-194917D01*
X-27397325Y-194917D01*
X-27180281Y-175928D01*
X-27169488Y-174025D01*
X-26959039Y-117636D01*
X-26948747Y-113890D01*
X-26751289Y-21814D01*
X-26741794Y-16331D01*
X-26689752Y20109D01*
X-26681376Y30588D01*
X-26688444Y44034D01*
X-27389988Y745578D01*
X-27403932Y753192D01*
X-27405765Y753061D01*
X-27412380Y748810D01*
X-28117877Y43313D01*
X-28124307Y31538D01*
X-33278300Y31538D01*
X-33278300Y1112125D01*
X-28715317Y1112125D01*
X-28696328Y895081D01*
X-28694425Y884288D01*
X-28638036Y673839D01*
X-28634290Y663547D01*
X-28542214Y466089D01*
X-28536731Y456594D01*
X-28500291Y404552D01*
X-28489812Y396176D01*
X-28476366Y403244D01*
X-27774822Y1104788D01*
X-27768444Y1116468D01*
X-27038392Y1116468D01*
X-27038261Y1114635D01*
X-27034010Y1108020D01*
X-26328513Y402523D01*
X-26316738Y396093D01*
X-26304723Y405389D01*
X-26268869Y456594D01*
X-26263386Y466089D01*
X-26171310Y663547D01*
X-26167564Y673839D01*
X-26111175Y884288D01*
X-26109272Y895081D01*
X-26090283Y1112125D01*
X-26090283Y1117600D01*
X-23716298Y1117600D01*
X-23696343Y889513D01*
X-23694919Y884200D01*
X-23694919Y884198D01*
X-23657775Y745578D01*
X-23637084Y668357D01*
X-23634761Y663376D01*
X-23634761Y663375D01*
X-23542649Y465838D01*
X-23542646Y465833D01*
X-23540323Y460851D01*
X-23408998Y273300D01*
X-23247100Y111402D01*
X-23242592Y108245D01*
X-23242589Y108243D01*
X-23172448Y59130D01*
X-23059549Y-19923D01*
X-23054567Y-22246D01*
X-23054562Y-22249D01*
X-22858035Y-113890D01*
X-22852043Y-116684D01*
X-22846735Y-118106D01*
X-22846733Y-118107D01*
X-22636202Y-174519D01*
X-22636200Y-174519D01*
X-22630887Y-175943D01*
X-22402800Y-195898D01*
X-22174713Y-175943D01*
X-22169400Y-174519D01*
X-22169398Y-174519D01*
X-21958867Y-118107D01*
X-21958865Y-118106D01*
X-21953557Y-116684D01*
X-21947565Y-113890D01*
X-21751038Y-22249D01*
X-21751033Y-22246D01*
X-21746051Y-19923D01*
X-21633152Y59130D01*
X-21563011Y108243D01*
X-21563008Y108245D01*
X-21558500Y111402D01*
X-21396602Y273300D01*
X-21265277Y460851D01*
X-21262954Y465833D01*
X-21262951Y465838D01*
X-21170839Y663375D01*
X-21170839Y663376D01*
X-21168516Y668357D01*
X-21147824Y745578D01*
X-21110681Y884198D01*
X-21110681Y884200D01*
X-21109257Y889513D01*
X-21089302Y1117600D01*
X-21109257Y1345687D01*
X-21111422Y1353766D01*
X-21167093Y1561533D01*
X-21167094Y1561535D01*
X-21168516Y1566843D01*
X-21232188Y1703389D01*
X-21262951Y1769362D01*
X-21262954Y1769367D01*
X-21265277Y1774349D01*
X-21380450Y1938833D01*
X-21393443Y1957389D01*
X-21393445Y1957392D01*
X-21396602Y1961900D01*
X-21558500Y2123798D01*
X-21563008Y2126955D01*
X-21563011Y2126957D01*
X-21688880Y2215091D01*
X-21746051Y2255123D01*
X-21751033Y2257446D01*
X-21751038Y2257449D01*
X-21948575Y2349561D01*
X-21948576Y2349561D01*
X-21953557Y2351884D01*
X-21958865Y2353306D01*
X-21958867Y2353307D01*
X-22169398Y2409719D01*
X-22169400Y2409719D01*
X-22174713Y2411143D01*
X-22402800Y2431098D01*
X-22630887Y2411143D01*
X-22636200Y2409719D01*
X-22636202Y2409719D01*
X-22846733Y2353307D01*
X-22846735Y2353306D01*
X-22852043Y2351884D01*
X-22857024Y2349561D01*
X-22857025Y2349561D01*
X-23054562Y2257449D01*
X-23054567Y2257446D01*
X-23059549Y2255123D01*
X-23116720Y2215091D01*
X-23242589Y2126957D01*
X-23242592Y2126955D01*
X-23247100Y2123798D01*
X-23408998Y1961900D01*
X-23412155Y1957392D01*
X-23412157Y1957389D01*
X-23425150Y1938833D01*
X-23540323Y1774349D01*
X-23542646Y1769367D01*
X-23542649Y1769362D01*
X-23573412Y1703389D01*
X-23637084Y1566843D01*
X-23638506Y1561535D01*
X-23638507Y1561533D01*
X-23694178Y1353766D01*
X-23696343Y1345687D01*
X-23716298Y1117600D01*
X-26090283Y1117600D01*
X-26090283Y1123075D01*
X-26109272Y1340119D01*
X-26111175Y1350912D01*
X-26167564Y1561361D01*
X-26171310Y1571653D01*
X-26263386Y1769111D01*
X-26268869Y1778606D01*
X-26305309Y1830648D01*
X-26315788Y1839024D01*
X-26329234Y1831956D01*
X-27030778Y1130412D01*
X-27038392Y1116468D01*
X-27768444Y1116468D01*
X-27767208Y1118732D01*
X-27767339Y1120565D01*
X-27771590Y1127180D01*
X-28477087Y1832677D01*
X-28488862Y1839107D01*
X-28500877Y1829811D01*
X-28536731Y1778606D01*
X-28542214Y1769111D01*
X-28634290Y1571653D01*
X-28638036Y1561361D01*
X-28694425Y1350912D01*
X-28696328Y1340119D01*
X-28715317Y1123075D01*
X-28715317Y1112125D01*
X-33278300Y1112125D01*
X-33278300Y2204612D01*
X-28124224Y2204612D01*
X-28117156Y2191166D01*
X-27415612Y1489622D01*
X-27401668Y1482008D01*
X-27399835Y1482139D01*
X-27393220Y1486390D01*
X-26687723Y2191887D01*
X-26681293Y2203662D01*
X-26690589Y2215677D01*
X-26741794Y2251531D01*
X-26751289Y2257014D01*
X-26948747Y2349090D01*
X-26959039Y2352836D01*
X-27169488Y2409225D01*
X-27180281Y2411128D01*
X-27397325Y2430117D01*
X-27408275Y2430117D01*
X-27625319Y2411128D01*
X-27636112Y2409225D01*
X-27846561Y2352836D01*
X-27856853Y2349090D01*
X-28054311Y2257014D01*
X-28063806Y2251531D01*
X-28115848Y2215091D01*
X-28124224Y2204612D01*
X-33278300Y2204612D01*
X-33278300Y2254518D01*
X-33258298Y2322639D01*
X-33241395Y2343613D01*
X-32264813Y3320195D01*
X-32202501Y3354221D01*
X-32175718Y3357100D01*
X-15808014Y3357100D01*
X-15806694Y3357093D01*
X-15716579Y3356149D01*
X-15674203Y3365311D01*
X-15661637Y3367369D01*
X-15618545Y3372203D01*
X-15611894Y3374519D01*
X-15611890Y3374520D01*
X-15586870Y3383233D01*
X-15572058Y3387396D01*
X-15546181Y3392991D01*
X-15539290Y3394481D01*
X-15501168Y3412257D01*
X-15430978Y3422918D01*
X-15366165Y3393938D01*
G37*
%TD.AperFunction*%
%TD*%
M02*
