%TF.GenerationSoftware,KiCad,Pcbnew,(6.0.10)*%
%TF.CreationDate,2023-02-16T10:20:13+01:00*%
%TF.ProjectId,Weerstation,57656572-7374-4617-9469-6f6e2e6b6963,rev?*%
%TF.SameCoordinates,Original*%
%TF.FileFunction,Copper,L1,Top*%
%TF.FilePolarity,Positive*%
%FSLAX46Y46*%
G04 Gerber Fmt 4.6, Leading zero omitted, Abs format (unit mm)*
G04 Created by KiCad (PCBNEW (6.0.10)) date 2023-02-16 10:20:13*
%MOMM*%
%LPD*%
G01*
G04 APERTURE LIST*
G04 Aperture macros list*
%AMRoundRect*
0 Rectangle with rounded corners*
0 $1 Rounding radius*
0 $2 $3 $4 $5 $6 $7 $8 $9 X,Y pos of 4 corners*
0 Add a 4 corners polygon primitive as box body*
4,1,4,$2,$3,$4,$5,$6,$7,$8,$9,$2,$3,0*
0 Add four circle primitives for the rounded corners*
1,1,$1+$1,$2,$3*
1,1,$1+$1,$4,$5*
1,1,$1+$1,$6,$7*
1,1,$1+$1,$8,$9*
0 Add four rect primitives between the rounded corners*
20,1,$1+$1,$2,$3,$4,$5,0*
20,1,$1+$1,$4,$5,$6,$7,0*
20,1,$1+$1,$6,$7,$8,$9,0*
20,1,$1+$1,$8,$9,$2,$3,0*%
G04 Aperture macros list end*
%TA.AperFunction,ComponentPad*%
%ADD10R,1.700000X1.700000*%
%TD*%
%TA.AperFunction,ComponentPad*%
%ADD11O,1.700000X1.700000*%
%TD*%
%TA.AperFunction,ComponentPad*%
%ADD12C,1.600000*%
%TD*%
%TA.AperFunction,ComponentPad*%
%ADD13O,1.600000X1.600000*%
%TD*%
%TA.AperFunction,ComponentPad*%
%ADD14R,1.500000X1.500000*%
%TD*%
%TA.AperFunction,ComponentPad*%
%ADD15C,1.500000*%
%TD*%
%TA.AperFunction,ComponentPad*%
%ADD16R,1.800000X1.800000*%
%TD*%
%TA.AperFunction,ComponentPad*%
%ADD17C,1.800000*%
%TD*%
%TA.AperFunction,ComponentPad*%
%ADD18R,1.600000X1.600000*%
%TD*%
%TA.AperFunction,ComponentPad*%
%ADD19R,2.000000X2.000000*%
%TD*%
%TA.AperFunction,ComponentPad*%
%ADD20C,2.000000*%
%TD*%
%TA.AperFunction,ComponentPad*%
%ADD21R,1.100000X1.800000*%
%TD*%
%TA.AperFunction,ComponentPad*%
%ADD22RoundRect,0.275000X-0.275000X-0.625000X0.275000X-0.625000X0.275000X0.625000X-0.275000X0.625000X0*%
%TD*%
%TA.AperFunction,SMDPad,CuDef*%
%ADD23R,1.500000X0.900000*%
%TD*%
%TA.AperFunction,SMDPad,CuDef*%
%ADD24R,0.900000X1.500000*%
%TD*%
%TA.AperFunction,SMDPad,CuDef*%
%ADD25R,0.900000X0.900000*%
%TD*%
%TA.AperFunction,SMDPad,CuDef*%
%ADD26R,3.800000X3.800000*%
%TD*%
%TA.AperFunction,ComponentPad*%
%ADD27C,2.500000*%
%TD*%
%TA.AperFunction,ComponentPad*%
%ADD28R,2.000000X1.905000*%
%TD*%
%TA.AperFunction,ComponentPad*%
%ADD29O,2.000000X1.905000*%
%TD*%
%TA.AperFunction,ViaPad*%
%ADD30C,5.000000*%
%TD*%
%TA.AperFunction,ViaPad*%
%ADD31C,0.800000*%
%TD*%
%TA.AperFunction,Conductor*%
%ADD32C,0.600000*%
%TD*%
G04 APERTURE END LIST*
D10*
%TO.P,J1,1,Pin_1*%
%TO.N,Net-(J1-Pad1)*%
X9093200Y8468600D03*
D11*
%TO.P,J1,2,Pin_2*%
%TO.N,Net-(J1-Pad2)*%
X9093200Y5928600D03*
%TO.P,J1,3,Pin_3*%
%TO.N,GND*%
X9093200Y3388600D03*
%TD*%
D12*
%TO.P,R5,1*%
%TO.N,Net-(D1-Pad2)*%
X14173200Y-9550400D03*
D13*
%TO.P,R5,2*%
%TO.N,+3V3*%
X14173200Y609600D03*
%TD*%
D14*
%TO.P,U2,1,VCC*%
%TO.N,+3V3*%
X5283200Y40396100D03*
D15*
%TO.P,U2,2,IO*%
%TO.N,Net-(R4-Pad2)*%
X2743200Y40396100D03*
%TO.P,U2,3,NC*%
%TO.N,unconnected-(U2-Pad3)*%
X203200Y40396100D03*
%TO.P,U2,4,GND*%
%TO.N,GND*%
X-2336800Y40396100D03*
%TD*%
D10*
%TO.P,J3,1,Pin_1*%
%TO.N,+5V*%
X3515200Y-14376400D03*
D11*
%TO.P,J3,2,Pin_2*%
%TO.N,Net-(J3-Pad2)*%
X6055200Y-14376400D03*
%TO.P,J3,3,Pin_3*%
%TO.N,Net-(J3-Pad3)*%
X8595200Y-14376400D03*
%TO.P,J3,4,Pin_4*%
%TO.N,GND*%
X11135200Y-14376400D03*
%TD*%
D12*
%TO.P,C3,1*%
%TO.N,+3V3*%
X12903200Y41717600D03*
%TO.P,C3,2*%
%TO.N,GND*%
X12903200Y36717600D03*
%TD*%
D16*
%TO.P,D1,1,K*%
%TO.N,Net-(D1-Pad1)*%
X17724200Y-14122400D03*
D17*
%TO.P,D1,2,A*%
%TO.N,Net-(D1-Pad2)*%
X20264200Y-14122400D03*
%TD*%
D12*
%TO.P,C7,1*%
%TO.N,+5V*%
X-7376800Y14833600D03*
%TO.P,C7,2*%
%TO.N,GND*%
X-2376800Y14833600D03*
%TD*%
D18*
%TO.P,C6,1*%
%TO.N,+5V*%
X-13766800Y14833600D03*
D12*
%TO.P,C6,2*%
%TO.N,GND*%
X-13766800Y12333600D03*
%TD*%
%TO.P,C2,1*%
%TO.N,+3V3*%
X-22402800Y1117600D03*
%TO.P,C2,2*%
%TO.N,GND*%
X-27402800Y1117600D03*
%TD*%
D19*
%TO.P,BZ1,1,-*%
%TO.N,+5V*%
X-37626800Y-416400D03*
D20*
%TO.P,BZ1,2,+*%
%TO.N,Net-(BZ1-Pad2)*%
X-37626800Y-8016400D03*
%TD*%
%TO.P,SW1,1,1*%
%TO.N,Net-(R2-Pad2)*%
X4758764Y-9296400D03*
X4758764Y-2796400D03*
%TO.P,SW1,2,2*%
%TO.N,GND*%
X9258764Y-9296400D03*
X9258764Y-2796400D03*
%TD*%
D18*
%TO.P,C4,1*%
%TO.N,+3V3*%
X1473200Y32613600D03*
D12*
%TO.P,C4,2*%
%TO.N,GND*%
X3973200Y32613600D03*
%TD*%
D10*
%TO.P,J6,1,Pin_1*%
%TO.N,GND*%
X-30276800Y28798600D03*
D11*
%TO.P,J6,2,Pin_2*%
X-30276800Y31338600D03*
%TO.P,J6,3,Pin_3*%
%TO.N,Net-(J6-Pad3)*%
X-27736800Y28798600D03*
%TO.P,J6,4,Pin_4*%
%TO.N,unconnected-(J6-Pad4)*%
X-27736800Y31338600D03*
%TO.P,J6,5,Pin_5*%
%TO.N,unconnected-(J6-Pad5)*%
X-25196800Y28798600D03*
%TO.P,J6,6,Pin_6*%
%TO.N,unconnected-(J6-Pad6)*%
X-25196800Y31338600D03*
%TO.P,J6,7,Pin_7*%
%TO.N,unconnected-(J6-Pad7)*%
X-22656800Y28798600D03*
%TO.P,J6,8,Pin_8*%
%TO.N,unconnected-(J6-Pad8)*%
X-22656800Y31338600D03*
%TO.P,J6,9,Pin_9*%
%TO.N,unconnected-(J6-Pad9)*%
X-20116800Y28798600D03*
%TO.P,J6,10,Pin_10*%
%TO.N,Net-(J6-Pad10)*%
X-20116800Y31338600D03*
%TO.P,J6,11,Pin_11*%
%TO.N,Net-(F1-Pad2)*%
X-17576800Y28798600D03*
%TO.P,J6,12,Pin_12*%
X-17576800Y31338600D03*
%TD*%
D12*
%TO.P,R6,1*%
%TO.N,Net-(J6-Pad10)*%
X-20566800Y23993600D03*
D13*
%TO.P,R6,2*%
%TO.N,GND*%
X-30726800Y23993600D03*
%TD*%
D12*
%TO.P,R1,1*%
%TO.N,+3V3*%
X-21386800Y-10566400D03*
D13*
%TO.P,R1,2*%
%TO.N,Net-(C1-Pad2)*%
X-31546800Y-10566400D03*
%TD*%
D10*
%TO.P,J2,1,Pin_1*%
%TO.N,+3V3*%
X-23291800Y18384600D03*
D11*
%TO.P,J2,2,Pin_2*%
%TO.N,GND*%
X-23291800Y15844600D03*
%TO.P,J2,3,Pin_3*%
%TO.N,Net-(J2-Pad3)*%
X-23291800Y13304600D03*
%TO.P,J2,4,Pin_4*%
%TO.N,Net-(J2-Pad4)*%
X-23291800Y10764600D03*
%TO.P,J2,5,Pin_5*%
%TO.N,unconnected-(J2-Pad5)*%
X-23291800Y8224600D03*
%TD*%
D12*
%TO.P,C5,1*%
%TO.N,+3V3*%
X-7416800Y30073600D03*
%TO.P,C5,2*%
%TO.N,GND*%
X-2416800Y30073600D03*
%TD*%
%TO.P,R4,1*%
%TO.N,+3V3*%
X17333200Y41673600D03*
D13*
%TO.P,R4,2*%
%TO.N,Net-(R4-Pad2)*%
X17333200Y31513600D03*
%TD*%
D21*
%TO.P,Q1,1,C*%
%TO.N,Net-(BZ1-Pad2)*%
X-37266800Y-14706400D03*
D22*
%TO.P,Q1,2,B*%
%TO.N,Net-(R3-Pad2)*%
X-35996800Y-12636400D03*
%TO.P,Q1,3,E*%
%TO.N,GND*%
X-34726800Y-14706400D03*
%TD*%
D23*
%TO.P,U1,1,GND*%
%TO.N,GND*%
X-17436800Y1244600D03*
%TO.P,U1,2,VDD*%
%TO.N,+3V3*%
X-17436800Y-25400D03*
%TO.P,U1,3,EN*%
%TO.N,Net-(C1-Pad2)*%
X-17436800Y-1295400D03*
%TO.P,U1,4,SENSOR_VP*%
%TO.N,unconnected-(U1-Pad4)*%
X-17436800Y-2565400D03*
%TO.P,U1,5,SENSOR_VN*%
%TO.N,unconnected-(U1-Pad5)*%
X-17436800Y-3835400D03*
%TO.P,U1,6,IO34*%
%TO.N,unconnected-(U1-Pad6)*%
X-17436800Y-5105400D03*
%TO.P,U1,7,IO35*%
%TO.N,unconnected-(U1-Pad7)*%
X-17436800Y-6375400D03*
%TO.P,U1,8,IO32*%
%TO.N,Net-(R4-Pad2)*%
X-17436800Y-7645400D03*
%TO.P,U1,9,IO33*%
%TO.N,Net-(R3-Pad1)*%
X-17436800Y-8915400D03*
%TO.P,U1,10,IO25*%
%TO.N,unconnected-(U1-Pad10)*%
X-17436800Y-10185400D03*
%TO.P,U1,11,IO26*%
%TO.N,unconnected-(U1-Pad11)*%
X-17436800Y-11455400D03*
%TO.P,U1,12,IO27*%
%TO.N,unconnected-(U1-Pad12)*%
X-17436800Y-12725400D03*
%TO.P,U1,13,IO14*%
%TO.N,unconnected-(U1-Pad13)*%
X-17436800Y-13995400D03*
%TO.P,U1,14,IO12*%
%TO.N,Net-(J2-Pad3)*%
X-17436800Y-15265400D03*
D24*
%TO.P,U1,15,GND*%
%TO.N,GND*%
X-14401800Y-16360400D03*
%TO.P,U1,16,IO13*%
%TO.N,Net-(J2-Pad4)*%
X-13131800Y-16360400D03*
%TO.P,U1,17,SHD/SD2*%
%TO.N,unconnected-(U1-Pad17)*%
X-11861800Y-16360400D03*
%TO.P,U1,18,SWP/SD3*%
%TO.N,unconnected-(U1-Pad18)*%
X-10591800Y-16360400D03*
%TO.P,U1,19,SCS/CMD*%
%TO.N,unconnected-(U1-Pad19)*%
X-9321800Y-16360400D03*
%TO.P,U1,20,SCK/CLK*%
%TO.N,unconnected-(U1-Pad20)*%
X-8051800Y-16360400D03*
%TO.P,U1,21,SDO/SD0*%
%TO.N,unconnected-(U1-Pad21)*%
X-6781800Y-16360400D03*
%TO.P,U1,22,SDI/SD1*%
%TO.N,unconnected-(U1-Pad22)*%
X-5511800Y-16360400D03*
%TO.P,U1,23,IO15*%
%TO.N,unconnected-(U1-Pad23)*%
X-4241800Y-16360400D03*
%TO.P,U1,24,IO2*%
%TO.N,Net-(D1-Pad1)*%
X-2971800Y-16360400D03*
D23*
%TO.P,U1,25,IO0*%
%TO.N,Net-(R2-Pad2)*%
X63200Y-15265400D03*
%TO.P,U1,26,IO4*%
%TO.N,unconnected-(U1-Pad26)*%
X63200Y-13995400D03*
%TO.P,U1,27,IO16*%
%TO.N,Net-(J3-Pad2)*%
X63200Y-12725400D03*
%TO.P,U1,28,IO17*%
%TO.N,Net-(J3-Pad3)*%
X63200Y-11455400D03*
%TO.P,U1,29,IO5*%
%TO.N,unconnected-(U1-Pad29)*%
X63200Y-10185400D03*
%TO.P,U1,30,IO18*%
%TO.N,unconnected-(U1-Pad30)*%
X63200Y-8915400D03*
%TO.P,U1,31,IO19*%
%TO.N,Net-(J5-Pad5)*%
X63200Y-7645400D03*
%TO.P,U1,32,NC*%
%TO.N,unconnected-(U1-Pad32)*%
X63200Y-6375400D03*
%TO.P,U1,33,IO21*%
%TO.N,Net-(J4-Pad1)*%
X63200Y-5105400D03*
%TO.P,U1,34,RXD0/IO3*%
%TO.N,Net-(J1-Pad2)*%
X63200Y-3835400D03*
%TO.P,U1,35,TXD0/IO1*%
%TO.N,Net-(J1-Pad1)*%
X63200Y-2565400D03*
%TO.P,U1,36,IO22*%
%TO.N,Net-(J4-Pad2)*%
X63200Y-1295400D03*
%TO.P,U1,37,IO23*%
%TO.N,unconnected-(U1-Pad37)*%
X63200Y-25400D03*
%TO.P,U1,38,GND*%
%TO.N,GND*%
X63200Y1244600D03*
D25*
%TO.P,U1,39,GND*%
X-11586800Y-7720400D03*
X-10186800Y-7720400D03*
D26*
X-10186800Y-6320400D03*
D25*
X-11586800Y-6320400D03*
X-10186800Y-4920400D03*
X-10186800Y-6320400D03*
X-8786800Y-4920400D03*
D27*
X-10186800Y-6320400D03*
D25*
X-8786800Y-6320400D03*
X-8786800Y-7720400D03*
X-11586800Y-4920400D03*
%TD*%
D28*
%TO.P,U3,1,GND*%
%TO.N,GND*%
X-7756800Y24993600D03*
D29*
%TO.P,U3,2,VO*%
%TO.N,+3V3*%
X-7756800Y22453600D03*
%TO.P,U3,3,VI*%
%TO.N,+5V*%
X-7756800Y19913600D03*
%TD*%
D12*
%TO.P,C1,1*%
%TO.N,GND*%
X-27442800Y-3454400D03*
%TO.P,C1,2*%
%TO.N,Net-(C1-Pad2)*%
X-22442800Y-3454400D03*
%TD*%
%TO.P,F1,1*%
%TO.N,+5V*%
X-12547600Y19405600D03*
%TO.P,F1,2*%
%TO.N,Net-(F1-Pad2)*%
X-17547600Y19405600D03*
%TD*%
%TO.P,R2,1*%
%TO.N,+3V3*%
X3993200Y11023600D03*
D13*
%TO.P,R2,2*%
%TO.N,Net-(R2-Pad2)*%
X3993200Y863600D03*
%TD*%
D10*
%TO.P,J4,1,Pin_1*%
%TO.N,Net-(J4-Pad1)*%
X20269200Y-5486400D03*
D11*
%TO.P,J4,2,Pin_2*%
%TO.N,Net-(J4-Pad2)*%
X20269200Y-2946400D03*
%TO.P,J4,3,Pin_3*%
%TO.N,GND*%
X20269200Y-406400D03*
%TO.P,J4,4,Pin_4*%
%TO.N,+3V3*%
X20269200Y2133600D03*
%TD*%
D12*
%TO.P,R7,1*%
%TO.N,GND*%
X-43966800Y23993600D03*
D13*
%TO.P,R7,2*%
%TO.N,Net-(J6-Pad3)*%
X-33806800Y23993600D03*
%TD*%
D12*
%TO.P,R3,1*%
%TO.N,Net-(R3-Pad1)*%
X-21541800Y-14816400D03*
D13*
%TO.P,R3,2*%
%TO.N,Net-(R3-Pad2)*%
X-31701800Y-14816400D03*
%TD*%
D10*
%TO.P,J5,1,Pin_1*%
%TO.N,Net-(J4-Pad1)*%
X20269200Y9758600D03*
D11*
%TO.P,J5,2,Pin_2*%
%TO.N,Net-(J4-Pad2)*%
X20269200Y12298600D03*
%TO.P,J5,3,Pin_3*%
%TO.N,GND*%
X20269200Y14838600D03*
%TO.P,J5,4,Pin_4*%
%TO.N,+3V3*%
X20269200Y17378600D03*
%TO.P,J5,5,Pin_5*%
%TO.N,Net-(J5-Pad5)*%
X20269200Y19918600D03*
%TD*%
D30*
%TO.N,GND*%
X49733200Y-13106400D03*
X27113200Y-12786400D03*
X42113200Y-12786400D03*
D31*
X457200Y3911600D03*
D30*
X-41706800Y-13106400D03*
X49733200Y40233600D03*
X-41706800Y40233600D03*
D31*
%TO.N,Net-(J3-Pad2)*%
X-1574800Y-12852400D03*
%TO.N,Net-(J3-Pad3)*%
X-1574800Y-11582400D03*
%TO.N,Net-(R4-Pad2)*%
X-19862800Y-3708400D03*
%TD*%
D32*
%TO.N,+5V*%
X-7376800Y14833600D02*
X-7376800Y19533600D01*
X-12547600Y19405600D02*
X-8264800Y19405600D01*
X-8264800Y19405600D02*
X-7756800Y19913600D01*
X-7376800Y19533600D02*
X-7756800Y19913600D01*
X-13766800Y14833600D02*
X-7376800Y14833600D01*
%TO.N,Net-(BZ1-Pad2)*%
X-37626800Y-13946400D02*
X-37266800Y-14306400D01*
X-37626800Y-8016400D02*
X-37626800Y-13946400D01*
%TO.N,Net-(C1-Pad2)*%
X-17436800Y-1295400D02*
X-20283800Y-1295400D01*
X-20283800Y-1295400D02*
X-22442800Y-3454400D01*
%TO.N,+3V3*%
X-4114800Y31597600D02*
X-3098800Y32613600D01*
X-24942800Y-7010400D02*
X-24942800Y-1422400D01*
X-7756800Y22453600D02*
X-5130800Y22453600D01*
X-7416800Y30073600D02*
X-4114800Y30073600D01*
X-21386800Y-10566400D02*
X-24942800Y-7010400D01*
X-21259800Y-25400D02*
X-22402800Y1117600D01*
X-4114800Y30073600D02*
X-4114800Y31597600D01*
X5283200Y36423600D02*
X5283200Y40396100D01*
X15697200Y2133600D02*
X14173200Y609600D01*
X12903200Y41717600D02*
X17289200Y41717600D01*
X-17436800Y-25400D02*
X-21259800Y-25400D01*
X-5130800Y22453600D02*
X-4114800Y23469600D01*
X-3098800Y32613600D02*
X1473200Y32613600D01*
X-17576800Y22453600D02*
X-21645800Y18384600D01*
X5283200Y40396100D02*
X11581700Y40396100D01*
X-7756800Y22453600D02*
X-17576800Y22453600D01*
X11581700Y40396100D02*
X12903200Y41717600D01*
X-23291800Y18384600D02*
X-21645800Y18384600D01*
X20269200Y2133600D02*
X15697200Y2133600D01*
X1473200Y32613600D02*
X5283200Y36423600D01*
X-24942800Y-1422400D02*
X-22402800Y1117600D01*
X17289200Y41717600D02*
X17333200Y41673600D01*
X-4114800Y23469600D02*
X-4114800Y30073600D01*
%TO.N,Net-(D1-Pad1)*%
X17015200Y-16360400D02*
X17729200Y-15646400D01*
X-2971800Y-16360400D02*
X17015200Y-16360400D01*
X17724200Y-15641400D02*
X17724200Y-14122400D01*
X17729200Y-15646400D02*
X17724200Y-15641400D01*
%TO.N,Net-(D1-Pad2)*%
X20264200Y-14122400D02*
X20264200Y-10815400D01*
X20264200Y-10815400D02*
X18999200Y-9550400D01*
X18999200Y-9550400D02*
X14173200Y-9550400D01*
%TO.N,Net-(J1-Pad1)*%
X2235200Y-1743400D02*
X2235200Y4673600D01*
X63200Y-2565400D02*
X1413200Y-2565400D01*
X6030200Y8468600D02*
X9093200Y8468600D01*
X2235200Y4673600D02*
X6030200Y8468600D01*
X1413200Y-2565400D02*
X2235200Y-1743400D01*
%TO.N,Net-(J1-Pad2)*%
X63200Y-3835400D02*
X3535022Y-3835400D01*
X4096022Y-4396400D02*
X5421506Y-4396400D01*
X7643200Y-2174706D02*
X7643200Y4478600D01*
X5421506Y-4396400D02*
X7643200Y-2174706D01*
X7643200Y4478600D02*
X9093200Y5928600D01*
X3535022Y-3835400D02*
X4096022Y-4396400D01*
%TO.N,Net-(J3-Pad2)*%
X-63800Y-12852400D02*
X63200Y-12725400D01*
X-1574800Y-12852400D02*
X-63800Y-12852400D01*
%TO.N,Net-(J3-Pad3)*%
X-63800Y-11582400D02*
X63200Y-11455400D01*
X-1574800Y-11582400D02*
X-63800Y-11582400D01*
%TO.N,Net-(R3-Pad2)*%
X-35996800Y-13036400D02*
X-33481800Y-13036400D01*
X-33481800Y-13036400D02*
X-31701800Y-14816400D01*
%TO.N,Net-(R2-Pad2)*%
X1981200Y-14477400D02*
X1981200Y-10566400D01*
X1981200Y-10566400D02*
X3251200Y-9296400D01*
X63200Y-15265400D02*
X1193200Y-15265400D01*
X3993200Y-2030836D02*
X4758764Y-2796400D01*
X3251200Y-9296400D02*
X4758764Y-9296400D01*
X1193200Y-15265400D02*
X1981200Y-14477400D01*
X3993200Y863600D02*
X3993200Y-2030836D01*
%TO.N,Net-(R3-Pad1)*%
X-18973800Y-8915400D02*
X-19608800Y-9550400D01*
X-19608800Y-9550400D02*
X-19608800Y-12883400D01*
X-17436800Y-8915400D02*
X-18973800Y-8915400D01*
X-19608800Y-12883400D02*
X-21541800Y-14816400D01*
%TO.N,Net-(R4-Pad2)*%
X19833200Y44093600D02*
X3933200Y44093600D01*
X17333200Y31513600D02*
X17333200Y37293600D01*
X20333200Y43593600D02*
X19833200Y44093600D01*
X3933200Y44093600D02*
X2743200Y42903600D01*
X-19862800Y-3708400D02*
X-19862800Y-6756400D01*
X20333200Y40293600D02*
X20333200Y43593600D01*
X-18973800Y-7645400D02*
X-17436800Y-7645400D01*
X-19862800Y-6756400D02*
X-18973800Y-7645400D01*
X17333200Y37293600D02*
X20333200Y40293600D01*
X2743200Y42903600D02*
X2743200Y40396100D01*
%TO.N,Net-(J2-Pad3)*%
X-16306800Y-15265400D02*
X-17436800Y-15265400D01*
X-14031800Y-12990400D02*
X-16306800Y-15265400D01*
X-15290800Y5181600D02*
X-14031800Y3922600D01*
X-26466800Y6705600D02*
X-24942800Y5181600D01*
X-24947800Y13304600D02*
X-26466800Y11785600D01*
X-24942800Y5181600D02*
X-15290800Y5181600D01*
X-26466800Y11785600D02*
X-26466800Y6705600D01*
X-14031800Y3922600D02*
X-14031800Y-12990400D01*
X-23291800Y13304600D02*
X-24947800Y13304600D01*
%TO.N,Net-(J2-Pad4)*%
X-23291800Y10764600D02*
X-15285800Y10764600D01*
X-15285800Y10764600D02*
X-13131800Y8610600D01*
X-13131800Y8610600D02*
X-13131800Y-16360400D01*
%TO.N,Net-(J4-Pad1)*%
X22619200Y7911600D02*
X20772200Y9758600D01*
X20772200Y9758600D02*
X20269200Y9758600D01*
X1193200Y-5105400D02*
X1574200Y-5486400D01*
X1574200Y-5486400D02*
X20269200Y-5486400D01*
X22619200Y-3136400D02*
X22619200Y7911600D01*
X20269200Y-5486400D02*
X22619200Y-3136400D01*
X63200Y-5105400D02*
X1193200Y-5105400D01*
%TO.N,Net-(J4-Pad2)*%
X20269200Y-2946400D02*
X21719200Y-1496400D01*
X7248099Y12298600D02*
X18242200Y12298600D01*
X18242200Y7716600D02*
X18242200Y12298600D01*
X-1447800Y-1295400D02*
X-2336800Y-406400D01*
X20269200Y12298600D02*
X18242200Y12298600D01*
X-2336800Y-406400D02*
X-2336800Y2713701D01*
X-2336800Y2713701D02*
X7248099Y12298600D01*
X21719200Y4239600D02*
X18242200Y7716600D01*
X21719200Y-1496400D02*
X21719200Y4239600D01*
X63200Y-1295400D02*
X-1447800Y-1295400D01*
%TO.N,Net-(J5-Pad5)*%
X-3606800Y-5232400D02*
X-1193800Y-7645400D01*
X4013200Y16103600D02*
X-3606800Y8483600D01*
X-1193800Y-7645400D02*
X63200Y-7645400D01*
X20269200Y19918600D02*
X16454200Y16103600D01*
X-3606800Y8483600D02*
X-3606800Y-5232400D01*
X16454200Y16103600D02*
X4013200Y16103600D01*
%TO.N,Net-(J6-Pad3)*%
X-32966800Y26293600D02*
X-28566800Y26293600D01*
X-33806800Y25453600D02*
X-32966800Y26293600D01*
X-27736800Y27123600D02*
X-27736800Y28798600D01*
X-33806800Y23993600D02*
X-33806800Y25453600D01*
X-28566800Y26293600D02*
X-27736800Y27123600D01*
%TO.N,Net-(J6-Pad10)*%
X-12066800Y32793600D02*
X-13866800Y34593600D01*
X-20566800Y23993600D02*
X-14160800Y23993600D01*
X-19166800Y34593600D02*
X-20116800Y33643600D01*
X-20116800Y33643600D02*
X-20116800Y31338600D01*
X-13866800Y34593600D02*
X-19166800Y34593600D01*
X-14160800Y23993600D02*
X-12066800Y26087600D01*
X-12066800Y26087600D02*
X-12066800Y32793600D01*
%TD*%
%TA.AperFunction,Conductor*%
%TO.N,GND*%
G36*
X3265239Y44785098D02*
G01*
X3311732Y44731442D01*
X3321836Y44661168D01*
X3292342Y44596588D01*
X3286213Y44590005D01*
X2178042Y43481834D01*
X2177105Y43480906D01*
X2112693Y43417829D01*
X2089202Y43381379D01*
X2081783Y43371054D01*
X2054724Y43337157D01*
X2051659Y43330816D01*
X2051658Y43330815D01*
X2040128Y43306963D01*
X2032599Y43293546D01*
X2014435Y43265362D01*
X2012027Y43258745D01*
X2012024Y43258740D01*
X1999608Y43224627D01*
X1994647Y43212884D01*
X1978846Y43180197D01*
X1978844Y43180192D01*
X1975779Y43173851D01*
X1974196Y43166993D01*
X1974195Y43166991D01*
X1968235Y43141174D01*
X1963868Y43126431D01*
X1952397Y43094915D01*
X1951514Y43087925D01*
X1951512Y43087917D01*
X1946962Y43051899D01*
X1944726Y43039347D01*
X1938215Y43011143D01*
X1934976Y42997115D01*
X1934951Y42990069D01*
X1934951Y42990066D01*
X1934834Y42956544D01*
X1934805Y42955662D01*
X1934700Y42954831D01*
X1934700Y42918181D01*
X1934699Y42917741D01*
X1934489Y42857449D01*
X1934343Y42815730D01*
X1934611Y42814530D01*
X1934700Y42812893D01*
X1934700Y41419577D01*
X1914698Y41351456D01*
X1897795Y41330482D01*
X1775451Y41208138D01*
X1772294Y41203630D01*
X1772292Y41203627D01*
X1680414Y41072411D01*
X1649144Y41027753D01*
X1646821Y41022771D01*
X1646818Y41022766D01*
X1587395Y40895331D01*
X1540478Y40842046D01*
X1472201Y40822585D01*
X1404241Y40843127D01*
X1359005Y40895331D01*
X1299582Y41022766D01*
X1299579Y41022771D01*
X1297256Y41027753D01*
X1265986Y41072411D01*
X1174108Y41203627D01*
X1174106Y41203630D01*
X1170949Y41208138D01*
X1015238Y41363849D01*
X834854Y41490156D01*
X635276Y41583220D01*
X422571Y41640215D01*
X203200Y41659407D01*
X-16171Y41640215D01*
X-228876Y41583220D01*
X-276143Y41561179D01*
X-423466Y41492482D01*
X-423471Y41492479D01*
X-428453Y41490156D01*
X-432960Y41487000D01*
X-432962Y41486999D01*
X-604327Y41367008D01*
X-604330Y41367006D01*
X-608838Y41363849D01*
X-764549Y41208138D01*
X-767706Y41203630D01*
X-767708Y41203627D01*
X-859586Y41072411D01*
X-890856Y41027753D01*
X-893179Y41022771D01*
X-893182Y41022766D01*
X-952881Y40894740D01*
X-999798Y40841455D01*
X-1068076Y40821994D01*
X-1136036Y40842536D01*
X-1181271Y40894740D01*
X-1240854Y41022517D01*
X-1246334Y41032007D01*
X-1275211Y41073249D01*
X-1285687Y41081623D01*
X-1299134Y41074555D01*
X-1964779Y40408911D01*
X-1972392Y40394968D01*
X-1972261Y40393134D01*
X-1968010Y40386520D01*
X-1298409Y39716920D01*
X-1286639Y39710493D01*
X-1274624Y39719789D01*
X-1246334Y39760193D01*
X-1240854Y39769683D01*
X-1181271Y39897460D01*
X-1134354Y39950745D01*
X-1066076Y39970206D01*
X-998116Y39949664D01*
X-952881Y39897460D01*
X-893182Y39769434D01*
X-893179Y39769429D01*
X-890856Y39764447D01*
X-887700Y39759940D01*
X-887699Y39759938D01*
X-772774Y39595809D01*
X-764549Y39584062D01*
X-608838Y39428351D01*
X-428454Y39302044D01*
X-228876Y39208980D01*
X-16171Y39151985D01*
X203200Y39132793D01*
X422571Y39151985D01*
X635276Y39208980D01*
X834854Y39302044D01*
X1015238Y39428351D01*
X1170949Y39584062D01*
X1179175Y39595809D01*
X1294099Y39759938D01*
X1294100Y39759940D01*
X1297256Y39764447D01*
X1299579Y39769429D01*
X1299582Y39769434D01*
X1344789Y39866383D01*
X1359005Y39896869D01*
X1405922Y39950154D01*
X1474199Y39969615D01*
X1542159Y39949073D01*
X1587395Y39896870D01*
X1601611Y39866383D01*
X1646818Y39769434D01*
X1646821Y39769429D01*
X1649144Y39764447D01*
X1652300Y39759940D01*
X1652301Y39759938D01*
X1767226Y39595809D01*
X1775451Y39584062D01*
X1931162Y39428351D01*
X2111546Y39302044D01*
X2311124Y39208980D01*
X2523829Y39151985D01*
X2743200Y39132793D01*
X2962571Y39151985D01*
X3175276Y39208980D01*
X3374854Y39302044D01*
X3555238Y39428351D01*
X3710949Y39584062D01*
X3719175Y39595809D01*
X3791191Y39698659D01*
X3795487Y39704795D01*
X3850944Y39749123D01*
X3921563Y39756432D01*
X3984924Y39724401D01*
X4020909Y39663200D01*
X4024700Y39632524D01*
X4024700Y39597966D01*
X4031455Y39535784D01*
X4082585Y39399395D01*
X4169939Y39282839D01*
X4286495Y39195485D01*
X4294903Y39192333D01*
X4392930Y39155584D01*
X4449694Y39112942D01*
X4474394Y39046381D01*
X4474700Y39037602D01*
X4474700Y36810682D01*
X4454698Y36742561D01*
X4437795Y36721587D01*
X1675213Y33959005D01*
X1612901Y33924979D01*
X1586118Y33922100D01*
X625066Y33922100D01*
X562884Y33915345D01*
X426495Y33864215D01*
X309939Y33776861D01*
X222585Y33660305D01*
X219433Y33651897D01*
X183382Y33555730D01*
X171455Y33523916D01*
X170828Y33518147D01*
X136074Y33457309D01*
X73119Y33424487D01*
X48707Y33422100D01*
X-3089586Y33422100D01*
X-3090906Y33422107D01*
X-3091981Y33422118D01*
X-3181021Y33423051D01*
X-3223397Y33413889D01*
X-3235963Y33411831D01*
X-3279055Y33406997D01*
X-3285706Y33404681D01*
X-3285710Y33404680D01*
X-3310730Y33395967D01*
X-3325543Y33391804D01*
X-3358310Y33384719D01*
X-3397613Y33366392D01*
X-3409389Y33361610D01*
X-3450352Y33347345D01*
X-3456327Y33343611D01*
X-3456330Y33343610D01*
X-3478795Y33329573D01*
X-3492312Y33322234D01*
X-3516314Y33311041D01*
X-3522702Y33308062D01*
X-3528267Y33303745D01*
X-3528269Y33303744D01*
X-3556953Y33281494D01*
X-3567412Y33274198D01*
X-3598204Y33254958D01*
X-3598207Y33254956D01*
X-3604176Y33251226D01*
X-3609171Y33246266D01*
X-3609172Y33246265D01*
X-3632979Y33222624D01*
X-3633604Y33222039D01*
X-3634270Y33221522D01*
X-3660260Y33195532D01*
X-3732882Y33123415D01*
X-3733540Y33122378D01*
X-3734643Y33121149D01*
X-4679958Y32175834D01*
X-4680895Y32174906D01*
X-4681980Y32173843D01*
X-4745307Y32111829D01*
X-4768798Y32075379D01*
X-4776217Y32065054D01*
X-4803276Y32031157D01*
X-4806341Y32024816D01*
X-4806342Y32024815D01*
X-4817872Y32000963D01*
X-4825401Y31987546D01*
X-4843565Y31959362D01*
X-4845973Y31952745D01*
X-4845976Y31952740D01*
X-4858392Y31918627D01*
X-4863353Y31906884D01*
X-4879154Y31874197D01*
X-4879156Y31874192D01*
X-4882221Y31867851D01*
X-4883804Y31860993D01*
X-4883805Y31860991D01*
X-4889765Y31835174D01*
X-4894132Y31820431D01*
X-4905603Y31788915D01*
X-4906486Y31781925D01*
X-4906488Y31781917D01*
X-4911038Y31745899D01*
X-4913274Y31733347D01*
X-4920214Y31703284D01*
X-4923024Y31691115D01*
X-4923049Y31684069D01*
X-4923049Y31684066D01*
X-4923166Y31650544D01*
X-4923195Y31649662D01*
X-4923300Y31648831D01*
X-4923300Y31612181D01*
X-4923301Y31611741D01*
X-4923643Y31513600D01*
X-4923657Y31509730D01*
X-4923389Y31508530D01*
X-4923300Y31506893D01*
X-4923300Y31008100D01*
X-4943302Y30939979D01*
X-4996958Y30893486D01*
X-5049300Y30882100D01*
X-6322612Y30882100D01*
X-6390733Y30902102D01*
X-6411707Y30919005D01*
X-6572500Y31079798D01*
X-6577008Y31082955D01*
X-6577011Y31082957D01*
X-6686557Y31159662D01*
X-6760051Y31211123D01*
X-6765033Y31213446D01*
X-6765038Y31213449D01*
X-6962575Y31305561D01*
X-6962576Y31305561D01*
X-6967557Y31307884D01*
X-6972865Y31309306D01*
X-6972867Y31309307D01*
X-7183398Y31365719D01*
X-7183400Y31365719D01*
X-7188713Y31367143D01*
X-7416800Y31387098D01*
X-7644887Y31367143D01*
X-7650200Y31365719D01*
X-7650202Y31365719D01*
X-7860733Y31309307D01*
X-7860735Y31309306D01*
X-7866043Y31307884D01*
X-7871024Y31305561D01*
X-7871025Y31305561D01*
X-8068562Y31213449D01*
X-8068567Y31213446D01*
X-8073549Y31211123D01*
X-8147043Y31159662D01*
X-8256589Y31082957D01*
X-8256592Y31082955D01*
X-8261100Y31079798D01*
X-8422998Y30917900D01*
X-8554323Y30730349D01*
X-8556646Y30725367D01*
X-8556649Y30725362D01*
X-8644057Y30537912D01*
X-8651084Y30522843D01*
X-8652506Y30517535D01*
X-8652507Y30517533D01*
X-8694354Y30361360D01*
X-8710343Y30301687D01*
X-8730298Y30073600D01*
X-8710343Y29845513D01*
X-8708919Y29840200D01*
X-8708919Y29840198D01*
X-8697813Y29798752D01*
X-8651084Y29624357D01*
X-8648761Y29619376D01*
X-8648761Y29619375D01*
X-8556649Y29421838D01*
X-8556646Y29421833D01*
X-8554323Y29416851D01*
X-8551166Y29412343D01*
X-8429018Y29237898D01*
X-8422998Y29229300D01*
X-8261100Y29067402D01*
X-8256592Y29064245D01*
X-8256589Y29064243D01*
X-8195173Y29021239D01*
X-8073549Y28936077D01*
X-8068567Y28933754D01*
X-8068562Y28933751D01*
X-7905292Y28857618D01*
X-7866043Y28839316D01*
X-7860735Y28837894D01*
X-7860733Y28837893D01*
X-7650202Y28781481D01*
X-7650200Y28781481D01*
X-7644887Y28780057D01*
X-7416800Y28760102D01*
X-7188713Y28780057D01*
X-7183400Y28781481D01*
X-7183398Y28781481D01*
X-6972867Y28837893D01*
X-6972865Y28837894D01*
X-6967557Y28839316D01*
X-6928308Y28857618D01*
X-6765038Y28933751D01*
X-6765033Y28933754D01*
X-6760051Y28936077D01*
X-6638427Y29021239D01*
X-6577011Y29064243D01*
X-6577008Y29064245D01*
X-6572500Y29067402D01*
X-6411707Y29228195D01*
X-6349395Y29262221D01*
X-6322612Y29265100D01*
X-5049300Y29265100D01*
X-4981179Y29245098D01*
X-4934686Y29191442D01*
X-4923300Y29139100D01*
X-4923300Y23856682D01*
X-4943302Y23788561D01*
X-4960205Y23767587D01*
X-5428787Y23299005D01*
X-5491099Y23264979D01*
X-5517882Y23262100D01*
X-6426314Y23262100D01*
X-6494435Y23282102D01*
X-6527074Y23312447D01*
X-6585526Y23390298D01*
X-6610432Y23456783D01*
X-6595440Y23526179D01*
X-6545309Y23576452D01*
X-6528998Y23583932D01*
X-6518748Y23587775D01*
X-6503151Y23596314D01*
X-6401076Y23672815D01*
X-6388515Y23685376D01*
X-6312014Y23787451D01*
X-6303476Y23803046D01*
X-6258322Y23923494D01*
X-6254695Y23938749D01*
X-6249169Y23989614D01*
X-6248800Y23996428D01*
X-6248800Y24721485D01*
X-6253275Y24736724D01*
X-6254665Y24737929D01*
X-6262348Y24739600D01*
X-9246684Y24739600D01*
X-9261923Y24735125D01*
X-9263128Y24733735D01*
X-9264799Y24726052D01*
X-9264799Y23996431D01*
X-9264429Y23989610D01*
X-9258905Y23938748D01*
X-9255279Y23923496D01*
X-9210124Y23803046D01*
X-9201586Y23787451D01*
X-9125085Y23685376D01*
X-9112524Y23672815D01*
X-9010449Y23596314D01*
X-8994855Y23587776D01*
X-8983287Y23583440D01*
X-8926521Y23540799D01*
X-8901820Y23474238D01*
X-8917026Y23404889D01*
X-8928631Y23387367D01*
X-8942967Y23369214D01*
X-8989725Y23310008D01*
X-9047642Y23268945D01*
X-9088607Y23262100D01*
X-13444257Y23262100D01*
X-13512378Y23282102D01*
X-13558871Y23335758D01*
X-13568975Y23406032D01*
X-13539481Y23470612D01*
X-13533041Y23477506D01*
X-13526718Y23483785D01*
X-13526060Y23484822D01*
X-13524957Y23486051D01*
X-11745293Y25265715D01*
X-9264800Y25265715D01*
X-9260325Y25250476D01*
X-9258935Y25249271D01*
X-9251252Y25247600D01*
X-8028915Y25247600D01*
X-8013676Y25252075D01*
X-8012471Y25253465D01*
X-8010800Y25261148D01*
X-8010800Y25265715D01*
X-7502800Y25265715D01*
X-7498325Y25250476D01*
X-7496935Y25249271D01*
X-7489252Y25247600D01*
X-6266916Y25247600D01*
X-6251677Y25252075D01*
X-6250472Y25253465D01*
X-6248801Y25261148D01*
X-6248801Y25990769D01*
X-6249171Y25997590D01*
X-6254695Y26048452D01*
X-6258321Y26063704D01*
X-6303476Y26184154D01*
X-6312014Y26199749D01*
X-6388515Y26301824D01*
X-6401076Y26314385D01*
X-6503151Y26390886D01*
X-6518746Y26399424D01*
X-6639194Y26444578D01*
X-6654449Y26448205D01*
X-6705314Y26453731D01*
X-6712128Y26454100D01*
X-7484685Y26454100D01*
X-7499924Y26449625D01*
X-7501129Y26448235D01*
X-7502800Y26440552D01*
X-7502800Y25265715D01*
X-8010800Y25265715D01*
X-8010800Y26435984D01*
X-8015275Y26451223D01*
X-8016665Y26452428D01*
X-8024348Y26454099D01*
X-8801469Y26454099D01*
X-8808290Y26453729D01*
X-8859152Y26448205D01*
X-8874404Y26444579D01*
X-8994854Y26399424D01*
X-9010449Y26390886D01*
X-9112524Y26314385D01*
X-9125085Y26301824D01*
X-9201586Y26199749D01*
X-9210124Y26184154D01*
X-9255278Y26063706D01*
X-9258905Y26048451D01*
X-9264431Y25997586D01*
X-9264800Y25990772D01*
X-9264800Y25265715D01*
X-11745293Y25265715D01*
X-11501642Y25509366D01*
X-11500705Y25510294D01*
X-11441325Y25568443D01*
X-11441324Y25568444D01*
X-11436293Y25573371D01*
X-11412802Y25609821D01*
X-11405383Y25620146D01*
X-11378324Y25654043D01*
X-11363727Y25684238D01*
X-11356198Y25697655D01*
X-11341852Y25719916D01*
X-11338035Y25725838D01*
X-11335627Y25732455D01*
X-11335624Y25732460D01*
X-11323208Y25766573D01*
X-11318247Y25778316D01*
X-11302446Y25811003D01*
X-11302444Y25811008D01*
X-11299379Y25817349D01*
X-11291835Y25850028D01*
X-11287468Y25864769D01*
X-11275997Y25896285D01*
X-11275114Y25903275D01*
X-11275112Y25903283D01*
X-11270562Y25939301D01*
X-11268326Y25951853D01*
X-11260162Y25987214D01*
X-11260162Y25987217D01*
X-11258576Y25994085D01*
X-11258447Y26030861D01*
X-11258434Y26034656D01*
X-11258405Y26035538D01*
X-11258300Y26036369D01*
X-11258300Y26073172D01*
X-11257943Y26175470D01*
X-11258211Y26176670D01*
X-11258300Y26178307D01*
X-11258300Y32784436D01*
X-11258293Y32785755D01*
X-11257424Y32868774D01*
X-11257350Y32875821D01*
X-11266510Y32918186D01*
X-11268570Y32930765D01*
X-11272618Y32966859D01*
X-11272619Y32966862D01*
X-11273403Y32973855D01*
X-11284434Y33005532D01*
X-11288596Y33020342D01*
X-11294191Y33046222D01*
X-11294192Y33046226D01*
X-11295681Y33053111D01*
X-11298658Y33059495D01*
X-11298660Y33059501D01*
X-11314004Y33092407D01*
X-11318800Y33104217D01*
X-11333055Y33145152D01*
X-11336787Y33151124D01*
X-11336790Y33151131D01*
X-11350827Y33173595D01*
X-11358166Y33187112D01*
X-11369361Y33211119D01*
X-11369363Y33211123D01*
X-11372338Y33217502D01*
X-11398908Y33251756D01*
X-11406202Y33262212D01*
X-11429174Y33298976D01*
X-11452270Y33322234D01*
X-11457783Y33327785D01*
X-11458366Y33328408D01*
X-11458879Y33329070D01*
X-11484727Y33354918D01*
X-11554496Y33425176D01*
X-11554500Y33425180D01*
X-11556985Y33427682D01*
X-11558023Y33428341D01*
X-11559256Y33429447D01*
X-13288565Y35158757D01*
X-13289493Y35159694D01*
X-13347643Y35219075D01*
X-13347644Y35219076D01*
X-13352571Y35224107D01*
X-13389021Y35247598D01*
X-13399346Y35255017D01*
X-13433243Y35282076D01*
X-13463438Y35296673D01*
X-13476855Y35304202D01*
X-13505038Y35322365D01*
X-13511655Y35324773D01*
X-13511660Y35324776D01*
X-13545773Y35337192D01*
X-13557516Y35342153D01*
X-13590203Y35357954D01*
X-13590208Y35357956D01*
X-13596549Y35361021D01*
X-13603407Y35362604D01*
X-13603409Y35362605D01*
X-13629226Y35368565D01*
X-13643969Y35372932D01*
X-13675485Y35384403D01*
X-13682475Y35385286D01*
X-13682483Y35385288D01*
X-13718501Y35389838D01*
X-13731053Y35392074D01*
X-13766414Y35400238D01*
X-13766417Y35400238D01*
X-13773285Y35401824D01*
X-13780331Y35401849D01*
X-13780334Y35401849D01*
X-13813856Y35401966D01*
X-13814738Y35401995D01*
X-13815569Y35402100D01*
X-13852219Y35402100D01*
X-13852659Y35402101D01*
X-13951143Y35402445D01*
X-13951148Y35402445D01*
X-13954670Y35402457D01*
X-13955870Y35402189D01*
X-13957507Y35402100D01*
X-19157586Y35402100D01*
X-19158906Y35402107D01*
X-19159981Y35402118D01*
X-19249021Y35403051D01*
X-19291397Y35393889D01*
X-19303963Y35391831D01*
X-19347055Y35386997D01*
X-19353706Y35384681D01*
X-19353710Y35384680D01*
X-19378730Y35375967D01*
X-19393543Y35371804D01*
X-19426310Y35364719D01*
X-19465613Y35346392D01*
X-19477389Y35341610D01*
X-19518352Y35327345D01*
X-19524327Y35323611D01*
X-19524330Y35323610D01*
X-19546795Y35309573D01*
X-19560312Y35302234D01*
X-19584314Y35291041D01*
X-19590702Y35288062D01*
X-19596267Y35283745D01*
X-19596269Y35283744D01*
X-19624953Y35261494D01*
X-19635412Y35254198D01*
X-19666204Y35234958D01*
X-19666207Y35234956D01*
X-19672176Y35231226D01*
X-19677171Y35226266D01*
X-19677172Y35226265D01*
X-19700979Y35202624D01*
X-19701604Y35202039D01*
X-19702270Y35201522D01*
X-19728260Y35175532D01*
X-19800882Y35103415D01*
X-19801540Y35102378D01*
X-19802643Y35101149D01*
X-20681958Y34221834D01*
X-20682895Y34220906D01*
X-20747307Y34157829D01*
X-20770798Y34121379D01*
X-20778217Y34111054D01*
X-20805276Y34077157D01*
X-20808341Y34070816D01*
X-20808342Y34070815D01*
X-20819872Y34046963D01*
X-20827401Y34033546D01*
X-20845565Y34005362D01*
X-20847973Y33998745D01*
X-20847976Y33998740D01*
X-20860392Y33964627D01*
X-20865353Y33952884D01*
X-20881154Y33920197D01*
X-20881156Y33920192D01*
X-20884221Y33913851D01*
X-20885804Y33906993D01*
X-20885805Y33906991D01*
X-20891765Y33881174D01*
X-20896132Y33866431D01*
X-20907603Y33834915D01*
X-20908486Y33827925D01*
X-20908488Y33827917D01*
X-20913038Y33791899D01*
X-20915274Y33779347D01*
X-20922619Y33747531D01*
X-20925024Y33737115D01*
X-20925049Y33730069D01*
X-20925049Y33730066D01*
X-20925166Y33696544D01*
X-20925195Y33695662D01*
X-20925300Y33694831D01*
X-20925300Y33658028D01*
X-20925657Y33555730D01*
X-20925389Y33554530D01*
X-20925300Y33552893D01*
X-20925300Y32493405D01*
X-20945302Y32425284D01*
X-20975647Y32392645D01*
X-21017694Y32361075D01*
X-21017700Y32361069D01*
X-21021835Y32357965D01*
X-21176171Y32196462D01*
X-21283599Y32038979D01*
X-21338507Y31993979D01*
X-21409032Y31985808D01*
X-21472779Y32017062D01*
X-21493476Y32041546D01*
X-21573978Y32165983D01*
X-21573980Y32165986D01*
X-21576786Y32170323D01*
X-21727130Y32335549D01*
X-21731181Y32338748D01*
X-21731185Y32338752D01*
X-21898386Y32470800D01*
X-21898390Y32470802D01*
X-21902441Y32474002D01*
X-21935571Y32492291D01*
X-21985401Y32519798D01*
X-22098011Y32581962D01*
X-22102880Y32583686D01*
X-22102884Y32583688D01*
X-22303713Y32654805D01*
X-22303717Y32654806D01*
X-22308588Y32656531D01*
X-22313681Y32657438D01*
X-22313684Y32657439D01*
X-22523427Y32694800D01*
X-22523433Y32694801D01*
X-22528516Y32695706D01*
X-22602348Y32696608D01*
X-22746719Y32698372D01*
X-22746721Y32698372D01*
X-22751889Y32698435D01*
X-22972709Y32664645D01*
X-23185044Y32595243D01*
X-23383193Y32492093D01*
X-23387326Y32488990D01*
X-23387329Y32488988D01*
X-23557693Y32361075D01*
X-23561835Y32357965D01*
X-23716171Y32196462D01*
X-23823599Y32038979D01*
X-23878507Y31993979D01*
X-23949032Y31985808D01*
X-24012779Y32017062D01*
X-24033476Y32041546D01*
X-24113978Y32165983D01*
X-24113980Y32165986D01*
X-24116786Y32170323D01*
X-24267130Y32335549D01*
X-24271181Y32338748D01*
X-24271185Y32338752D01*
X-24438386Y32470800D01*
X-24438390Y32470802D01*
X-24442441Y32474002D01*
X-24475571Y32492291D01*
X-24525401Y32519798D01*
X-24638011Y32581962D01*
X-24642880Y32583686D01*
X-24642884Y32583688D01*
X-24843713Y32654805D01*
X-24843717Y32654806D01*
X-24848588Y32656531D01*
X-24853681Y32657438D01*
X-24853684Y32657439D01*
X-25063427Y32694800D01*
X-25063433Y32694801D01*
X-25068516Y32695706D01*
X-25142348Y32696608D01*
X-25286719Y32698372D01*
X-25286721Y32698372D01*
X-25291889Y32698435D01*
X-25512709Y32664645D01*
X-25725044Y32595243D01*
X-25923193Y32492093D01*
X-25927326Y32488990D01*
X-25927329Y32488988D01*
X-26097693Y32361075D01*
X-26101835Y32357965D01*
X-26256171Y32196462D01*
X-26363599Y32038979D01*
X-26418507Y31993979D01*
X-26489032Y31985808D01*
X-26552779Y32017062D01*
X-26573476Y32041546D01*
X-26653978Y32165983D01*
X-26653980Y32165986D01*
X-26656786Y32170323D01*
X-26807130Y32335549D01*
X-26811181Y32338748D01*
X-26811185Y32338752D01*
X-26978386Y32470800D01*
X-26978390Y32470802D01*
X-26982441Y32474002D01*
X-27015571Y32492291D01*
X-27065401Y32519798D01*
X-27178011Y32581962D01*
X-27182880Y32583686D01*
X-27182884Y32583688D01*
X-27383713Y32654805D01*
X-27383717Y32654806D01*
X-27388588Y32656531D01*
X-27393681Y32657438D01*
X-27393684Y32657439D01*
X-27603427Y32694800D01*
X-27603433Y32694801D01*
X-27608516Y32695706D01*
X-27682348Y32696608D01*
X-27826719Y32698372D01*
X-27826721Y32698372D01*
X-27831889Y32698435D01*
X-28052709Y32664645D01*
X-28265044Y32595243D01*
X-28463193Y32492093D01*
X-28467326Y32488990D01*
X-28467329Y32488988D01*
X-28637693Y32361075D01*
X-28641835Y32357965D01*
X-28796171Y32196462D01*
X-28799080Y32192197D01*
X-28799086Y32192189D01*
X-28810586Y32175331D01*
X-28903596Y32038982D01*
X-28903902Y32038534D01*
X-28958813Y31993531D01*
X-29029338Y31985360D01*
X-29093085Y32016614D01*
X-29113782Y32041098D01*
X-29194374Y32165674D01*
X-29200664Y32173843D01*
X-29343994Y32331360D01*
X-29351527Y32338385D01*
X-29518661Y32470378D01*
X-29527248Y32476083D01*
X-29713683Y32579001D01*
X-29723095Y32583231D01*
X-29923841Y32654320D01*
X-29933812Y32656954D01*
X-30004963Y32669628D01*
X-30018260Y32668168D01*
X-30022800Y32653611D01*
X-30022800Y27458716D01*
X-30018325Y27443477D01*
X-30016935Y27442272D01*
X-30009252Y27440601D01*
X-29382131Y27440601D01*
X-29375310Y27440971D01*
X-29324448Y27446495D01*
X-29309196Y27450121D01*
X-29188746Y27495276D01*
X-29173151Y27503814D01*
X-29071076Y27580315D01*
X-29058515Y27592876D01*
X-28982014Y27694951D01*
X-28973476Y27710546D01*
X-28932575Y27819648D01*
X-28889933Y27876412D01*
X-28823372Y27901112D01*
X-28754023Y27885904D01*
X-28719356Y27857916D01*
X-28693935Y27828569D01*
X-28693931Y27828565D01*
X-28690550Y27824662D01*
X-28686575Y27821362D01*
X-28686572Y27821359D01*
X-28590815Y27741860D01*
X-28551180Y27682957D01*
X-28545300Y27644916D01*
X-28545300Y27510682D01*
X-28565302Y27442561D01*
X-28582205Y27421586D01*
X-28864788Y27139004D01*
X-28927100Y27104979D01*
X-28953883Y27102100D01*
X-32957636Y27102100D01*
X-32958955Y27102107D01*
X-33049021Y27103050D01*
X-33055907Y27101561D01*
X-33055909Y27101561D01*
X-33074487Y27097544D01*
X-33091386Y27093890D01*
X-33103965Y27091830D01*
X-33140059Y27087782D01*
X-33140062Y27087781D01*
X-33147055Y27086997D01*
X-33178732Y27075966D01*
X-33193542Y27071804D01*
X-33219422Y27066209D01*
X-33219426Y27066208D01*
X-33226311Y27064719D01*
X-33232695Y27061742D01*
X-33232701Y27061740D01*
X-33265607Y27046396D01*
X-33277416Y27041601D01*
X-33318352Y27027345D01*
X-33324324Y27023613D01*
X-33324331Y27023610D01*
X-33346795Y27009573D01*
X-33360312Y27002234D01*
X-33384319Y26991039D01*
X-33384323Y26991037D01*
X-33390702Y26988062D01*
X-33398999Y26981626D01*
X-33424956Y26961492D01*
X-33435405Y26954203D01*
X-33472176Y26931226D01*
X-33477175Y26926261D01*
X-33477177Y26926260D01*
X-33500985Y26902617D01*
X-33501608Y26902034D01*
X-33502270Y26901521D01*
X-33528120Y26875671D01*
X-33600882Y26803415D01*
X-33601542Y26802375D01*
X-33602643Y26801148D01*
X-34372004Y26031788D01*
X-34372941Y26030861D01*
X-34413881Y25990769D01*
X-34437307Y25967829D01*
X-34460798Y25931379D01*
X-34468217Y25921054D01*
X-34495276Y25887157D01*
X-34498341Y25880816D01*
X-34498342Y25880815D01*
X-34509872Y25856963D01*
X-34517401Y25843546D01*
X-34535565Y25815362D01*
X-34537973Y25808745D01*
X-34537976Y25808740D01*
X-34550392Y25774627D01*
X-34555353Y25762884D01*
X-34571154Y25730197D01*
X-34571156Y25730192D01*
X-34574221Y25723851D01*
X-34575804Y25716993D01*
X-34575805Y25716991D01*
X-34581765Y25691174D01*
X-34586132Y25676431D01*
X-34597603Y25644915D01*
X-34598486Y25637925D01*
X-34598488Y25637917D01*
X-34603038Y25601899D01*
X-34605274Y25589347D01*
X-34611220Y25563590D01*
X-34615024Y25547115D01*
X-34615049Y25540069D01*
X-34615049Y25540066D01*
X-34615166Y25506544D01*
X-34615195Y25505662D01*
X-34615300Y25504831D01*
X-34615300Y25468181D01*
X-34615301Y25467741D01*
X-34615497Y25411442D01*
X-34615657Y25365730D01*
X-34615389Y25364530D01*
X-34615300Y25362893D01*
X-34615300Y25087788D01*
X-34635302Y25019667D01*
X-34652205Y24998693D01*
X-34812998Y24837900D01*
X-34944323Y24650349D01*
X-34946646Y24645367D01*
X-34946649Y24645362D01*
X-35038761Y24447825D01*
X-35041084Y24442843D01*
X-35042506Y24437535D01*
X-35042507Y24437533D01*
X-35098919Y24227002D01*
X-35100343Y24221687D01*
X-35120298Y23993600D01*
X-35100343Y23765513D01*
X-35098919Y23760200D01*
X-35098919Y23760198D01*
X-35051556Y23583440D01*
X-35041084Y23544357D01*
X-35038761Y23539376D01*
X-35038761Y23539375D01*
X-34946649Y23341838D01*
X-34946646Y23341833D01*
X-34944323Y23336851D01*
X-34881254Y23246779D01*
X-34824334Y23165490D01*
X-34812998Y23149300D01*
X-34651100Y22987402D01*
X-34646592Y22984245D01*
X-34646589Y22984243D01*
X-34613804Y22961287D01*
X-34463549Y22856077D01*
X-34458567Y22853754D01*
X-34458562Y22853751D01*
X-34262035Y22762110D01*
X-34256043Y22759316D01*
X-34250735Y22757894D01*
X-34250733Y22757893D01*
X-34040202Y22701481D01*
X-34040200Y22701481D01*
X-34034887Y22700057D01*
X-33806800Y22680102D01*
X-33578713Y22700057D01*
X-33573400Y22701481D01*
X-33573398Y22701481D01*
X-33362867Y22757893D01*
X-33362865Y22757894D01*
X-33357557Y22759316D01*
X-33351565Y22762110D01*
X-33155038Y22853751D01*
X-33155033Y22853754D01*
X-33150051Y22856077D01*
X-32999796Y22961287D01*
X-32967011Y22984243D01*
X-32967008Y22984245D01*
X-32962500Y22987402D01*
X-32800602Y23149300D01*
X-32789265Y23165490D01*
X-32732346Y23246779D01*
X-32669277Y23336851D01*
X-32666954Y23341833D01*
X-32666951Y23341838D01*
X-32574839Y23539375D01*
X-32574839Y23539376D01*
X-32572516Y23544357D01*
X-32562043Y23583440D01*
X-32523555Y23727078D01*
X-32009527Y23727078D01*
X-31962036Y23549839D01*
X-31958290Y23539547D01*
X-31866214Y23342089D01*
X-31860731Y23332593D01*
X-31735772Y23154133D01*
X-31728716Y23145725D01*
X-31574675Y22991684D01*
X-31566267Y22984628D01*
X-31387807Y22859669D01*
X-31378311Y22854186D01*
X-31180853Y22762110D01*
X-31170561Y22758364D01*
X-30998297Y22712206D01*
X-30984201Y22712542D01*
X-30980800Y22720484D01*
X-30980800Y22725633D01*
X-30472800Y22725633D01*
X-30468827Y22712102D01*
X-30460278Y22710873D01*
X-30283039Y22758364D01*
X-30272747Y22762110D01*
X-30075289Y22854186D01*
X-30065793Y22859669D01*
X-29887333Y22984628D01*
X-29878925Y22991684D01*
X-29724884Y23145725D01*
X-29717828Y23154133D01*
X-29592869Y23332593D01*
X-29587386Y23342089D01*
X-29495310Y23539547D01*
X-29491564Y23549839D01*
X-29445406Y23722103D01*
X-29445742Y23736199D01*
X-29453684Y23739600D01*
X-30454685Y23739600D01*
X-30469924Y23735125D01*
X-30471129Y23733735D01*
X-30472800Y23726052D01*
X-30472800Y22725633D01*
X-30980800Y22725633D01*
X-30980800Y23721485D01*
X-30985275Y23736724D01*
X-30986665Y23737929D01*
X-30994348Y23739600D01*
X-31994767Y23739600D01*
X-32008298Y23735627D01*
X-32009527Y23727078D01*
X-32523555Y23727078D01*
X-32514681Y23760198D01*
X-32514681Y23760200D01*
X-32513257Y23765513D01*
X-32493302Y23993600D01*
X-32513257Y24221687D01*
X-32514681Y24227002D01*
X-32571093Y24437533D01*
X-32571094Y24437535D01*
X-32572516Y24442843D01*
X-32574839Y24447825D01*
X-32666951Y24645362D01*
X-32666954Y24645367D01*
X-32669277Y24650349D01*
X-32800602Y24837900D01*
X-32950760Y24988058D01*
X-32984786Y25050370D01*
X-32979721Y25121185D01*
X-32950760Y25166248D01*
X-32668813Y25448195D01*
X-32606501Y25482221D01*
X-32579718Y25485100D01*
X-31171236Y25485100D01*
X-31103115Y25465098D01*
X-31056622Y25411442D01*
X-31046518Y25341168D01*
X-31076012Y25276588D01*
X-31138625Y25237393D01*
X-31170561Y25228836D01*
X-31180853Y25225090D01*
X-31378311Y25133014D01*
X-31387807Y25127531D01*
X-31566267Y25002572D01*
X-31574675Y24995516D01*
X-31728716Y24841475D01*
X-31735772Y24833067D01*
X-31860731Y24654607D01*
X-31866214Y24645111D01*
X-31958290Y24447653D01*
X-31962036Y24437361D01*
X-32008194Y24265097D01*
X-32007858Y24251001D01*
X-31999916Y24247600D01*
X-29458833Y24247600D01*
X-29445302Y24251573D01*
X-29444073Y24260122D01*
X-29491564Y24437361D01*
X-29495310Y24447653D01*
X-29587386Y24645111D01*
X-29592869Y24654607D01*
X-29717828Y24833067D01*
X-29724884Y24841475D01*
X-29878925Y24995516D01*
X-29887333Y25002572D01*
X-30065793Y25127531D01*
X-30075289Y25133014D01*
X-30272747Y25225090D01*
X-30283039Y25228836D01*
X-30314975Y25237393D01*
X-30375598Y25274345D01*
X-30406619Y25338205D01*
X-30398191Y25408700D01*
X-30352988Y25463447D01*
X-30282364Y25485100D01*
X-28576014Y25485100D01*
X-28574694Y25485093D01*
X-28484579Y25484149D01*
X-28442203Y25493311D01*
X-28429637Y25495369D01*
X-28386545Y25500203D01*
X-28379894Y25502519D01*
X-28379890Y25502520D01*
X-28354870Y25511233D01*
X-28340058Y25515396D01*
X-28314181Y25520991D01*
X-28307290Y25522481D01*
X-28267987Y25540808D01*
X-28256211Y25545590D01*
X-28215248Y25559855D01*
X-28209273Y25563589D01*
X-28209270Y25563590D01*
X-28186805Y25577627D01*
X-28173288Y25584966D01*
X-28149286Y25596159D01*
X-28149285Y25596160D01*
X-28142898Y25599138D01*
X-28108647Y25625706D01*
X-28098188Y25633002D01*
X-28067396Y25652242D01*
X-28067393Y25652244D01*
X-28061424Y25655974D01*
X-28040833Y25676421D01*
X-28032621Y25684576D01*
X-28031996Y25685161D01*
X-28031330Y25685678D01*
X-28005340Y25711668D01*
X-27932718Y25783785D01*
X-27932060Y25784822D01*
X-27930957Y25786051D01*
X-27171642Y26545366D01*
X-27170705Y26546294D01*
X-27111325Y26604443D01*
X-27111324Y26604444D01*
X-27106293Y26609371D01*
X-27082802Y26645821D01*
X-27075383Y26656146D01*
X-27048324Y26690043D01*
X-27033727Y26720238D01*
X-27026198Y26733655D01*
X-27011852Y26755916D01*
X-27008035Y26761838D01*
X-27005627Y26768455D01*
X-27005624Y26768460D01*
X-26993208Y26802573D01*
X-26988247Y26814316D01*
X-26972446Y26847003D01*
X-26972444Y26847008D01*
X-26969379Y26853349D01*
X-26961835Y26886028D01*
X-26957468Y26900769D01*
X-26945997Y26932285D01*
X-26945114Y26939275D01*
X-26945112Y26939283D01*
X-26940562Y26975301D01*
X-26938326Y26987853D01*
X-26930162Y27023214D01*
X-26930162Y27023217D01*
X-26928576Y27030085D01*
X-26928535Y27041600D01*
X-26928434Y27070656D01*
X-26928405Y27071538D01*
X-26928300Y27072369D01*
X-26928300Y27109172D01*
X-26927943Y27211470D01*
X-26928211Y27212670D01*
X-26928300Y27214307D01*
X-26928300Y27641632D01*
X-26908298Y27709753D01*
X-26875469Y27744210D01*
X-26861146Y27754426D01*
X-26861139Y27754432D01*
X-26856940Y27757427D01*
X-26698704Y27915111D01*
X-26568347Y28096523D01*
X-26567024Y28095572D01*
X-26520155Y28138743D01*
X-26450220Y28150975D01*
X-26384774Y28123456D01*
X-26356925Y28091606D01*
X-26296813Y27993512D01*
X-26150550Y27824662D01*
X-25978674Y27681968D01*
X-25785800Y27569262D01*
X-25577108Y27489570D01*
X-25572040Y27488539D01*
X-25572037Y27488538D01*
X-25464783Y27466717D01*
X-25358203Y27445033D01*
X-25353028Y27444843D01*
X-25353026Y27444843D01*
X-25140127Y27437036D01*
X-25140123Y27437036D01*
X-25134963Y27436847D01*
X-25129843Y27437503D01*
X-25129841Y27437503D01*
X-24918512Y27464575D01*
X-24918511Y27464575D01*
X-24913384Y27465232D01*
X-24908434Y27466717D01*
X-24704371Y27527939D01*
X-24704366Y27527941D01*
X-24699416Y27529426D01*
X-24498806Y27627704D01*
X-24316940Y27757427D01*
X-24158704Y27915111D01*
X-24028347Y28096523D01*
X-24027024Y28095572D01*
X-23980155Y28138743D01*
X-23910220Y28150975D01*
X-23844774Y28123456D01*
X-23816925Y28091606D01*
X-23756813Y27993512D01*
X-23610550Y27824662D01*
X-23438674Y27681968D01*
X-23245800Y27569262D01*
X-23037108Y27489570D01*
X-23032040Y27488539D01*
X-23032037Y27488538D01*
X-22924783Y27466717D01*
X-22818203Y27445033D01*
X-22813028Y27444843D01*
X-22813026Y27444843D01*
X-22600127Y27437036D01*
X-22600123Y27437036D01*
X-22594963Y27436847D01*
X-22589843Y27437503D01*
X-22589841Y27437503D01*
X-22378512Y27464575D01*
X-22378511Y27464575D01*
X-22373384Y27465232D01*
X-22368434Y27466717D01*
X-22164371Y27527939D01*
X-22164366Y27527941D01*
X-22159416Y27529426D01*
X-21958806Y27627704D01*
X-21776940Y27757427D01*
X-21618704Y27915111D01*
X-21488347Y28096523D01*
X-21487024Y28095572D01*
X-21440155Y28138743D01*
X-21370220Y28150975D01*
X-21304774Y28123456D01*
X-21276925Y28091606D01*
X-21216813Y27993512D01*
X-21070550Y27824662D01*
X-20898674Y27681968D01*
X-20705800Y27569262D01*
X-20497108Y27489570D01*
X-20492040Y27488539D01*
X-20492037Y27488538D01*
X-20384783Y27466717D01*
X-20278203Y27445033D01*
X-20273028Y27444843D01*
X-20273026Y27444843D01*
X-20060127Y27437036D01*
X-20060123Y27437036D01*
X-20054963Y27436847D01*
X-20049843Y27437503D01*
X-20049841Y27437503D01*
X-19838512Y27464575D01*
X-19838511Y27464575D01*
X-19833384Y27465232D01*
X-19828434Y27466717D01*
X-19624371Y27527939D01*
X-19624366Y27527941D01*
X-19619416Y27529426D01*
X-19418806Y27627704D01*
X-19236940Y27757427D01*
X-19078704Y27915111D01*
X-18948347Y28096523D01*
X-18947024Y28095572D01*
X-18900155Y28138743D01*
X-18830220Y28150975D01*
X-18764774Y28123456D01*
X-18736925Y28091606D01*
X-18676813Y27993512D01*
X-18530550Y27824662D01*
X-18358674Y27681968D01*
X-18165800Y27569262D01*
X-17957108Y27489570D01*
X-17952040Y27488539D01*
X-17952037Y27488538D01*
X-17844783Y27466717D01*
X-17738203Y27445033D01*
X-17733028Y27444843D01*
X-17733026Y27444843D01*
X-17520127Y27437036D01*
X-17520123Y27437036D01*
X-17514963Y27436847D01*
X-17509843Y27437503D01*
X-17509841Y27437503D01*
X-17298512Y27464575D01*
X-17298511Y27464575D01*
X-17293384Y27465232D01*
X-17288434Y27466717D01*
X-17084371Y27527939D01*
X-17084366Y27527941D01*
X-17079416Y27529426D01*
X-16878806Y27627704D01*
X-16696940Y27757427D01*
X-16538704Y27915111D01*
X-16408347Y28096523D01*
X-16387480Y28138743D01*
X-16311664Y28292147D01*
X-16311663Y28292149D01*
X-16309370Y28296789D01*
X-16244430Y28510531D01*
X-16215271Y28732010D01*
X-16215189Y28735360D01*
X-16213726Y28795235D01*
X-16213726Y28795239D01*
X-16213644Y28798600D01*
X-16231948Y29021239D01*
X-16286369Y29237898D01*
X-16375446Y29442760D01*
X-16489703Y29619375D01*
X-16493978Y29625983D01*
X-16493980Y29625986D01*
X-16496786Y29630323D01*
X-16647130Y29795549D01*
X-16651181Y29798748D01*
X-16651185Y29798752D01*
X-16818386Y29930800D01*
X-16818390Y29930802D01*
X-16822441Y29934002D01*
X-16863747Y29956804D01*
X-16913716Y30007236D01*
X-16928488Y30076679D01*
X-16903372Y30143084D01*
X-16876020Y30169691D01*
X-16832197Y30200950D01*
X-16696940Y30297427D01*
X-16643502Y30350678D01*
X-16542365Y30451463D01*
X-16538704Y30455111D01*
X-16486577Y30527653D01*
X-16411365Y30632323D01*
X-16408347Y30636523D01*
X-16394805Y30663922D01*
X-16311664Y30832147D01*
X-16311663Y30832149D01*
X-16309370Y30836789D01*
X-16276900Y30943660D01*
X-16245935Y31045577D01*
X-16245935Y31045579D01*
X-16244430Y31050531D01*
X-16215271Y31272010D01*
X-16214807Y31290993D01*
X-16213726Y31335235D01*
X-16213726Y31335239D01*
X-16213644Y31338600D01*
X-16231948Y31561239D01*
X-16286369Y31777898D01*
X-16375446Y31982760D01*
X-16455117Y32105913D01*
X-16493978Y32165983D01*
X-16493980Y32165986D01*
X-16496786Y32170323D01*
X-16647130Y32335549D01*
X-16651181Y32338748D01*
X-16651185Y32338752D01*
X-16818386Y32470800D01*
X-16818390Y32470802D01*
X-16822441Y32474002D01*
X-16855571Y32492291D01*
X-16905401Y32519798D01*
X-17018011Y32581962D01*
X-17022880Y32583686D01*
X-17022884Y32583688D01*
X-17223713Y32654805D01*
X-17223717Y32654806D01*
X-17228588Y32656531D01*
X-17233681Y32657438D01*
X-17233684Y32657439D01*
X-17443427Y32694800D01*
X-17443433Y32694801D01*
X-17448516Y32695706D01*
X-17522348Y32696608D01*
X-17666719Y32698372D01*
X-17666721Y32698372D01*
X-17671889Y32698435D01*
X-17892709Y32664645D01*
X-18105044Y32595243D01*
X-18303193Y32492093D01*
X-18307326Y32488990D01*
X-18307329Y32488988D01*
X-18477693Y32361075D01*
X-18481835Y32357965D01*
X-18636171Y32196462D01*
X-18743599Y32038979D01*
X-18798507Y31993979D01*
X-18869032Y31985808D01*
X-18932779Y32017062D01*
X-18953476Y32041546D01*
X-19033978Y32165983D01*
X-19033980Y32165986D01*
X-19036786Y32170323D01*
X-19187130Y32335549D01*
X-19191175Y32338743D01*
X-19191184Y32338752D01*
X-19260392Y32393409D01*
X-19301455Y32451326D01*
X-19308300Y32492291D01*
X-19308300Y33256518D01*
X-19288298Y33324639D01*
X-19271395Y33345613D01*
X-18868813Y33748195D01*
X-18806501Y33782221D01*
X-18779718Y33785100D01*
X-14253882Y33785100D01*
X-14185761Y33765098D01*
X-14164787Y33748195D01*
X-12912205Y32495613D01*
X-12878179Y32433301D01*
X-12875300Y32406518D01*
X-12875300Y26474681D01*
X-12895302Y26406560D01*
X-12912205Y26385586D01*
X-14458787Y24839005D01*
X-14521099Y24804979D01*
X-14547882Y24802100D01*
X-19472612Y24802100D01*
X-19540733Y24822102D01*
X-19561707Y24839005D01*
X-19722500Y24999798D01*
X-19727008Y25002955D01*
X-19727011Y25002957D01*
X-19837914Y25080612D01*
X-19910051Y25131123D01*
X-19915033Y25133446D01*
X-19915038Y25133449D01*
X-20112575Y25225561D01*
X-20112576Y25225561D01*
X-20117557Y25227884D01*
X-20122865Y25229306D01*
X-20122867Y25229307D01*
X-20333398Y25285719D01*
X-20333400Y25285719D01*
X-20338713Y25287143D01*
X-20566800Y25307098D01*
X-20794887Y25287143D01*
X-20800200Y25285719D01*
X-20800202Y25285719D01*
X-21010733Y25229307D01*
X-21010735Y25229306D01*
X-21016043Y25227884D01*
X-21021024Y25225561D01*
X-21021025Y25225561D01*
X-21218562Y25133449D01*
X-21218567Y25133446D01*
X-21223549Y25131123D01*
X-21295686Y25080612D01*
X-21406589Y25002957D01*
X-21406592Y25002955D01*
X-21411100Y24999798D01*
X-21572998Y24837900D01*
X-21704323Y24650349D01*
X-21706646Y24645367D01*
X-21706649Y24645362D01*
X-21798761Y24447825D01*
X-21801084Y24442843D01*
X-21802506Y24437535D01*
X-21802507Y24437533D01*
X-21858919Y24227002D01*
X-21860343Y24221687D01*
X-21880298Y23993600D01*
X-21860343Y23765513D01*
X-21858919Y23760200D01*
X-21858919Y23760198D01*
X-21811556Y23583440D01*
X-21801084Y23544357D01*
X-21798761Y23539376D01*
X-21798761Y23539375D01*
X-21706649Y23341838D01*
X-21706646Y23341833D01*
X-21704323Y23336851D01*
X-21641254Y23246779D01*
X-21584334Y23165490D01*
X-21572998Y23149300D01*
X-21411100Y22987402D01*
X-21406592Y22984245D01*
X-21406589Y22984243D01*
X-21373804Y22961287D01*
X-21223549Y22856077D01*
X-21218567Y22853754D01*
X-21218562Y22853751D01*
X-21022035Y22762110D01*
X-21016043Y22759316D01*
X-21010735Y22757894D01*
X-21010733Y22757893D01*
X-20800202Y22701481D01*
X-20800200Y22701481D01*
X-20794887Y22700057D01*
X-20566800Y22680102D01*
X-20338713Y22700057D01*
X-20333400Y22701481D01*
X-20333398Y22701481D01*
X-20122867Y22757893D01*
X-20122865Y22757894D01*
X-20117557Y22759316D01*
X-20111565Y22762110D01*
X-19915038Y22853751D01*
X-19915033Y22853754D01*
X-19910051Y22856077D01*
X-19759796Y22961287D01*
X-19727011Y22984243D01*
X-19727008Y22984245D01*
X-19722500Y22987402D01*
X-19561707Y23148195D01*
X-19499395Y23182221D01*
X-19472612Y23185100D01*
X-18293343Y23185100D01*
X-18225222Y23165098D01*
X-18178729Y23111442D01*
X-18168625Y23041168D01*
X-18198119Y22976588D01*
X-18204559Y22969694D01*
X-18210882Y22963415D01*
X-18211540Y22962378D01*
X-18212643Y22961149D01*
X-21771359Y19402433D01*
X-21833671Y19368407D01*
X-21904486Y19373472D01*
X-21961322Y19416019D01*
X-21978436Y19447297D01*
X-21988034Y19472899D01*
X-21991185Y19481305D01*
X-22078539Y19597861D01*
X-22195095Y19685215D01*
X-22331484Y19736345D01*
X-22393666Y19743100D01*
X-24189934Y19743100D01*
X-24252116Y19736345D01*
X-24388505Y19685215D01*
X-24505061Y19597861D01*
X-24592415Y19481305D01*
X-24643545Y19344916D01*
X-24650300Y19282734D01*
X-24650300Y17486466D01*
X-24643545Y17424284D01*
X-24592415Y17287895D01*
X-24505061Y17171339D01*
X-24388505Y17083985D01*
X-24380096Y17080833D01*
X-24380095Y17080832D01*
X-24270840Y17039874D01*
X-24214075Y16997233D01*
X-24189375Y16930671D01*
X-24204582Y16861322D01*
X-24223975Y16834841D01*
X-24347210Y16705883D01*
X-24353696Y16697873D01*
X-24473702Y16521951D01*
X-24478800Y16512977D01*
X-24568462Y16319817D01*
X-24572025Y16310130D01*
X-24627411Y16110417D01*
X-24625888Y16101993D01*
X-24613508Y16098600D01*
X-21973456Y16098600D01*
X-21959925Y16102573D01*
X-21958620Y16111653D01*
X-22000586Y16278725D01*
X-22003906Y16288476D01*
X-22088828Y16483786D01*
X-22093695Y16492861D01*
X-22209374Y16671674D01*
X-22215664Y16679843D01*
X-22359507Y16837923D01*
X-22390559Y16901769D01*
X-22382165Y16972267D01*
X-22336988Y17027036D01*
X-22310544Y17040705D01*
X-22203503Y17080833D01*
X-22195095Y17083985D01*
X-22078539Y17171339D01*
X-21991185Y17287895D01*
X-21940055Y17424284D01*
X-21935772Y17463708D01*
X-21908530Y17529270D01*
X-21850166Y17569696D01*
X-21810509Y17576100D01*
X-21655014Y17576100D01*
X-21653694Y17576093D01*
X-21563579Y17575149D01*
X-21521203Y17584311D01*
X-21508637Y17586369D01*
X-21465545Y17591203D01*
X-21458894Y17593519D01*
X-21458890Y17593520D01*
X-21433870Y17602233D01*
X-21419058Y17606396D01*
X-21393181Y17611991D01*
X-21386290Y17613481D01*
X-21346987Y17631808D01*
X-21335211Y17636590D01*
X-21294248Y17650855D01*
X-21288273Y17654589D01*
X-21288270Y17654590D01*
X-21265805Y17668627D01*
X-21252288Y17675966D01*
X-21228286Y17687159D01*
X-21228285Y17687160D01*
X-21221898Y17690138D01*
X-21187647Y17716706D01*
X-21177188Y17724002D01*
X-21146396Y17743242D01*
X-21146393Y17743244D01*
X-21140424Y17746974D01*
X-21111621Y17775576D01*
X-21110996Y17776161D01*
X-21110330Y17776678D01*
X-21084340Y17802668D01*
X-21011718Y17874785D01*
X-21011060Y17875822D01*
X-21009957Y17877051D01*
X-19022783Y19864225D01*
X-18960471Y19898251D01*
X-18889656Y19893186D01*
X-18832820Y19850639D01*
X-18808009Y19784119D01*
X-18811982Y19742518D01*
X-18839718Y19639010D01*
X-18839719Y19639002D01*
X-18841143Y19633687D01*
X-18861098Y19405600D01*
X-18841143Y19177513D01*
X-18781884Y18956357D01*
X-18779561Y18951376D01*
X-18779561Y18951375D01*
X-18687449Y18753838D01*
X-18687446Y18753833D01*
X-18685123Y18748851D01*
X-18553798Y18561300D01*
X-18391900Y18399402D01*
X-18387392Y18396245D01*
X-18387389Y18396243D01*
X-18309211Y18341502D01*
X-18204349Y18268077D01*
X-18199367Y18265754D01*
X-18199362Y18265751D01*
X-18001825Y18173639D01*
X-17996843Y18171316D01*
X-17991535Y18169894D01*
X-17991533Y18169893D01*
X-17781002Y18113481D01*
X-17781000Y18113481D01*
X-17775687Y18112057D01*
X-17547600Y18092102D01*
X-17319513Y18112057D01*
X-17314200Y18113481D01*
X-17314198Y18113481D01*
X-17103667Y18169893D01*
X-17103665Y18169894D01*
X-17098357Y18171316D01*
X-17093375Y18173639D01*
X-16895838Y18265751D01*
X-16895833Y18265754D01*
X-16890851Y18268077D01*
X-16785989Y18341502D01*
X-16707811Y18396243D01*
X-16707808Y18396245D01*
X-16703300Y18399402D01*
X-16541402Y18561300D01*
X-16410077Y18748851D01*
X-16407754Y18753833D01*
X-16407751Y18753838D01*
X-16315639Y18951375D01*
X-16315639Y18951376D01*
X-16313316Y18956357D01*
X-16254057Y19177513D01*
X-16234102Y19405600D01*
X-16254057Y19633687D01*
X-16267864Y19685215D01*
X-16311893Y19849533D01*
X-16311894Y19849535D01*
X-16313316Y19854843D01*
X-16317691Y19864225D01*
X-16407751Y20057362D01*
X-16407754Y20057367D01*
X-16410077Y20062349D01*
X-16488277Y20174030D01*
X-16538243Y20245389D01*
X-16538245Y20245392D01*
X-16541402Y20249900D01*
X-16703300Y20411798D01*
X-16707808Y20414955D01*
X-16707811Y20414957D01*
X-16823237Y20495779D01*
X-16890851Y20543123D01*
X-16895833Y20545446D01*
X-16895838Y20545449D01*
X-17093375Y20637561D01*
X-17093376Y20637561D01*
X-17098357Y20639884D01*
X-17103665Y20641306D01*
X-17103667Y20641307D01*
X-17314198Y20697719D01*
X-17314200Y20697719D01*
X-17319513Y20699143D01*
X-17547600Y20719098D01*
X-17775687Y20699143D01*
X-17780996Y20697721D01*
X-17781010Y20697718D01*
X-17884518Y20669982D01*
X-17955495Y20671671D01*
X-18014291Y20711465D01*
X-18042239Y20776729D01*
X-18030466Y20846742D01*
X-18006225Y20880783D01*
X-17278813Y21608195D01*
X-17216501Y21642221D01*
X-17189718Y21645100D01*
X-9087286Y21645100D01*
X-9019165Y21625098D01*
X-8986527Y21594754D01*
X-8900577Y21480280D01*
X-8726888Y21314299D01*
X-8689897Y21289065D01*
X-8644896Y21234156D01*
X-8636725Y21163632D01*
X-8667979Y21099884D01*
X-8692460Y21079189D01*
X-8694093Y21078132D01*
X-8698777Y21075102D01*
X-8876470Y20913414D01*
X-8900659Y20882785D01*
X-9022167Y20728930D01*
X-9022170Y20728925D01*
X-9025368Y20724876D01*
X-9027861Y20720360D01*
X-9027863Y20720357D01*
X-9114861Y20562760D01*
X-9141474Y20514550D01*
X-9143198Y20509681D01*
X-9143200Y20509677D01*
X-9218145Y20298040D01*
X-9259739Y20240503D01*
X-9325837Y20214588D01*
X-9336918Y20214100D01*
X-11453412Y20214100D01*
X-11521533Y20234102D01*
X-11542507Y20251005D01*
X-11703300Y20411798D01*
X-11707808Y20414955D01*
X-11707811Y20414957D01*
X-11823237Y20495779D01*
X-11890851Y20543123D01*
X-11895833Y20545446D01*
X-11895838Y20545449D01*
X-12093375Y20637561D01*
X-12093376Y20637561D01*
X-12098357Y20639884D01*
X-12103665Y20641306D01*
X-12103667Y20641307D01*
X-12314198Y20697719D01*
X-12314200Y20697719D01*
X-12319513Y20699143D01*
X-12547600Y20719098D01*
X-12775687Y20699143D01*
X-12781000Y20697719D01*
X-12781002Y20697719D01*
X-12991533Y20641307D01*
X-12991535Y20641306D01*
X-12996843Y20639884D01*
X-13001824Y20637561D01*
X-13001825Y20637561D01*
X-13199362Y20545449D01*
X-13199367Y20545446D01*
X-13204349Y20543123D01*
X-13271963Y20495779D01*
X-13387389Y20414957D01*
X-13387392Y20414955D01*
X-13391900Y20411798D01*
X-13553798Y20249900D01*
X-13556955Y20245392D01*
X-13556957Y20245389D01*
X-13606923Y20174030D01*
X-13685123Y20062349D01*
X-13687446Y20057367D01*
X-13687449Y20057362D01*
X-13777509Y19864225D01*
X-13781884Y19854843D01*
X-13783306Y19849535D01*
X-13783307Y19849533D01*
X-13827336Y19685215D01*
X-13841143Y19633687D01*
X-13861098Y19405600D01*
X-13841143Y19177513D01*
X-13781884Y18956357D01*
X-13779561Y18951376D01*
X-13779561Y18951375D01*
X-13687449Y18753838D01*
X-13687446Y18753833D01*
X-13685123Y18748851D01*
X-13553798Y18561300D01*
X-13391900Y18399402D01*
X-13387392Y18396245D01*
X-13387389Y18396243D01*
X-13309211Y18341502D01*
X-13204349Y18268077D01*
X-13199367Y18265754D01*
X-13199362Y18265751D01*
X-13001825Y18173639D01*
X-12996843Y18171316D01*
X-12991535Y18169894D01*
X-12991533Y18169893D01*
X-12781002Y18113481D01*
X-12781000Y18113481D01*
X-12775687Y18112057D01*
X-12547600Y18092102D01*
X-12319513Y18112057D01*
X-12314200Y18113481D01*
X-12314198Y18113481D01*
X-12103667Y18169893D01*
X-12103665Y18169894D01*
X-12098357Y18171316D01*
X-12093375Y18173639D01*
X-11895838Y18265751D01*
X-11895833Y18265754D01*
X-11890851Y18268077D01*
X-11785989Y18341502D01*
X-11707811Y18396243D01*
X-11707808Y18396245D01*
X-11703300Y18399402D01*
X-11542507Y18560195D01*
X-11480195Y18594221D01*
X-11453412Y18597100D01*
X-8466160Y18597100D01*
X-8413110Y18585388D01*
X-8315205Y18539942D01*
X-8315201Y18539941D01*
X-8310510Y18537763D01*
X-8277628Y18528644D01*
X-8217330Y18491165D01*
X-8186867Y18427036D01*
X-8185300Y18407227D01*
X-8185300Y15927788D01*
X-8205302Y15859667D01*
X-8222205Y15838693D01*
X-8381893Y15679005D01*
X-8444205Y15644979D01*
X-8470988Y15642100D01*
X-12342307Y15642100D01*
X-12410428Y15662102D01*
X-12456921Y15715758D01*
X-12464343Y15737363D01*
X-12465055Y15743916D01*
X-12467828Y15751315D01*
X-12513033Y15871897D01*
X-12516185Y15880305D01*
X-12603539Y15996861D01*
X-12720095Y16084215D01*
X-12856484Y16135345D01*
X-12918666Y16142100D01*
X-14614934Y16142100D01*
X-14677116Y16135345D01*
X-14813505Y16084215D01*
X-14930061Y15996861D01*
X-15017415Y15880305D01*
X-15068545Y15743916D01*
X-15075300Y15681734D01*
X-15075300Y13985466D01*
X-15068545Y13923284D01*
X-15017415Y13786895D01*
X-14930061Y13670339D01*
X-14813505Y13582985D01*
X-14677116Y13531855D01*
X-14634624Y13527239D01*
X-14618314Y13525467D01*
X-14618311Y13525467D01*
X-14614934Y13525100D01*
X-14611615Y13525100D01*
X-14544690Y13501447D01*
X-14508996Y13455444D01*
X-14507066Y13456459D01*
X-14501358Y13445600D01*
X-14501168Y13445355D01*
X-14501147Y13445197D01*
X-14481156Y13407166D01*
X-13779612Y12705622D01*
X-13765668Y12698008D01*
X-13763835Y12698139D01*
X-13757220Y12702390D01*
X-13051723Y13407887D01*
X-13028929Y13449629D01*
X-13026753Y13459629D01*
X-12976547Y13509827D01*
X-12922986Y13525051D01*
X-12922081Y13525100D01*
X-12918666Y13525100D01*
X-12915270Y13525469D01*
X-12915268Y13525469D01*
X-12898976Y13527239D01*
X-12856484Y13531855D01*
X-12720095Y13582985D01*
X-12603539Y13670339D01*
X-12516185Y13786895D01*
X-12469708Y13910871D01*
X-12467828Y13915886D01*
X-12467827Y13915889D01*
X-12465055Y13923284D01*
X-12464428Y13929053D01*
X-12429674Y13989891D01*
X-12366719Y14022713D01*
X-12342307Y14025100D01*
X-8470988Y14025100D01*
X-8402867Y14005098D01*
X-8381893Y13988195D01*
X-8221100Y13827402D01*
X-8216592Y13824245D01*
X-8216589Y13824243D01*
X-8184053Y13801461D01*
X-8033549Y13696077D01*
X-8028567Y13693754D01*
X-8028562Y13693751D01*
X-7880362Y13624645D01*
X-7826043Y13599316D01*
X-7820735Y13597894D01*
X-7820733Y13597893D01*
X-7610202Y13541481D01*
X-7610200Y13541481D01*
X-7604887Y13540057D01*
X-7376800Y13520102D01*
X-7148713Y13540057D01*
X-7143400Y13541481D01*
X-7143398Y13541481D01*
X-6932867Y13597893D01*
X-6932865Y13597894D01*
X-6927557Y13599316D01*
X-6873238Y13624645D01*
X-6725038Y13693751D01*
X-6725033Y13693754D01*
X-6720051Y13696077D01*
X-6646557Y13747538D01*
X-3098307Y13747538D01*
X-3089011Y13735523D01*
X-3037806Y13699669D01*
X-3028311Y13694186D01*
X-2830853Y13602110D01*
X-2820561Y13598364D01*
X-2610112Y13541975D01*
X-2599319Y13540072D01*
X-2382275Y13521083D01*
X-2371325Y13521083D01*
X-2154281Y13540072D01*
X-2143488Y13541975D01*
X-1933039Y13598364D01*
X-1922747Y13602110D01*
X-1725289Y13694186D01*
X-1715794Y13699669D01*
X-1663752Y13736109D01*
X-1655376Y13746588D01*
X-1662444Y13760034D01*
X-2363988Y14461578D01*
X-2377932Y14469192D01*
X-2379765Y14469061D01*
X-2386380Y14464810D01*
X-3091877Y13759313D01*
X-3098307Y13747538D01*
X-6646557Y13747538D01*
X-6569547Y13801461D01*
X-6537011Y13824243D01*
X-6537008Y13824245D01*
X-6532500Y13827402D01*
X-6370602Y13989300D01*
X-6363766Y13999062D01*
X-6291107Y14102830D01*
X-6239277Y14176851D01*
X-6236954Y14181833D01*
X-6236951Y14181838D01*
X-6144839Y14379375D01*
X-6144839Y14379376D01*
X-6142516Y14384357D01*
X-6131270Y14426325D01*
X-6084681Y14600198D01*
X-6084681Y14600200D01*
X-6083257Y14605513D01*
X-6063781Y14828125D01*
X-3689317Y14828125D01*
X-3670328Y14611081D01*
X-3668425Y14600288D01*
X-3612036Y14389839D01*
X-3608290Y14379547D01*
X-3516214Y14182089D01*
X-3510731Y14172594D01*
X-3474291Y14120552D01*
X-3463812Y14112176D01*
X-3450366Y14119244D01*
X-2748822Y14820788D01*
X-2742444Y14832468D01*
X-2012392Y14832468D01*
X-2012261Y14830635D01*
X-2008010Y14824020D01*
X-1302513Y14118523D01*
X-1290738Y14112093D01*
X-1278723Y14121389D01*
X-1242869Y14172594D01*
X-1237386Y14182089D01*
X-1145310Y14379547D01*
X-1141564Y14389839D01*
X-1085175Y14600288D01*
X-1083272Y14611081D01*
X-1064283Y14828125D01*
X-1064283Y14839075D01*
X-1083272Y15056119D01*
X-1085175Y15066912D01*
X-1141564Y15277361D01*
X-1145310Y15287653D01*
X-1237386Y15485111D01*
X-1242869Y15494606D01*
X-1279309Y15546648D01*
X-1289788Y15555024D01*
X-1303234Y15547956D01*
X-2004778Y14846412D01*
X-2012392Y14832468D01*
X-2742444Y14832468D01*
X-2741208Y14834732D01*
X-2741339Y14836565D01*
X-2745590Y14843180D01*
X-3451087Y15548677D01*
X-3462862Y15555107D01*
X-3474877Y15545811D01*
X-3510731Y15494606D01*
X-3516214Y15485111D01*
X-3608290Y15287653D01*
X-3612036Y15277361D01*
X-3668425Y15066912D01*
X-3670328Y15056119D01*
X-3689317Y14839075D01*
X-3689317Y14828125D01*
X-6063781Y14828125D01*
X-6063302Y14833600D01*
X-6083257Y15061687D01*
X-6092605Y15096573D01*
X-6141093Y15277533D01*
X-6141094Y15277535D01*
X-6142516Y15282843D01*
X-6147788Y15294149D01*
X-6236951Y15485362D01*
X-6236954Y15485367D01*
X-6239277Y15490349D01*
X-6370602Y15677900D01*
X-6531395Y15838693D01*
X-6565421Y15901005D01*
X-6567529Y15920612D01*
X-3098224Y15920612D01*
X-3091156Y15907166D01*
X-2389612Y15205622D01*
X-2375668Y15198008D01*
X-2373835Y15198139D01*
X-2367220Y15202390D01*
X-1661723Y15907887D01*
X-1655293Y15919662D01*
X-1664589Y15931677D01*
X-1715794Y15967531D01*
X-1725289Y15973014D01*
X-1922747Y16065090D01*
X-1933039Y16068836D01*
X-2143488Y16125225D01*
X-2154281Y16127128D01*
X-2371325Y16146117D01*
X-2382275Y16146117D01*
X-2599319Y16127128D01*
X-2610112Y16125225D01*
X-2820561Y16068836D01*
X-2830853Y16065090D01*
X-3028311Y15973014D01*
X-3037806Y15967531D01*
X-3089848Y15931091D01*
X-3098224Y15920612D01*
X-6567529Y15920612D01*
X-6568300Y15927788D01*
X-6568300Y18957185D01*
X-6548298Y19025306D01*
X-6541182Y19035277D01*
X-6491433Y19098270D01*
X-6491430Y19098275D01*
X-6488232Y19102324D01*
X-6449659Y19172198D01*
X-6374623Y19308126D01*
X-6374621Y19308130D01*
X-6372126Y19312650D01*
X-6358079Y19352315D01*
X-6293656Y19534240D01*
X-6293655Y19534244D01*
X-6291930Y19539115D01*
X-6291022Y19544211D01*
X-6250705Y19770548D01*
X-6250704Y19770554D01*
X-6249799Y19775637D01*
X-6246864Y20015863D01*
X-6283204Y20253344D01*
X-6329174Y20393990D01*
X-6356234Y20476783D01*
X-6356237Y20476789D01*
X-6357842Y20481701D01*
X-6365170Y20495779D01*
X-6466384Y20690207D01*
X-6468775Y20694800D01*
X-6613023Y20886920D01*
X-6786712Y21052901D01*
X-6823703Y21078135D01*
X-6868704Y21133044D01*
X-6876875Y21203568D01*
X-6845621Y21267316D01*
X-6821140Y21288011D01*
X-6819165Y21289289D01*
X-6814823Y21292098D01*
X-6637130Y21453786D01*
X-6523875Y21597192D01*
X-6465958Y21638255D01*
X-6424993Y21645100D01*
X-5140014Y21645100D01*
X-5138694Y21645093D01*
X-5048579Y21644149D01*
X-5006203Y21653311D01*
X-4993637Y21655369D01*
X-4950545Y21660203D01*
X-4943894Y21662519D01*
X-4943890Y21662520D01*
X-4918870Y21671233D01*
X-4904058Y21675396D01*
X-4878181Y21680991D01*
X-4871290Y21682481D01*
X-4831987Y21700808D01*
X-4820211Y21705590D01*
X-4779248Y21719855D01*
X-4773273Y21723589D01*
X-4773270Y21723590D01*
X-4750805Y21737627D01*
X-4737288Y21744966D01*
X-4713286Y21756159D01*
X-4713285Y21756160D01*
X-4706898Y21759138D01*
X-4672647Y21785706D01*
X-4662188Y21793002D01*
X-4631396Y21812242D01*
X-4631393Y21812244D01*
X-4625424Y21815974D01*
X-4596621Y21844576D01*
X-4595996Y21845161D01*
X-4595330Y21845678D01*
X-4569340Y21871668D01*
X-4496718Y21943785D01*
X-4496060Y21944822D01*
X-4494957Y21946051D01*
X-3987408Y22453600D01*
X6639854Y22453600D01*
X6659217Y22158174D01*
X6716976Y21867803D01*
X6718303Y21863894D01*
X6718304Y21863890D01*
X6794897Y21638255D01*
X6812141Y21587455D01*
X6943085Y21321927D01*
X6972669Y21277652D01*
X7034575Y21185003D01*
X7107567Y21075762D01*
X7110281Y21072668D01*
X7110285Y21072662D01*
X7276804Y20882785D01*
X7302773Y20853173D01*
X7305862Y20850464D01*
X7522262Y20660685D01*
X7522268Y20660681D01*
X7525362Y20657967D01*
X7528788Y20655678D01*
X7528793Y20655674D01*
X7674958Y20558010D01*
X7771527Y20493485D01*
X7775226Y20491661D01*
X7775231Y20491658D01*
X7805395Y20476783D01*
X8037055Y20362541D01*
X8040960Y20361216D01*
X8040961Y20361215D01*
X8313490Y20268704D01*
X8313494Y20268703D01*
X8317403Y20267376D01*
X8321447Y20266572D01*
X8321453Y20266570D01*
X8603735Y20210420D01*
X8603741Y20210419D01*
X8607774Y20209617D01*
X8611879Y20209348D01*
X8611886Y20209347D01*
X8899081Y20190524D01*
X8903200Y20190254D01*
X8907319Y20190524D01*
X9194514Y20209347D01*
X9194521Y20209348D01*
X9198626Y20209617D01*
X9202659Y20210419D01*
X9202665Y20210420D01*
X9484947Y20266570D01*
X9484953Y20266572D01*
X9488997Y20267376D01*
X9492906Y20268703D01*
X9492910Y20268704D01*
X9765439Y20361215D01*
X9765440Y20361216D01*
X9769345Y20362541D01*
X10001005Y20476783D01*
X10031169Y20491658D01*
X10031174Y20491661D01*
X10034873Y20493485D01*
X10131442Y20558010D01*
X10277607Y20655674D01*
X10277612Y20655678D01*
X10281038Y20657967D01*
X10284132Y20660681D01*
X10284138Y20660685D01*
X10500538Y20850464D01*
X10503627Y20853173D01*
X10529596Y20882785D01*
X10696115Y21072662D01*
X10696119Y21072668D01*
X10698833Y21075762D01*
X10771826Y21185003D01*
X10833731Y21277652D01*
X10863315Y21321927D01*
X10994259Y21587455D01*
X11011503Y21638255D01*
X11088096Y21863890D01*
X11088097Y21863894D01*
X11089424Y21867803D01*
X11147183Y22158174D01*
X11166546Y22453600D01*
X11165192Y22474260D01*
X11147453Y22744914D01*
X11147452Y22744921D01*
X11147183Y22749026D01*
X11145420Y22757893D01*
X11090230Y23035347D01*
X11090228Y23035353D01*
X11089424Y23039397D01*
X11075759Y23079655D01*
X10995585Y23315839D01*
X10995584Y23315840D01*
X10994259Y23319745D01*
X10919860Y23470612D01*
X10865142Y23581569D01*
X10865139Y23581574D01*
X10863315Y23585273D01*
X10804821Y23672815D01*
X10701126Y23828007D01*
X10701122Y23828012D01*
X10698833Y23831438D01*
X10696119Y23834532D01*
X10696115Y23834538D01*
X10506336Y24050938D01*
X10503627Y24054027D01*
X10500538Y24056736D01*
X10284138Y24246515D01*
X10284132Y24246519D01*
X10281038Y24249233D01*
X10277612Y24251522D01*
X10277607Y24251526D01*
X10038306Y24411421D01*
X10034873Y24413715D01*
X10031174Y24415539D01*
X10031169Y24415542D01*
X9894887Y24482748D01*
X9769345Y24544659D01*
X9765439Y24545985D01*
X9492910Y24638496D01*
X9492906Y24638497D01*
X9488997Y24639824D01*
X9484953Y24640628D01*
X9484947Y24640630D01*
X9202665Y24696780D01*
X9202659Y24696781D01*
X9198626Y24697583D01*
X9194521Y24697852D01*
X9194514Y24697853D01*
X8907319Y24716676D01*
X8903200Y24716946D01*
X8899081Y24716676D01*
X8611886Y24697853D01*
X8611879Y24697852D01*
X8607774Y24697583D01*
X8603741Y24696781D01*
X8603735Y24696780D01*
X8321453Y24640630D01*
X8321447Y24640628D01*
X8317403Y24639824D01*
X8313494Y24638497D01*
X8313490Y24638496D01*
X8040961Y24545985D01*
X8037055Y24544659D01*
X7911513Y24482748D01*
X7775231Y24415542D01*
X7775226Y24415539D01*
X7771527Y24413715D01*
X7768094Y24411421D01*
X7528793Y24251526D01*
X7528788Y24251522D01*
X7525362Y24249233D01*
X7522268Y24246519D01*
X7522262Y24246515D01*
X7305862Y24056736D01*
X7302773Y24054027D01*
X7300064Y24050938D01*
X7110285Y23834538D01*
X7110281Y23834532D01*
X7107567Y23831438D01*
X7105278Y23828012D01*
X7105274Y23828007D01*
X7001579Y23672815D01*
X6943085Y23585273D01*
X6941261Y23581574D01*
X6941258Y23581569D01*
X6886540Y23470612D01*
X6812141Y23319745D01*
X6810816Y23315840D01*
X6810815Y23315839D01*
X6730642Y23079655D01*
X6716976Y23039397D01*
X6716172Y23035353D01*
X6716170Y23035347D01*
X6660981Y22757893D01*
X6659217Y22749026D01*
X6658948Y22744921D01*
X6658947Y22744914D01*
X6641208Y22474260D01*
X6639854Y22453600D01*
X-3987408Y22453600D01*
X-3549642Y22891366D01*
X-3548705Y22892294D01*
X-3489325Y22950443D01*
X-3489324Y22950444D01*
X-3484293Y22955371D01*
X-3460802Y22991821D01*
X-3453383Y23002146D01*
X-3426324Y23036043D01*
X-3411727Y23066238D01*
X-3404198Y23079655D01*
X-3389852Y23101916D01*
X-3386035Y23107838D01*
X-3383627Y23114455D01*
X-3383624Y23114460D01*
X-3371208Y23148573D01*
X-3366247Y23160316D01*
X-3350446Y23193003D01*
X-3350444Y23193008D01*
X-3347379Y23199349D01*
X-3339835Y23232028D01*
X-3335468Y23246769D01*
X-3323997Y23278285D01*
X-3323114Y23285275D01*
X-3323112Y23285283D01*
X-3318562Y23321301D01*
X-3316326Y23333853D01*
X-3308162Y23369214D01*
X-3308162Y23369217D01*
X-3306576Y23376085D01*
X-3306544Y23385033D01*
X-3306434Y23416656D01*
X-3306405Y23417538D01*
X-3306300Y23418369D01*
X-3306300Y23455172D01*
X-3306006Y23539375D01*
X-3305955Y23553943D01*
X-3305955Y23553948D01*
X-3305943Y23557470D01*
X-3306211Y23558670D01*
X-3306300Y23560307D01*
X-3306300Y28857618D01*
X-3286298Y28925739D01*
X-3232642Y28972232D01*
X-3162368Y28982336D01*
X-3108029Y28960831D01*
X-3077806Y28939669D01*
X-3068311Y28934186D01*
X-2870853Y28842110D01*
X-2860561Y28838364D01*
X-2650112Y28781975D01*
X-2639319Y28780072D01*
X-2422275Y28761083D01*
X-2411325Y28761083D01*
X-2194281Y28780072D01*
X-2183488Y28781975D01*
X-1973039Y28838364D01*
X-1962747Y28842110D01*
X-1765289Y28934186D01*
X-1755794Y28939669D01*
X-1703752Y28976109D01*
X-1695376Y28986588D01*
X-1702444Y29000034D01*
X-2686915Y29984505D01*
X-2720941Y30046817D01*
X-2719106Y30072468D01*
X-2052392Y30072468D01*
X-2052261Y30070635D01*
X-2048010Y30064020D01*
X-1342513Y29358523D01*
X-1330738Y29352093D01*
X-1318723Y29361389D01*
X-1282869Y29412594D01*
X-1277386Y29422089D01*
X-1185310Y29619547D01*
X-1181564Y29629839D01*
X-1125175Y29840288D01*
X-1123272Y29851081D01*
X-1104283Y30068125D01*
X-1104283Y30079075D01*
X-1123272Y30296119D01*
X-1125175Y30306912D01*
X-1181564Y30517361D01*
X-1185310Y30527653D01*
X-1277386Y30725111D01*
X-1282869Y30734606D01*
X-1319309Y30786648D01*
X-1329788Y30795024D01*
X-1343234Y30787956D01*
X-2044778Y30086412D01*
X-2052392Y30072468D01*
X-2719106Y30072468D01*
X-2715876Y30117632D01*
X-2686915Y30162695D01*
X-1701723Y31147887D01*
X-1695293Y31159662D01*
X-1704589Y31171677D01*
X-1755794Y31207531D01*
X-1765289Y31213014D01*
X-1962747Y31305090D01*
X-1973039Y31308836D01*
X-2183488Y31365225D01*
X-2194281Y31367128D01*
X-2411325Y31386117D01*
X-2422275Y31386117D01*
X-2639319Y31367128D01*
X-2650112Y31365225D01*
X-2860561Y31308836D01*
X-2870853Y31305090D01*
X-2959725Y31263648D01*
X-3029917Y31252987D01*
X-3094729Y31281967D01*
X-3133586Y31341387D01*
X-3134149Y31412381D01*
X-3102070Y31466938D01*
X-2800813Y31768195D01*
X-2738501Y31802221D01*
X-2711718Y31805100D01*
X48707Y31805100D01*
X116828Y31785098D01*
X163321Y31731442D01*
X170743Y31709837D01*
X171455Y31703284D01*
X174227Y31695889D01*
X174228Y31695886D01*
X212949Y31592600D01*
X222585Y31566895D01*
X309939Y31450339D01*
X426495Y31362985D01*
X562884Y31311855D01*
X625066Y31305100D01*
X2321334Y31305100D01*
X2383516Y31311855D01*
X2519905Y31362985D01*
X2636461Y31450339D01*
X2694319Y31527538D01*
X3251693Y31527538D01*
X3260989Y31515523D01*
X3312194Y31479669D01*
X3321689Y31474186D01*
X3519147Y31382110D01*
X3529439Y31378364D01*
X3739888Y31321975D01*
X3750681Y31320072D01*
X3967725Y31301083D01*
X3978675Y31301083D01*
X4195719Y31320072D01*
X4206512Y31321975D01*
X4416961Y31378364D01*
X4427253Y31382110D01*
X4624711Y31474186D01*
X4634206Y31479669D01*
X4686248Y31516109D01*
X4694624Y31526588D01*
X4687556Y31540034D01*
X3986012Y32241578D01*
X3972068Y32249192D01*
X3970235Y32249061D01*
X3963620Y32244810D01*
X3258123Y31539313D01*
X3251693Y31527538D01*
X2694319Y31527538D01*
X2723815Y31566895D01*
X2774945Y31703284D01*
X2781700Y31765466D01*
X2781700Y31768785D01*
X2805353Y31835710D01*
X2851356Y31871404D01*
X2850341Y31873334D01*
X2861200Y31879042D01*
X2861445Y31879232D01*
X2861603Y31879253D01*
X2899634Y31899244D01*
X3612858Y32612468D01*
X4337608Y32612468D01*
X4337739Y32610635D01*
X4341990Y32604020D01*
X5047487Y31898523D01*
X5059262Y31892093D01*
X5071277Y31901389D01*
X5107131Y31952594D01*
X5112614Y31962089D01*
X5204690Y32159547D01*
X5208436Y32169839D01*
X5264825Y32380288D01*
X5266728Y32391081D01*
X5285717Y32608125D01*
X5285717Y32619075D01*
X5266728Y32836119D01*
X5264825Y32846912D01*
X5208436Y33057361D01*
X5204690Y33067653D01*
X5112614Y33265111D01*
X5107131Y33274606D01*
X5070691Y33326648D01*
X5060212Y33335024D01*
X5046766Y33327956D01*
X4345222Y32626412D01*
X4337608Y32612468D01*
X3612858Y32612468D01*
X4688277Y33687887D01*
X4694707Y33699662D01*
X4685411Y33711677D01*
X4634206Y33747531D01*
X4624711Y33753014D01*
X4427253Y33845090D01*
X4416961Y33848836D01*
X4206508Y33905226D01*
X4191298Y33907908D01*
X4127685Y33939433D01*
X4091214Y34000346D01*
X4093465Y34071307D01*
X4124079Y34121088D01*
X5634529Y35631538D01*
X12181693Y35631538D01*
X12190989Y35619523D01*
X12242194Y35583669D01*
X12251689Y35578186D01*
X12449147Y35486110D01*
X12459439Y35482364D01*
X12669888Y35425975D01*
X12680681Y35424072D01*
X12897725Y35405083D01*
X12908675Y35405083D01*
X13125719Y35424072D01*
X13136512Y35425975D01*
X13346961Y35482364D01*
X13357253Y35486110D01*
X13554711Y35578186D01*
X13564206Y35583669D01*
X13616248Y35620109D01*
X13624624Y35630588D01*
X13617556Y35644034D01*
X12916012Y36345578D01*
X12902068Y36353192D01*
X12900235Y36353061D01*
X12893620Y36348810D01*
X12188123Y35643313D01*
X12181693Y35631538D01*
X5634529Y35631538D01*
X5848310Y35845319D01*
X5849247Y35846247D01*
X5908674Y35904442D01*
X5908675Y35904444D01*
X5913707Y35909371D01*
X5917522Y35915291D01*
X5917527Y35915297D01*
X5937194Y35945814D01*
X5944627Y35956159D01*
X5971676Y35990043D01*
X5986273Y36020238D01*
X5993802Y36033655D01*
X6008148Y36055916D01*
X6011965Y36061838D01*
X6014373Y36068455D01*
X6014376Y36068460D01*
X6026792Y36102573D01*
X6031753Y36114316D01*
X6047553Y36147000D01*
X6047556Y36147009D01*
X6050621Y36153349D01*
X6058166Y36186028D01*
X6062534Y36200775D01*
X6074003Y36232285D01*
X6074885Y36239270D01*
X6074887Y36239277D01*
X6079437Y36275292D01*
X6081672Y36287843D01*
X6089840Y36323222D01*
X6091425Y36330085D01*
X6091491Y36348810D01*
X6091567Y36370674D01*
X6091596Y36371543D01*
X6091700Y36372369D01*
X6091700Y36408886D01*
X6092058Y36511470D01*
X6091789Y36512673D01*
X6091700Y36514317D01*
X6091700Y36712125D01*
X11590683Y36712125D01*
X11609672Y36495081D01*
X11611575Y36484288D01*
X11667964Y36273839D01*
X11671710Y36263547D01*
X11763786Y36066089D01*
X11769269Y36056594D01*
X11805709Y36004552D01*
X11816188Y35996176D01*
X11829634Y36003244D01*
X12531178Y36704788D01*
X12537556Y36716468D01*
X13267608Y36716468D01*
X13267739Y36714635D01*
X13271990Y36708020D01*
X13977487Y36002523D01*
X13989262Y35996093D01*
X14001277Y36005389D01*
X14037131Y36056594D01*
X14042614Y36066089D01*
X14134690Y36263547D01*
X14138436Y36273839D01*
X14194825Y36484288D01*
X14196728Y36495081D01*
X14215717Y36712125D01*
X14215717Y36723075D01*
X14196728Y36940119D01*
X14194825Y36950912D01*
X14138436Y37161361D01*
X14134690Y37171653D01*
X14042614Y37369111D01*
X14037131Y37378606D01*
X14000691Y37430648D01*
X13990212Y37439024D01*
X13976766Y37431956D01*
X13275222Y36730412D01*
X13267608Y36716468D01*
X12537556Y36716468D01*
X12538792Y36718732D01*
X12538661Y36720565D01*
X12534410Y36727180D01*
X11828913Y37432677D01*
X11817138Y37439107D01*
X11805123Y37429811D01*
X11769269Y37378606D01*
X11763786Y37369111D01*
X11671710Y37171653D01*
X11667964Y37161361D01*
X11611575Y36950912D01*
X11609672Y36940119D01*
X11590683Y36723075D01*
X11590683Y36712125D01*
X6091700Y36712125D01*
X6091700Y37804612D01*
X12181776Y37804612D01*
X12188844Y37791166D01*
X12890388Y37089622D01*
X12904332Y37082008D01*
X12906165Y37082139D01*
X12912780Y37086390D01*
X13618277Y37791887D01*
X13624707Y37803662D01*
X13615411Y37815677D01*
X13564206Y37851531D01*
X13554711Y37857014D01*
X13357253Y37949090D01*
X13346961Y37952836D01*
X13136512Y38009225D01*
X13125719Y38011128D01*
X12908675Y38030117D01*
X12897725Y38030117D01*
X12680681Y38011128D01*
X12669888Y38009225D01*
X12459439Y37952836D01*
X12449147Y37949090D01*
X12251689Y37857014D01*
X12242194Y37851531D01*
X12190152Y37815091D01*
X12181776Y37804612D01*
X6091700Y37804612D01*
X6091700Y39037602D01*
X6111702Y39105723D01*
X6165358Y39152216D01*
X6173470Y39155584D01*
X6271497Y39192333D01*
X6279905Y39195485D01*
X6396461Y39282839D01*
X6483815Y39399395D01*
X6523716Y39505830D01*
X6566358Y39562594D01*
X6632919Y39587294D01*
X6641698Y39587600D01*
X11572486Y39587600D01*
X11573806Y39587593D01*
X11663921Y39586649D01*
X11706297Y39595811D01*
X11718863Y39597869D01*
X11761955Y39602703D01*
X11768606Y39605019D01*
X11768610Y39605020D01*
X11793630Y39613733D01*
X11808442Y39617896D01*
X11834319Y39623491D01*
X11841210Y39624981D01*
X11880513Y39643308D01*
X11892289Y39648090D01*
X11933252Y39662355D01*
X11939227Y39666089D01*
X11939230Y39666090D01*
X11961695Y39680127D01*
X11975212Y39687466D01*
X11999214Y39698659D01*
X11999215Y39698660D01*
X12005602Y39701638D01*
X12024377Y39716201D01*
X12039853Y39728206D01*
X12050312Y39735502D01*
X12081104Y39754742D01*
X12081107Y39754744D01*
X12087076Y39758474D01*
X12108120Y39779371D01*
X12115879Y39787076D01*
X12116504Y39787661D01*
X12117170Y39788178D01*
X12143160Y39814168D01*
X12215782Y39886285D01*
X12216440Y39887322D01*
X12217543Y39888551D01*
X12705232Y40376240D01*
X12767544Y40410266D01*
X12805308Y40412666D01*
X12897724Y40404581D01*
X12897725Y40404581D01*
X12903200Y40404102D01*
X13131287Y40424057D01*
X13136600Y40425481D01*
X13136602Y40425481D01*
X13347133Y40481893D01*
X13347135Y40481894D01*
X13352443Y40483316D01*
X13357425Y40485639D01*
X13554962Y40577751D01*
X13554967Y40577754D01*
X13559949Y40580077D01*
X13690227Y40671299D01*
X13742989Y40708243D01*
X13742992Y40708245D01*
X13747500Y40711402D01*
X13908293Y40872195D01*
X13970605Y40906221D01*
X13997388Y40909100D01*
X16205534Y40909100D01*
X16273655Y40889098D01*
X16308747Y40855370D01*
X16323839Y40833816D01*
X16323843Y40833811D01*
X16327002Y40829300D01*
X16488900Y40667402D01*
X16493408Y40664245D01*
X16493411Y40664243D01*
X16544469Y40628492D01*
X16676451Y40536077D01*
X16681433Y40533754D01*
X16681438Y40533751D01*
X16878975Y40441639D01*
X16883957Y40439316D01*
X16889265Y40437894D01*
X16889267Y40437893D01*
X17099798Y40381481D01*
X17099800Y40381481D01*
X17105113Y40380057D01*
X17333200Y40360102D01*
X17561287Y40380057D01*
X17566600Y40381481D01*
X17566602Y40381481D01*
X17777133Y40437893D01*
X17777135Y40437894D01*
X17782443Y40439316D01*
X17787425Y40441639D01*
X17984962Y40533751D01*
X17984967Y40533754D01*
X17989949Y40536077D01*
X18121931Y40628492D01*
X18172989Y40664243D01*
X18172992Y40664245D01*
X18177500Y40667402D01*
X18339398Y40829300D01*
X18342561Y40833816D01*
X18467566Y41012343D01*
X18470723Y41016851D01*
X18473046Y41021833D01*
X18473049Y41021838D01*
X18565161Y41219375D01*
X18565161Y41219376D01*
X18567484Y41224357D01*
X18584101Y41286370D01*
X18625319Y41440198D01*
X18625319Y41440200D01*
X18626743Y41445513D01*
X18646698Y41673600D01*
X18626743Y41901687D01*
X18567484Y42122843D01*
X18546967Y42166843D01*
X18473049Y42325362D01*
X18473046Y42325367D01*
X18470723Y42330349D01*
X18339398Y42517900D01*
X18177500Y42679798D01*
X18172992Y42682955D01*
X18172989Y42682957D01*
X18094811Y42737698D01*
X17989949Y42811123D01*
X17984967Y42813446D01*
X17984962Y42813449D01*
X17787425Y42905561D01*
X17787424Y42905561D01*
X17782443Y42907884D01*
X17777135Y42909306D01*
X17777133Y42909307D01*
X17566602Y42965719D01*
X17566600Y42965719D01*
X17561287Y42967143D01*
X17333200Y42987098D01*
X17105113Y42967143D01*
X17099800Y42965719D01*
X17099798Y42965719D01*
X16889267Y42909307D01*
X16889265Y42909306D01*
X16883957Y42907884D01*
X16878976Y42905561D01*
X16878975Y42905561D01*
X16681438Y42813449D01*
X16681433Y42813446D01*
X16676451Y42811123D01*
X16571589Y42737698D01*
X16493411Y42682957D01*
X16493408Y42682955D01*
X16488900Y42679798D01*
X16372107Y42563005D01*
X16309795Y42528979D01*
X16283012Y42526100D01*
X13997388Y42526100D01*
X13929267Y42546102D01*
X13908293Y42563005D01*
X13747500Y42723798D01*
X13742992Y42726955D01*
X13742989Y42726957D01*
X13622787Y42811123D01*
X13559949Y42855123D01*
X13554967Y42857446D01*
X13554962Y42857449D01*
X13357425Y42949561D01*
X13357424Y42949561D01*
X13352443Y42951884D01*
X13347135Y42953306D01*
X13347133Y42953307D01*
X13136602Y43009719D01*
X13136600Y43009719D01*
X13131287Y43011143D01*
X12903200Y43031098D01*
X12675113Y43011143D01*
X12669800Y43009719D01*
X12669798Y43009719D01*
X12459267Y42953307D01*
X12459265Y42953306D01*
X12453957Y42951884D01*
X12448976Y42949561D01*
X12448975Y42949561D01*
X12251438Y42857449D01*
X12251433Y42857446D01*
X12246451Y42855123D01*
X12183613Y42811123D01*
X12063411Y42726957D01*
X12063408Y42726955D01*
X12058900Y42723798D01*
X11897002Y42561900D01*
X11765677Y42374349D01*
X11763354Y42369367D01*
X11763351Y42369362D01*
X11742834Y42325362D01*
X11668916Y42166843D01*
X11609657Y41945687D01*
X11589702Y41717600D01*
X11590181Y41712125D01*
X11590181Y41712124D01*
X11598266Y41619708D01*
X11584276Y41550103D01*
X11561840Y41519632D01*
X11283713Y41241505D01*
X11221401Y41207479D01*
X11194618Y41204600D01*
X6641698Y41204600D01*
X6573577Y41224602D01*
X6527084Y41278258D01*
X6523716Y41286370D01*
X6486967Y41384397D01*
X6483815Y41392805D01*
X6396461Y41509361D01*
X6279905Y41596715D01*
X6143516Y41647845D01*
X6081334Y41654600D01*
X4485066Y41654600D01*
X4422884Y41647845D01*
X4286495Y41596715D01*
X4169939Y41509361D01*
X4082585Y41392805D01*
X4031455Y41256416D01*
X4024700Y41194234D01*
X4024700Y41159676D01*
X4004698Y41091555D01*
X3951042Y41045062D01*
X3880768Y41034958D01*
X3816188Y41064452D01*
X3795487Y41087405D01*
X3714108Y41203627D01*
X3714106Y41203630D01*
X3710949Y41208138D01*
X3588605Y41330482D01*
X3554579Y41392794D01*
X3551700Y41419577D01*
X3551700Y42516518D01*
X3571702Y42584639D01*
X3588605Y42605613D01*
X4231187Y43248195D01*
X4293499Y43282221D01*
X4320282Y43285100D01*
X19398700Y43285100D01*
X19466821Y43265098D01*
X19513314Y43211442D01*
X19524700Y43159100D01*
X19524700Y40680682D01*
X19504698Y40612561D01*
X19487795Y40591587D01*
X16768042Y37871834D01*
X16767105Y37870906D01*
X16710109Y37815091D01*
X16702693Y37807829D01*
X16679202Y37771379D01*
X16671783Y37761054D01*
X16644724Y37727157D01*
X16641659Y37720816D01*
X16641658Y37720815D01*
X16630128Y37696963D01*
X16622599Y37683546D01*
X16604435Y37655362D01*
X16602027Y37648745D01*
X16602024Y37648740D01*
X16589608Y37614627D01*
X16584647Y37602884D01*
X16568846Y37570197D01*
X16568844Y37570192D01*
X16565779Y37563851D01*
X16564196Y37556993D01*
X16564195Y37556991D01*
X16558235Y37531174D01*
X16553868Y37516431D01*
X16542397Y37484915D01*
X16541514Y37477925D01*
X16541512Y37477917D01*
X16536962Y37441899D01*
X16534726Y37429347D01*
X16524976Y37387115D01*
X16524951Y37380069D01*
X16524951Y37380066D01*
X16524834Y37346544D01*
X16524805Y37345662D01*
X16524700Y37344831D01*
X16524700Y37308028D01*
X16524343Y37205730D01*
X16524611Y37204530D01*
X16524700Y37202893D01*
X16524700Y32607788D01*
X16504698Y32539667D01*
X16487795Y32518693D01*
X16327002Y32357900D01*
X16323845Y32353392D01*
X16323843Y32353389D01*
X16308418Y32331360D01*
X16195677Y32170349D01*
X16193354Y32165367D01*
X16193351Y32165362D01*
X16110231Y31987108D01*
X16098916Y31962843D01*
X16097494Y31957535D01*
X16097493Y31957533D01*
X16045123Y31762086D01*
X16039657Y31741687D01*
X16019702Y31513600D01*
X16039657Y31285513D01*
X16041081Y31280200D01*
X16041081Y31280198D01*
X16094779Y31079798D01*
X16098916Y31064357D01*
X16101239Y31059376D01*
X16101239Y31059375D01*
X16193351Y30861838D01*
X16193354Y30861833D01*
X16195677Y30856851D01*
X16198834Y30852343D01*
X16287923Y30725111D01*
X16327002Y30669300D01*
X16488900Y30507402D01*
X16493408Y30504245D01*
X16493411Y30504243D01*
X16557118Y30459635D01*
X16676451Y30376077D01*
X16681433Y30373754D01*
X16681438Y30373751D01*
X16878975Y30281639D01*
X16883957Y30279316D01*
X16889265Y30277894D01*
X16889267Y30277893D01*
X17099798Y30221481D01*
X17099800Y30221481D01*
X17105113Y30220057D01*
X17333200Y30200102D01*
X17561287Y30220057D01*
X17566600Y30221481D01*
X17566602Y30221481D01*
X17777133Y30277893D01*
X17777135Y30277894D01*
X17782443Y30279316D01*
X17787425Y30281639D01*
X17984962Y30373751D01*
X17984967Y30373754D01*
X17989949Y30376077D01*
X18109282Y30459635D01*
X18172989Y30504243D01*
X18172992Y30504245D01*
X18177500Y30507402D01*
X18339398Y30669300D01*
X18378478Y30725111D01*
X18467566Y30852343D01*
X18470723Y30856851D01*
X18473046Y30861833D01*
X18473049Y30861838D01*
X18565161Y31059375D01*
X18565161Y31059376D01*
X18567484Y31064357D01*
X18571622Y31079798D01*
X18625319Y31280198D01*
X18625319Y31280200D01*
X18626743Y31285513D01*
X18646698Y31513600D01*
X18626743Y31741687D01*
X18621277Y31762086D01*
X18568907Y31957533D01*
X18568906Y31957535D01*
X18567484Y31962843D01*
X18556169Y31987108D01*
X18473049Y32165362D01*
X18473046Y32165367D01*
X18470723Y32170349D01*
X18357982Y32331360D01*
X18342557Y32353389D01*
X18342555Y32353392D01*
X18339398Y32357900D01*
X18178605Y32518693D01*
X18144579Y32581005D01*
X18141700Y32607788D01*
X18141700Y36906518D01*
X18161702Y36974639D01*
X18178605Y36995613D01*
X20898263Y39715272D01*
X20899200Y39716201D01*
X20958675Y39774443D01*
X20958676Y39774444D01*
X20963707Y39779371D01*
X20967522Y39785290D01*
X20967528Y39785298D01*
X20987194Y39815814D01*
X20994627Y39826159D01*
X21021676Y39860043D01*
X21036273Y39890238D01*
X21043802Y39903655D01*
X21058148Y39925916D01*
X21061965Y39931838D01*
X21064373Y39938455D01*
X21064376Y39938460D01*
X21076792Y39972573D01*
X21081753Y39984316D01*
X21097553Y40017000D01*
X21097556Y40017009D01*
X21100621Y40023349D01*
X21108166Y40056028D01*
X21112534Y40070775D01*
X21124003Y40102285D01*
X21124885Y40109270D01*
X21124887Y40109277D01*
X21129437Y40145292D01*
X21131672Y40157843D01*
X21136032Y40176729D01*
X21141425Y40200085D01*
X21141567Y40240674D01*
X21141596Y40241543D01*
X21141700Y40242369D01*
X21141700Y40278886D01*
X21141703Y40279639D01*
X21142046Y40377936D01*
X21142046Y40377942D01*
X21142058Y40381470D01*
X21141789Y40382673D01*
X21141700Y40384317D01*
X21141700Y43584386D01*
X21141707Y43585706D01*
X21142577Y43668774D01*
X21142651Y43675821D01*
X21133489Y43718197D01*
X21131430Y43730768D01*
X21127382Y43766856D01*
X21126597Y43773855D01*
X21115567Y43805530D01*
X21111404Y43820342D01*
X21105809Y43846219D01*
X21104319Y43853110D01*
X21085992Y43892413D01*
X21081210Y43904189D01*
X21066945Y43945152D01*
X21063210Y43951130D01*
X21049173Y43973595D01*
X21041834Y43987112D01*
X21030641Y44011114D01*
X21030640Y44011115D01*
X21027662Y44017502D01*
X21001094Y44051753D01*
X20993798Y44062212D01*
X20974558Y44093004D01*
X20974556Y44093007D01*
X20970826Y44098976D01*
X20942224Y44127779D01*
X20941639Y44128404D01*
X20941122Y44129070D01*
X20915132Y44155060D01*
X20843015Y44227682D01*
X20841978Y44228340D01*
X20840749Y44229443D01*
X20480187Y44590005D01*
X20446161Y44652317D01*
X20451226Y44723132D01*
X20493773Y44779968D01*
X20560293Y44804779D01*
X20569282Y44805100D01*
X22937200Y44805100D01*
X23005321Y44785098D01*
X23051814Y44731442D01*
X23063200Y44679100D01*
X23063200Y30073600D01*
X45923200Y30073600D01*
X45923200Y44679100D01*
X45943202Y44747221D01*
X45996858Y44793714D01*
X46049200Y44805100D01*
X53378700Y44805100D01*
X53446821Y44785098D01*
X53493314Y44731442D01*
X53504700Y44679100D01*
X53504700Y-17551900D01*
X53484698Y-17620021D01*
X53431042Y-17666514D01*
X53378700Y-17677900D01*
X-2060387Y-17677900D01*
X-2128508Y-17657898D01*
X-2175001Y-17604242D01*
X-2185105Y-17533968D01*
X-2157812Y-17474206D01*
X-2158539Y-17473661D01*
X-2156039Y-17470325D01*
X-2071185Y-17357105D01*
X-2031284Y-17250670D01*
X-1988642Y-17193906D01*
X-1922081Y-17169206D01*
X-1913302Y-17168900D01*
X17005986Y-17168900D01*
X17007306Y-17168907D01*
X17097421Y-17169851D01*
X17139797Y-17160689D01*
X17152363Y-17158631D01*
X17195455Y-17153797D01*
X17202106Y-17151481D01*
X17202110Y-17151480D01*
X17227130Y-17142767D01*
X17241942Y-17138604D01*
X17267819Y-17133009D01*
X17274710Y-17131519D01*
X17314013Y-17113192D01*
X17325789Y-17108410D01*
X17366752Y-17094145D01*
X17372727Y-17090411D01*
X17372730Y-17090410D01*
X17395195Y-17076373D01*
X17408712Y-17069034D01*
X17432714Y-17057841D01*
X17432715Y-17057840D01*
X17439102Y-17054862D01*
X17473353Y-17028294D01*
X17483812Y-17020998D01*
X17514604Y-17001758D01*
X17514607Y-17001756D01*
X17520576Y-16998026D01*
X17549379Y-16969424D01*
X17550004Y-16968839D01*
X17550670Y-16968322D01*
X17576660Y-16942332D01*
X17649282Y-16870215D01*
X17649940Y-16869178D01*
X17651043Y-16867949D01*
X18261365Y-16257627D01*
X18272541Y-16247704D01*
X18294944Y-16230075D01*
X18294945Y-16230074D01*
X18300483Y-16225716D01*
X18329763Y-16189558D01*
X18331646Y-16187346D01*
X18333147Y-16185845D01*
X18359079Y-16153360D01*
X18359618Y-16152689D01*
X18378074Y-16129898D01*
X18414632Y-16084752D01*
X18415891Y-16082192D01*
X18417676Y-16079957D01*
X18455801Y-16001092D01*
X18456165Y-16000348D01*
X18478212Y-15955544D01*
X18494716Y-15922003D01*
X18495378Y-15919222D01*
X18496621Y-15916652D01*
X18502091Y-15892961D01*
X18516290Y-15831455D01*
X18516491Y-15830599D01*
X18535256Y-15751830D01*
X18536751Y-15745555D01*
X18536781Y-15742701D01*
X18537424Y-15739915D01*
X18537447Y-15733447D01*
X18537716Y-15656459D01*
X18557956Y-15588409D01*
X18611774Y-15542104D01*
X18663715Y-15530900D01*
X18672334Y-15530900D01*
X18734516Y-15524145D01*
X18870905Y-15473015D01*
X18987461Y-15385661D01*
X19074815Y-15269105D01*
X19099380Y-15203578D01*
X19142022Y-15146814D01*
X19208583Y-15122114D01*
X19277932Y-15137321D01*
X19297847Y-15150864D01*
X19448925Y-15276291D01*
X19453549Y-15280130D01*
X19653522Y-15396984D01*
X19658347Y-15398826D01*
X19658348Y-15398827D01*
X19707439Y-15417573D01*
X19869894Y-15479609D01*
X19874960Y-15480640D01*
X19874961Y-15480640D01*
X19902403Y-15486223D01*
X20096856Y-15525785D01*
X20226289Y-15530531D01*
X20323149Y-15534083D01*
X20323153Y-15534083D01*
X20328313Y-15534272D01*
X20333433Y-15533616D01*
X20333435Y-15533616D01*
X20419754Y-15522558D01*
X20558047Y-15504842D01*
X20562995Y-15503357D01*
X20563002Y-15503356D01*
X20774947Y-15439769D01*
X20779890Y-15438286D01*
X20822171Y-15417573D01*
X20983249Y-15338662D01*
X20983252Y-15338660D01*
X20987884Y-15336391D01*
X21176443Y-15201894D01*
X21340503Y-15038405D01*
X21475658Y-14850317D01*
X21515016Y-14770683D01*
X21575984Y-14647322D01*
X21575985Y-14647320D01*
X21578278Y-14642680D01*
X21645608Y-14421071D01*
X21675840Y-14191441D01*
X21676342Y-14170900D01*
X21677445Y-14125765D01*
X21677445Y-14125761D01*
X21677527Y-14122400D01*
X21669238Y-14021574D01*
X21658973Y-13896718D01*
X21658972Y-13896712D01*
X21658549Y-13891567D01*
X21615825Y-13721476D01*
X21603384Y-13671944D01*
X21603383Y-13671940D01*
X21602125Y-13666933D01*
X21600066Y-13662197D01*
X21511830Y-13459268D01*
X21511828Y-13459265D01*
X21509770Y-13454531D01*
X21383964Y-13260065D01*
X21370404Y-13245162D01*
X21302802Y-13170869D01*
X21228087Y-13088758D01*
X21224036Y-13085559D01*
X21224032Y-13085555D01*
X21120608Y-13003876D01*
X21079545Y-12945959D01*
X21072700Y-12904994D01*
X21072700Y-10824565D01*
X21072707Y-10823246D01*
X21073057Y-10789780D01*
X21073650Y-10733179D01*
X21072163Y-10726301D01*
X21072162Y-10726291D01*
X21064491Y-10690813D01*
X21062430Y-10678231D01*
X21062099Y-10675273D01*
X21057597Y-10635145D01*
X21046568Y-10603474D01*
X21042405Y-10588665D01*
X21036807Y-10562771D01*
X21036806Y-10562768D01*
X21035319Y-10555890D01*
X21016992Y-10516587D01*
X21012210Y-10504811D01*
X20997945Y-10463848D01*
X20994210Y-10457870D01*
X20980173Y-10435405D01*
X20972834Y-10421888D01*
X20961641Y-10397886D01*
X20961640Y-10397885D01*
X20958662Y-10391498D01*
X20948892Y-10378902D01*
X20932094Y-10357247D01*
X20924798Y-10346788D01*
X20905558Y-10315996D01*
X20905556Y-10315993D01*
X20901826Y-10310024D01*
X20873224Y-10281221D01*
X20872639Y-10280596D01*
X20872122Y-10279930D01*
X20846132Y-10253940D01*
X20774015Y-10181318D01*
X20772978Y-10180660D01*
X20771749Y-10179557D01*
X19577434Y-8985242D01*
X19576506Y-8984305D01*
X19518357Y-8924925D01*
X19518356Y-8924924D01*
X19513429Y-8919893D01*
X19476979Y-8896402D01*
X19466654Y-8888983D01*
X19432757Y-8861924D01*
X19402562Y-8847327D01*
X19389145Y-8839798D01*
X19379796Y-8833773D01*
X19360962Y-8821635D01*
X19354345Y-8819227D01*
X19354340Y-8819224D01*
X19320227Y-8806808D01*
X19308484Y-8801847D01*
X19275797Y-8786046D01*
X19275792Y-8786044D01*
X19269451Y-8782979D01*
X19262593Y-8781396D01*
X19262591Y-8781395D01*
X19236774Y-8775435D01*
X19222031Y-8771068D01*
X19190515Y-8759597D01*
X19183525Y-8758714D01*
X19183517Y-8758712D01*
X19147499Y-8754162D01*
X19134947Y-8751926D01*
X19099586Y-8743762D01*
X19099583Y-8743762D01*
X19092715Y-8742176D01*
X19085669Y-8742151D01*
X19085666Y-8742151D01*
X19052144Y-8742034D01*
X19051262Y-8742005D01*
X19050431Y-8741900D01*
X19013781Y-8741900D01*
X19013341Y-8741899D01*
X18914857Y-8741555D01*
X18914852Y-8741555D01*
X18911330Y-8741543D01*
X18910130Y-8741811D01*
X18908493Y-8741900D01*
X15267388Y-8741900D01*
X15199267Y-8721898D01*
X15178293Y-8704995D01*
X15017500Y-8544202D01*
X15012992Y-8541045D01*
X15012989Y-8541043D01*
X14917311Y-8474049D01*
X14829949Y-8412877D01*
X14824967Y-8410554D01*
X14824962Y-8410551D01*
X14627425Y-8318439D01*
X14627424Y-8318439D01*
X14622443Y-8316116D01*
X14617135Y-8314694D01*
X14617133Y-8314693D01*
X14406602Y-8258281D01*
X14406600Y-8258281D01*
X14401287Y-8256857D01*
X14173200Y-8236902D01*
X13945113Y-8256857D01*
X13939800Y-8258281D01*
X13939798Y-8258281D01*
X13729267Y-8314693D01*
X13729265Y-8314694D01*
X13723957Y-8316116D01*
X13718976Y-8318439D01*
X13718975Y-8318439D01*
X13521438Y-8410551D01*
X13521433Y-8410554D01*
X13516451Y-8412877D01*
X13429089Y-8474049D01*
X13333411Y-8541043D01*
X13333408Y-8541045D01*
X13328900Y-8544202D01*
X13167002Y-8706100D01*
X13163845Y-8710608D01*
X13163843Y-8710611D01*
X13129543Y-8759597D01*
X13035677Y-8893651D01*
X13033354Y-8898633D01*
X13033351Y-8898638D01*
X12952230Y-9072605D01*
X12938916Y-9101157D01*
X12937494Y-9106465D01*
X12937493Y-9106467D01*
X12898127Y-9253381D01*
X12879657Y-9322313D01*
X12859702Y-9550400D01*
X12879657Y-9778487D01*
X12881081Y-9783800D01*
X12881081Y-9783802D01*
X12935685Y-9987583D01*
X12938916Y-9999643D01*
X12941239Y-10004624D01*
X12941239Y-10004625D01*
X13033351Y-10202162D01*
X13033354Y-10202167D01*
X13035677Y-10207149D01*
X13082207Y-10273600D01*
X13149411Y-10369577D01*
X13167002Y-10394700D01*
X13328900Y-10556598D01*
X13333408Y-10559755D01*
X13333411Y-10559757D01*
X13360425Y-10578672D01*
X13516451Y-10687923D01*
X13521433Y-10690246D01*
X13521438Y-10690249D01*
X13640389Y-10745716D01*
X13723957Y-10784684D01*
X13729265Y-10786106D01*
X13729267Y-10786107D01*
X13939798Y-10842519D01*
X13939800Y-10842519D01*
X13945113Y-10843943D01*
X14173200Y-10863898D01*
X14401287Y-10843943D01*
X14406600Y-10842519D01*
X14406602Y-10842519D01*
X14617133Y-10786107D01*
X14617135Y-10786106D01*
X14622443Y-10784684D01*
X14706011Y-10745716D01*
X14824962Y-10690249D01*
X14824967Y-10690246D01*
X14829949Y-10687923D01*
X14985975Y-10578672D01*
X15012989Y-10559757D01*
X15012992Y-10559755D01*
X15017500Y-10556598D01*
X15178293Y-10395805D01*
X15240605Y-10361779D01*
X15267388Y-10358900D01*
X18612118Y-10358900D01*
X18680239Y-10378902D01*
X18701213Y-10395805D01*
X19418795Y-11113387D01*
X19452821Y-11175699D01*
X19455700Y-11202482D01*
X19455700Y-12905068D01*
X19435698Y-12973189D01*
X19405353Y-13005828D01*
X19343257Y-13052451D01*
X19325855Y-13065517D01*
X19317065Y-13074715D01*
X19308370Y-13083814D01*
X19246846Y-13119244D01*
X19175933Y-13115787D01*
X19118147Y-13074541D01*
X19099294Y-13040992D01*
X19077968Y-12984105D01*
X19077967Y-12984103D01*
X19074815Y-12975695D01*
X18987461Y-12859139D01*
X18870905Y-12771785D01*
X18734516Y-12720655D01*
X18672334Y-12713900D01*
X16776066Y-12713900D01*
X16713884Y-12720655D01*
X16577495Y-12771785D01*
X16460939Y-12859139D01*
X16373585Y-12975695D01*
X16322455Y-13112084D01*
X16315700Y-13174266D01*
X16315700Y-15070534D01*
X16322455Y-15132716D01*
X16373585Y-15269105D01*
X16429258Y-15343388D01*
X16434464Y-15350335D01*
X16459312Y-15416841D01*
X16444259Y-15486223D01*
X16394085Y-15536454D01*
X16333638Y-15551900D01*
X12184497Y-15551900D01*
X12116376Y-15531898D01*
X12069883Y-15478242D01*
X12059779Y-15407968D01*
X12089273Y-15343388D01*
X12095557Y-15336649D01*
X12169257Y-15263205D01*
X12175930Y-15255365D01*
X12300203Y-15082420D01*
X12305513Y-15073583D01*
X12399870Y-14882667D01*
X12403669Y-14873072D01*
X12465577Y-14669310D01*
X12467755Y-14659237D01*
X12469186Y-14648362D01*
X12466975Y-14634178D01*
X12453817Y-14630400D01*
X11007200Y-14630400D01*
X10939079Y-14610398D01*
X10892586Y-14556742D01*
X10881200Y-14504400D01*
X10881200Y-14104285D01*
X11389200Y-14104285D01*
X11393675Y-14119524D01*
X11395065Y-14120729D01*
X11402748Y-14122400D01*
X12453544Y-14122400D01*
X12467075Y-14118427D01*
X12468380Y-14109347D01*
X12426414Y-13942275D01*
X12423094Y-13932524D01*
X12338172Y-13737214D01*
X12333305Y-13728139D01*
X12217626Y-13549326D01*
X12211336Y-13541157D01*
X12068006Y-13383640D01*
X12060473Y-13376615D01*
X11893339Y-13244622D01*
X11884752Y-13238917D01*
X11698317Y-13135999D01*
X11688905Y-13131769D01*
X11488159Y-13060680D01*
X11478188Y-13058046D01*
X11407037Y-13045372D01*
X11393740Y-13046832D01*
X11389200Y-13061389D01*
X11389200Y-14104285D01*
X10881200Y-14104285D01*
X10881200Y-13059502D01*
X10877282Y-13046158D01*
X10863006Y-13044171D01*
X10824524Y-13050060D01*
X10814488Y-13052451D01*
X10612068Y-13118612D01*
X10602559Y-13122609D01*
X10413663Y-13220942D01*
X10404938Y-13226436D01*
X10234633Y-13354305D01*
X10226926Y-13361148D01*
X10079790Y-13515117D01*
X10073309Y-13523122D01*
X9968698Y-13676474D01*
X9913787Y-13721476D01*
X9843262Y-13729647D01*
X9779515Y-13698393D01*
X9758818Y-13673909D01*
X9678022Y-13549017D01*
X9678020Y-13549014D01*
X9675214Y-13544677D01*
X9524870Y-13379451D01*
X9520819Y-13376252D01*
X9520815Y-13376248D01*
X9353614Y-13244200D01*
X9353610Y-13244198D01*
X9349559Y-13240998D01*
X9335006Y-13232964D01*
X9272445Y-13198429D01*
X9153989Y-13133038D01*
X9149120Y-13131314D01*
X9149116Y-13131312D01*
X8948287Y-13060195D01*
X8948283Y-13060194D01*
X8943412Y-13058469D01*
X8938319Y-13057562D01*
X8938316Y-13057561D01*
X8728573Y-13020200D01*
X8728567Y-13020199D01*
X8723484Y-13019294D01*
X8649652Y-13018392D01*
X8505281Y-13016628D01*
X8505279Y-13016628D01*
X8500111Y-13016565D01*
X8279291Y-13050355D01*
X8066956Y-13119757D01*
X8001846Y-13153651D01*
X7874167Y-13220117D01*
X7868807Y-13222907D01*
X7864674Y-13226010D01*
X7864671Y-13226012D01*
X7694300Y-13353930D01*
X7690165Y-13357035D01*
X7686593Y-13360773D01*
X7578929Y-13473437D01*
X7535829Y-13518538D01*
X7428401Y-13676021D01*
X7373493Y-13721021D01*
X7302968Y-13729192D01*
X7239221Y-13697938D01*
X7218524Y-13673454D01*
X7138022Y-13549017D01*
X7138020Y-13549014D01*
X7135214Y-13544677D01*
X6984870Y-13379451D01*
X6980819Y-13376252D01*
X6980815Y-13376248D01*
X6813614Y-13244200D01*
X6813610Y-13244198D01*
X6809559Y-13240998D01*
X6795006Y-13232964D01*
X6732445Y-13198429D01*
X6613989Y-13133038D01*
X6609120Y-13131314D01*
X6609116Y-13131312D01*
X6408287Y-13060195D01*
X6408283Y-13060194D01*
X6403412Y-13058469D01*
X6398319Y-13057562D01*
X6398316Y-13057561D01*
X6188573Y-13020200D01*
X6188567Y-13020199D01*
X6183484Y-13019294D01*
X6109652Y-13018392D01*
X5965281Y-13016628D01*
X5965279Y-13016628D01*
X5960111Y-13016565D01*
X5739291Y-13050355D01*
X5526956Y-13119757D01*
X5461846Y-13153651D01*
X5334167Y-13220117D01*
X5328807Y-13222907D01*
X5324674Y-13226010D01*
X5324671Y-13226012D01*
X5154300Y-13353930D01*
X5150165Y-13357035D01*
X5082648Y-13427688D01*
X5069483Y-13441464D01*
X5007959Y-13476894D01*
X4937046Y-13473437D01*
X4879260Y-13432191D01*
X4860407Y-13398643D01*
X4818967Y-13288103D01*
X4815815Y-13279695D01*
X4728461Y-13163139D01*
X4611905Y-13075785D01*
X4475516Y-13024655D01*
X4413334Y-13017900D01*
X2915700Y-13017900D01*
X2847579Y-12997898D01*
X2801086Y-12944242D01*
X2789700Y-12891900D01*
X2789700Y-10953482D01*
X2809702Y-10885361D01*
X2826605Y-10864387D01*
X3424656Y-10266336D01*
X3486968Y-10232310D01*
X3557783Y-10237375D01*
X3609562Y-10273600D01*
X3645772Y-10315996D01*
X3688795Y-10366369D01*
X3869348Y-10520576D01*
X3873556Y-10523155D01*
X3873562Y-10523159D01*
X3992746Y-10596195D01*
X4071801Y-10644640D01*
X4076371Y-10646533D01*
X4076375Y-10646535D01*
X4286597Y-10733611D01*
X4291170Y-10735505D01*
X4310814Y-10740221D01*
X4517240Y-10789780D01*
X4517246Y-10789781D01*
X4522053Y-10790935D01*
X4758764Y-10809565D01*
X4995475Y-10790935D01*
X5000282Y-10789781D01*
X5000288Y-10789780D01*
X5206714Y-10740221D01*
X5226358Y-10735505D01*
X5230931Y-10733611D01*
X5441153Y-10646535D01*
X5441157Y-10646533D01*
X5445727Y-10644640D01*
X5524782Y-10596195D01*
X5634320Y-10529070D01*
X8390924Y-10529070D01*
X8396651Y-10536720D01*
X8567806Y-10641605D01*
X8576601Y-10646087D01*
X8786752Y-10733134D01*
X8796137Y-10736183D01*
X9017318Y-10789285D01*
X9027065Y-10790828D01*
X9253834Y-10808675D01*
X9263694Y-10808675D01*
X9490463Y-10790828D01*
X9500210Y-10789285D01*
X9721391Y-10736183D01*
X9730776Y-10733134D01*
X9940927Y-10646087D01*
X9949722Y-10641605D01*
X10117209Y-10538968D01*
X10126671Y-10528510D01*
X10122888Y-10519734D01*
X9271576Y-9668422D01*
X9257632Y-9660808D01*
X9255799Y-9660939D01*
X9249184Y-9665190D01*
X8397684Y-10516690D01*
X8390924Y-10529070D01*
X5634320Y-10529070D01*
X5643966Y-10523159D01*
X5643972Y-10523155D01*
X5648180Y-10520576D01*
X5828733Y-10366369D01*
X5982940Y-10185816D01*
X5985519Y-10181608D01*
X5985523Y-10181602D01*
X6104418Y-9987583D01*
X6107004Y-9983363D01*
X6108993Y-9978563D01*
X6195975Y-9768567D01*
X6195976Y-9768565D01*
X6197869Y-9763994D01*
X6232994Y-9617688D01*
X6252144Y-9537924D01*
X6252145Y-9537918D01*
X6253299Y-9533111D01*
X6271541Y-9301330D01*
X7746489Y-9301330D01*
X7764336Y-9528099D01*
X7765879Y-9537846D01*
X7818981Y-9759027D01*
X7822030Y-9768412D01*
X7909077Y-9978563D01*
X7913559Y-9987358D01*
X8016196Y-10154845D01*
X8026654Y-10164307D01*
X8035430Y-10160524D01*
X8886742Y-9309212D01*
X8893120Y-9297532D01*
X9623172Y-9297532D01*
X9623303Y-9299365D01*
X9627554Y-9305980D01*
X10479054Y-10157480D01*
X10491434Y-10164240D01*
X10499084Y-10158513D01*
X10603969Y-9987358D01*
X10608451Y-9978563D01*
X10695498Y-9768412D01*
X10698547Y-9759027D01*
X10751649Y-9537846D01*
X10753192Y-9528099D01*
X10771039Y-9301330D01*
X10771039Y-9291470D01*
X10753192Y-9064701D01*
X10751649Y-9054954D01*
X10698547Y-8833773D01*
X10695498Y-8824388D01*
X10608451Y-8614237D01*
X10603969Y-8605442D01*
X10501332Y-8437955D01*
X10490874Y-8428493D01*
X10482098Y-8432276D01*
X9630786Y-9283588D01*
X9623172Y-9297532D01*
X8893120Y-9297532D01*
X8894356Y-9295268D01*
X8894225Y-9293435D01*
X8889974Y-9286820D01*
X8038474Y-8435320D01*
X8026094Y-8428560D01*
X8018444Y-8434287D01*
X7913559Y-8605442D01*
X7909077Y-8614237D01*
X7822030Y-8824388D01*
X7818981Y-8833773D01*
X7765879Y-9054954D01*
X7764336Y-9064701D01*
X7746489Y-9291470D01*
X7746489Y-9301330D01*
X6271541Y-9301330D01*
X6271929Y-9296400D01*
X6253299Y-9059689D01*
X6249074Y-9042087D01*
X6213437Y-8893651D01*
X6197869Y-8828806D01*
X6187853Y-8804625D01*
X6108899Y-8614011D01*
X6108897Y-8614007D01*
X6107004Y-8609437D01*
X6067028Y-8544202D01*
X5985523Y-8411198D01*
X5985519Y-8411192D01*
X5982940Y-8406984D01*
X5828733Y-8226431D01*
X5813139Y-8213112D01*
X5787457Y-8191178D01*
X5648180Y-8072224D01*
X5643972Y-8069645D01*
X5643966Y-8069641D01*
X5635234Y-8064290D01*
X8390857Y-8064290D01*
X8394640Y-8073066D01*
X9245952Y-8924378D01*
X9259896Y-8931992D01*
X9261729Y-8931861D01*
X9268344Y-8927610D01*
X10119844Y-8076110D01*
X10126604Y-8063730D01*
X10120877Y-8056080D01*
X9949722Y-7951195D01*
X9940927Y-7946713D01*
X9730776Y-7859666D01*
X9721391Y-7856617D01*
X9500210Y-7803515D01*
X9490463Y-7801972D01*
X9263694Y-7784125D01*
X9253834Y-7784125D01*
X9027065Y-7801972D01*
X9017318Y-7803515D01*
X8796137Y-7856617D01*
X8786752Y-7859666D01*
X8576601Y-7946713D01*
X8567806Y-7951195D01*
X8400319Y-8053832D01*
X8390857Y-8064290D01*
X5635234Y-8064290D01*
X5449947Y-7950746D01*
X5445727Y-7948160D01*
X5441157Y-7946267D01*
X5441153Y-7946265D01*
X5230931Y-7859189D01*
X5230929Y-7859188D01*
X5226358Y-7857295D01*
X5146155Y-7838040D01*
X5000288Y-7803020D01*
X5000282Y-7803019D01*
X4995475Y-7801865D01*
X4758764Y-7783235D01*
X4522053Y-7801865D01*
X4517246Y-7803019D01*
X4517240Y-7803020D01*
X4371373Y-7838040D01*
X4291170Y-7857295D01*
X4286599Y-7859188D01*
X4286597Y-7859189D01*
X4076375Y-7946265D01*
X4076371Y-7946267D01*
X4071801Y-7948160D01*
X4067581Y-7950746D01*
X3873562Y-8069641D01*
X3873556Y-8069645D01*
X3869348Y-8072224D01*
X3730071Y-8191178D01*
X3704390Y-8213112D01*
X3688795Y-8226431D01*
X3685587Y-8230187D01*
X3537905Y-8403100D01*
X3534588Y-8406984D01*
X3521871Y-8427736D01*
X3469226Y-8475366D01*
X3414440Y-8487900D01*
X3260365Y-8487900D01*
X3259046Y-8487893D01*
X3168979Y-8486950D01*
X3162101Y-8488437D01*
X3162091Y-8488438D01*
X3126613Y-8496109D01*
X3114038Y-8498169D01*
X3070945Y-8503003D01*
X3039274Y-8514032D01*
X3024465Y-8518195D01*
X2998571Y-8523793D01*
X2998568Y-8523794D01*
X2991690Y-8525281D01*
X2952387Y-8543608D01*
X2940611Y-8548390D01*
X2899648Y-8562655D01*
X2893673Y-8566389D01*
X2893670Y-8566390D01*
X2871205Y-8580427D01*
X2857688Y-8587766D01*
X2833681Y-8598961D01*
X2833677Y-8598963D01*
X2827298Y-8601938D01*
X2799384Y-8623590D01*
X2793044Y-8628508D01*
X2782595Y-8635797D01*
X2745824Y-8658774D01*
X2740825Y-8663739D01*
X2740823Y-8663740D01*
X2717015Y-8687383D01*
X2716392Y-8687966D01*
X2715730Y-8688479D01*
X2689881Y-8714328D01*
X2632747Y-8771065D01*
X2617118Y-8786585D01*
X2616459Y-8787623D01*
X2615353Y-8788856D01*
X1536795Y-9867413D01*
X1474483Y-9901439D01*
X1403667Y-9896374D01*
X1346832Y-9853827D01*
X1322021Y-9787307D01*
X1321700Y-9778318D01*
X1321700Y-9687266D01*
X1314945Y-9625084D01*
X1303528Y-9594629D01*
X1298345Y-9523823D01*
X1303526Y-9506176D01*
X1314945Y-9475716D01*
X1321700Y-9413534D01*
X1321700Y-8417266D01*
X1314945Y-8355084D01*
X1303528Y-8324629D01*
X1298345Y-8253823D01*
X1303526Y-8236176D01*
X1314945Y-8205716D01*
X1321700Y-8143534D01*
X1321700Y-7147266D01*
X1314945Y-7085084D01*
X1303528Y-7054629D01*
X1298345Y-6983823D01*
X1303526Y-6966176D01*
X1314945Y-6935716D01*
X1321700Y-6873534D01*
X1321700Y-6416323D01*
X1341702Y-6348202D01*
X1395358Y-6301709D01*
X1465632Y-6291605D01*
X1472451Y-6292880D01*
X1473815Y-6293038D01*
X1480685Y-6294624D01*
X1487731Y-6294649D01*
X1487734Y-6294649D01*
X1521256Y-6294766D01*
X1522138Y-6294795D01*
X1522969Y-6294900D01*
X1559619Y-6294900D01*
X1560059Y-6294901D01*
X1658543Y-6295245D01*
X1658548Y-6295245D01*
X1662070Y-6295257D01*
X1663270Y-6294989D01*
X1664907Y-6294900D01*
X18787909Y-6294900D01*
X18856030Y-6314902D01*
X18902523Y-6368558D01*
X18913172Y-6407292D01*
X18917455Y-6446716D01*
X18968585Y-6583105D01*
X19055939Y-6699661D01*
X19172495Y-6787015D01*
X19308884Y-6838145D01*
X19371066Y-6844900D01*
X21167334Y-6844900D01*
X21229516Y-6838145D01*
X21365905Y-6787015D01*
X21482461Y-6699661D01*
X21569815Y-6583105D01*
X21620945Y-6446716D01*
X21627700Y-6384534D01*
X21627700Y-5323482D01*
X21647702Y-5255361D01*
X21664605Y-5234387D01*
X23184358Y-3714634D01*
X23185295Y-3713706D01*
X23244675Y-3655557D01*
X23244676Y-3655556D01*
X23249707Y-3650629D01*
X23273198Y-3614179D01*
X23280617Y-3603854D01*
X23307676Y-3569957D01*
X23322273Y-3539762D01*
X23329802Y-3526345D01*
X23344148Y-3504084D01*
X23347965Y-3498162D01*
X23350373Y-3491545D01*
X23350376Y-3491540D01*
X23362792Y-3457427D01*
X23367753Y-3445684D01*
X23383553Y-3413000D01*
X23383556Y-3412991D01*
X23386621Y-3406651D01*
X23394166Y-3373972D01*
X23398534Y-3359225D01*
X23399523Y-3356508D01*
X23410003Y-3327715D01*
X23410885Y-3320730D01*
X23410887Y-3320723D01*
X23415437Y-3284708D01*
X23417672Y-3272157D01*
X23418704Y-3267688D01*
X23427425Y-3229915D01*
X23427457Y-3220998D01*
X23427567Y-3189328D01*
X23427596Y-3188458D01*
X23427700Y-3187631D01*
X23427700Y-3150990D01*
X23427788Y-3125716D01*
X23428045Y-3052057D01*
X23428045Y-3052052D01*
X23428057Y-3048530D01*
X23427789Y-3047330D01*
X23427700Y-3045692D01*
X23427700Y7902436D01*
X23427707Y7903755D01*
X23428576Y7986774D01*
X23428650Y7993821D01*
X23419490Y8036186D01*
X23417430Y8048765D01*
X23413382Y8084859D01*
X23413381Y8084862D01*
X23412597Y8091855D01*
X23401566Y8123532D01*
X23397404Y8138342D01*
X23391809Y8164222D01*
X23391808Y8164226D01*
X23390319Y8171111D01*
X23387342Y8177495D01*
X23387340Y8177501D01*
X23371996Y8210407D01*
X23367200Y8222217D01*
X23357420Y8250301D01*
X23352945Y8263152D01*
X23349213Y8269124D01*
X23349210Y8269131D01*
X23335173Y8291595D01*
X23327834Y8305112D01*
X23316639Y8329119D01*
X23316637Y8329123D01*
X23313662Y8335502D01*
X23287092Y8369756D01*
X23279798Y8380212D01*
X23256826Y8416976D01*
X23228217Y8445785D01*
X23227634Y8446408D01*
X23227121Y8447070D01*
X23201273Y8472918D01*
X23176186Y8498181D01*
X23131504Y8543176D01*
X23131500Y8543180D01*
X23129015Y8545682D01*
X23127977Y8546341D01*
X23126744Y8547447D01*
X21664605Y10009587D01*
X21630579Y10071899D01*
X21627700Y10098682D01*
X21627700Y10656734D01*
X21620945Y10718916D01*
X21569815Y10855305D01*
X21482461Y10971861D01*
X21365905Y11059215D01*
X21326792Y11073878D01*
X21247403Y11103640D01*
X21190639Y11146282D01*
X21165939Y11212844D01*
X21181147Y11282192D01*
X21202693Y11310873D01*
X21303635Y11411463D01*
X21307296Y11415111D01*
X21334577Y11453076D01*
X21434635Y11592323D01*
X21437653Y11596523D01*
X21446440Y11614301D01*
X21534336Y11792147D01*
X21534337Y11792149D01*
X21536630Y11796789D01*
X21585589Y11957931D01*
X21600065Y12005577D01*
X21600065Y12005579D01*
X21601570Y12010531D01*
X21630729Y12232010D01*
X21631243Y12253041D01*
X21632274Y12295235D01*
X21632274Y12295239D01*
X21632356Y12298600D01*
X21614052Y12521239D01*
X21559631Y12737898D01*
X21470554Y12942760D01*
X21397927Y13055024D01*
X21352022Y13125983D01*
X21352020Y13125986D01*
X21349214Y13130323D01*
X21198870Y13295549D01*
X21194819Y13298748D01*
X21194815Y13298752D01*
X21027614Y13430800D01*
X21027610Y13430802D01*
X21023559Y13434002D01*
X20981769Y13457071D01*
X20931798Y13507503D01*
X20917026Y13576946D01*
X20942142Y13643352D01*
X20969494Y13669959D01*
X21144528Y13794808D01*
X21152400Y13801461D01*
X21303252Y13951788D01*
X21309930Y13959635D01*
X21434203Y14132580D01*
X21439513Y14141417D01*
X21533870Y14332333D01*
X21537669Y14341928D01*
X21599577Y14545690D01*
X21601755Y14555763D01*
X21603186Y14566638D01*
X21600975Y14580822D01*
X21587817Y14584600D01*
X18952425Y14584600D01*
X18938894Y14580627D01*
X18937457Y14570634D01*
X18967765Y14436154D01*
X18970845Y14426325D01*
X19050970Y14228997D01*
X19055613Y14219806D01*
X19166894Y14038212D01*
X19172977Y14029901D01*
X19312413Y13868933D01*
X19319780Y13861717D01*
X19483634Y13725684D01*
X19492081Y13719769D01*
X19561169Y13679397D01*
X19609893Y13627758D01*
X19622964Y13557975D01*
X19596233Y13492204D01*
X19555784Y13458848D01*
X19542807Y13452093D01*
X19538674Y13448990D01*
X19538671Y13448988D01*
X19368300Y13321070D01*
X19364165Y13317965D01*
X19209829Y13156462D01*
X19207832Y13153535D01*
X19149803Y13113452D01*
X19110302Y13107100D01*
X18298105Y13107100D01*
X18283186Y13107986D01*
X18279526Y13108422D01*
X18247880Y13112196D01*
X18240877Y13111460D01*
X18240876Y13111460D01*
X18205960Y13107790D01*
X18192789Y13107100D01*
X7257264Y13107100D01*
X7255945Y13107107D01*
X7165878Y13108050D01*
X7159000Y13106563D01*
X7158990Y13106562D01*
X7123512Y13098891D01*
X7110937Y13096831D01*
X7067844Y13091997D01*
X7036173Y13080968D01*
X7021364Y13076805D01*
X6995470Y13071207D01*
X6995467Y13071206D01*
X6988589Y13069719D01*
X6949286Y13051392D01*
X6937510Y13046610D01*
X6896547Y13032345D01*
X6890572Y13028611D01*
X6890569Y13028610D01*
X6868104Y13014573D01*
X6854587Y13007234D01*
X6830585Y12996041D01*
X6824197Y12993062D01*
X6818632Y12988745D01*
X6818630Y12988744D01*
X6789946Y12966494D01*
X6779487Y12959198D01*
X6748695Y12939958D01*
X6748692Y12939956D01*
X6742723Y12936226D01*
X6737728Y12931266D01*
X6737727Y12931265D01*
X6713920Y12907624D01*
X6713295Y12907039D01*
X6712629Y12906522D01*
X6686639Y12880532D01*
X6614017Y12808415D01*
X6613359Y12807378D01*
X6612256Y12806149D01*
X5371093Y11564986D01*
X5308781Y11530960D01*
X5237966Y11536025D01*
X5181130Y11578572D01*
X5167803Y11600831D01*
X5133049Y11675362D01*
X5133046Y11675367D01*
X5130723Y11680349D01*
X5046923Y11800028D01*
X5002557Y11863389D01*
X5002555Y11863392D01*
X4999398Y11867900D01*
X4837500Y12029798D01*
X4832992Y12032955D01*
X4832989Y12032957D01*
X4689107Y12133704D01*
X4649949Y12161123D01*
X4644967Y12163446D01*
X4644962Y12163449D01*
X4447425Y12255561D01*
X4447424Y12255561D01*
X4442443Y12257884D01*
X4437135Y12259306D01*
X4437133Y12259307D01*
X4226602Y12315719D01*
X4226600Y12315719D01*
X4221287Y12317143D01*
X3993200Y12337098D01*
X3765113Y12317143D01*
X3759800Y12315719D01*
X3759798Y12315719D01*
X3549267Y12259307D01*
X3549265Y12259306D01*
X3543957Y12257884D01*
X3538976Y12255561D01*
X3538975Y12255561D01*
X3341438Y12163449D01*
X3341433Y12163446D01*
X3336451Y12161123D01*
X3297293Y12133704D01*
X3153411Y12032957D01*
X3153408Y12032955D01*
X3148900Y12029798D01*
X2987002Y11867900D01*
X2983845Y11863392D01*
X2983843Y11863389D01*
X2939477Y11800028D01*
X2855677Y11680349D01*
X2853354Y11675367D01*
X2853351Y11675362D01*
X2761239Y11477825D01*
X2758916Y11472843D01*
X2757494Y11467535D01*
X2757493Y11467533D01*
X2701195Y11257427D01*
X2699657Y11251687D01*
X2679702Y11023600D01*
X2699657Y10795513D01*
X2701081Y10790200D01*
X2701081Y10790198D01*
X2737759Y10653317D01*
X2758916Y10574357D01*
X2761239Y10569376D01*
X2761239Y10569375D01*
X2853351Y10371838D01*
X2853354Y10371833D01*
X2855677Y10366851D01*
X2987002Y10179300D01*
X3148900Y10017402D01*
X3153408Y10014245D01*
X3153411Y10014243D01*
X3225293Y9963911D01*
X3336451Y9886077D01*
X3341433Y9883754D01*
X3341438Y9883751D01*
X3415969Y9848997D01*
X3469254Y9802080D01*
X3488715Y9733802D01*
X3468173Y9665842D01*
X3451814Y9645707D01*
X-2583205Y3610688D01*
X-2645517Y3576662D01*
X-2716332Y3581727D01*
X-2773168Y3624274D01*
X-2797979Y3690794D01*
X-2798300Y3699783D01*
X-2798300Y8096518D01*
X-2778298Y8164639D01*
X-2761395Y8185613D01*
X4311187Y15258195D01*
X4373499Y15292221D01*
X4400282Y15295100D01*
X16444986Y15295100D01*
X16446306Y15295093D01*
X16536421Y15294149D01*
X16578797Y15303311D01*
X16591363Y15305369D01*
X16634455Y15310203D01*
X16641106Y15312519D01*
X16641110Y15312520D01*
X16666130Y15321233D01*
X16680942Y15325396D01*
X16706819Y15330991D01*
X16713710Y15332481D01*
X16753013Y15350808D01*
X16764789Y15355590D01*
X16805752Y15369855D01*
X16811727Y15373589D01*
X16811730Y15373590D01*
X16834195Y15387627D01*
X16847712Y15394966D01*
X16871714Y15406159D01*
X16871715Y15406160D01*
X16878102Y15409138D01*
X16912353Y15435706D01*
X16922812Y15443002D01*
X16953604Y15462242D01*
X16953607Y15462244D01*
X16959576Y15465974D01*
X16971471Y15477786D01*
X16988379Y15494576D01*
X16989004Y15495161D01*
X16989670Y15495678D01*
X17015660Y15521668D01*
X17088282Y15593785D01*
X17088940Y15594822D01*
X17090043Y15596051D01*
X18714098Y17220106D01*
X18776410Y17254132D01*
X18847225Y17249067D01*
X18904061Y17206520D01*
X18926110Y17158713D01*
X18968422Y16970961D01*
X19052466Y16763984D01*
X19169187Y16573512D01*
X19315450Y16404662D01*
X19487326Y16261968D01*
X19561155Y16218826D01*
X19609879Y16167188D01*
X19622950Y16097405D01*
X19596219Y16031633D01*
X19555762Y15998273D01*
X19547657Y15994054D01*
X19538938Y15988564D01*
X19368633Y15860695D01*
X19360926Y15853852D01*
X19213790Y15699883D01*
X19207304Y15691873D01*
X19087298Y15515951D01*
X19082200Y15506977D01*
X18992538Y15313817D01*
X18988975Y15304130D01*
X18933589Y15104417D01*
X18935112Y15095993D01*
X18947492Y15092600D01*
X21587544Y15092600D01*
X21601075Y15096573D01*
X21602380Y15105653D01*
X21560414Y15272725D01*
X21557094Y15282476D01*
X21472172Y15477786D01*
X21467305Y15486861D01*
X21351626Y15665674D01*
X21345336Y15673843D01*
X21202006Y15831360D01*
X21194473Y15838385D01*
X21027339Y15970378D01*
X21018756Y15976080D01*
X20981802Y15996480D01*
X20931831Y16046913D01*
X20917059Y16116355D01*
X20942175Y16182761D01*
X20969527Y16209368D01*
X20992997Y16226109D01*
X21149060Y16337427D01*
X21307296Y16495111D01*
X21326583Y16521951D01*
X21434635Y16672323D01*
X21437653Y16676523D01*
X21480985Y16764198D01*
X21534336Y16872147D01*
X21534337Y16872149D01*
X21536630Y16876789D01*
X21601570Y17090531D01*
X21630729Y17312010D01*
X21632356Y17378600D01*
X21614052Y17601239D01*
X21559631Y17817898D01*
X21470554Y18022760D01*
X21411864Y18113481D01*
X21352022Y18205983D01*
X21352020Y18205986D01*
X21349214Y18210323D01*
X21198870Y18375549D01*
X21194819Y18378748D01*
X21194815Y18378752D01*
X21027614Y18510800D01*
X21027610Y18510802D01*
X21023559Y18514002D01*
X20982253Y18536804D01*
X20932284Y18587236D01*
X20917512Y18656679D01*
X20942628Y18723084D01*
X20969980Y18749691D01*
X21013803Y18780950D01*
X21149060Y18877427D01*
X21307296Y19035111D01*
X21437653Y19216523D01*
X21470377Y19282734D01*
X21534336Y19412147D01*
X21534337Y19412149D01*
X21536630Y19416789D01*
X21601570Y19630531D01*
X21630729Y19852010D01*
X21630920Y19859825D01*
X21632274Y19915235D01*
X21632274Y19915239D01*
X21632356Y19918600D01*
X21614052Y20141239D01*
X21559631Y20357898D01*
X21470554Y20562760D01*
X21408962Y20657967D01*
X21352022Y20745983D01*
X21352020Y20745986D01*
X21349214Y20750323D01*
X21198870Y20915549D01*
X21194819Y20918748D01*
X21194815Y20918752D01*
X21027614Y21050800D01*
X21027610Y21050802D01*
X21023559Y21054002D01*
X20827989Y21161962D01*
X20823120Y21163686D01*
X20823116Y21163688D01*
X20622287Y21234805D01*
X20622283Y21234806D01*
X20617412Y21236531D01*
X20612319Y21237438D01*
X20612316Y21237439D01*
X20402573Y21274800D01*
X20402567Y21274801D01*
X20397484Y21275706D01*
X20323652Y21276608D01*
X20179281Y21278372D01*
X20179279Y21278372D01*
X20174111Y21278435D01*
X19953291Y21244645D01*
X19740956Y21175243D01*
X19542807Y21072093D01*
X19538674Y21068990D01*
X19538671Y21068988D01*
X19514447Y21050800D01*
X19364165Y20937965D01*
X19209829Y20776462D01*
X19206915Y20772190D01*
X19206914Y20772189D01*
X19156948Y20698942D01*
X19083943Y20591920D01*
X19068203Y20558010D01*
X18998525Y20407901D01*
X18989888Y20389295D01*
X18930189Y20174030D01*
X18906451Y19951905D01*
X18906748Y19946752D01*
X18906748Y19946749D01*
X18916973Y19769417D01*
X18900925Y19700258D01*
X18880277Y19673069D01*
X16156213Y16949005D01*
X16093901Y16914979D01*
X16067118Y16912100D01*
X4022365Y16912100D01*
X4021046Y16912107D01*
X3930979Y16913050D01*
X3924093Y16911561D01*
X3924091Y16911561D01*
X3905513Y16907544D01*
X3888614Y16903890D01*
X3876035Y16901830D01*
X3839941Y16897782D01*
X3839938Y16897781D01*
X3832945Y16896997D01*
X3801268Y16885966D01*
X3786458Y16881804D01*
X3760578Y16876209D01*
X3760574Y16876208D01*
X3753689Y16874719D01*
X3747305Y16871742D01*
X3747299Y16871740D01*
X3714393Y16856396D01*
X3702584Y16851601D01*
X3661648Y16837345D01*
X3655676Y16833613D01*
X3655669Y16833610D01*
X3633205Y16819573D01*
X3619688Y16812234D01*
X3595681Y16801039D01*
X3595677Y16801037D01*
X3589298Y16798062D01*
X3561384Y16776410D01*
X3555044Y16771492D01*
X3544595Y16764203D01*
X3507824Y16741226D01*
X3502825Y16736261D01*
X3502823Y16736260D01*
X3479015Y16712617D01*
X3478392Y16712034D01*
X3477730Y16711521D01*
X3451883Y16685674D01*
X3438439Y16672323D01*
X3379118Y16613415D01*
X3378459Y16612377D01*
X3377353Y16611144D01*
X-4171958Y9061834D01*
X-4172895Y9060906D01*
X-4237307Y8997829D01*
X-4260798Y8961379D01*
X-4268217Y8951054D01*
X-4295276Y8917157D01*
X-4298341Y8910816D01*
X-4298342Y8910815D01*
X-4309872Y8886963D01*
X-4317401Y8873546D01*
X-4335565Y8845362D01*
X-4337973Y8838745D01*
X-4337976Y8838740D01*
X-4350392Y8804627D01*
X-4355353Y8792884D01*
X-4371154Y8760197D01*
X-4371156Y8760192D01*
X-4374221Y8753851D01*
X-4375804Y8746993D01*
X-4375805Y8746991D01*
X-4381765Y8721174D01*
X-4386132Y8706431D01*
X-4397603Y8674915D01*
X-4398486Y8667925D01*
X-4398488Y8667917D01*
X-4403038Y8631899D01*
X-4405274Y8619347D01*
X-4409420Y8601386D01*
X-4415024Y8577115D01*
X-4415049Y8570069D01*
X-4415049Y8570066D01*
X-4415166Y8536544D01*
X-4415195Y8535662D01*
X-4415300Y8534831D01*
X-4415300Y8498181D01*
X-4415301Y8497741D01*
X-4415640Y8400469D01*
X-4415657Y8395730D01*
X-4415389Y8394530D01*
X-4415300Y8392893D01*
X-4415300Y-5223186D01*
X-4415307Y-5224506D01*
X-4416251Y-5314621D01*
X-4407089Y-5356997D01*
X-4405031Y-5369563D01*
X-4400197Y-5412655D01*
X-4397881Y-5419306D01*
X-4397880Y-5419310D01*
X-4389167Y-5444330D01*
X-4385004Y-5459142D01*
X-4377919Y-5491910D01*
X-4359592Y-5531213D01*
X-4354810Y-5542989D01*
X-4340545Y-5583952D01*
X-4336811Y-5589927D01*
X-4336810Y-5589930D01*
X-4322773Y-5612395D01*
X-4315434Y-5625912D01*
X-4304241Y-5649914D01*
X-4301262Y-5656302D01*
X-4296945Y-5661867D01*
X-4296944Y-5661869D01*
X-4274694Y-5690553D01*
X-4267398Y-5701012D01*
X-4244426Y-5737776D01*
X-4239466Y-5742771D01*
X-4239465Y-5742772D01*
X-4215824Y-5766579D01*
X-4215239Y-5767204D01*
X-4214722Y-5767870D01*
X-4188732Y-5793860D01*
X-4116615Y-5866482D01*
X-4115578Y-5867140D01*
X-4114349Y-5868243D01*
X-1772034Y-8210558D01*
X-1771106Y-8211495D01*
X-1718639Y-8265072D01*
X-1708029Y-8275907D01*
X-1671579Y-8299398D01*
X-1661254Y-8306817D01*
X-1627357Y-8333876D01*
X-1621016Y-8336941D01*
X-1621015Y-8336942D01*
X-1597163Y-8348472D01*
X-1583746Y-8356001D01*
X-1555562Y-8374165D01*
X-1548945Y-8376573D01*
X-1548940Y-8376576D01*
X-1514827Y-8388992D01*
X-1503084Y-8393953D01*
X-1470397Y-8409754D01*
X-1470392Y-8409756D01*
X-1464051Y-8412821D01*
X-1457193Y-8414404D01*
X-1457191Y-8414405D01*
X-1431374Y-8420365D01*
X-1416631Y-8424732D01*
X-1385115Y-8436203D01*
X-1378125Y-8437086D01*
X-1378117Y-8437088D01*
X-1342099Y-8441638D01*
X-1329546Y-8443874D01*
X-1292955Y-8452322D01*
X-1231080Y-8487135D01*
X-1197849Y-8549875D01*
X-1195300Y-8575092D01*
X-1195300Y-9413534D01*
X-1188545Y-9475716D01*
X-1177128Y-9506171D01*
X-1171945Y-9576977D01*
X-1177126Y-9594624D01*
X-1188545Y-9625084D01*
X-1195300Y-9687266D01*
X-1195300Y-10578672D01*
X-1215302Y-10646793D01*
X-1268958Y-10693286D01*
X-1339232Y-10703390D01*
X-1347497Y-10701918D01*
X-1472847Y-10675273D01*
X-1472860Y-10675272D01*
X-1479313Y-10673900D01*
X-1670287Y-10673900D01*
X-1676739Y-10675272D01*
X-1676744Y-10675272D01*
X-1763687Y-10693753D01*
X-1857088Y-10713606D01*
X-1863118Y-10716291D01*
X-1863119Y-10716291D01*
X-2025522Y-10788597D01*
X-2025524Y-10788598D01*
X-2031552Y-10791282D01*
X-2036893Y-10795162D01*
X-2036894Y-10795163D01*
X-2076467Y-10823915D01*
X-2186053Y-10903534D01*
X-2190474Y-10908444D01*
X-2190475Y-10908445D01*
X-2234433Y-10957266D01*
X-2313840Y-11045456D01*
X-2317141Y-11051174D01*
X-2405624Y-11204431D01*
X-2409327Y-11210844D01*
X-2468342Y-11392472D01*
X-2469032Y-11399033D01*
X-2469032Y-11399035D01*
X-2473871Y-11445076D01*
X-2488304Y-11582400D01*
X-2487614Y-11588965D01*
X-2471407Y-11743163D01*
X-2468342Y-11772328D01*
X-2409327Y-11953956D01*
X-2313840Y-12119344D01*
X-2301462Y-12133091D01*
X-2270746Y-12197097D01*
X-2279510Y-12267550D01*
X-2301461Y-12301707D01*
X-2313840Y-12315456D01*
X-2409327Y-12480844D01*
X-2468342Y-12662472D01*
X-2469032Y-12669033D01*
X-2469032Y-12669035D01*
X-2471489Y-12692413D01*
X-2488304Y-12852400D01*
X-2487614Y-12858965D01*
X-2470199Y-13024655D01*
X-2468342Y-13042328D01*
X-2409327Y-13223956D01*
X-2406024Y-13229678D01*
X-2406023Y-13229679D01*
X-2373670Y-13285716D01*
X-2313840Y-13389344D01*
X-2309422Y-13394251D01*
X-2309421Y-13394252D01*
X-2193386Y-13523122D01*
X-2186053Y-13531266D01*
X-2031552Y-13643518D01*
X-2025524Y-13646202D01*
X-2025522Y-13646203D01*
X-1897773Y-13703080D01*
X-1857088Y-13721194D01*
X-1781720Y-13737214D01*
X-1676744Y-13759528D01*
X-1676739Y-13759528D01*
X-1670287Y-13760900D01*
X-1479313Y-13760900D01*
X-1472860Y-13759528D01*
X-1472847Y-13759527D01*
X-1347497Y-13732882D01*
X-1276707Y-13738283D01*
X-1220074Y-13781100D01*
X-1195580Y-13847737D01*
X-1195300Y-13856128D01*
X-1195300Y-14493534D01*
X-1188545Y-14555716D01*
X-1177128Y-14586171D01*
X-1171945Y-14656977D01*
X-1177126Y-14674624D01*
X-1188545Y-14705084D01*
X-1195300Y-14767266D01*
X-1195300Y-15425900D01*
X-1215302Y-15494021D01*
X-1268958Y-15540514D01*
X-1321300Y-15551900D01*
X-1913302Y-15551900D01*
X-1981423Y-15531898D01*
X-2027916Y-15478242D01*
X-2031284Y-15470130D01*
X-2068033Y-15372103D01*
X-2071185Y-15363695D01*
X-2158539Y-15247139D01*
X-2275095Y-15159785D01*
X-2411484Y-15108655D01*
X-2473666Y-15101900D01*
X-3469934Y-15101900D01*
X-3532116Y-15108655D01*
X-3562571Y-15120072D01*
X-3633377Y-15125255D01*
X-3651024Y-15120074D01*
X-3681484Y-15108655D01*
X-3743666Y-15101900D01*
X-4739934Y-15101900D01*
X-4802116Y-15108655D01*
X-4832571Y-15120072D01*
X-4903377Y-15125255D01*
X-4921024Y-15120074D01*
X-4951484Y-15108655D01*
X-5013666Y-15101900D01*
X-6009934Y-15101900D01*
X-6072116Y-15108655D01*
X-6102571Y-15120072D01*
X-6173377Y-15125255D01*
X-6191024Y-15120074D01*
X-6221484Y-15108655D01*
X-6283666Y-15101900D01*
X-7279934Y-15101900D01*
X-7342116Y-15108655D01*
X-7372571Y-15120072D01*
X-7443377Y-15125255D01*
X-7461024Y-15120074D01*
X-7491484Y-15108655D01*
X-7553666Y-15101900D01*
X-8549934Y-15101900D01*
X-8612116Y-15108655D01*
X-8642571Y-15120072D01*
X-8713377Y-15125255D01*
X-8731024Y-15120074D01*
X-8761484Y-15108655D01*
X-8823666Y-15101900D01*
X-9819934Y-15101900D01*
X-9882116Y-15108655D01*
X-9912571Y-15120072D01*
X-9983377Y-15125255D01*
X-10001024Y-15120074D01*
X-10031484Y-15108655D01*
X-10093666Y-15101900D01*
X-11089934Y-15101900D01*
X-11152116Y-15108655D01*
X-11182571Y-15120072D01*
X-11253377Y-15125255D01*
X-11271024Y-15120074D01*
X-11301484Y-15108655D01*
X-11363666Y-15101900D01*
X-12197300Y-15101900D01*
X-12265421Y-15081898D01*
X-12311914Y-15028242D01*
X-12323300Y-14975900D01*
X-12323300Y-8848361D01*
X-12303298Y-8780240D01*
X-12249642Y-8733747D01*
X-12183691Y-8723098D01*
X-12138283Y-8728031D01*
X-12131472Y-8728400D01*
X-10458915Y-8728400D01*
X-10443676Y-8723925D01*
X-10442471Y-8722535D01*
X-10440800Y-8714852D01*
X-10440800Y-8710284D01*
X-9932800Y-8710284D01*
X-9928325Y-8725523D01*
X-9926935Y-8726728D01*
X-9919252Y-8728399D01*
X-8242131Y-8728399D01*
X-8235310Y-8728029D01*
X-8184448Y-8722505D01*
X-8169196Y-8718879D01*
X-8048746Y-8673724D01*
X-8033151Y-8665186D01*
X-7931076Y-8588685D01*
X-7918515Y-8576124D01*
X-7842014Y-8474049D01*
X-7833476Y-8458454D01*
X-7788322Y-8338006D01*
X-7784695Y-8322751D01*
X-7779169Y-8271886D01*
X-7778800Y-8265072D01*
X-7778800Y-6592515D01*
X-7783275Y-6577276D01*
X-7784665Y-6576071D01*
X-7792348Y-6574400D01*
X-8514685Y-6574400D01*
X-8529924Y-6578875D01*
X-8531129Y-6580265D01*
X-8532800Y-6587948D01*
X-8532800Y-7848400D01*
X-8552802Y-7916521D01*
X-8606458Y-7963014D01*
X-8658800Y-7974400D01*
X-9914685Y-7974400D01*
X-9929924Y-7978875D01*
X-9931129Y-7980265D01*
X-9932800Y-7987948D01*
X-9932800Y-8710284D01*
X-10440800Y-8710284D01*
X-10440800Y-7992515D01*
X-10445275Y-7977276D01*
X-10446665Y-7976071D01*
X-10454348Y-7974400D01*
X-11714800Y-7974400D01*
X-11782921Y-7954398D01*
X-11829414Y-7900742D01*
X-11840800Y-7848400D01*
X-11840800Y-7463677D01*
X-10966287Y-7463677D01*
X-10958986Y-7466400D01*
X-10458915Y-7466400D01*
X-10443676Y-7461925D01*
X-10442471Y-7460535D01*
X-10440800Y-7452852D01*
X-10440800Y-7448285D01*
X-9932800Y-7448285D01*
X-9928325Y-7463524D01*
X-9926935Y-7464729D01*
X-9919252Y-7466400D01*
X-9418125Y-7466400D01*
X-9407100Y-7463163D01*
X-9410338Y-7456072D01*
X-9919988Y-6946422D01*
X-9930077Y-6940913D01*
X-9932800Y-6948214D01*
X-9932800Y-7448285D01*
X-10440800Y-7448285D01*
X-10440800Y-6951725D01*
X-10444037Y-6940700D01*
X-10451128Y-6943938D01*
X-10960778Y-7453588D01*
X-10966287Y-7463677D01*
X-11840800Y-7463677D01*
X-11840800Y-7089075D01*
X-11332800Y-7089075D01*
X-11329563Y-7100100D01*
X-11322472Y-7096862D01*
X-10812822Y-6587212D01*
X-10807594Y-6577637D01*
X-9566500Y-6577637D01*
X-9563262Y-6584728D01*
X-9053612Y-7094378D01*
X-9043523Y-7099887D01*
X-9040800Y-7092586D01*
X-9040800Y-6592515D01*
X-9045275Y-6577276D01*
X-9046665Y-6576071D01*
X-9054348Y-6574400D01*
X-9555475Y-6574400D01*
X-9566500Y-6577637D01*
X-10807594Y-6577637D01*
X-10807313Y-6577123D01*
X-10814614Y-6574400D01*
X-11314685Y-6574400D01*
X-11329924Y-6578875D01*
X-11331129Y-6580265D01*
X-11332800Y-6587948D01*
X-11332800Y-7089075D01*
X-11840800Y-7089075D01*
X-11840800Y-6592515D01*
X-11845275Y-6577276D01*
X-11846665Y-6576071D01*
X-11854348Y-6574400D01*
X-12197300Y-6574400D01*
X-12265421Y-6554398D01*
X-12311914Y-6500742D01*
X-12323300Y-6448400D01*
X-12323300Y-6192400D01*
X-12303298Y-6124279D01*
X-12249642Y-6077786D01*
X-12197300Y-6066400D01*
X-11858915Y-6066400D01*
X-11843676Y-6061925D01*
X-11842471Y-6060535D01*
X-11840800Y-6052852D01*
X-11840800Y-6048285D01*
X-11332800Y-6048285D01*
X-11328325Y-6063524D01*
X-11326935Y-6064729D01*
X-11319252Y-6066400D01*
X-10818125Y-6066400D01*
X-10808851Y-6063677D01*
X-9566287Y-6063677D01*
X-9558986Y-6066400D01*
X-9058915Y-6066400D01*
X-9043676Y-6061925D01*
X-9042471Y-6060535D01*
X-9040800Y-6052852D01*
X-9040800Y-5551725D01*
X-9044037Y-5540700D01*
X-9051128Y-5543938D01*
X-9560778Y-6053588D01*
X-9566287Y-6063677D01*
X-10808851Y-6063677D01*
X-10807100Y-6063163D01*
X-10810338Y-6056072D01*
X-11319988Y-5546422D01*
X-11330077Y-5540913D01*
X-11332800Y-5548214D01*
X-11332800Y-6048285D01*
X-11840800Y-6048285D01*
X-11840800Y-5177637D01*
X-10966500Y-5177637D01*
X-10963262Y-5184728D01*
X-10453612Y-5694378D01*
X-10443523Y-5699887D01*
X-10440800Y-5692586D01*
X-10440800Y-5689075D01*
X-9932800Y-5689075D01*
X-9929563Y-5700100D01*
X-9922472Y-5696862D01*
X-9412822Y-5187212D01*
X-9407313Y-5177123D01*
X-9414614Y-5174400D01*
X-9914685Y-5174400D01*
X-9929924Y-5178875D01*
X-9931129Y-5180265D01*
X-9932800Y-5187948D01*
X-9932800Y-5689075D01*
X-10440800Y-5689075D01*
X-10440800Y-5192515D01*
X-10445275Y-5177276D01*
X-10446665Y-5176071D01*
X-10454348Y-5174400D01*
X-10955475Y-5174400D01*
X-10966500Y-5177637D01*
X-11840800Y-5177637D01*
X-11840800Y-4792400D01*
X-11820798Y-4724279D01*
X-11767142Y-4677786D01*
X-11714800Y-4666400D01*
X-10458915Y-4666400D01*
X-10443676Y-4661925D01*
X-10442471Y-4660535D01*
X-10440800Y-4652852D01*
X-10440800Y-4648285D01*
X-9932800Y-4648285D01*
X-9928325Y-4663524D01*
X-9926935Y-4664729D01*
X-9919252Y-4666400D01*
X-8658800Y-4666400D01*
X-8590679Y-4686402D01*
X-8544186Y-4740058D01*
X-8532800Y-4792400D01*
X-8532800Y-6048285D01*
X-8528325Y-6063524D01*
X-8526935Y-6064729D01*
X-8519252Y-6066400D01*
X-7796916Y-6066400D01*
X-7781677Y-6061925D01*
X-7780472Y-6060535D01*
X-7778801Y-6052852D01*
X-7778801Y-4375731D01*
X-7779171Y-4368910D01*
X-7784695Y-4318048D01*
X-7788321Y-4302796D01*
X-7833476Y-4182346D01*
X-7842014Y-4166751D01*
X-7918515Y-4064676D01*
X-7931076Y-4052115D01*
X-8033151Y-3975614D01*
X-8048746Y-3967076D01*
X-8169194Y-3921922D01*
X-8184449Y-3918295D01*
X-8235314Y-3912769D01*
X-8242128Y-3912400D01*
X-9914685Y-3912400D01*
X-9929924Y-3916875D01*
X-9931129Y-3918265D01*
X-9932800Y-3925948D01*
X-9932800Y-4648285D01*
X-10440800Y-4648285D01*
X-10440800Y-3930516D01*
X-10445275Y-3915277D01*
X-10446665Y-3914072D01*
X-10454348Y-3912401D01*
X-12131469Y-3912401D01*
X-12138290Y-3912771D01*
X-12183695Y-3917702D01*
X-12253577Y-3905173D01*
X-12305592Y-3856851D01*
X-12323300Y-3792439D01*
X-12323300Y8601386D01*
X-12323293Y8602706D01*
X-12322423Y8685774D01*
X-12322349Y8692821D01*
X-12331511Y8735197D01*
X-12333570Y8747768D01*
X-12337618Y8783856D01*
X-12338403Y8790855D01*
X-12343198Y8804627D01*
X-12349433Y8822530D01*
X-12353596Y8837342D01*
X-12359191Y8863219D01*
X-12360681Y8870110D01*
X-12379008Y8909413D01*
X-12383790Y8921189D01*
X-12398055Y8962152D01*
X-12401790Y8968130D01*
X-12415827Y8990595D01*
X-12423166Y9004112D01*
X-12434359Y9028114D01*
X-12434360Y9028115D01*
X-12437338Y9034502D01*
X-12463906Y9068753D01*
X-12471202Y9079212D01*
X-12490442Y9110004D01*
X-12490444Y9110007D01*
X-12494174Y9115976D01*
X-12522776Y9144779D01*
X-12523361Y9145404D01*
X-12523878Y9146070D01*
X-12549868Y9172060D01*
X-12621985Y9244682D01*
X-12623022Y9245340D01*
X-12624251Y9246443D01*
X-14240884Y10863076D01*
X-14274910Y10925388D01*
X-14269845Y10996203D01*
X-14227298Y11053039D01*
X-14160778Y11077850D01*
X-14119178Y11073878D01*
X-14000112Y11041975D01*
X-13989319Y11040072D01*
X-13772275Y11021083D01*
X-13761325Y11021083D01*
X-13544281Y11040072D01*
X-13533488Y11041975D01*
X-13323039Y11098364D01*
X-13312747Y11102110D01*
X-13115289Y11194186D01*
X-13105794Y11199669D01*
X-13053752Y11236109D01*
X-13045376Y11246588D01*
X-13052444Y11260034D01*
X-14124878Y12332468D01*
X-13402392Y12332468D01*
X-13402261Y12330635D01*
X-13398010Y12324020D01*
X-12692513Y11618523D01*
X-12680738Y11612093D01*
X-12668723Y11621389D01*
X-12632869Y11672594D01*
X-12627386Y11682089D01*
X-12535310Y11879547D01*
X-12531564Y11889839D01*
X-12475175Y12100288D01*
X-12473272Y12111081D01*
X-12454283Y12328125D01*
X-12454283Y12339075D01*
X-12473272Y12556119D01*
X-12475175Y12566912D01*
X-12531564Y12777361D01*
X-12535310Y12787653D01*
X-12627386Y12985111D01*
X-12632869Y12994606D01*
X-12669309Y13046648D01*
X-12679788Y13055024D01*
X-12693234Y13047956D01*
X-13394778Y12346412D01*
X-13402392Y12332468D01*
X-14124878Y12332468D01*
X-14841087Y13048677D01*
X-14852862Y13055107D01*
X-14864877Y13045811D01*
X-14900731Y12994606D01*
X-14906214Y12985111D01*
X-14998290Y12787653D01*
X-15002036Y12777361D01*
X-15058425Y12566912D01*
X-15060328Y12556119D01*
X-15079317Y12339075D01*
X-15079317Y12328125D01*
X-15060328Y12111081D01*
X-15058425Y12100288D01*
X-15002036Y11889839D01*
X-14998290Y11879547D01*
X-14925134Y11722664D01*
X-14914473Y11652472D01*
X-14943453Y11587660D01*
X-15002873Y11548803D01*
X-15073867Y11548240D01*
X-15082412Y11551009D01*
X-15094485Y11555403D01*
X-15101475Y11556286D01*
X-15101483Y11556288D01*
X-15137501Y11560838D01*
X-15150053Y11563074D01*
X-15185414Y11571238D01*
X-15185417Y11571238D01*
X-15192285Y11572824D01*
X-15199331Y11572849D01*
X-15199334Y11572849D01*
X-15232856Y11572966D01*
X-15233738Y11572995D01*
X-15234569Y11573100D01*
X-15271219Y11573100D01*
X-15271659Y11573101D01*
X-15370143Y11573445D01*
X-15370148Y11573445D01*
X-15373670Y11573457D01*
X-15374870Y11573189D01*
X-15376507Y11573100D01*
X-22134950Y11573100D01*
X-22203071Y11593102D01*
X-22228144Y11614301D01*
X-22358649Y11757724D01*
X-22358652Y11757727D01*
X-22362130Y11761549D01*
X-22366181Y11764748D01*
X-22366185Y11764752D01*
X-22533386Y11896800D01*
X-22533390Y11896802D01*
X-22537441Y11900002D01*
X-22578747Y11922804D01*
X-22628716Y11973236D01*
X-22643488Y12042679D01*
X-22618372Y12109084D01*
X-22591020Y12135691D01*
X-22526062Y12182025D01*
X-22411940Y12263427D01*
X-22380020Y12295235D01*
X-22330591Y12344493D01*
X-22253704Y12421111D01*
X-22123347Y12602523D01*
X-22076155Y12698008D01*
X-22026664Y12798147D01*
X-22026663Y12798149D01*
X-22024370Y12802789D01*
X-21959430Y13016531D01*
X-21930271Y13238010D01*
X-21928644Y13304600D01*
X-21946948Y13527239D01*
X-22001369Y13743898D01*
X-22090446Y13948760D01*
X-22178217Y14084434D01*
X-22208978Y14131983D01*
X-22208980Y14131986D01*
X-22211786Y14136323D01*
X-22362130Y14301549D01*
X-22366181Y14304748D01*
X-22366185Y14304752D01*
X-22533386Y14436800D01*
X-22533390Y14436802D01*
X-22537441Y14440002D01*
X-22579231Y14463071D01*
X-22629202Y14513503D01*
X-22643974Y14582946D01*
X-22618858Y14649352D01*
X-22591506Y14675959D01*
X-22416472Y14800808D01*
X-22408600Y14807461D01*
X-22257748Y14957788D01*
X-22251070Y14965635D01*
X-22126797Y15138580D01*
X-22121487Y15147417D01*
X-22027130Y15338333D01*
X-22023331Y15347928D01*
X-21961423Y15551690D01*
X-21959245Y15561763D01*
X-21957814Y15572638D01*
X-21960025Y15586822D01*
X-21973183Y15590600D01*
X-24608575Y15590600D01*
X-24622106Y15586627D01*
X-24623543Y15576634D01*
X-24593235Y15442154D01*
X-24590155Y15432325D01*
X-24510030Y15234997D01*
X-24505387Y15225806D01*
X-24394106Y15044212D01*
X-24388023Y15035901D01*
X-24248587Y14874933D01*
X-24241220Y14867717D01*
X-24077366Y14731684D01*
X-24068919Y14725769D01*
X-23999831Y14685397D01*
X-23951107Y14633758D01*
X-23938036Y14563975D01*
X-23964767Y14498204D01*
X-24005216Y14464848D01*
X-24018193Y14458093D01*
X-24022326Y14454990D01*
X-24022329Y14454988D01*
X-24185690Y14332333D01*
X-24196835Y14323965D01*
X-24351171Y14162462D01*
X-24353168Y14159535D01*
X-24411197Y14119452D01*
X-24450698Y14113100D01*
X-24938636Y14113100D01*
X-24939955Y14113107D01*
X-25030021Y14114050D01*
X-25036907Y14112561D01*
X-25036909Y14112561D01*
X-25055487Y14108544D01*
X-25072386Y14104890D01*
X-25084965Y14102830D01*
X-25121059Y14098782D01*
X-25121062Y14098781D01*
X-25128055Y14097997D01*
X-25159732Y14086966D01*
X-25174542Y14082804D01*
X-25200422Y14077209D01*
X-25200426Y14077208D01*
X-25207311Y14075719D01*
X-25213695Y14072742D01*
X-25213701Y14072740D01*
X-25246607Y14057396D01*
X-25258416Y14052601D01*
X-25299352Y14038345D01*
X-25305324Y14034613D01*
X-25305331Y14034610D01*
X-25327795Y14020573D01*
X-25341312Y14013234D01*
X-25365319Y14002039D01*
X-25365323Y14002037D01*
X-25371702Y13999062D01*
X-25389230Y13985466D01*
X-25405956Y13972492D01*
X-25416405Y13965203D01*
X-25453176Y13942226D01*
X-25458175Y13937261D01*
X-25458177Y13937260D01*
X-25481985Y13913617D01*
X-25482608Y13913034D01*
X-25483270Y13912521D01*
X-25509119Y13886672D01*
X-25571985Y13824243D01*
X-25581882Y13814415D01*
X-25582541Y13813377D01*
X-25583647Y13812144D01*
X-27031957Y12363835D01*
X-27032894Y12362907D01*
X-27079137Y12317622D01*
X-27097307Y12299829D01*
X-27120798Y12263379D01*
X-27128217Y12253054D01*
X-27155276Y12219157D01*
X-27158341Y12212816D01*
X-27158342Y12212815D01*
X-27169872Y12188963D01*
X-27177401Y12175546D01*
X-27195565Y12147362D01*
X-27197973Y12140745D01*
X-27197976Y12140740D01*
X-27210392Y12106627D01*
X-27215353Y12094884D01*
X-27231154Y12062197D01*
X-27231156Y12062192D01*
X-27234221Y12055851D01*
X-27235804Y12048993D01*
X-27235805Y12048991D01*
X-27239507Y12032957D01*
X-27241135Y12025901D01*
X-27241765Y12023174D01*
X-27246132Y12008431D01*
X-27257603Y11976915D01*
X-27258486Y11969925D01*
X-27258488Y11969917D01*
X-27263038Y11933899D01*
X-27265274Y11921347D01*
X-27265473Y11920482D01*
X-27275024Y11879115D01*
X-27275049Y11872069D01*
X-27275049Y11872066D01*
X-27275166Y11838544D01*
X-27275195Y11837662D01*
X-27275300Y11836831D01*
X-27275300Y11800028D01*
X-27275657Y11697730D01*
X-27275389Y11696530D01*
X-27275300Y11694893D01*
X-27275300Y6714814D01*
X-27275307Y6713494D01*
X-27276251Y6623379D01*
X-27267089Y6581003D01*
X-27265031Y6568437D01*
X-27260197Y6525345D01*
X-27257881Y6518694D01*
X-27257880Y6518690D01*
X-27249167Y6493670D01*
X-27245004Y6478858D01*
X-27237919Y6446090D01*
X-27219592Y6406787D01*
X-27214810Y6395011D01*
X-27200545Y6354048D01*
X-27196811Y6348073D01*
X-27196810Y6348070D01*
X-27182773Y6325605D01*
X-27175434Y6312088D01*
X-27164241Y6288086D01*
X-27161262Y6281698D01*
X-27156945Y6276133D01*
X-27156944Y6276131D01*
X-27134694Y6247447D01*
X-27127398Y6236988D01*
X-27104426Y6200224D01*
X-27099466Y6195229D01*
X-27099465Y6195228D01*
X-27075824Y6171421D01*
X-27075239Y6170796D01*
X-27074722Y6170130D01*
X-27048732Y6144140D01*
X-26976615Y6071518D01*
X-26975578Y6070860D01*
X-26974349Y6069757D01*
X-25521034Y4616442D01*
X-25520106Y4615505D01*
X-25470712Y4565066D01*
X-25457029Y4551093D01*
X-25420579Y4527602D01*
X-25410254Y4520183D01*
X-25376357Y4493124D01*
X-25370018Y4490060D01*
X-25370014Y4490057D01*
X-25346162Y4478526D01*
X-25332749Y4470999D01*
X-25310487Y4456653D01*
X-25310484Y4456652D01*
X-25304562Y4452835D01*
X-25297943Y4450426D01*
X-25297939Y4450424D01*
X-25263827Y4438008D01*
X-25252083Y4433047D01*
X-25219401Y4417248D01*
X-25219399Y4417247D01*
X-25213052Y4414179D01*
X-25196117Y4410269D01*
X-25180373Y4406634D01*
X-25165632Y4402268D01*
X-25134115Y4390797D01*
X-25127129Y4389915D01*
X-25127123Y4389913D01*
X-25091099Y4385362D01*
X-25078547Y4383126D01*
X-25043186Y4374962D01*
X-25043183Y4374962D01*
X-25036315Y4373376D01*
X-25029269Y4373351D01*
X-25029266Y4373351D01*
X-24995744Y4373234D01*
X-24994862Y4373205D01*
X-24994031Y4373100D01*
X-24957381Y4373100D01*
X-24956941Y4373099D01*
X-24858457Y4372755D01*
X-24858452Y4372755D01*
X-24854930Y4372743D01*
X-24853730Y4373011D01*
X-24852093Y4373100D01*
X-15677882Y4373100D01*
X-15609761Y4353098D01*
X-15588787Y4336195D01*
X-14877205Y3624613D01*
X-14843179Y3562301D01*
X-14840300Y3535518D01*
X-14840300Y-12603318D01*
X-14860302Y-12671439D01*
X-14877205Y-12692413D01*
X-15963205Y-13778413D01*
X-16025517Y-13812439D01*
X-16096332Y-13807374D01*
X-16153168Y-13764827D01*
X-16177979Y-13698307D01*
X-16178300Y-13689318D01*
X-16178300Y-13497266D01*
X-16185055Y-13435084D01*
X-16196472Y-13404629D01*
X-16201655Y-13333823D01*
X-16196473Y-13316174D01*
X-16185055Y-13285716D01*
X-16178300Y-13223534D01*
X-16178300Y-12227266D01*
X-16185055Y-12165084D01*
X-16196472Y-12134629D01*
X-16201655Y-12063823D01*
X-16196474Y-12046176D01*
X-16185055Y-12015716D01*
X-16178300Y-11953534D01*
X-16178300Y-10957266D01*
X-16185055Y-10895084D01*
X-16196472Y-10864629D01*
X-16201655Y-10793823D01*
X-16196474Y-10776176D01*
X-16185055Y-10745716D01*
X-16178300Y-10683534D01*
X-16178300Y-9687266D01*
X-16185055Y-9625084D01*
X-16196472Y-9594629D01*
X-16201655Y-9523823D01*
X-16196474Y-9506176D01*
X-16185055Y-9475716D01*
X-16178300Y-9413534D01*
X-16178300Y-8417266D01*
X-16185055Y-8355084D01*
X-16196472Y-8324629D01*
X-16201655Y-8253823D01*
X-16196474Y-8236176D01*
X-16185055Y-8205716D01*
X-16178300Y-8143534D01*
X-16178300Y-7147266D01*
X-16185055Y-7085084D01*
X-16196472Y-7054629D01*
X-16201655Y-6983823D01*
X-16196474Y-6966176D01*
X-16185055Y-6935716D01*
X-16178300Y-6873534D01*
X-16178300Y-5877266D01*
X-16185055Y-5815084D01*
X-16196472Y-5784629D01*
X-16201655Y-5713823D01*
X-16196474Y-5696176D01*
X-16185055Y-5665716D01*
X-16178300Y-5603534D01*
X-16178300Y-4607266D01*
X-16185055Y-4545084D01*
X-16196472Y-4514629D01*
X-16201655Y-4443823D01*
X-16196474Y-4426176D01*
X-16185055Y-4395716D01*
X-16178300Y-4333534D01*
X-16178300Y-3337266D01*
X-16185055Y-3275084D01*
X-16196472Y-3244629D01*
X-16201655Y-3173823D01*
X-16196474Y-3156176D01*
X-16185055Y-3125716D01*
X-16178300Y-3063534D01*
X-16178300Y-2067266D01*
X-16185055Y-2005084D01*
X-16196472Y-1974629D01*
X-16201655Y-1903823D01*
X-16196474Y-1886176D01*
X-16185055Y-1855716D01*
X-16178300Y-1793534D01*
X-16178300Y-797266D01*
X-16185055Y-735084D01*
X-16196472Y-704629D01*
X-16201655Y-633823D01*
X-16196474Y-616176D01*
X-16185055Y-585716D01*
X-16178300Y-523534D01*
X-16178300Y472734D01*
X-16185055Y534916D01*
X-16196739Y566083D01*
X-16201922Y636888D01*
X-16196739Y654543D01*
X-16188321Y676998D01*
X-16184695Y692249D01*
X-16179169Y743114D01*
X-16178800Y749928D01*
X-16178800Y972485D01*
X-16183275Y987724D01*
X-16184665Y988929D01*
X-16192348Y990600D01*
X-18676684Y990600D01*
X-18691923Y986125D01*
X-18693128Y984735D01*
X-18694799Y977052D01*
X-18694799Y909100D01*
X-18714801Y840979D01*
X-18768457Y794486D01*
X-18820799Y783100D01*
X-20872718Y783100D01*
X-20940839Y803102D01*
X-20961813Y820005D01*
X-21061440Y919632D01*
X-21095466Y981944D01*
X-21097866Y1019708D01*
X-21089781Y1112124D01*
X-21089781Y1112125D01*
X-21089302Y1117600D01*
X-21109257Y1345687D01*
X-21145819Y1482139D01*
X-21155084Y1516715D01*
X-18694800Y1516715D01*
X-18690325Y1501476D01*
X-18688935Y1500271D01*
X-18681252Y1498600D01*
X-17708915Y1498600D01*
X-17693676Y1503075D01*
X-17692471Y1504465D01*
X-17690800Y1512148D01*
X-17690800Y1516715D01*
X-17182800Y1516715D01*
X-17178325Y1501476D01*
X-17176935Y1500271D01*
X-17169252Y1498600D01*
X-16196916Y1498600D01*
X-16181677Y1503075D01*
X-16180472Y1504465D01*
X-16178801Y1512148D01*
X-16178801Y1739269D01*
X-16179171Y1746090D01*
X-16184695Y1796952D01*
X-16188321Y1812204D01*
X-16233476Y1932654D01*
X-16242014Y1948249D01*
X-16318515Y2050324D01*
X-16331076Y2062885D01*
X-16433151Y2139386D01*
X-16448746Y2147924D01*
X-16569194Y2193078D01*
X-16584449Y2196705D01*
X-16635314Y2202231D01*
X-16642128Y2202600D01*
X-17164685Y2202600D01*
X-17179924Y2198125D01*
X-17181129Y2196735D01*
X-17182800Y2189052D01*
X-17182800Y1516715D01*
X-17690800Y1516715D01*
X-17690800Y2184484D01*
X-17695275Y2199723D01*
X-17696665Y2200928D01*
X-17704348Y2202599D01*
X-18231469Y2202599D01*
X-18238290Y2202229D01*
X-18289152Y2196705D01*
X-18304404Y2193079D01*
X-18424854Y2147924D01*
X-18440449Y2139386D01*
X-18542524Y2062885D01*
X-18555085Y2050324D01*
X-18631586Y1948249D01*
X-18640124Y1932654D01*
X-18685278Y1812206D01*
X-18688905Y1796951D01*
X-18694431Y1746086D01*
X-18694800Y1739272D01*
X-18694800Y1516715D01*
X-21155084Y1516715D01*
X-21167093Y1561533D01*
X-21167094Y1561535D01*
X-21168516Y1566843D01*
X-21232188Y1703389D01*
X-21262951Y1769362D01*
X-21262954Y1769367D01*
X-21265277Y1774349D01*
X-21373960Y1929564D01*
X-21393443Y1957389D01*
X-21393445Y1957392D01*
X-21396602Y1961900D01*
X-21558500Y2123798D01*
X-21563008Y2126955D01*
X-21563011Y2126957D01*
X-21688880Y2215091D01*
X-21746051Y2255123D01*
X-21751033Y2257446D01*
X-21751038Y2257449D01*
X-21948575Y2349561D01*
X-21948576Y2349561D01*
X-21953557Y2351884D01*
X-21958865Y2353306D01*
X-21958867Y2353307D01*
X-22169398Y2409719D01*
X-22169400Y2409719D01*
X-22174713Y2411143D01*
X-22402800Y2431098D01*
X-22630887Y2411143D01*
X-22636200Y2409719D01*
X-22636202Y2409719D01*
X-22846733Y2353307D01*
X-22846735Y2353306D01*
X-22852043Y2351884D01*
X-22857024Y2349561D01*
X-22857025Y2349561D01*
X-23054562Y2257449D01*
X-23054567Y2257446D01*
X-23059549Y2255123D01*
X-23116720Y2215091D01*
X-23242589Y2126957D01*
X-23242592Y2126955D01*
X-23247100Y2123798D01*
X-23408998Y1961900D01*
X-23412155Y1957392D01*
X-23412157Y1957389D01*
X-23431640Y1929564D01*
X-23540323Y1774349D01*
X-23542646Y1769367D01*
X-23542649Y1769362D01*
X-23573412Y1703389D01*
X-23637084Y1566843D01*
X-23638506Y1561535D01*
X-23638507Y1561533D01*
X-23659781Y1482139D01*
X-23696343Y1345687D01*
X-23716298Y1117600D01*
X-23715819Y1112125D01*
X-23715819Y1112124D01*
X-23707734Y1019707D01*
X-23721724Y950102D01*
X-23744159Y919632D01*
X-24632254Y31538D01*
X-25507958Y-844166D01*
X-25508895Y-845094D01*
X-25573307Y-908171D01*
X-25596798Y-944621D01*
X-25604217Y-954946D01*
X-25631276Y-988843D01*
X-25634341Y-995184D01*
X-25634342Y-995185D01*
X-25645872Y-1019037D01*
X-25653401Y-1032454D01*
X-25671565Y-1060638D01*
X-25673973Y-1067255D01*
X-25673976Y-1067260D01*
X-25686392Y-1101373D01*
X-25691353Y-1113116D01*
X-25707154Y-1145803D01*
X-25707156Y-1145808D01*
X-25710221Y-1152149D01*
X-25711804Y-1159007D01*
X-25711805Y-1159009D01*
X-25717765Y-1184826D01*
X-25722132Y-1199569D01*
X-25733603Y-1231085D01*
X-25734486Y-1238075D01*
X-25734488Y-1238083D01*
X-25739038Y-1274101D01*
X-25741274Y-1286653D01*
X-25745052Y-1303020D01*
X-25751024Y-1328885D01*
X-25751049Y-1335931D01*
X-25751049Y-1335934D01*
X-25751166Y-1369456D01*
X-25751195Y-1370338D01*
X-25751300Y-1371169D01*
X-25751300Y-1407819D01*
X-25751301Y-1408259D01*
X-25751497Y-1464534D01*
X-25751657Y-1510270D01*
X-25751389Y-1511470D01*
X-25751300Y-1513107D01*
X-25751300Y-7001186D01*
X-25751307Y-7002506D01*
X-25752251Y-7092621D01*
X-25743089Y-7134997D01*
X-25741031Y-7147563D01*
X-25736197Y-7190655D01*
X-25733881Y-7197306D01*
X-25733880Y-7197310D01*
X-25725167Y-7222330D01*
X-25721004Y-7237142D01*
X-25713919Y-7269910D01*
X-25695592Y-7309213D01*
X-25690810Y-7320989D01*
X-25676545Y-7361952D01*
X-25672811Y-7367927D01*
X-25672810Y-7367930D01*
X-25658773Y-7390395D01*
X-25651434Y-7403912D01*
X-25640241Y-7427914D01*
X-25637262Y-7434302D01*
X-25632945Y-7439867D01*
X-25632944Y-7439869D01*
X-25610694Y-7468553D01*
X-25603398Y-7479012D01*
X-25580426Y-7515776D01*
X-25575466Y-7520771D01*
X-25575465Y-7520772D01*
X-25551824Y-7544579D01*
X-25551239Y-7545204D01*
X-25550722Y-7545870D01*
X-25524732Y-7571860D01*
X-25452615Y-7644482D01*
X-25451578Y-7645140D01*
X-25450349Y-7646243D01*
X-22728160Y-10368432D01*
X-22694134Y-10430744D01*
X-22691734Y-10468508D01*
X-22699717Y-10559757D01*
X-22700298Y-10566400D01*
X-22699819Y-10571875D01*
X-22680858Y-10788597D01*
X-22680343Y-10794487D01*
X-22678919Y-10799800D01*
X-22678919Y-10799802D01*
X-22637636Y-10953869D01*
X-22621084Y-11015643D01*
X-22618761Y-11020624D01*
X-22618761Y-11020625D01*
X-22526649Y-11218162D01*
X-22526646Y-11218167D01*
X-22524323Y-11223149D01*
X-22457998Y-11317871D01*
X-22405761Y-11392472D01*
X-22392998Y-11410700D01*
X-22231100Y-11572598D01*
X-22226592Y-11575755D01*
X-22226589Y-11575757D01*
X-22212330Y-11585741D01*
X-22043549Y-11703923D01*
X-22038567Y-11706246D01*
X-22038562Y-11706249D01*
X-21883390Y-11778606D01*
X-21836043Y-11800684D01*
X-21830735Y-11802106D01*
X-21830733Y-11802107D01*
X-21620202Y-11858519D01*
X-21620200Y-11858519D01*
X-21614887Y-11859943D01*
X-21386800Y-11879898D01*
X-21158713Y-11859943D01*
X-21153400Y-11858519D01*
X-21153398Y-11858519D01*
X-20942867Y-11802107D01*
X-20942865Y-11802106D01*
X-20937557Y-11800684D01*
X-20890210Y-11778606D01*
X-20735038Y-11706249D01*
X-20735033Y-11706246D01*
X-20730051Y-11703923D01*
X-20615571Y-11623763D01*
X-20548297Y-11601075D01*
X-20479436Y-11618360D01*
X-20430852Y-11670130D01*
X-20417300Y-11726976D01*
X-20417300Y-12496318D01*
X-20437302Y-12564439D01*
X-20454205Y-12585413D01*
X-21343832Y-13475040D01*
X-21406144Y-13509066D01*
X-21443908Y-13511466D01*
X-21536324Y-13503381D01*
X-21536325Y-13503381D01*
X-21541800Y-13502902D01*
X-21769887Y-13522857D01*
X-21775200Y-13524281D01*
X-21775202Y-13524281D01*
X-21985733Y-13580693D01*
X-21985735Y-13580694D01*
X-21991043Y-13582116D01*
X-21996024Y-13584439D01*
X-21996025Y-13584439D01*
X-22193562Y-13676551D01*
X-22193567Y-13676554D01*
X-22198549Y-13678877D01*
X-22283389Y-13738283D01*
X-22381589Y-13807043D01*
X-22381592Y-13807045D01*
X-22386100Y-13810202D01*
X-22547998Y-13972100D01*
X-22679323Y-14159651D01*
X-22681646Y-14164633D01*
X-22681649Y-14164638D01*
X-22746599Y-14303926D01*
X-22776084Y-14367157D01*
X-22777506Y-14372465D01*
X-22777507Y-14372467D01*
X-22833919Y-14582998D01*
X-22835343Y-14588313D01*
X-22855298Y-14816400D01*
X-22835343Y-15044487D01*
X-22833919Y-15049800D01*
X-22833919Y-15049802D01*
X-22778750Y-15255692D01*
X-22776084Y-15265643D01*
X-22773761Y-15270624D01*
X-22773761Y-15270625D01*
X-22681649Y-15468162D01*
X-22681646Y-15468167D01*
X-22679323Y-15473149D01*
X-22624181Y-15551900D01*
X-22552315Y-15654534D01*
X-22547998Y-15660700D01*
X-22386100Y-15822598D01*
X-22381592Y-15825755D01*
X-22381589Y-15825757D01*
X-22342532Y-15853105D01*
X-22198549Y-15953923D01*
X-22193567Y-15956246D01*
X-22193562Y-15956249D01*
X-22002731Y-16045234D01*
X-21991043Y-16050684D01*
X-21985735Y-16052106D01*
X-21985733Y-16052107D01*
X-21775202Y-16108519D01*
X-21775200Y-16108519D01*
X-21769887Y-16109943D01*
X-21541800Y-16129898D01*
X-21313713Y-16109943D01*
X-21308400Y-16108519D01*
X-21308398Y-16108519D01*
X-21097867Y-16052107D01*
X-21097865Y-16052106D01*
X-21092557Y-16050684D01*
X-21080869Y-16045234D01*
X-20890038Y-15956249D01*
X-20890033Y-15956246D01*
X-20885051Y-15953923D01*
X-20741068Y-15853105D01*
X-20702011Y-15825757D01*
X-20702008Y-15825755D01*
X-20697500Y-15822598D01*
X-20535602Y-15660700D01*
X-20531284Y-15654534D01*
X-20459419Y-15551900D01*
X-20404277Y-15473149D01*
X-20401954Y-15468167D01*
X-20401951Y-15468162D01*
X-20309839Y-15270625D01*
X-20309839Y-15270624D01*
X-20307516Y-15265643D01*
X-20304849Y-15255692D01*
X-20249681Y-15049802D01*
X-20249681Y-15049800D01*
X-20248257Y-15044487D01*
X-20228302Y-14816400D01*
X-20228781Y-14810924D01*
X-20236866Y-14718508D01*
X-20222876Y-14648903D01*
X-20200440Y-14618432D01*
X-19043642Y-13461634D01*
X-19042705Y-13460706D01*
X-18983325Y-13402557D01*
X-18983324Y-13402556D01*
X-18978293Y-13397629D01*
X-18954802Y-13361179D01*
X-18947383Y-13350854D01*
X-18920324Y-13316957D01*
X-18917259Y-13310617D01*
X-18917256Y-13310612D01*
X-18911286Y-13298262D01*
X-18863630Y-13245637D01*
X-18795088Y-13227131D01*
X-18727421Y-13248620D01*
X-18679863Y-13308875D01*
X-18677127Y-13316174D01*
X-18671946Y-13386982D01*
X-18677126Y-13404624D01*
X-18688545Y-13435084D01*
X-18695300Y-13497266D01*
X-18695300Y-14493534D01*
X-18688545Y-14555716D01*
X-18677128Y-14586171D01*
X-18671945Y-14656977D01*
X-18677126Y-14674624D01*
X-18688545Y-14705084D01*
X-18695300Y-14767266D01*
X-18695300Y-15763534D01*
X-18688545Y-15825716D01*
X-18637415Y-15962105D01*
X-18550061Y-16078661D01*
X-18433505Y-16166015D01*
X-18297116Y-16217145D01*
X-18234934Y-16223900D01*
X-16638666Y-16223900D01*
X-16576484Y-16217145D01*
X-16440095Y-16166015D01*
X-16351337Y-16099495D01*
X-16284831Y-16074648D01*
X-16274454Y-16074329D01*
X-16242980Y-16074658D01*
X-16224579Y-16074851D01*
X-16182203Y-16065689D01*
X-16169637Y-16063631D01*
X-16126545Y-16058797D01*
X-16119894Y-16056481D01*
X-16119890Y-16056480D01*
X-16094870Y-16047767D01*
X-16080058Y-16043604D01*
X-16054181Y-16038009D01*
X-16047290Y-16036519D01*
X-16007987Y-16018192D01*
X-15996211Y-16013410D01*
X-15955248Y-15999145D01*
X-15949273Y-15995411D01*
X-15949270Y-15995410D01*
X-15926805Y-15981373D01*
X-15913288Y-15974034D01*
X-15889286Y-15962841D01*
X-15889285Y-15962840D01*
X-15882898Y-15959862D01*
X-15875241Y-15953923D01*
X-15848647Y-15933294D01*
X-15838188Y-15925998D01*
X-15807396Y-15906758D01*
X-15807393Y-15906756D01*
X-15801424Y-15903026D01*
X-15772621Y-15874424D01*
X-15771996Y-15873839D01*
X-15771330Y-15873322D01*
X-15745340Y-15847332D01*
X-15672718Y-15775215D01*
X-15672060Y-15774178D01*
X-15670957Y-15772949D01*
X-15574895Y-15676887D01*
X-15512583Y-15642861D01*
X-15441768Y-15647926D01*
X-15384932Y-15690473D01*
X-15360121Y-15756993D01*
X-15359800Y-15765982D01*
X-15359800Y-16088285D01*
X-15355325Y-16103524D01*
X-15353935Y-16104729D01*
X-15346252Y-16106400D01*
X-14673915Y-16106400D01*
X-14658676Y-16101925D01*
X-14657471Y-16100535D01*
X-14655800Y-16092852D01*
X-14655800Y-15120516D01*
X-14660275Y-15105277D01*
X-14661665Y-15104072D01*
X-14669348Y-15102401D01*
X-14696219Y-15102401D01*
X-14764340Y-15082399D01*
X-14810833Y-15028743D01*
X-14820937Y-14958469D01*
X-14791443Y-14893889D01*
X-14785314Y-14887306D01*
X-14155395Y-14257387D01*
X-14093083Y-14223361D01*
X-14022268Y-14228426D01*
X-13965432Y-14270973D01*
X-13940621Y-14337493D01*
X-13940300Y-14346482D01*
X-13940300Y-14976400D01*
X-13960302Y-15044521D01*
X-14013958Y-15091014D01*
X-14066300Y-15102400D01*
X-14129685Y-15102400D01*
X-14144924Y-15106875D01*
X-14146129Y-15108265D01*
X-14147800Y-15115948D01*
X-14147800Y-16488400D01*
X-14167802Y-16556521D01*
X-14221458Y-16603014D01*
X-14273800Y-16614400D01*
X-15341684Y-16614400D01*
X-15356923Y-16618875D01*
X-15358128Y-16620265D01*
X-15359799Y-16627948D01*
X-15359799Y-17155069D01*
X-15359429Y-17161890D01*
X-15353905Y-17212752D01*
X-15350279Y-17228004D01*
X-15305124Y-17348454D01*
X-15296586Y-17364049D01*
X-15214704Y-17473304D01*
X-15216809Y-17474882D01*
X-15189378Y-17525117D01*
X-15194443Y-17595932D01*
X-15236990Y-17652768D01*
X-15303510Y-17677579D01*
X-15312499Y-17677900D01*
X-45352300Y-17677900D01*
X-45420421Y-17657898D01*
X-45466914Y-17604242D01*
X-45478300Y-17551900D01*
X-45478300Y-8016400D01*
X-39139965Y-8016400D01*
X-39121335Y-8253111D01*
X-39120181Y-8257918D01*
X-39120180Y-8257924D01*
X-39093350Y-8369678D01*
X-39065905Y-8483994D01*
X-39064012Y-8488565D01*
X-39064011Y-8488567D01*
X-38981205Y-8688479D01*
X-38975040Y-8703363D01*
X-38972454Y-8707583D01*
X-38853559Y-8901602D01*
X-38853555Y-8901608D01*
X-38850976Y-8905816D01*
X-38696769Y-9086369D01*
X-38693013Y-9089577D01*
X-38673237Y-9106467D01*
X-38516216Y-9240576D01*
X-38495464Y-9253293D01*
X-38447834Y-9305938D01*
X-38435300Y-9360724D01*
X-38435300Y-13937186D01*
X-38435307Y-13938506D01*
X-38436251Y-14028621D01*
X-38427089Y-14070997D01*
X-38425031Y-14083563D01*
X-38420197Y-14126655D01*
X-38417881Y-14133306D01*
X-38417880Y-14133310D01*
X-38409167Y-14158330D01*
X-38405004Y-14173142D01*
X-38397919Y-14205910D01*
X-38379592Y-14245213D01*
X-38374810Y-14256989D01*
X-38360545Y-14297952D01*
X-38356812Y-14303926D01*
X-38344445Y-14323718D01*
X-38325300Y-14390487D01*
X-38325300Y-15654534D01*
X-38318545Y-15716716D01*
X-38267415Y-15853105D01*
X-38180061Y-15969661D01*
X-38063505Y-16057015D01*
X-37927116Y-16108145D01*
X-37864934Y-16114900D01*
X-36668666Y-16114900D01*
X-36606484Y-16108145D01*
X-36470095Y-16057015D01*
X-36353539Y-15969661D01*
X-36266185Y-15853105D01*
X-36215055Y-15716716D01*
X-36208300Y-15654534D01*
X-36208300Y-15415522D01*
X-35784799Y-15415522D01*
X-35784749Y-15417251D01*
X-35783330Y-15427171D01*
X-35746600Y-15586267D01*
X-35741950Y-15599470D01*
X-35671629Y-15744935D01*
X-35664163Y-15756791D01*
X-35563361Y-15883065D01*
X-35553465Y-15892961D01*
X-35427191Y-15993763D01*
X-35415335Y-16001229D01*
X-35269870Y-16071550D01*
X-35256667Y-16076200D01*
X-35097564Y-16112932D01*
X-35087667Y-16114349D01*
X-35085893Y-16114400D01*
X-34998915Y-16114400D01*
X-34983676Y-16109925D01*
X-34982471Y-16108535D01*
X-34980800Y-16100852D01*
X-34980800Y-16096284D01*
X-34472800Y-16096284D01*
X-34468325Y-16111523D01*
X-34466935Y-16112728D01*
X-34459252Y-16114399D01*
X-34367678Y-16114399D01*
X-34365949Y-16114349D01*
X-34356029Y-16112930D01*
X-34196933Y-16076200D01*
X-34183730Y-16071550D01*
X-34038265Y-16001229D01*
X-34026409Y-15993763D01*
X-33900135Y-15892961D01*
X-33890239Y-15883065D01*
X-33789437Y-15756791D01*
X-33781971Y-15744935D01*
X-33711650Y-15599470D01*
X-33707000Y-15586267D01*
X-33670268Y-15427164D01*
X-33668851Y-15417267D01*
X-33668800Y-15415493D01*
X-33668800Y-14978515D01*
X-33673275Y-14963276D01*
X-33674665Y-14962071D01*
X-33682348Y-14960400D01*
X-34454685Y-14960400D01*
X-34469924Y-14964875D01*
X-34471129Y-14966265D01*
X-34472800Y-14973948D01*
X-34472800Y-16096284D01*
X-34980800Y-16096284D01*
X-34980800Y-14978515D01*
X-34985275Y-14963276D01*
X-34986665Y-14962071D01*
X-34994348Y-14960400D01*
X-35766684Y-14960400D01*
X-35781923Y-14964875D01*
X-35783128Y-14966265D01*
X-35784799Y-14973948D01*
X-35784799Y-15415522D01*
X-36208300Y-15415522D01*
X-36208300Y-14170900D01*
X-36188298Y-14102779D01*
X-36134642Y-14056286D01*
X-36082300Y-14044900D01*
X-35910800Y-14044900D01*
X-35842679Y-14064902D01*
X-35796186Y-14118558D01*
X-35784800Y-14170900D01*
X-35784800Y-14434285D01*
X-35780325Y-14449524D01*
X-35778935Y-14450729D01*
X-35771252Y-14452400D01*
X-33686916Y-14452400D01*
X-33671677Y-14447925D01*
X-33670472Y-14446535D01*
X-33668801Y-14438852D01*
X-33668801Y-14296981D01*
X-33648799Y-14228860D01*
X-33595143Y-14182367D01*
X-33524869Y-14172263D01*
X-33460289Y-14201757D01*
X-33453706Y-14207886D01*
X-33043160Y-14618432D01*
X-33009134Y-14680744D01*
X-33006734Y-14718508D01*
X-33014819Y-14810924D01*
X-33015298Y-14816400D01*
X-32995343Y-15044487D01*
X-32993919Y-15049800D01*
X-32993919Y-15049802D01*
X-32938750Y-15255692D01*
X-32936084Y-15265643D01*
X-32933761Y-15270624D01*
X-32933761Y-15270625D01*
X-32841649Y-15468162D01*
X-32841646Y-15468167D01*
X-32839323Y-15473149D01*
X-32784181Y-15551900D01*
X-32712315Y-15654534D01*
X-32707998Y-15660700D01*
X-32546100Y-15822598D01*
X-32541592Y-15825755D01*
X-32541589Y-15825757D01*
X-32502532Y-15853105D01*
X-32358549Y-15953923D01*
X-32353567Y-15956246D01*
X-32353562Y-15956249D01*
X-32162731Y-16045234D01*
X-32151043Y-16050684D01*
X-32145735Y-16052106D01*
X-32145733Y-16052107D01*
X-31935202Y-16108519D01*
X-31935200Y-16108519D01*
X-31929887Y-16109943D01*
X-31701800Y-16129898D01*
X-31473713Y-16109943D01*
X-31468400Y-16108519D01*
X-31468398Y-16108519D01*
X-31257867Y-16052107D01*
X-31257865Y-16052106D01*
X-31252557Y-16050684D01*
X-31240869Y-16045234D01*
X-31050038Y-15956249D01*
X-31050033Y-15956246D01*
X-31045051Y-15953923D01*
X-30901068Y-15853105D01*
X-30862011Y-15825757D01*
X-30862008Y-15825755D01*
X-30857500Y-15822598D01*
X-30695602Y-15660700D01*
X-30691284Y-15654534D01*
X-30619419Y-15551900D01*
X-30564277Y-15473149D01*
X-30561954Y-15468167D01*
X-30561951Y-15468162D01*
X-30469839Y-15270625D01*
X-30469839Y-15270624D01*
X-30467516Y-15265643D01*
X-30464849Y-15255692D01*
X-30409681Y-15049802D01*
X-30409681Y-15049800D01*
X-30408257Y-15044487D01*
X-30388302Y-14816400D01*
X-30408257Y-14588313D01*
X-30409681Y-14582998D01*
X-30466093Y-14372467D01*
X-30466094Y-14372465D01*
X-30467516Y-14367157D01*
X-30497001Y-14303926D01*
X-30561951Y-14164638D01*
X-30561954Y-14164633D01*
X-30564277Y-14159651D01*
X-30695602Y-13972100D01*
X-30857500Y-13810202D01*
X-30862008Y-13807045D01*
X-30862011Y-13807043D01*
X-30960211Y-13738283D01*
X-31045051Y-13678877D01*
X-31050033Y-13676554D01*
X-31050038Y-13676551D01*
X-31247575Y-13584439D01*
X-31247576Y-13584439D01*
X-31252557Y-13582116D01*
X-31257865Y-13580694D01*
X-31257867Y-13580693D01*
X-31468398Y-13524281D01*
X-31468400Y-13524281D01*
X-31473713Y-13522857D01*
X-31701800Y-13502902D01*
X-31707275Y-13503381D01*
X-31707276Y-13503381D01*
X-31799692Y-13511466D01*
X-31869297Y-13497476D01*
X-31899768Y-13475040D01*
X-32903566Y-12471242D01*
X-32904494Y-12470305D01*
X-32962643Y-12410925D01*
X-32962644Y-12410924D01*
X-32967571Y-12405893D01*
X-33004021Y-12382402D01*
X-33014346Y-12374983D01*
X-33048243Y-12347924D01*
X-33078438Y-12333327D01*
X-33091855Y-12325798D01*
X-33099030Y-12321174D01*
X-33120038Y-12307635D01*
X-33126655Y-12305227D01*
X-33126660Y-12305224D01*
X-33160773Y-12292808D01*
X-33172516Y-12287847D01*
X-33205203Y-12272046D01*
X-33205208Y-12272044D01*
X-33211549Y-12268979D01*
X-33218407Y-12267396D01*
X-33218409Y-12267395D01*
X-33244226Y-12261435D01*
X-33258969Y-12257068D01*
X-33290485Y-12245597D01*
X-33297475Y-12244714D01*
X-33297483Y-12244712D01*
X-33333501Y-12240162D01*
X-33346053Y-12237926D01*
X-33381414Y-12229762D01*
X-33381417Y-12229762D01*
X-33388285Y-12228176D01*
X-33395331Y-12228151D01*
X-33395334Y-12228151D01*
X-33428856Y-12228034D01*
X-33429738Y-12228005D01*
X-33430569Y-12227900D01*
X-33467219Y-12227900D01*
X-33467659Y-12227899D01*
X-33566143Y-12227555D01*
X-33566148Y-12227555D01*
X-33569670Y-12227543D01*
X-33570870Y-12227811D01*
X-33572507Y-12227900D01*
X-34812300Y-12227900D01*
X-34880421Y-12207898D01*
X-34926914Y-12154242D01*
X-34938300Y-12101900D01*
X-34938300Y-11925408D01*
X-34938567Y-11920777D01*
X-34978109Y-11749505D01*
X-35054612Y-11591249D01*
X-35164276Y-11453876D01*
X-35301649Y-11344212D01*
X-35356138Y-11317871D01*
X-35453563Y-11270775D01*
X-35459905Y-11267709D01*
X-35631177Y-11228167D01*
X-35635808Y-11227900D01*
X-36357792Y-11227900D01*
X-36362423Y-11228167D01*
X-36533695Y-11267709D01*
X-36637461Y-11317871D01*
X-36707497Y-11329511D01*
X-36772708Y-11301439D01*
X-36812390Y-11242567D01*
X-36818300Y-11204431D01*
X-36818300Y-10566400D01*
X-32860298Y-10566400D01*
X-32859819Y-10571875D01*
X-32840858Y-10788597D01*
X-32840343Y-10794487D01*
X-32838919Y-10799800D01*
X-32838919Y-10799802D01*
X-32797636Y-10953869D01*
X-32781084Y-11015643D01*
X-32778761Y-11020624D01*
X-32778761Y-11020625D01*
X-32686649Y-11218162D01*
X-32686646Y-11218167D01*
X-32684323Y-11223149D01*
X-32617998Y-11317871D01*
X-32565761Y-11392472D01*
X-32552998Y-11410700D01*
X-32391100Y-11572598D01*
X-32386592Y-11575755D01*
X-32386589Y-11575757D01*
X-32372330Y-11585741D01*
X-32203549Y-11703923D01*
X-32198567Y-11706246D01*
X-32198562Y-11706249D01*
X-32043390Y-11778606D01*
X-31996043Y-11800684D01*
X-31990735Y-11802106D01*
X-31990733Y-11802107D01*
X-31780202Y-11858519D01*
X-31780200Y-11858519D01*
X-31774887Y-11859943D01*
X-31546800Y-11879898D01*
X-31318713Y-11859943D01*
X-31313400Y-11858519D01*
X-31313398Y-11858519D01*
X-31102867Y-11802107D01*
X-31102865Y-11802106D01*
X-31097557Y-11800684D01*
X-31050210Y-11778606D01*
X-30895038Y-11706249D01*
X-30895033Y-11706246D01*
X-30890051Y-11703923D01*
X-30721270Y-11585741D01*
X-30707011Y-11575757D01*
X-30707008Y-11575755D01*
X-30702500Y-11572598D01*
X-30540602Y-11410700D01*
X-30527838Y-11392472D01*
X-30475602Y-11317871D01*
X-30409277Y-11223149D01*
X-30406954Y-11218167D01*
X-30406951Y-11218162D01*
X-30314839Y-11020625D01*
X-30314839Y-11020624D01*
X-30312516Y-11015643D01*
X-30295963Y-10953869D01*
X-30254681Y-10799802D01*
X-30254681Y-10799800D01*
X-30253257Y-10794487D01*
X-30252741Y-10788597D01*
X-30233781Y-10571875D01*
X-30233302Y-10566400D01*
X-30253257Y-10338313D01*
X-30280303Y-10237375D01*
X-30311093Y-10122467D01*
X-30311094Y-10122465D01*
X-30312516Y-10117157D01*
X-30372937Y-9987583D01*
X-30406951Y-9914638D01*
X-30406954Y-9914633D01*
X-30409277Y-9909651D01*
X-30501119Y-9778487D01*
X-30537443Y-9726611D01*
X-30537445Y-9726608D01*
X-30540602Y-9722100D01*
X-30702500Y-9560202D01*
X-30707008Y-9557045D01*
X-30707011Y-9557043D01*
X-30874963Y-9439442D01*
X-30890051Y-9428877D01*
X-30895033Y-9426554D01*
X-30895038Y-9426551D01*
X-31092575Y-9334439D01*
X-31092576Y-9334439D01*
X-31097557Y-9332116D01*
X-31102865Y-9330694D01*
X-31102867Y-9330693D01*
X-31313398Y-9274281D01*
X-31313400Y-9274281D01*
X-31318713Y-9272857D01*
X-31546800Y-9252902D01*
X-31774887Y-9272857D01*
X-31780200Y-9274281D01*
X-31780202Y-9274281D01*
X-31990733Y-9330693D01*
X-31990735Y-9330694D01*
X-31996043Y-9332116D01*
X-32001024Y-9334439D01*
X-32001025Y-9334439D01*
X-32198562Y-9426551D01*
X-32198567Y-9426554D01*
X-32203549Y-9428877D01*
X-32218637Y-9439442D01*
X-32386589Y-9557043D01*
X-32386592Y-9557045D01*
X-32391100Y-9560202D01*
X-32552998Y-9722100D01*
X-32556155Y-9726608D01*
X-32556157Y-9726611D01*
X-32592481Y-9778487D01*
X-32684323Y-9909651D01*
X-32686646Y-9914633D01*
X-32686649Y-9914638D01*
X-32720663Y-9987583D01*
X-32781084Y-10117157D01*
X-32782506Y-10122465D01*
X-32782507Y-10122467D01*
X-32813297Y-10237375D01*
X-32840343Y-10338313D01*
X-32860298Y-10566400D01*
X-36818300Y-10566400D01*
X-36818300Y-9360724D01*
X-36798298Y-9292603D01*
X-36758136Y-9253293D01*
X-36737384Y-9240576D01*
X-36580363Y-9106467D01*
X-36560587Y-9089577D01*
X-36556831Y-9086369D01*
X-36402624Y-8905816D01*
X-36400045Y-8901608D01*
X-36400041Y-8901602D01*
X-36281146Y-8707583D01*
X-36278560Y-8703363D01*
X-36272394Y-8688479D01*
X-36189589Y-8488567D01*
X-36189588Y-8488565D01*
X-36187695Y-8483994D01*
X-36160250Y-8369678D01*
X-36133420Y-8257924D01*
X-36133419Y-8257918D01*
X-36132265Y-8253111D01*
X-36113635Y-8016400D01*
X-36132265Y-7779689D01*
X-36187695Y-7548806D01*
X-36218848Y-7473596D01*
X-36276665Y-7334011D01*
X-36276667Y-7334007D01*
X-36278560Y-7329437D01*
X-36320023Y-7261776D01*
X-36400041Y-7131198D01*
X-36400045Y-7131192D01*
X-36402624Y-7126984D01*
X-36556831Y-6946431D01*
X-36737384Y-6792224D01*
X-36741592Y-6789645D01*
X-36741598Y-6789641D01*
X-36935617Y-6670746D01*
X-36939837Y-6668160D01*
X-36944407Y-6666267D01*
X-36944411Y-6666265D01*
X-37154633Y-6579189D01*
X-37154635Y-6579188D01*
X-37159206Y-6577295D01*
X-37296061Y-6544439D01*
X-37385276Y-6523020D01*
X-37385282Y-6523019D01*
X-37390089Y-6521865D01*
X-37626800Y-6503235D01*
X-37863511Y-6521865D01*
X-37868318Y-6523019D01*
X-37868324Y-6523020D01*
X-37957539Y-6544439D01*
X-38094394Y-6577295D01*
X-38098965Y-6579188D01*
X-38098967Y-6579189D01*
X-38309189Y-6666265D01*
X-38309193Y-6666267D01*
X-38313763Y-6668160D01*
X-38317983Y-6670746D01*
X-38512002Y-6789641D01*
X-38512008Y-6789645D01*
X-38516216Y-6792224D01*
X-38696769Y-6946431D01*
X-38850976Y-7126984D01*
X-38853555Y-7131192D01*
X-38853559Y-7131198D01*
X-38933577Y-7261776D01*
X-38975040Y-7329437D01*
X-38976933Y-7334007D01*
X-38976935Y-7334011D01*
X-39034752Y-7473596D01*
X-39065905Y-7548806D01*
X-39121335Y-7779689D01*
X-39139965Y-8016400D01*
X-45478300Y-8016400D01*
X-45478300Y-4540462D01*
X-28164307Y-4540462D01*
X-28155011Y-4552477D01*
X-28103806Y-4588331D01*
X-28094311Y-4593814D01*
X-27896853Y-4685890D01*
X-27886561Y-4689636D01*
X-27676112Y-4746025D01*
X-27665319Y-4747928D01*
X-27448275Y-4766917D01*
X-27437325Y-4766917D01*
X-27220281Y-4747928D01*
X-27209488Y-4746025D01*
X-26999039Y-4689636D01*
X-26988747Y-4685890D01*
X-26791289Y-4593814D01*
X-26781794Y-4588331D01*
X-26729752Y-4551891D01*
X-26721376Y-4541412D01*
X-26728444Y-4527966D01*
X-27429988Y-3826422D01*
X-27443932Y-3818808D01*
X-27445765Y-3818939D01*
X-27452380Y-3823190D01*
X-28157877Y-4528687D01*
X-28164307Y-4540462D01*
X-45478300Y-4540462D01*
X-45478300Y-3459875D01*
X-28755317Y-3459875D01*
X-28736328Y-3676919D01*
X-28734425Y-3687712D01*
X-28678036Y-3898161D01*
X-28674290Y-3908453D01*
X-28582214Y-4105911D01*
X-28576731Y-4115406D01*
X-28540291Y-4167448D01*
X-28529812Y-4175824D01*
X-28516366Y-4168756D01*
X-27814822Y-3467212D01*
X-27808444Y-3455532D01*
X-27078392Y-3455532D01*
X-27078261Y-3457365D01*
X-27074010Y-3463980D01*
X-26368513Y-4169477D01*
X-26356738Y-4175907D01*
X-26344723Y-4166611D01*
X-26308869Y-4115406D01*
X-26303386Y-4105911D01*
X-26211310Y-3908453D01*
X-26207564Y-3898161D01*
X-26151175Y-3687712D01*
X-26149272Y-3676919D01*
X-26130283Y-3459875D01*
X-26130283Y-3448925D01*
X-26149272Y-3231881D01*
X-26151175Y-3221088D01*
X-26207564Y-3010639D01*
X-26211310Y-3000347D01*
X-26303386Y-2802889D01*
X-26308869Y-2793394D01*
X-26345309Y-2741352D01*
X-26355788Y-2732976D01*
X-26369234Y-2740044D01*
X-27070778Y-3441588D01*
X-27078392Y-3455532D01*
X-27808444Y-3455532D01*
X-27807208Y-3453268D01*
X-27807339Y-3451435D01*
X-27811590Y-3444820D01*
X-28517087Y-2739323D01*
X-28528862Y-2732893D01*
X-28540877Y-2742189D01*
X-28576731Y-2793394D01*
X-28582214Y-2802889D01*
X-28674290Y-3000347D01*
X-28678036Y-3010639D01*
X-28734425Y-3221088D01*
X-28736328Y-3231881D01*
X-28755317Y-3448925D01*
X-28755317Y-3459875D01*
X-45478300Y-3459875D01*
X-45478300Y-2367388D01*
X-28164224Y-2367388D01*
X-28157156Y-2380834D01*
X-27455612Y-3082378D01*
X-27441668Y-3089992D01*
X-27439835Y-3089861D01*
X-27433220Y-3085610D01*
X-26727723Y-2380113D01*
X-26721293Y-2368338D01*
X-26730589Y-2356323D01*
X-26781794Y-2320469D01*
X-26791289Y-2314986D01*
X-26988747Y-2222910D01*
X-26999039Y-2219164D01*
X-27209488Y-2162775D01*
X-27220281Y-2160872D01*
X-27437325Y-2141883D01*
X-27448275Y-2141883D01*
X-27665319Y-2160872D01*
X-27676112Y-2162775D01*
X-27886561Y-2219164D01*
X-27896853Y-2222910D01*
X-28094311Y-2314986D01*
X-28103806Y-2320469D01*
X-28155848Y-2356909D01*
X-28164224Y-2367388D01*
X-45478300Y-2367388D01*
X-45478300Y-1464534D01*
X-39135300Y-1464534D01*
X-39128545Y-1526716D01*
X-39077415Y-1663105D01*
X-38990061Y-1779661D01*
X-38873505Y-1867015D01*
X-38737116Y-1918145D01*
X-38674934Y-1924900D01*
X-36578666Y-1924900D01*
X-36516484Y-1918145D01*
X-36380095Y-1867015D01*
X-36263539Y-1779661D01*
X-36176185Y-1663105D01*
X-36125055Y-1526716D01*
X-36118300Y-1464534D01*
X-36118300Y31538D01*
X-28124307Y31538D01*
X-28115011Y19523D01*
X-28063806Y-16331D01*
X-28054311Y-21814D01*
X-27856853Y-113890D01*
X-27846561Y-117636D01*
X-27636112Y-174025D01*
X-27625319Y-175928D01*
X-27408275Y-194917D01*
X-27397325Y-194917D01*
X-27180281Y-175928D01*
X-27169488Y-174025D01*
X-26959039Y-117636D01*
X-26948747Y-113890D01*
X-26751289Y-21814D01*
X-26741794Y-16331D01*
X-26689752Y20109D01*
X-26681376Y30588D01*
X-26688444Y44034D01*
X-27389988Y745578D01*
X-27403932Y753192D01*
X-27405765Y753061D01*
X-27412380Y748810D01*
X-28117877Y43313D01*
X-28124307Y31538D01*
X-36118300Y31538D01*
X-36118300Y631734D01*
X-36125055Y693916D01*
X-36176185Y830305D01*
X-36263539Y946861D01*
X-36380095Y1034215D01*
X-36516484Y1085345D01*
X-36578666Y1092100D01*
X-38674934Y1092100D01*
X-38737116Y1085345D01*
X-38873505Y1034215D01*
X-38990061Y946861D01*
X-39077415Y830305D01*
X-39128545Y693916D01*
X-39135300Y631734D01*
X-39135300Y-1464534D01*
X-45478300Y-1464534D01*
X-45478300Y1112125D01*
X-28715317Y1112125D01*
X-28696328Y895081D01*
X-28694425Y884288D01*
X-28638036Y673839D01*
X-28634290Y663547D01*
X-28542214Y466089D01*
X-28536731Y456594D01*
X-28500291Y404552D01*
X-28489812Y396176D01*
X-28476366Y403244D01*
X-27774822Y1104788D01*
X-27768444Y1116468D01*
X-27038392Y1116468D01*
X-27038261Y1114635D01*
X-27034010Y1108020D01*
X-26328513Y402523D01*
X-26316738Y396093D01*
X-26304723Y405389D01*
X-26268869Y456594D01*
X-26263386Y466089D01*
X-26171310Y663547D01*
X-26167564Y673839D01*
X-26111175Y884288D01*
X-26109272Y895081D01*
X-26090283Y1112125D01*
X-26090283Y1123075D01*
X-26109272Y1340119D01*
X-26111175Y1350912D01*
X-26167564Y1561361D01*
X-26171310Y1571653D01*
X-26263386Y1769111D01*
X-26268869Y1778606D01*
X-26305309Y1830648D01*
X-26315788Y1839024D01*
X-26329234Y1831956D01*
X-27030778Y1130412D01*
X-27038392Y1116468D01*
X-27768444Y1116468D01*
X-27767208Y1118732D01*
X-27767339Y1120565D01*
X-27771590Y1127180D01*
X-28477087Y1832677D01*
X-28488862Y1839107D01*
X-28500877Y1829811D01*
X-28536731Y1778606D01*
X-28542214Y1769111D01*
X-28634290Y1571653D01*
X-28638036Y1561361D01*
X-28694425Y1350912D01*
X-28696328Y1340119D01*
X-28715317Y1123075D01*
X-28715317Y1112125D01*
X-45478300Y1112125D01*
X-45478300Y2204612D01*
X-28124224Y2204612D01*
X-28117156Y2191166D01*
X-27415612Y1489622D01*
X-27401668Y1482008D01*
X-27399835Y1482139D01*
X-27393220Y1486390D01*
X-26687723Y2191887D01*
X-26681293Y2203662D01*
X-26690589Y2215677D01*
X-26741794Y2251531D01*
X-26751289Y2257014D01*
X-26948747Y2349090D01*
X-26959039Y2352836D01*
X-27169488Y2409225D01*
X-27180281Y2411128D01*
X-27397325Y2430117D01*
X-27408275Y2430117D01*
X-27625319Y2411128D01*
X-27636112Y2409225D01*
X-27846561Y2352836D01*
X-27856853Y2349090D01*
X-28054311Y2257014D01*
X-28063806Y2251531D01*
X-28115848Y2215091D01*
X-28124224Y2204612D01*
X-45478300Y2204612D01*
X-45478300Y22907538D01*
X-44688307Y22907538D01*
X-44679011Y22895523D01*
X-44627806Y22859669D01*
X-44618311Y22854186D01*
X-44420853Y22762110D01*
X-44410561Y22758364D01*
X-44200112Y22701975D01*
X-44189319Y22700072D01*
X-43972275Y22681083D01*
X-43961325Y22681083D01*
X-43744281Y22700072D01*
X-43733488Y22701975D01*
X-43523039Y22758364D01*
X-43512747Y22762110D01*
X-43315289Y22854186D01*
X-43305794Y22859669D01*
X-43253752Y22896109D01*
X-43245376Y22906588D01*
X-43252444Y22920034D01*
X-43953988Y23621578D01*
X-43967932Y23629192D01*
X-43969765Y23629061D01*
X-43976380Y23624810D01*
X-44681877Y22919313D01*
X-44688307Y22907538D01*
X-45478300Y22907538D01*
X-45478300Y23623805D01*
X-45458298Y23691926D01*
X-45404642Y23738419D01*
X-45334368Y23748523D01*
X-45269788Y23719029D01*
X-45230593Y23656416D01*
X-45202036Y23549839D01*
X-45198290Y23539547D01*
X-45106214Y23342089D01*
X-45100731Y23332594D01*
X-45064291Y23280552D01*
X-45053812Y23272176D01*
X-45040366Y23279244D01*
X-44338822Y23980788D01*
X-44332444Y23992468D01*
X-43602392Y23992468D01*
X-43602261Y23990635D01*
X-43598010Y23984020D01*
X-42892513Y23278523D01*
X-42880738Y23272093D01*
X-42868723Y23281389D01*
X-42832869Y23332594D01*
X-42827386Y23342089D01*
X-42735310Y23539547D01*
X-42731564Y23549839D01*
X-42675175Y23760288D01*
X-42673272Y23771081D01*
X-42654283Y23988125D01*
X-42654283Y23999075D01*
X-42673272Y24216119D01*
X-42675175Y24226912D01*
X-42731564Y24437361D01*
X-42735310Y24447653D01*
X-42827386Y24645111D01*
X-42832869Y24654606D01*
X-42869309Y24706648D01*
X-42879788Y24715024D01*
X-42893234Y24707956D01*
X-43594778Y24006412D01*
X-43602392Y23992468D01*
X-44332444Y23992468D01*
X-44331208Y23994732D01*
X-44331339Y23996565D01*
X-44335590Y24003180D01*
X-45041087Y24708677D01*
X-45052862Y24715107D01*
X-45064877Y24705811D01*
X-45100731Y24654606D01*
X-45106214Y24645111D01*
X-45198290Y24447653D01*
X-45202036Y24437361D01*
X-45230593Y24330784D01*
X-45267545Y24270161D01*
X-45331405Y24239140D01*
X-45401900Y24247568D01*
X-45456647Y24292771D01*
X-45478300Y24363395D01*
X-45478300Y25080612D01*
X-44688224Y25080612D01*
X-44681156Y25067166D01*
X-43979612Y24365622D01*
X-43965668Y24358008D01*
X-43963835Y24358139D01*
X-43957220Y24362390D01*
X-43251723Y25067887D01*
X-43245293Y25079662D01*
X-43254589Y25091677D01*
X-43305794Y25127531D01*
X-43315289Y25133014D01*
X-43512747Y25225090D01*
X-43523039Y25228836D01*
X-43733488Y25285225D01*
X-43744281Y25287128D01*
X-43961325Y25306117D01*
X-43972275Y25306117D01*
X-44189319Y25287128D01*
X-44200112Y25285225D01*
X-44410561Y25228836D01*
X-44420853Y25225090D01*
X-44618311Y25133014D01*
X-44627806Y25127531D01*
X-44679848Y25091091D01*
X-44688224Y25080612D01*
X-45478300Y25080612D01*
X-45478300Y27903931D01*
X-31634799Y27903931D01*
X-31634429Y27897110D01*
X-31628905Y27846248D01*
X-31625279Y27830996D01*
X-31580124Y27710546D01*
X-31571586Y27694951D01*
X-31495085Y27592876D01*
X-31482524Y27580315D01*
X-31380449Y27503814D01*
X-31364854Y27495276D01*
X-31244406Y27450122D01*
X-31229151Y27446495D01*
X-31178286Y27440969D01*
X-31171472Y27440600D01*
X-30548915Y27440600D01*
X-30533676Y27445075D01*
X-30532471Y27446465D01*
X-30530800Y27454148D01*
X-30530800Y28526485D01*
X-30535275Y28541724D01*
X-30536665Y28542929D01*
X-30544348Y28544600D01*
X-31616684Y28544600D01*
X-31631923Y28540125D01*
X-31633128Y28538735D01*
X-31634799Y28531052D01*
X-31634799Y27903931D01*
X-45478300Y27903931D01*
X-45478300Y29070715D01*
X-31634800Y29070715D01*
X-31630325Y29055476D01*
X-31628935Y29054271D01*
X-31621252Y29052600D01*
X-30548915Y29052600D01*
X-30533676Y29057075D01*
X-30532471Y29058465D01*
X-30530800Y29066148D01*
X-30530800Y31066485D01*
X-30535275Y31081724D01*
X-30536665Y31082929D01*
X-30544348Y31084600D01*
X-31593575Y31084600D01*
X-31607106Y31080627D01*
X-31608543Y31070634D01*
X-31578235Y30936154D01*
X-31575155Y30926325D01*
X-31495030Y30728997D01*
X-31490387Y30719806D01*
X-31379106Y30538212D01*
X-31373023Y30529901D01*
X-31233587Y30368933D01*
X-31226222Y30361719D01*
X-31220834Y30357246D01*
X-31181201Y30298342D01*
X-31179705Y30227361D01*
X-31216822Y30166839D01*
X-31257093Y30142322D01*
X-31364852Y30101925D01*
X-31380449Y30093386D01*
X-31482524Y30016885D01*
X-31495085Y30004324D01*
X-31571586Y29902249D01*
X-31580124Y29886654D01*
X-31625278Y29766206D01*
X-31628905Y29750951D01*
X-31634431Y29700086D01*
X-31634800Y29693272D01*
X-31634800Y29070715D01*
X-45478300Y29070715D01*
X-45478300Y31604417D01*
X-31612411Y31604417D01*
X-31610888Y31595993D01*
X-31598508Y31592600D01*
X-30548915Y31592600D01*
X-30533676Y31597075D01*
X-30532471Y31598465D01*
X-30530800Y31606148D01*
X-30530800Y32655498D01*
X-30534718Y32668842D01*
X-30548994Y32670829D01*
X-30587476Y32664940D01*
X-30597512Y32662549D01*
X-30799932Y32596388D01*
X-30809441Y32592391D01*
X-30998337Y32494058D01*
X-31007062Y32488564D01*
X-31177367Y32360695D01*
X-31185074Y32353852D01*
X-31332210Y32199883D01*
X-31338696Y32191873D01*
X-31458702Y32015951D01*
X-31463800Y32006977D01*
X-31553462Y31813817D01*
X-31557025Y31804130D01*
X-31612411Y31604417D01*
X-45478300Y31604417D01*
X-45478300Y39345939D01*
X-3022407Y39345939D01*
X-3013113Y39333925D01*
X-2972712Y39305636D01*
X-2963216Y39300153D01*
X-2773687Y39211774D01*
X-2763395Y39208028D01*
X-2561399Y39153904D01*
X-2550604Y39152001D01*
X-2342275Y39133774D01*
X-2331325Y39133774D01*
X-2122996Y39152001D01*
X-2112201Y39153904D01*
X-1910205Y39208028D01*
X-1899913Y39211774D01*
X-1710384Y39300153D01*
X-1700888Y39305636D01*
X-1659652Y39334510D01*
X-1651277Y39344988D01*
X-1658343Y39358432D01*
X-2323989Y40024079D01*
X-2337932Y40031692D01*
X-2339766Y40031561D01*
X-2346380Y40027310D01*
X-3015980Y39357709D01*
X-3022407Y39345939D01*
X-45478300Y39345939D01*
X-45478300Y40390625D01*
X-3599126Y40390625D01*
X-3580899Y40182296D01*
X-3578996Y40171501D01*
X-3524872Y39969505D01*
X-3521126Y39959213D01*
X-3432746Y39769683D01*
X-3427266Y39760193D01*
X-3398389Y39718951D01*
X-3387913Y39710577D01*
X-3374466Y39717645D01*
X-2708821Y40383289D01*
X-2701208Y40397232D01*
X-2701339Y40399066D01*
X-2705590Y40405680D01*
X-3375191Y41075280D01*
X-3386961Y41081707D01*
X-3398976Y41072411D01*
X-3427266Y41032007D01*
X-3432746Y41022517D01*
X-3521126Y40832987D01*
X-3524872Y40822695D01*
X-3578996Y40620699D01*
X-3580899Y40609904D01*
X-3599126Y40401575D01*
X-3599126Y40390625D01*
X-45478300Y40390625D01*
X-45478300Y41447213D01*
X-3022323Y41447213D01*
X-3015255Y41433766D01*
X-2349611Y40768121D01*
X-2335668Y40760508D01*
X-2333834Y40760639D01*
X-2327220Y40764890D01*
X-1657620Y41434491D01*
X-1651193Y41446261D01*
X-1660487Y41458275D01*
X-1700888Y41486564D01*
X-1710384Y41492047D01*
X-1899913Y41580426D01*
X-1910205Y41584172D01*
X-2112201Y41638296D01*
X-2122996Y41640199D01*
X-2331325Y41658426D01*
X-2342275Y41658426D01*
X-2550604Y41640199D01*
X-2561399Y41638296D01*
X-2763395Y41584172D01*
X-2773687Y41580426D01*
X-2963217Y41492046D01*
X-2972707Y41486566D01*
X-3013949Y41457689D01*
X-3022323Y41447213D01*
X-45478300Y41447213D01*
X-45478300Y44679100D01*
X-45458298Y44747221D01*
X-45404642Y44793714D01*
X-45352300Y44805100D01*
X3197118Y44805100D01*
X3265239Y44785098D01*
G37*
%TD.AperFunction*%
%TA.AperFunction,Conductor*%
G36*
X17375821Y11470098D02*
G01*
X17422314Y11416442D01*
X17433700Y11364100D01*
X17433700Y7725814D01*
X17433693Y7724494D01*
X17432749Y7634379D01*
X17441911Y7592003D01*
X17443969Y7579437D01*
X17448803Y7536345D01*
X17451119Y7529694D01*
X17451120Y7529690D01*
X17459833Y7504670D01*
X17463996Y7489858D01*
X17471081Y7457090D01*
X17489408Y7417787D01*
X17494190Y7406011D01*
X17508455Y7365048D01*
X17512189Y7359073D01*
X17512190Y7359070D01*
X17526227Y7336605D01*
X17533566Y7323088D01*
X17544759Y7299086D01*
X17547738Y7292698D01*
X17552055Y7287133D01*
X17552056Y7287131D01*
X17574306Y7258447D01*
X17581602Y7247988D01*
X17581995Y7247360D01*
X17604574Y7211224D01*
X17609534Y7206229D01*
X17609535Y7206228D01*
X17633176Y7182421D01*
X17633761Y7181796D01*
X17634278Y7181130D01*
X17660267Y7155141D01*
X17732385Y7082518D01*
X17733422Y7081860D01*
X17734651Y7080757D01*
X19314951Y5500458D01*
X20873795Y3941614D01*
X20907821Y3879302D01*
X20910700Y3852519D01*
X20910700Y3525959D01*
X20890698Y3457838D01*
X20837042Y3411345D01*
X20766768Y3401241D01*
X20742641Y3407186D01*
X20622291Y3449804D01*
X20622283Y3449806D01*
X20617412Y3451531D01*
X20612319Y3452438D01*
X20612316Y3452439D01*
X20402573Y3489800D01*
X20402567Y3489801D01*
X20397484Y3490706D01*
X20323652Y3491608D01*
X20179281Y3493372D01*
X20179279Y3493372D01*
X20174111Y3493435D01*
X19953291Y3459645D01*
X19740956Y3390243D01*
X19542807Y3287093D01*
X19538674Y3283990D01*
X19538671Y3283988D01*
X19368300Y3156070D01*
X19364165Y3152965D01*
X19209829Y2991462D01*
X19207832Y2988535D01*
X19149803Y2948452D01*
X19110302Y2942100D01*
X15706364Y2942100D01*
X15705045Y2942107D01*
X15614979Y2943050D01*
X15608093Y2941561D01*
X15608091Y2941561D01*
X15589513Y2937544D01*
X15572614Y2933890D01*
X15560035Y2931830D01*
X15523941Y2927782D01*
X15523938Y2927781D01*
X15516945Y2926997D01*
X15485268Y2915966D01*
X15470458Y2911804D01*
X15444578Y2906209D01*
X15444574Y2906208D01*
X15437689Y2904719D01*
X15431305Y2901742D01*
X15431299Y2901740D01*
X15398393Y2886396D01*
X15386584Y2881601D01*
X15345648Y2867345D01*
X15339676Y2863613D01*
X15339669Y2863610D01*
X15317205Y2849573D01*
X15303688Y2842234D01*
X15279681Y2831039D01*
X15279677Y2831037D01*
X15273298Y2828062D01*
X15245384Y2806410D01*
X15239044Y2801492D01*
X15228595Y2794203D01*
X15191824Y2771226D01*
X15186825Y2766261D01*
X15186823Y2766260D01*
X15163015Y2742617D01*
X15162392Y2742034D01*
X15161730Y2741521D01*
X15135881Y2715672D01*
X15063118Y2643415D01*
X15062458Y2642375D01*
X15061357Y2641148D01*
X14371167Y1950959D01*
X14308855Y1916934D01*
X14271091Y1914534D01*
X14178676Y1922619D01*
X14178675Y1922619D01*
X14173200Y1923098D01*
X13945113Y1903143D01*
X13939800Y1901719D01*
X13939798Y1901719D01*
X13729267Y1845307D01*
X13729265Y1845306D01*
X13723957Y1843884D01*
X13718976Y1841561D01*
X13718975Y1841561D01*
X13521438Y1749449D01*
X13521433Y1749446D01*
X13516451Y1747123D01*
X13460435Y1707900D01*
X13333411Y1618957D01*
X13333408Y1618955D01*
X13328900Y1615798D01*
X13167002Y1453900D01*
X13035677Y1266349D01*
X13033354Y1261367D01*
X13033351Y1261362D01*
X12963761Y1112124D01*
X12938916Y1058843D01*
X12937494Y1053535D01*
X12937493Y1053533D01*
X12905223Y933100D01*
X12879657Y837687D01*
X12859702Y609600D01*
X12879657Y381513D01*
X12881081Y376200D01*
X12881081Y376198D01*
X12925122Y211838D01*
X12938916Y160357D01*
X12941239Y155376D01*
X12941239Y155375D01*
X13033351Y-42162D01*
X13033354Y-42167D01*
X13035677Y-47149D01*
X13078575Y-108413D01*
X13160951Y-226058D01*
X13167002Y-234700D01*
X13328900Y-396598D01*
X13333408Y-399755D01*
X13333411Y-399757D01*
X13411589Y-454498D01*
X13516451Y-527923D01*
X13521433Y-530246D01*
X13521438Y-530249D01*
X13652782Y-591495D01*
X13723957Y-624684D01*
X13729265Y-626106D01*
X13729267Y-626107D01*
X13939798Y-682519D01*
X13939800Y-682519D01*
X13945113Y-683943D01*
X14173200Y-703898D01*
X14401287Y-683943D01*
X14406600Y-682519D01*
X14406602Y-682519D01*
X14617133Y-626107D01*
X14617135Y-626106D01*
X14622443Y-624684D01*
X14693618Y-591495D01*
X14824962Y-530249D01*
X14824967Y-530246D01*
X14829949Y-527923D01*
X14934811Y-454498D01*
X15012989Y-399757D01*
X15012992Y-399755D01*
X15017500Y-396598D01*
X15179398Y-234700D01*
X15185450Y-226058D01*
X15267825Y-108413D01*
X15310723Y-47149D01*
X15313046Y-42167D01*
X15313049Y-42162D01*
X15405161Y155375D01*
X15405161Y155376D01*
X15407484Y160357D01*
X15421279Y211838D01*
X15465319Y376198D01*
X15465319Y376200D01*
X15466743Y381513D01*
X15486698Y609600D01*
X15486165Y615695D01*
X15478134Y707492D01*
X15492124Y777097D01*
X15514560Y807568D01*
X15995187Y1288195D01*
X16057499Y1322221D01*
X16084282Y1325100D01*
X19114589Y1325100D01*
X19182710Y1305098D01*
X19209825Y1281599D01*
X19315450Y1159662D01*
X19487326Y1016968D01*
X19547263Y981944D01*
X19561155Y973826D01*
X19609879Y922188D01*
X19622950Y852405D01*
X19596219Y786633D01*
X19555762Y753273D01*
X19547657Y749054D01*
X19538938Y743564D01*
X19368633Y615695D01*
X19360926Y608852D01*
X19213790Y454883D01*
X19207304Y446873D01*
X19087298Y270951D01*
X19082200Y261977D01*
X18992538Y68817D01*
X18988975Y59130D01*
X18933589Y-140583D01*
X18935112Y-149007D01*
X18947492Y-152400D01*
X20397200Y-152400D01*
X20465321Y-172402D01*
X20511814Y-226058D01*
X20523200Y-278400D01*
X20523200Y-534400D01*
X20503198Y-602521D01*
X20449542Y-649014D01*
X20397200Y-660400D01*
X18952425Y-660400D01*
X18938894Y-664373D01*
X18937457Y-674366D01*
X18967765Y-808846D01*
X18970845Y-818675D01*
X19050970Y-1016003D01*
X19055613Y-1025194D01*
X19166894Y-1206788D01*
X19172977Y-1215099D01*
X19312413Y-1376067D01*
X19319780Y-1383283D01*
X19483634Y-1519316D01*
X19492081Y-1525231D01*
X19561169Y-1565603D01*
X19609893Y-1617242D01*
X19622964Y-1687025D01*
X19596233Y-1752796D01*
X19555784Y-1786152D01*
X19542807Y-1792907D01*
X19538674Y-1796010D01*
X19538671Y-1796012D01*
X19379700Y-1915371D01*
X19364165Y-1927035D01*
X19298546Y-1995701D01*
X19214362Y-2083795D01*
X19209829Y-2088538D01*
X19206915Y-2092810D01*
X19206914Y-2092811D01*
X19149514Y-2176957D01*
X19083943Y-2273080D01*
X19055652Y-2334029D01*
X19002738Y-2448023D01*
X18989888Y-2475705D01*
X18930189Y-2690970D01*
X18906451Y-2913095D01*
X18906748Y-2918248D01*
X18906748Y-2918251D01*
X18912065Y-3010467D01*
X18919310Y-3136115D01*
X18920447Y-3141161D01*
X18920448Y-3141167D01*
X18931154Y-3188670D01*
X18968422Y-3354039D01*
X19052466Y-3561016D01*
X19055165Y-3565420D01*
X19146295Y-3714131D01*
X19169187Y-3751488D01*
X19315450Y-3920338D01*
X19319430Y-3923642D01*
X19324181Y-3927587D01*
X19363816Y-3986490D01*
X19365313Y-4057471D01*
X19328197Y-4117993D01*
X19287925Y-4142512D01*
X19191951Y-4178491D01*
X19172495Y-4185785D01*
X19055939Y-4273139D01*
X18968585Y-4389695D01*
X18917455Y-4526084D01*
X18915893Y-4540462D01*
X18913172Y-4565508D01*
X18885930Y-4631070D01*
X18827566Y-4671496D01*
X18787909Y-4677900D01*
X6587588Y-4677900D01*
X6519467Y-4657898D01*
X6472974Y-4604242D01*
X6462870Y-4533968D01*
X6492364Y-4469388D01*
X6498493Y-4462805D01*
X6932228Y-4029070D01*
X8390924Y-4029070D01*
X8396651Y-4036720D01*
X8567806Y-4141605D01*
X8576601Y-4146087D01*
X8786752Y-4233134D01*
X8796137Y-4236183D01*
X9017318Y-4289285D01*
X9027065Y-4290828D01*
X9253834Y-4308675D01*
X9263694Y-4308675D01*
X9490463Y-4290828D01*
X9500210Y-4289285D01*
X9721391Y-4236183D01*
X9730776Y-4233134D01*
X9940927Y-4146087D01*
X9949722Y-4141605D01*
X10117209Y-4038968D01*
X10126671Y-4028510D01*
X10122888Y-4019734D01*
X9271576Y-3168422D01*
X9257632Y-3160808D01*
X9255799Y-3160939D01*
X9249184Y-3165190D01*
X8397684Y-4016690D01*
X8390924Y-4029070D01*
X6932228Y-4029070D01*
X7650864Y-3310434D01*
X7713176Y-3276408D01*
X7783991Y-3281473D01*
X7840827Y-3324020D01*
X7856368Y-3351311D01*
X7909077Y-3478563D01*
X7913559Y-3487358D01*
X8016196Y-3654845D01*
X8026654Y-3664307D01*
X8035430Y-3660524D01*
X8898422Y-2797532D01*
X9623172Y-2797532D01*
X9623303Y-2799365D01*
X9627554Y-2805980D01*
X10479054Y-3657480D01*
X10491434Y-3664240D01*
X10499084Y-3658513D01*
X10603969Y-3487358D01*
X10608451Y-3478563D01*
X10695498Y-3268412D01*
X10698547Y-3259027D01*
X10751649Y-3037846D01*
X10753192Y-3028099D01*
X10771039Y-2801330D01*
X10771039Y-2791470D01*
X10753192Y-2564701D01*
X10751649Y-2554954D01*
X10698547Y-2333773D01*
X10695498Y-2324388D01*
X10608451Y-2114237D01*
X10603969Y-2105442D01*
X10501332Y-1937955D01*
X10490874Y-1928493D01*
X10482098Y-1932276D01*
X9630786Y-2783588D01*
X9623172Y-2797532D01*
X8898422Y-2797532D01*
X10119844Y-1576110D01*
X10126604Y-1563730D01*
X10120877Y-1556080D01*
X9949722Y-1451195D01*
X9940927Y-1446713D01*
X9730776Y-1359666D01*
X9721391Y-1356617D01*
X9500210Y-1303515D01*
X9490463Y-1301972D01*
X9263694Y-1284125D01*
X9253834Y-1284125D01*
X9027065Y-1301972D01*
X9017318Y-1303515D01*
X8796137Y-1356617D01*
X8786752Y-1359666D01*
X8625918Y-1426286D01*
X8555328Y-1433875D01*
X8491841Y-1402096D01*
X8455614Y-1341038D01*
X8451700Y-1309877D01*
X8451700Y1996856D01*
X8471702Y2064977D01*
X8525358Y2111470D01*
X8595632Y2121574D01*
X8622649Y2114566D01*
X8708201Y2081897D01*
X8718099Y2079021D01*
X8821450Y2057994D01*
X8835499Y2059190D01*
X8839200Y2069535D01*
X8839200Y2070083D01*
X9347200Y2070083D01*
X9351264Y2056241D01*
X9364678Y2054207D01*
X9371384Y2055066D01*
X9381462Y2057208D01*
X9585455Y2118409D01*
X9595042Y2122167D01*
X9786295Y2215861D01*
X9795145Y2221136D01*
X9968528Y2344808D01*
X9976400Y2351461D01*
X10127252Y2501788D01*
X10133930Y2509635D01*
X10258203Y2682580D01*
X10263513Y2691417D01*
X10357870Y2882333D01*
X10361669Y2891928D01*
X10423577Y3095690D01*
X10425755Y3105763D01*
X10427186Y3116638D01*
X10424975Y3130822D01*
X10411817Y3134600D01*
X9365315Y3134600D01*
X9350076Y3130125D01*
X9348871Y3128735D01*
X9347200Y3121052D01*
X9347200Y2070083D01*
X8839200Y2070083D01*
X8839200Y3516600D01*
X8859202Y3584721D01*
X8912858Y3631214D01*
X8965200Y3642600D01*
X10411544Y3642600D01*
X10425075Y3646573D01*
X10426380Y3655653D01*
X10384414Y3822725D01*
X10381094Y3832476D01*
X10296172Y4027786D01*
X10291305Y4036861D01*
X10175626Y4215674D01*
X10169336Y4223843D01*
X10026006Y4381360D01*
X10018473Y4388385D01*
X9851339Y4520378D01*
X9842756Y4526080D01*
X9805802Y4546480D01*
X9755831Y4596913D01*
X9741059Y4666355D01*
X9766175Y4732761D01*
X9793527Y4759368D01*
X9872325Y4815574D01*
X9973060Y4887427D01*
X9982086Y4896421D01*
X10121513Y5035362D01*
X10131296Y5045111D01*
X10139359Y5056331D01*
X10258635Y5222323D01*
X10261653Y5226523D01*
X10267357Y5238063D01*
X10358336Y5422147D01*
X10358337Y5422149D01*
X10360630Y5426789D01*
X10425570Y5640531D01*
X10454729Y5862010D01*
X10455817Y5906548D01*
X10456274Y5925235D01*
X10456274Y5925239D01*
X10456356Y5928600D01*
X10438052Y6151239D01*
X10383631Y6367898D01*
X10294554Y6572760D01*
X10173214Y6760323D01*
X10169732Y6764150D01*
X10025998Y6922112D01*
X9994946Y6985958D01*
X10003341Y7056457D01*
X10048517Y7111225D01*
X10074961Y7124894D01*
X10181497Y7164833D01*
X10189905Y7167985D01*
X10306461Y7255339D01*
X10393815Y7371895D01*
X10444945Y7508284D01*
X10451700Y7570466D01*
X10451700Y9366734D01*
X10444945Y9428916D01*
X10393815Y9565305D01*
X10306461Y9681861D01*
X10189905Y9769215D01*
X10053516Y9820345D01*
X9991334Y9827100D01*
X8195066Y9827100D01*
X8132884Y9820345D01*
X7996495Y9769215D01*
X7879939Y9681861D01*
X7792585Y9565305D01*
X7741455Y9428916D01*
X7740602Y9421060D01*
X7737172Y9389492D01*
X7709930Y9323930D01*
X7651566Y9283504D01*
X7611909Y9277100D01*
X6039364Y9277100D01*
X6038045Y9277107D01*
X5947979Y9278050D01*
X5941093Y9276561D01*
X5941091Y9276561D01*
X5922513Y9272544D01*
X5905614Y9268890D01*
X5893035Y9266830D01*
X5856941Y9262782D01*
X5856938Y9262781D01*
X5849945Y9261997D01*
X5818268Y9250966D01*
X5803458Y9246804D01*
X5777578Y9241209D01*
X5777574Y9241208D01*
X5770689Y9239719D01*
X5764305Y9236742D01*
X5764299Y9236740D01*
X5731393Y9221396D01*
X5719584Y9216601D01*
X5678648Y9202345D01*
X5672676Y9198613D01*
X5672669Y9198610D01*
X5650205Y9184573D01*
X5636688Y9177234D01*
X5612683Y9166040D01*
X5612679Y9166038D01*
X5606298Y9163062D01*
X5604692Y9161816D01*
X5538039Y9143912D01*
X5470400Y9165487D01*
X5425163Y9220206D01*
X5416691Y9290695D01*
X5451864Y9358973D01*
X7546086Y11453195D01*
X7608398Y11487221D01*
X7635181Y11490100D01*
X17307700Y11490100D01*
X17375821Y11470098D01*
G37*
%TD.AperFunction*%
%TA.AperFunction,Conductor*%
G36*
X1477667Y5280610D02*
G01*
X1534503Y5238063D01*
X1559314Y5171543D01*
X1545443Y5107776D01*
X1546724Y5107157D01*
X1532128Y5076963D01*
X1524599Y5063546D01*
X1506435Y5035362D01*
X1504027Y5028745D01*
X1504024Y5028740D01*
X1491608Y4994627D01*
X1486647Y4982884D01*
X1470846Y4950197D01*
X1470844Y4950192D01*
X1467779Y4943851D01*
X1466196Y4936993D01*
X1466195Y4936991D01*
X1460235Y4911174D01*
X1455868Y4896431D01*
X1444397Y4864915D01*
X1443514Y4857925D01*
X1443512Y4857917D01*
X1438962Y4821899D01*
X1436726Y4809347D01*
X1426976Y4767115D01*
X1426951Y4760069D01*
X1426951Y4760066D01*
X1426834Y4726544D01*
X1426805Y4725662D01*
X1426700Y4724831D01*
X1426700Y4688181D01*
X1426699Y4687741D01*
X1426465Y4620574D01*
X1426343Y4585730D01*
X1426611Y4584530D01*
X1426700Y4582893D01*
X1426700Y2101353D01*
X1406698Y2033232D01*
X1353042Y1986739D01*
X1282768Y1976635D01*
X1218188Y2006129D01*
X1199874Y2025788D01*
X1181486Y2050323D01*
X1168924Y2062885D01*
X1066849Y2139386D01*
X1051254Y2147924D01*
X930806Y2193078D01*
X915551Y2196705D01*
X864686Y2202231D01*
X857872Y2202600D01*
X335315Y2202600D01*
X320076Y2198125D01*
X318871Y2196735D01*
X317200Y2189052D01*
X317200Y1116600D01*
X297198Y1048479D01*
X243542Y1001986D01*
X191200Y990600D01*
X-1176684Y990600D01*
X-1191923Y986125D01*
X-1193128Y984735D01*
X-1194799Y977052D01*
X-1194799Y749931D01*
X-1194429Y743110D01*
X-1188905Y692248D01*
X-1185280Y677000D01*
X-1176861Y654543D01*
X-1171678Y583736D01*
X-1176858Y566090D01*
X-1188545Y534916D01*
X-1195300Y472734D01*
X-1195300Y-100318D01*
X-1215302Y-168439D01*
X-1268958Y-214932D01*
X-1339232Y-225036D01*
X-1403812Y-195542D01*
X-1410395Y-189413D01*
X-1491395Y-108413D01*
X-1525421Y-46101D01*
X-1528300Y-19318D01*
X-1528300Y1516715D01*
X-1194800Y1516715D01*
X-1190325Y1501476D01*
X-1188935Y1500271D01*
X-1181252Y1498600D01*
X-208915Y1498600D01*
X-193676Y1503075D01*
X-192471Y1504465D01*
X-190800Y1512148D01*
X-190800Y2184484D01*
X-195275Y2199723D01*
X-196665Y2200928D01*
X-204348Y2202599D01*
X-731469Y2202599D01*
X-738290Y2202229D01*
X-789152Y2196705D01*
X-804404Y2193079D01*
X-924854Y2147924D01*
X-940449Y2139386D01*
X-1042524Y2062885D01*
X-1055085Y2050324D01*
X-1131586Y1948249D01*
X-1140124Y1932654D01*
X-1185278Y1812206D01*
X-1188905Y1796951D01*
X-1194431Y1746086D01*
X-1194800Y1739272D01*
X-1194800Y1516715D01*
X-1528300Y1516715D01*
X-1528300Y2326619D01*
X-1508298Y2394740D01*
X-1491395Y2415714D01*
X1344540Y5251649D01*
X1406852Y5285675D01*
X1477667Y5280610D01*
G37*
%TD.AperFunction*%
%TD*%
M02*
