%TF.GenerationSoftware,KiCad,Pcbnew,(6.0.10)*%
%TF.CreationDate,2023-02-16T10:20:13+01:00*%
%TF.ProjectId,Weerstation,57656572-7374-4617-9469-6f6e2e6b6963,rev?*%
%TF.SameCoordinates,Original*%
%TF.FileFunction,Paste,Top*%
%TF.FilePolarity,Positive*%
%FSLAX46Y46*%
G04 Gerber Fmt 4.6, Leading zero omitted, Abs format (unit mm)*
G04 Created by KiCad (PCBNEW (6.0.10)) date 2023-02-16 10:20:13*
%MOMM*%
%LPD*%
G01*
G04 APERTURE LIST*
%ADD10R,1.500000X0.900000*%
%ADD11R,0.900000X1.500000*%
%ADD12R,0.900000X0.900000*%
G04 APERTURE END LIST*
D10*
%TO.C,U1*%
X-17436800Y1244600D03*
X-17436800Y-25400D03*
X-17436800Y-1295400D03*
X-17436800Y-2565400D03*
X-17436800Y-3835400D03*
X-17436800Y-5105400D03*
X-17436800Y-6375400D03*
X-17436800Y-7645400D03*
X-17436800Y-8915400D03*
X-17436800Y-10185400D03*
X-17436800Y-11455400D03*
X-17436800Y-12725400D03*
X-17436800Y-13995400D03*
X-17436800Y-15265400D03*
D11*
X-14401800Y-16360400D03*
X-13131800Y-16360400D03*
X-11861800Y-16360400D03*
X-10591800Y-16360400D03*
X-9321800Y-16360400D03*
X-8051800Y-16360400D03*
X-6781800Y-16360400D03*
X-5511800Y-16360400D03*
X-4241800Y-16360400D03*
X-2971800Y-16360400D03*
D10*
X63200Y-15265400D03*
X63200Y-13995400D03*
X63200Y-12725400D03*
X63200Y-11455400D03*
X63200Y-10185400D03*
X63200Y-8915400D03*
X63200Y-7645400D03*
X63200Y-6375400D03*
X63200Y-5105400D03*
X63200Y-3835400D03*
X63200Y-2565400D03*
X63200Y-1295400D03*
X63200Y-25400D03*
X63200Y1244600D03*
D12*
X-11586800Y-7720400D03*
X-10186800Y-7720400D03*
X-11586800Y-6320400D03*
X-10186800Y-4920400D03*
X-10186800Y-6320400D03*
X-8786800Y-4920400D03*
X-8786800Y-6320400D03*
X-8786800Y-7720400D03*
X-11586800Y-4920400D03*
%TD*%
M02*
