%TF.GenerationSoftware,KiCad,Pcbnew,(6.0.10)*%
%TF.CreationDate,2023-02-16T10:20:13+01:00*%
%TF.ProjectId,Weerstation,57656572-7374-4617-9469-6f6e2e6b6963,rev?*%
%TF.SameCoordinates,Original*%
%TF.FileFunction,Legend,Top*%
%TF.FilePolarity,Positive*%
%FSLAX46Y46*%
G04 Gerber Fmt 4.6, Leading zero omitted, Abs format (unit mm)*
G04 Created by KiCad (PCBNEW (6.0.10)) date 2023-02-16 10:20:13*
%MOMM*%
%LPD*%
G01*
G04 APERTURE LIST*
%ADD10C,0.150000*%
%ADD11C,0.300000*%
%ADD12C,0.200000*%
%ADD13C,0.120000*%
G04 APERTURE END LIST*
D10*
X-12496800Y27533600D02*
X-12496800Y44043600D01*
X-12496800Y27533600D02*
X-15036800Y27533600D01*
X-32816800Y27533600D02*
X-35356800Y27533600D01*
X23493200Y13803600D02*
X45493200Y13803600D01*
X23493200Y43803600D02*
X45493200Y43803600D01*
X45493200Y13803600D02*
X45493200Y43803600D01*
X45415200Y-16596400D02*
X45415200Y3403600D01*
X-15036800Y27533600D02*
X-12496800Y27533600D01*
X-35356800Y27533600D02*
X-35356800Y44043600D01*
X-23241000Y6601200D02*
X-39441000Y6601200D01*
X23415200Y-16596400D02*
X45415200Y-16596400D01*
X23415200Y3403600D02*
X45415200Y3403600D01*
X23415200Y-16596400D02*
X23415200Y3403600D01*
X-23241000Y20401200D02*
X-39441000Y20401200D01*
X23493200Y13803600D02*
X23493200Y43803600D01*
X20511771Y26143600D02*
X20454628Y26029315D01*
X20454628Y25800743D01*
X20511771Y25686458D01*
X20626057Y25572172D01*
X20740342Y25515029D01*
X20968914Y25515029D01*
X21083200Y25572172D01*
X21197485Y25686458D01*
X21254628Y25800743D01*
X21254628Y26029315D01*
X21197485Y26143600D01*
X20054628Y25915029D02*
X20111771Y25629315D01*
X20283200Y25343600D01*
X20568914Y25172172D01*
X20854628Y25115029D01*
X21140342Y25172172D01*
X21426057Y25343600D01*
X21597485Y25629315D01*
X21654628Y25915029D01*
X21597485Y26200743D01*
X21426057Y26486458D01*
X21140342Y26657886D01*
X20854628Y26715029D01*
X20568914Y26657886D01*
X20283200Y26486458D01*
X20111771Y26200743D01*
X20054628Y25915029D01*
X20340342Y28086458D02*
X20283200Y28143600D01*
X20226057Y28257886D01*
X20226057Y28543600D01*
X20283200Y28657886D01*
X20340342Y28715029D01*
X20454628Y28772172D01*
X20568914Y28772172D01*
X20740342Y28715029D01*
X21426057Y28029315D01*
X21426057Y28772172D01*
X20226057Y29515029D02*
X20226057Y29629315D01*
X20283200Y29743600D01*
X20340342Y29800743D01*
X20454628Y29857886D01*
X20683200Y29915029D01*
X20968914Y29915029D01*
X21197485Y29857886D01*
X21311771Y29800743D01*
X21368914Y29743600D01*
X21426057Y29629315D01*
X21426057Y29515029D01*
X21368914Y29400743D01*
X21311771Y29343600D01*
X21197485Y29286458D01*
X20968914Y29229315D01*
X20683200Y29229315D01*
X20454628Y29286458D01*
X20340342Y29343600D01*
X20283200Y29400743D01*
X20226057Y29515029D01*
X20340342Y30372172D02*
X20283200Y30429315D01*
X20226057Y30543600D01*
X20226057Y30829315D01*
X20283200Y30943600D01*
X20340342Y31000743D01*
X20454628Y31057886D01*
X20568914Y31057886D01*
X20740342Y31000743D01*
X21426057Y30315029D01*
X21426057Y31057886D01*
X20226057Y31457886D02*
X20226057Y32200743D01*
X20683200Y31800743D01*
X20683200Y31972172D01*
X20740342Y32086458D01*
X20797485Y32143600D01*
X20911771Y32200743D01*
X21197485Y32200743D01*
X21311771Y32143600D01*
X21368914Y32086458D01*
X21426057Y31972172D01*
X21426057Y31629315D01*
X21368914Y31515029D01*
X21311771Y31457886D01*
X21426057Y33629315D02*
X20226057Y33629315D01*
X20226057Y34086458D01*
X20283200Y34200743D01*
X20340342Y34257886D01*
X20454628Y34315029D01*
X20626057Y34315029D01*
X20740342Y34257886D01*
X20797485Y34200743D01*
X20854628Y34086458D01*
X20854628Y33629315D01*
X20797485Y34829315D02*
X20797485Y35229315D01*
X21426057Y35400743D02*
X21426057Y34829315D01*
X20226057Y34829315D01*
X20226057Y35400743D01*
X20226057Y36486458D02*
X20226057Y35915029D01*
X20797485Y35857886D01*
X20740342Y35915029D01*
X20683200Y36029315D01*
X20683200Y36315029D01*
X20740342Y36429315D01*
X20797485Y36486458D01*
X20911771Y36543600D01*
X21197485Y36543600D01*
X21311771Y36486458D01*
X21368914Y36429315D01*
X21426057Y36315029D01*
X21426057Y36029315D01*
X21368914Y35915029D01*
X21311771Y35857886D01*
X21426057Y37057886D02*
X20226057Y37057886D01*
X20226057Y37515029D01*
X20283200Y37629315D01*
X20340342Y37686458D01*
X20454628Y37743600D01*
X20626057Y37743600D01*
X20740342Y37686458D01*
X20797485Y37629315D01*
X20854628Y37515029D01*
X20854628Y37057886D01*
X20226057Y38086458D02*
X21426057Y38486458D01*
X20226057Y38886458D01*
X20797485Y39686458D02*
X20854628Y39857886D01*
X20911771Y39915029D01*
X21026057Y39972172D01*
X21197485Y39972172D01*
X21311771Y39915029D01*
X21368914Y39857886D01*
X21426057Y39743600D01*
X21426057Y39286458D01*
X20226057Y39286458D01*
X20226057Y39686458D01*
X20283200Y39800743D01*
X20340342Y39857886D01*
X20454628Y39915029D01*
X20568914Y39915029D01*
X20683200Y39857886D01*
X20740342Y39800743D01*
X20797485Y39686458D01*
X20797485Y39286458D01*
X17892723Y16921220D02*
X17559390Y17397410D01*
X17321295Y16921220D02*
X17321295Y17921220D01*
X17702247Y17921220D01*
X17797485Y17873600D01*
X17845104Y17825981D01*
X17892723Y17730743D01*
X17892723Y17587886D01*
X17845104Y17492648D01*
X17797485Y17445029D01*
X17702247Y17397410D01*
X17321295Y17397410D01*
X17249866Y15391220D02*
X17916533Y15391220D01*
X17249866Y14391220D01*
X17916533Y14391220D01*
X17892723Y1661220D02*
X17559390Y2137410D01*
X17321295Y1661220D02*
X17321295Y2661220D01*
X17702247Y2661220D01*
X17797485Y2613600D01*
X17845104Y2565981D01*
X17892723Y2470743D01*
X17892723Y2327886D01*
X17845104Y2232648D01*
X17797485Y2185029D01*
X17702247Y2137410D01*
X17321295Y2137410D01*
X17845104Y10253600D02*
X17749866Y10301220D01*
X17607009Y10301220D01*
X17464152Y10253600D01*
X17368914Y10158362D01*
X17321295Y10063124D01*
X17273676Y9872648D01*
X17273676Y9729791D01*
X17321295Y9539315D01*
X17368914Y9444077D01*
X17464152Y9348839D01*
X17607009Y9301220D01*
X17702247Y9301220D01*
X17845104Y9348839D01*
X17892723Y9396458D01*
X17892723Y9729791D01*
X17702247Y9729791D01*
X6197485Y8991220D02*
X6768914Y8991220D01*
X6483200Y7991220D02*
X6483200Y8991220D01*
D11*
X50437961Y5926934D02*
X49485580Y5260267D01*
X50437961Y4784077D02*
X48437961Y4784077D01*
X48437961Y5545981D01*
X48533200Y5736458D01*
X48628438Y5831696D01*
X48818914Y5926934D01*
X49104628Y5926934D01*
X49295104Y5831696D01*
X49390342Y5736458D01*
X49485580Y5545981D01*
X49485580Y4784077D01*
X50437961Y7641220D02*
X49390342Y7641220D01*
X49199866Y7545981D01*
X49104628Y7355505D01*
X49104628Y6974553D01*
X49199866Y6784077D01*
X50342723Y7641220D02*
X50437961Y7450743D01*
X50437961Y6974553D01*
X50342723Y6784077D01*
X50152247Y6688839D01*
X49961771Y6688839D01*
X49771295Y6784077D01*
X49676057Y6974553D01*
X49676057Y7450743D01*
X49580819Y7641220D01*
X50437961Y9450743D02*
X48437961Y9450743D01*
X50342723Y9450743D02*
X50437961Y9260267D01*
X50437961Y8879315D01*
X50342723Y8688839D01*
X50247485Y8593600D01*
X50057009Y8498362D01*
X49485580Y8498362D01*
X49295104Y8593600D01*
X49199866Y8688839D01*
X49104628Y8879315D01*
X49104628Y9260267D01*
X49199866Y9450743D01*
X50437961Y10403124D02*
X49104628Y10403124D01*
X48437961Y10403124D02*
X48533200Y10307886D01*
X48628438Y10403124D01*
X48533200Y10498362D01*
X48437961Y10403124D01*
X48628438Y10403124D01*
X50437961Y11641220D02*
X50342723Y11450743D01*
X50247485Y11355505D01*
X50057009Y11260267D01*
X49485580Y11260267D01*
X49295104Y11355505D01*
X49199866Y11450743D01*
X49104628Y11641220D01*
X49104628Y11926934D01*
X49199866Y12117410D01*
X49295104Y12212648D01*
X49485580Y12307886D01*
X50057009Y12307886D01*
X50247485Y12212648D01*
X50342723Y12117410D01*
X50437961Y11926934D01*
X50437961Y11641220D01*
X50437961Y13165029D02*
X48437961Y13165029D01*
X49676057Y13355505D02*
X50437961Y13926934D01*
X49104628Y13926934D02*
X49866533Y13165029D01*
X50437961Y15641220D02*
X49390342Y15641220D01*
X49199866Y15545981D01*
X49104628Y15355505D01*
X49104628Y14974553D01*
X49199866Y14784077D01*
X50342723Y15641220D02*
X50437961Y15450743D01*
X50437961Y14974553D01*
X50342723Y14784077D01*
X50152247Y14688839D01*
X49961771Y14688839D01*
X49771295Y14784077D01*
X49676057Y14974553D01*
X49676057Y15450743D01*
X49580819Y15641220D01*
X50437961Y16593600D02*
X49104628Y16593600D01*
X49295104Y16593600D02*
X49199866Y16688839D01*
X49104628Y16879315D01*
X49104628Y17165029D01*
X49199866Y17355505D01*
X49390342Y17450743D01*
X50437961Y17450743D01*
X49390342Y17450743D02*
X49199866Y17545981D01*
X49104628Y17736458D01*
X49104628Y18022172D01*
X49199866Y18212648D01*
X49390342Y18307886D01*
X50437961Y18307886D01*
X49104628Y19260267D02*
X51104628Y19260267D01*
X49199866Y19260267D02*
X49104628Y19450743D01*
X49104628Y19831696D01*
X49199866Y20022172D01*
X49295104Y20117410D01*
X49485580Y20212648D01*
X50057009Y20212648D01*
X50247485Y20117410D01*
X50342723Y20022172D01*
X50437961Y19831696D01*
X50437961Y19450743D01*
X50342723Y19260267D01*
X49104628Y20879315D02*
X50437961Y21260267D01*
X49485580Y21641220D01*
X50437961Y22022172D01*
X49104628Y22403124D01*
X50342723Y23926934D02*
X50437961Y23736458D01*
X50437961Y23355505D01*
X50342723Y23165029D01*
X50152247Y23069791D01*
X49390342Y23069791D01*
X49199866Y23165029D01*
X49104628Y23355505D01*
X49104628Y23736458D01*
X49199866Y23926934D01*
X49390342Y24022172D01*
X49580819Y24022172D01*
X49771295Y23069791D01*
X50342723Y25641220D02*
X50437961Y25450743D01*
X50437961Y25069791D01*
X50342723Y24879315D01*
X50152247Y24784077D01*
X49390342Y24784077D01*
X49199866Y24879315D01*
X49104628Y25069791D01*
X49104628Y25450743D01*
X49199866Y25641220D01*
X49390342Y25736458D01*
X49580819Y25736458D01*
X49771295Y24784077D01*
X50437961Y26593600D02*
X48437961Y26593600D01*
X49676057Y26784077D02*
X50437961Y27355505D01*
X49104628Y27355505D02*
X49866533Y26593600D01*
X48628438Y29641220D02*
X48533200Y29736458D01*
X48437961Y29926934D01*
X48437961Y30403124D01*
X48533200Y30593600D01*
X48628438Y30688839D01*
X48818914Y30784077D01*
X49009390Y30784077D01*
X49295104Y30688839D01*
X50437961Y29545981D01*
X50437961Y30784077D01*
X48437961Y32022172D02*
X48437961Y32212648D01*
X48533200Y32403124D01*
X48628438Y32498362D01*
X48818914Y32593600D01*
X49199866Y32688839D01*
X49676057Y32688839D01*
X50057009Y32593600D01*
X50247485Y32498362D01*
X50342723Y32403124D01*
X50437961Y32212648D01*
X50437961Y32022172D01*
X50342723Y31831696D01*
X50247485Y31736458D01*
X50057009Y31641220D01*
X49676057Y31545981D01*
X49199866Y31545981D01*
X48818914Y31641220D01*
X48628438Y31736458D01*
X48533200Y31831696D01*
X48437961Y32022172D01*
X48628438Y33450743D02*
X48533200Y33545981D01*
X48437961Y33736458D01*
X48437961Y34212648D01*
X48533200Y34403124D01*
X48628438Y34498362D01*
X48818914Y34593600D01*
X49009390Y34593600D01*
X49295104Y34498362D01*
X50437961Y33355505D01*
X50437961Y34593600D01*
X48437961Y35260267D02*
X48437961Y36498362D01*
X49199866Y35831696D01*
X49199866Y36117410D01*
X49295104Y36307886D01*
X49390342Y36403124D01*
X49580819Y36498362D01*
X50057009Y36498362D01*
X50247485Y36403124D01*
X50342723Y36307886D01*
X50437961Y36117410D01*
X50437961Y35545981D01*
X50342723Y35355505D01*
X50247485Y35260267D01*
D10*
X17845104Y-5006400D02*
X17749866Y-4958780D01*
X17607009Y-4958780D01*
X17464152Y-5006400D01*
X17368914Y-5101638D01*
X17321295Y-5196876D01*
X17273676Y-5387352D01*
X17273676Y-5530209D01*
X17321295Y-5720685D01*
X17368914Y-5815923D01*
X17464152Y-5911161D01*
X17607009Y-5958780D01*
X17702247Y-5958780D01*
X17845104Y-5911161D01*
X17892723Y-5863542D01*
X17892723Y-5530209D01*
X17702247Y-5530209D01*
D11*
X-27498229Y39722529D02*
X-27498229Y38508243D01*
X-27426800Y38365386D01*
X-27355372Y38293958D01*
X-27212515Y38222529D01*
X-26926800Y38222529D01*
X-26783943Y38293958D01*
X-26712515Y38365386D01*
X-26641086Y38508243D01*
X-26641086Y39722529D01*
X-25998229Y38293958D02*
X-25783943Y38222529D01*
X-25426800Y38222529D01*
X-25283943Y38293958D01*
X-25212515Y38365386D01*
X-25141086Y38508243D01*
X-25141086Y38651100D01*
X-25212515Y38793958D01*
X-25283943Y38865386D01*
X-25426800Y38936815D01*
X-25712515Y39008243D01*
X-25855372Y39079672D01*
X-25926800Y39151100D01*
X-25998229Y39293958D01*
X-25998229Y39436815D01*
X-25926800Y39579672D01*
X-25855372Y39651100D01*
X-25712515Y39722529D01*
X-25355372Y39722529D01*
X-25141086Y39651100D01*
X-23998229Y39008243D02*
X-23783943Y38936815D01*
X-23712515Y38865386D01*
X-23641086Y38722529D01*
X-23641086Y38508243D01*
X-23712515Y38365386D01*
X-23783943Y38293958D01*
X-23926800Y38222529D01*
X-24498229Y38222529D01*
X-24498229Y39722529D01*
X-23998229Y39722529D01*
X-23855372Y39651100D01*
X-23783943Y39579672D01*
X-23712515Y39436815D01*
X-23712515Y39293958D01*
X-23783943Y39151100D01*
X-23855372Y39079672D01*
X-23998229Y39008243D01*
X-24498229Y39008243D01*
X-22998229Y38793958D02*
X-21855372Y38793958D01*
X-20283943Y38365386D02*
X-20355372Y38293958D01*
X-20569658Y38222529D01*
X-20712515Y38222529D01*
X-20926800Y38293958D01*
X-21069658Y38436815D01*
X-21141086Y38579672D01*
X-21212515Y38865386D01*
X-21212515Y39079672D01*
X-21141086Y39365386D01*
X-21069658Y39508243D01*
X-20926800Y39651100D01*
X-20712515Y39722529D01*
X-20569658Y39722529D01*
X-20355372Y39651100D01*
X-20283943Y39579672D01*
X-27498229Y35807529D02*
X-27498229Y37307529D01*
X-26998229Y36236100D01*
X-26498229Y37307529D01*
X-26498229Y35807529D01*
X-25569658Y35807529D02*
X-25712515Y35878958D01*
X-25783943Y35950386D01*
X-25855372Y36093243D01*
X-25855372Y36521815D01*
X-25783943Y36664672D01*
X-25712515Y36736100D01*
X-25569658Y36807529D01*
X-25355372Y36807529D01*
X-25212515Y36736100D01*
X-25141086Y36664672D01*
X-25069658Y36521815D01*
X-25069658Y36093243D01*
X-25141086Y35950386D01*
X-25212515Y35878958D01*
X-25355372Y35807529D01*
X-25569658Y35807529D01*
X-23783943Y35807529D02*
X-23783943Y37307529D01*
X-23783943Y35878958D02*
X-23926800Y35807529D01*
X-24212515Y35807529D01*
X-24355372Y35878958D01*
X-24426800Y35950386D01*
X-24498229Y36093243D01*
X-24498229Y36521815D01*
X-24426800Y36664672D01*
X-24355372Y36736100D01*
X-24212515Y36807529D01*
X-23926800Y36807529D01*
X-23783943Y36736100D01*
X-22426800Y36807529D02*
X-22426800Y35807529D01*
X-23069658Y36807529D02*
X-23069658Y36021815D01*
X-22998229Y35878958D01*
X-22855372Y35807529D01*
X-22641086Y35807529D01*
X-22498229Y35878958D01*
X-22426800Y35950386D01*
X-21498229Y35807529D02*
X-21641086Y35878958D01*
X-21712515Y36021815D01*
X-21712515Y37307529D01*
X-20355372Y35878958D02*
X-20498229Y35807529D01*
X-20783943Y35807529D01*
X-20926800Y35878958D01*
X-20998229Y36021815D01*
X-20998229Y36593243D01*
X-20926800Y36736100D01*
X-20783943Y36807529D01*
X-20498229Y36807529D01*
X-20355372Y36736100D01*
X-20283943Y36593243D01*
X-20283943Y36450386D01*
X-20998229Y36307529D01*
D10*
X17654628Y12365029D02*
X17797485Y12317410D01*
X17845104Y12269791D01*
X17892723Y12174553D01*
X17892723Y12031696D01*
X17845104Y11936458D01*
X17797485Y11888839D01*
X17702247Y11841220D01*
X17321295Y11841220D01*
X17321295Y12841220D01*
X17654628Y12841220D01*
X17749866Y12793600D01*
X17797485Y12745981D01*
X17845104Y12650743D01*
X17845104Y12555505D01*
X17797485Y12460267D01*
X17749866Y12412648D01*
X17654628Y12365029D01*
X17321295Y12365029D01*
D11*
X30564628Y27221100D02*
X31278914Y27221100D01*
X30421771Y26792529D02*
X30921771Y28292529D01*
X31421771Y26792529D01*
X31850342Y26863958D02*
X32064628Y26792529D01*
X32421771Y26792529D01*
X32564628Y26863958D01*
X32636057Y26935386D01*
X32707485Y27078243D01*
X32707485Y27221100D01*
X32636057Y27363958D01*
X32564628Y27435386D01*
X32421771Y27506815D01*
X32136057Y27578243D01*
X31993200Y27649672D01*
X31921771Y27721100D01*
X31850342Y27863958D01*
X31850342Y28006815D01*
X31921771Y28149672D01*
X31993200Y28221100D01*
X32136057Y28292529D01*
X32493200Y28292529D01*
X32707485Y28221100D01*
X33207485Y28292529D02*
X34136057Y28292529D01*
X33636057Y27721100D01*
X33850342Y27721100D01*
X33993200Y27649672D01*
X34064628Y27578243D01*
X34136057Y27435386D01*
X34136057Y27078243D01*
X34064628Y26935386D01*
X33993200Y26863958D01*
X33850342Y26792529D01*
X33421771Y26792529D01*
X33278914Y26863958D01*
X33207485Y26935386D01*
X34850342Y26792529D02*
X35136057Y26792529D01*
X35278914Y26863958D01*
X35350342Y26935386D01*
X35493200Y27149672D01*
X35564628Y27435386D01*
X35564628Y28006815D01*
X35493200Y28149672D01*
X35421771Y28221100D01*
X35278914Y28292529D01*
X34993200Y28292529D01*
X34850342Y28221100D01*
X34778914Y28149672D01*
X34707485Y28006815D01*
X34707485Y27649672D01*
X34778914Y27506815D01*
X34850342Y27435386D01*
X34993200Y27363958D01*
X35278914Y27363958D01*
X35421771Y27435386D01*
X35493200Y27506815D01*
X35564628Y27649672D01*
X36064628Y28292529D02*
X36993200Y28292529D01*
X36493200Y27721100D01*
X36707485Y27721100D01*
X36850342Y27649672D01*
X36921771Y27578243D01*
X36993200Y27435386D01*
X36993200Y27078243D01*
X36921771Y26935386D01*
X36850342Y26863958D01*
X36707485Y26792529D01*
X36278914Y26792529D01*
X36136057Y26863958D01*
X36064628Y26935386D01*
X38350342Y28292529D02*
X37636057Y28292529D01*
X37564628Y27578243D01*
X37636057Y27649672D01*
X37778914Y27721100D01*
X38136057Y27721100D01*
X38278914Y27649672D01*
X38350342Y27578243D01*
X38421771Y27435386D01*
X38421771Y27078243D01*
X38350342Y26935386D01*
X38278914Y26863958D01*
X38136057Y26792529D01*
X37778914Y26792529D01*
X37636057Y26863958D01*
X37564628Y26935386D01*
X30921771Y24377529D02*
X30921771Y25877529D01*
X31421771Y24806100D01*
X31921771Y25877529D01*
X31921771Y24377529D01*
X32850342Y24377529D02*
X32707485Y24448958D01*
X32636057Y24520386D01*
X32564628Y24663243D01*
X32564628Y25091815D01*
X32636057Y25234672D01*
X32707485Y25306100D01*
X32850342Y25377529D01*
X33064628Y25377529D01*
X33207485Y25306100D01*
X33278914Y25234672D01*
X33350342Y25091815D01*
X33350342Y24663243D01*
X33278914Y24520386D01*
X33207485Y24448958D01*
X33064628Y24377529D01*
X32850342Y24377529D01*
X34636057Y24377529D02*
X34636057Y25877529D01*
X34636057Y24448958D02*
X34493200Y24377529D01*
X34207485Y24377529D01*
X34064628Y24448958D01*
X33993200Y24520386D01*
X33921771Y24663243D01*
X33921771Y25091815D01*
X33993200Y25234672D01*
X34064628Y25306100D01*
X34207485Y25377529D01*
X34493200Y25377529D01*
X34636057Y25306100D01*
X35993200Y25377529D02*
X35993200Y24377529D01*
X35350342Y25377529D02*
X35350342Y24591815D01*
X35421771Y24448958D01*
X35564628Y24377529D01*
X35778914Y24377529D01*
X35921771Y24448958D01*
X35993200Y24520386D01*
X36921771Y24377529D02*
X36778914Y24448958D01*
X36707485Y24591815D01*
X36707485Y25877529D01*
X38064628Y24448958D02*
X37921771Y24377529D01*
X37636057Y24377529D01*
X37493200Y24448958D01*
X37421771Y24591815D01*
X37421771Y25163243D01*
X37493200Y25306100D01*
X37636057Y25377529D01*
X37921771Y25377529D01*
X38064628Y25306100D01*
X38136057Y25163243D01*
X38136057Y25020386D01*
X37421771Y24877529D01*
D10*
X17249866Y131220D02*
X17916533Y131220D01*
X17249866Y-868780D01*
X17916533Y-868780D01*
X3814723Y-12441180D02*
X3481390Y-11964990D01*
X3243295Y-12441180D02*
X3243295Y-11441180D01*
X3624247Y-11441180D01*
X3719485Y-11488800D01*
X3767104Y-11536419D01*
X3814723Y-11631657D01*
X3814723Y-11774514D01*
X3767104Y-11869752D01*
X3719485Y-11917371D01*
X3624247Y-11964990D01*
X3243295Y-11964990D01*
X17654628Y-2894971D02*
X17797485Y-2942590D01*
X17845104Y-2990209D01*
X17892723Y-3085447D01*
X17892723Y-3228304D01*
X17845104Y-3323542D01*
X17797485Y-3371161D01*
X17702247Y-3418780D01*
X17321295Y-3418780D01*
X17321295Y-2418780D01*
X17654628Y-2418780D01*
X17749866Y-2466400D01*
X17797485Y-2514019D01*
X17845104Y-2609257D01*
X17845104Y-2704495D01*
X17797485Y-2799733D01*
X17749866Y-2847352D01*
X17654628Y-2894971D01*
X17321295Y-2894971D01*
X15373504Y19696134D02*
X15849695Y19696134D01*
X15278266Y19410420D02*
X15611600Y20410420D01*
X15944933Y19410420D01*
X16278266Y20410420D02*
X16278266Y19600896D01*
X16325885Y19505658D01*
X16373504Y19458039D01*
X16468742Y19410420D01*
X16659219Y19410420D01*
X16754457Y19458039D01*
X16802076Y19505658D01*
X16849695Y19600896D01*
X16849695Y20410420D01*
X17230647Y20410420D02*
X17897314Y19410420D01*
X17897314Y20410420D02*
X17230647Y19410420D01*
X2417771Y-7684876D02*
X2417771Y-8018209D01*
X2941580Y-8018209D02*
X1941580Y-8018209D01*
X1941580Y-7542019D01*
X2941580Y-6684876D02*
X2941580Y-7161066D01*
X1941580Y-7161066D01*
X2655866Y-6399161D02*
X2655866Y-5922971D01*
X2941580Y-6494400D02*
X1941580Y-6161066D01*
X2941580Y-5827733D01*
X2893961Y-5542019D02*
X2941580Y-5399161D01*
X2941580Y-5161066D01*
X2893961Y-5065828D01*
X2846342Y-5018209D01*
X2751104Y-4970590D01*
X2655866Y-4970590D01*
X2560628Y-5018209D01*
X2513009Y-5065828D01*
X2465390Y-5161066D01*
X2417771Y-5351542D01*
X2370152Y-5446780D01*
X2322533Y-5494400D01*
X2227295Y-5542019D01*
X2132057Y-5542019D01*
X2036819Y-5494400D01*
X1989200Y-5446780D01*
X1941580Y-5351542D01*
X1941580Y-5113447D01*
X1989200Y-4970590D01*
X2941580Y-4542019D02*
X1941580Y-4542019D01*
X2417771Y-4542019D02*
X2417771Y-3970590D01*
X2941580Y-3970590D02*
X1941580Y-3970590D01*
D12*
X-13685848Y-12708780D02*
X-13685848Y-13423066D01*
X-13733467Y-13565923D01*
X-13828705Y-13661161D01*
X-13971562Y-13708780D01*
X-14066800Y-13708780D01*
X-12733467Y-13708780D02*
X-13209658Y-13708780D01*
X-13209658Y-12708780D01*
X-11828705Y-13613542D02*
X-11876324Y-13661161D01*
X-12019181Y-13708780D01*
X-12114420Y-13708780D01*
X-12257277Y-13661161D01*
X-12352515Y-13565923D01*
X-12400134Y-13470685D01*
X-12447753Y-13280209D01*
X-12447753Y-13137352D01*
X-12400134Y-12946876D01*
X-12352515Y-12851638D01*
X-12257277Y-12756400D01*
X-12114420Y-12708780D01*
X-12019181Y-12708780D01*
X-11876324Y-12756400D01*
X-11828705Y-12804019D01*
X-11114420Y-12708780D02*
X-11114420Y-13423066D01*
X-11162039Y-13565923D01*
X-11257277Y-13661161D01*
X-11400134Y-13708780D01*
X-11495372Y-13708780D01*
X-10162039Y-13708780D02*
X-10638229Y-13708780D01*
X-10638229Y-12708780D01*
X-9257277Y-13613542D02*
X-9304896Y-13661161D01*
X-9447753Y-13708780D01*
X-9542991Y-13708780D01*
X-9685848Y-13661161D01*
X-9781086Y-13565923D01*
X-9828705Y-13470685D01*
X-9876324Y-13280209D01*
X-9876324Y-13137352D01*
X-9828705Y-12946876D01*
X-9781086Y-12851638D01*
X-9685848Y-12756400D01*
X-9542991Y-12708780D01*
X-9447753Y-12708780D01*
X-9304896Y-12756400D01*
X-9257277Y-12804019D01*
X-8542991Y-12708780D02*
X-8542991Y-13423066D01*
X-8590610Y-13565923D01*
X-8685848Y-13661161D01*
X-8828705Y-13708780D01*
X-8923943Y-13708780D01*
X-7590610Y-13708780D02*
X-8066800Y-13708780D01*
X-8066800Y-12708780D01*
X-6685848Y-13613542D02*
X-6733467Y-13661161D01*
X-6876324Y-13708780D01*
X-6971562Y-13708780D01*
X-7114420Y-13661161D01*
X-7209658Y-13565923D01*
X-7257277Y-13470685D01*
X-7304896Y-13280209D01*
X-7304896Y-13137352D01*
X-7257277Y-12946876D01*
X-7209658Y-12851638D01*
X-7114420Y-12756400D01*
X-6971562Y-12708780D01*
X-6876324Y-12708780D01*
X-6733467Y-12756400D01*
X-6685848Y-12804019D01*
X-5971562Y-12708780D02*
X-5971562Y-13423066D01*
X-6019181Y-13565923D01*
X-6114420Y-13661161D01*
X-6257277Y-13708780D01*
X-6352515Y-13708780D01*
X-5019181Y-13708780D02*
X-5495372Y-13708780D01*
X-5495372Y-12708780D01*
X-4114420Y-13613542D02*
X-4162039Y-13661161D01*
X-4304896Y-13708780D01*
X-4400134Y-13708780D01*
X-4542991Y-13661161D01*
X-4638229Y-13565923D01*
X-4685848Y-13470685D01*
X-4733467Y-13280209D01*
X-4733467Y-13137352D01*
X-4685848Y-12946876D01*
X-4638229Y-12851638D01*
X-4542991Y-12756400D01*
X-4400134Y-12708780D01*
X-4304896Y-12708780D01*
X-4162039Y-12756400D01*
X-4114420Y-12804019D01*
D10*
X6792723Y5441220D02*
X6459390Y5917410D01*
X6221295Y5441220D02*
X6221295Y6441220D01*
X6602247Y6441220D01*
X6697485Y6393600D01*
X6745104Y6345981D01*
X6792723Y6250743D01*
X6792723Y6107886D01*
X6745104Y6012648D01*
X6697485Y5965029D01*
X6602247Y5917410D01*
X6221295Y5917410D01*
X6745104Y3853600D02*
X6649866Y3901220D01*
X6507009Y3901220D01*
X6364152Y3853600D01*
X6268914Y3758362D01*
X6221295Y3663124D01*
X6173676Y3472648D01*
X6173676Y3329791D01*
X6221295Y3139315D01*
X6268914Y3044077D01*
X6364152Y2948839D01*
X6507009Y2901220D01*
X6602247Y2901220D01*
X6745104Y2948839D01*
X6792723Y2996458D01*
X6792723Y3329791D01*
X6602247Y3329791D01*
X6116628Y-11917371D02*
X6259485Y-11964990D01*
X6307104Y-12012609D01*
X6354723Y-12107847D01*
X6354723Y-12250704D01*
X6307104Y-12345942D01*
X6259485Y-12393561D01*
X6164247Y-12441180D01*
X5783295Y-12441180D01*
X5783295Y-11441180D01*
X6116628Y-11441180D01*
X6211866Y-11488800D01*
X6259485Y-11536419D01*
X6307104Y-11631657D01*
X6307104Y-11726895D01*
X6259485Y-11822133D01*
X6211866Y-11869752D01*
X6116628Y-11917371D01*
X5783295Y-11917371D01*
X22642723Y-14708780D02*
X22166533Y-14708780D01*
X22166533Y-13708780D01*
X8847104Y-11488800D02*
X8751866Y-11441180D01*
X8609009Y-11441180D01*
X8466152Y-11488800D01*
X8370914Y-11584038D01*
X8323295Y-11679276D01*
X8275676Y-11869752D01*
X8275676Y-12012609D01*
X8323295Y-12203085D01*
X8370914Y-12298323D01*
X8466152Y-12393561D01*
X8609009Y-12441180D01*
X8704247Y-12441180D01*
X8847104Y-12393561D01*
X8894723Y-12345942D01*
X8894723Y-12012609D01*
X8704247Y-12012609D01*
X10842666Y-11441180D02*
X11509333Y-11441180D01*
X10842666Y-12441180D01*
X11509333Y-12441180D01*
D11*
X31136057Y-4886042D02*
X31350342Y-4957471D01*
X31707485Y-4957471D01*
X31850342Y-4886042D01*
X31921771Y-4814614D01*
X31993200Y-4671757D01*
X31993200Y-4528900D01*
X31921771Y-4386042D01*
X31850342Y-4314614D01*
X31707485Y-4243185D01*
X31421771Y-4171757D01*
X31278914Y-4100328D01*
X31207485Y-4028900D01*
X31136057Y-3886042D01*
X31136057Y-3743185D01*
X31207485Y-3600328D01*
X31278914Y-3528900D01*
X31421771Y-3457471D01*
X31778914Y-3457471D01*
X31993200Y-3528900D01*
X33421771Y-3528900D02*
X33278914Y-3457471D01*
X33064628Y-3457471D01*
X32850342Y-3528900D01*
X32707485Y-3671757D01*
X32636057Y-3814614D01*
X32564628Y-4100328D01*
X32564628Y-4314614D01*
X32636057Y-4600328D01*
X32707485Y-4743185D01*
X32850342Y-4886042D01*
X33064628Y-4957471D01*
X33207485Y-4957471D01*
X33421771Y-4886042D01*
X33493200Y-4814614D01*
X33493200Y-4314614D01*
X33207485Y-4314614D01*
X34136057Y-4957471D02*
X34136057Y-3457471D01*
X34707485Y-3457471D01*
X34850342Y-3528900D01*
X34921771Y-3600328D01*
X34993200Y-3743185D01*
X34993200Y-3957471D01*
X34921771Y-4100328D01*
X34850342Y-4171757D01*
X34707485Y-4243185D01*
X34136057Y-4243185D01*
X36278914Y-3957471D02*
X36278914Y-4957471D01*
X35921771Y-3386042D02*
X35564628Y-4457471D01*
X36493200Y-4457471D01*
X37350342Y-3457471D02*
X37493200Y-3457471D01*
X37636057Y-3528900D01*
X37707485Y-3600328D01*
X37778914Y-3743185D01*
X37850342Y-4028900D01*
X37850342Y-4386042D01*
X37778914Y-4671757D01*
X37707485Y-4814614D01*
X37636057Y-4886042D01*
X37493200Y-4957471D01*
X37350342Y-4957471D01*
X37207485Y-4886042D01*
X37136057Y-4814614D01*
X37064628Y-4671757D01*
X36993200Y-4386042D01*
X36993200Y-4028900D01*
X37064628Y-3743185D01*
X37136057Y-3600328D01*
X37207485Y-3528900D01*
X37350342Y-3457471D01*
X30921771Y-7372471D02*
X30921771Y-5872471D01*
X31421771Y-6943900D01*
X31921771Y-5872471D01*
X31921771Y-7372471D01*
X32850342Y-7372471D02*
X32707485Y-7301042D01*
X32636057Y-7229614D01*
X32564628Y-7086757D01*
X32564628Y-6658185D01*
X32636057Y-6515328D01*
X32707485Y-6443900D01*
X32850342Y-6372471D01*
X33064628Y-6372471D01*
X33207485Y-6443900D01*
X33278914Y-6515328D01*
X33350342Y-6658185D01*
X33350342Y-7086757D01*
X33278914Y-7229614D01*
X33207485Y-7301042D01*
X33064628Y-7372471D01*
X32850342Y-7372471D01*
X34636057Y-7372471D02*
X34636057Y-5872471D01*
X34636057Y-7301042D02*
X34493200Y-7372471D01*
X34207485Y-7372471D01*
X34064628Y-7301042D01*
X33993200Y-7229614D01*
X33921771Y-7086757D01*
X33921771Y-6658185D01*
X33993200Y-6515328D01*
X34064628Y-6443900D01*
X34207485Y-6372471D01*
X34493200Y-6372471D01*
X34636057Y-6443900D01*
X35993200Y-6372471D02*
X35993200Y-7372471D01*
X35350342Y-6372471D02*
X35350342Y-7158185D01*
X35421771Y-7301042D01*
X35564628Y-7372471D01*
X35778914Y-7372471D01*
X35921771Y-7301042D01*
X35993200Y-7229614D01*
X36921771Y-7372471D02*
X36778914Y-7301042D01*
X36707485Y-7158185D01*
X36707485Y-5872471D01*
X38064628Y-7301042D02*
X37921771Y-7372471D01*
X37636057Y-7372471D01*
X37493200Y-7301042D01*
X37421771Y-7158185D01*
X37421771Y-6586757D01*
X37493200Y-6443900D01*
X37636057Y-6372471D01*
X37921771Y-6372471D01*
X38064628Y-6443900D01*
X38136057Y-6586757D01*
X38136057Y-6729614D01*
X37421771Y-6872471D01*
X-33126229Y15775100D02*
X-33269086Y15846529D01*
X-33483372Y15846529D01*
X-33697658Y15775100D01*
X-33840515Y15632243D01*
X-33911943Y15489386D01*
X-33983372Y15203672D01*
X-33983372Y14989386D01*
X-33911943Y14703672D01*
X-33840515Y14560815D01*
X-33697658Y14417958D01*
X-33483372Y14346529D01*
X-33340515Y14346529D01*
X-33126229Y14417958D01*
X-33054800Y14489386D01*
X-33054800Y14989386D01*
X-33340515Y14989386D01*
X-32411943Y14346529D02*
X-32411943Y15846529D01*
X-31840515Y15846529D01*
X-31697658Y15775100D01*
X-31626229Y15703672D01*
X-31554800Y15560815D01*
X-31554800Y15346529D01*
X-31626229Y15203672D01*
X-31697658Y15132243D01*
X-31840515Y15060815D01*
X-32411943Y15060815D01*
X-30983372Y14417958D02*
X-30769086Y14346529D01*
X-30411943Y14346529D01*
X-30269086Y14417958D01*
X-30197658Y14489386D01*
X-30126229Y14632243D01*
X-30126229Y14775100D01*
X-30197658Y14917958D01*
X-30269086Y14989386D01*
X-30411943Y15060815D01*
X-30697658Y15132243D01*
X-30840515Y15203672D01*
X-30911943Y15275100D01*
X-30983372Y15417958D01*
X-30983372Y15560815D01*
X-30911943Y15703672D01*
X-30840515Y15775100D01*
X-30697658Y15846529D01*
X-30340515Y15846529D01*
X-30126229Y15775100D01*
X-35626229Y11931529D02*
X-35626229Y13431529D01*
X-35126229Y12360100D01*
X-34626229Y13431529D01*
X-34626229Y11931529D01*
X-33697658Y11931529D02*
X-33840515Y12002958D01*
X-33911943Y12074386D01*
X-33983372Y12217243D01*
X-33983372Y12645815D01*
X-33911943Y12788672D01*
X-33840515Y12860100D01*
X-33697658Y12931529D01*
X-33483372Y12931529D01*
X-33340515Y12860100D01*
X-33269086Y12788672D01*
X-33197658Y12645815D01*
X-33197658Y12217243D01*
X-33269086Y12074386D01*
X-33340515Y12002958D01*
X-33483372Y11931529D01*
X-33697658Y11931529D01*
X-31911943Y11931529D02*
X-31911943Y13431529D01*
X-31911943Y12002958D02*
X-32054800Y11931529D01*
X-32340515Y11931529D01*
X-32483372Y12002958D01*
X-32554800Y12074386D01*
X-32626229Y12217243D01*
X-32626229Y12645815D01*
X-32554800Y12788672D01*
X-32483372Y12860100D01*
X-32340515Y12931529D01*
X-32054800Y12931529D01*
X-31911943Y12860100D01*
X-30554800Y12931529D02*
X-30554800Y11931529D01*
X-31197658Y12931529D02*
X-31197658Y12145815D01*
X-31126229Y12002958D01*
X-30983372Y11931529D01*
X-30769086Y11931529D01*
X-30626229Y12002958D01*
X-30554800Y12074386D01*
X-29626229Y11931529D02*
X-29769086Y12002958D01*
X-29840515Y12145815D01*
X-29840515Y13431529D01*
X-28483372Y12002958D02*
X-28626229Y11931529D01*
X-28911943Y11931529D01*
X-29054800Y12002958D01*
X-29126229Y12145815D01*
X-29126229Y12717243D01*
X-29054800Y12860100D01*
X-28911943Y12931529D01*
X-28626229Y12931529D01*
X-28483372Y12860100D01*
X-28411943Y12717243D01*
X-28411943Y12574386D01*
X-29126229Y12431529D01*
D10*
%TO.C,J1*%
X8759866Y11346220D02*
X8759866Y10631934D01*
X8712247Y10489077D01*
X8617009Y10393839D01*
X8474152Y10346220D01*
X8378914Y10346220D01*
X9759866Y10346220D02*
X9188438Y10346220D01*
X9474152Y10346220D02*
X9474152Y11346220D01*
X9378914Y11203362D01*
X9283676Y11108124D01*
X9188438Y11060505D01*
%TO.C,R5*%
X14625580Y-4637066D02*
X14149390Y-4970400D01*
X14625580Y-5208495D02*
X13625580Y-5208495D01*
X13625580Y-4827542D01*
X13673200Y-4732304D01*
X13720819Y-4684685D01*
X13816057Y-4637066D01*
X13958914Y-4637066D01*
X14054152Y-4684685D01*
X14101771Y-4732304D01*
X14149390Y-4827542D01*
X14149390Y-5208495D01*
X13625580Y-3732304D02*
X13625580Y-4208495D01*
X14101771Y-4256114D01*
X14054152Y-4208495D01*
X14006533Y-4113257D01*
X14006533Y-3875161D01*
X14054152Y-3779923D01*
X14101771Y-3732304D01*
X14197009Y-3684685D01*
X14435104Y-3684685D01*
X14530342Y-3732304D01*
X14577961Y-3779923D01*
X14625580Y-3875161D01*
X14625580Y-4113257D01*
X14577961Y-4208495D01*
X14530342Y-4256114D01*
%TO.C,U2*%
X8235580Y40634196D02*
X9045104Y40634196D01*
X9140342Y40681815D01*
X9187961Y40729434D01*
X9235580Y40824672D01*
X9235580Y41015148D01*
X9187961Y41110386D01*
X9140342Y41158005D01*
X9045104Y41205624D01*
X8235580Y41205624D01*
X8330819Y41634196D02*
X8283200Y41681815D01*
X8235580Y41777053D01*
X8235580Y42015148D01*
X8283200Y42110386D01*
X8330819Y42158005D01*
X8426057Y42205624D01*
X8521295Y42205624D01*
X8664152Y42158005D01*
X9235580Y41586577D01*
X9235580Y42205624D01*
%TO.C,J3*%
X13117580Y-14709733D02*
X13831866Y-14709733D01*
X13974723Y-14757352D01*
X14069961Y-14852590D01*
X14117580Y-14995447D01*
X14117580Y-15090685D01*
X13117580Y-14328780D02*
X13117580Y-13709733D01*
X13498533Y-14043066D01*
X13498533Y-13900209D01*
X13546152Y-13804971D01*
X13593771Y-13757352D01*
X13689009Y-13709733D01*
X13927104Y-13709733D01*
X14022342Y-13757352D01*
X14069961Y-13804971D01*
X14117580Y-13900209D01*
X14117580Y-14185923D01*
X14069961Y-14281161D01*
X14022342Y-14328780D01*
%TO.C,C3*%
X13260342Y39050934D02*
X13307961Y39003315D01*
X13355580Y38860458D01*
X13355580Y38765220D01*
X13307961Y38622362D01*
X13212723Y38527124D01*
X13117485Y38479505D01*
X12927009Y38431886D01*
X12784152Y38431886D01*
X12593676Y38479505D01*
X12498438Y38527124D01*
X12403200Y38622362D01*
X12355580Y38765220D01*
X12355580Y38860458D01*
X12403200Y39003315D01*
X12450819Y39050934D01*
X12355580Y39384267D02*
X12355580Y40003315D01*
X12736533Y39669981D01*
X12736533Y39812839D01*
X12784152Y39908077D01*
X12831771Y39955696D01*
X12927009Y40003315D01*
X13165104Y40003315D01*
X13260342Y39955696D01*
X13307961Y39908077D01*
X13355580Y39812839D01*
X13355580Y39527124D01*
X13307961Y39431886D01*
X13260342Y39384267D01*
%TO.C,D1*%
X18352591Y-11018780D02*
X18352591Y-10018780D01*
X18590687Y-10018780D01*
X18733544Y-10066400D01*
X18828782Y-10161638D01*
X18876401Y-10256876D01*
X18924020Y-10447352D01*
X18924020Y-10590209D01*
X18876401Y-10780685D01*
X18828782Y-10875923D01*
X18733544Y-10971161D01*
X18590687Y-11018780D01*
X18352591Y-11018780D01*
X19876401Y-11018780D02*
X19304972Y-11018780D01*
X19590687Y-11018780D02*
X19590687Y-10018780D01*
X19495448Y-10161638D01*
X19400210Y-10256876D01*
X19304972Y-10304495D01*
%TO.C,C7*%
X-5043467Y14476458D02*
X-5091086Y14428839D01*
X-5233943Y14381220D01*
X-5329181Y14381220D01*
X-5472039Y14428839D01*
X-5567277Y14524077D01*
X-5614896Y14619315D01*
X-5662515Y14809791D01*
X-5662515Y14952648D01*
X-5614896Y15143124D01*
X-5567277Y15238362D01*
X-5472039Y15333600D01*
X-5329181Y15381220D01*
X-5233943Y15381220D01*
X-5091086Y15333600D01*
X-5043467Y15285981D01*
X-4710134Y15381220D02*
X-4043467Y15381220D01*
X-4472039Y14381220D01*
%TO.C,C6*%
X-9009658Y13416934D02*
X-8962039Y13369315D01*
X-8914420Y13226458D01*
X-8914420Y13131220D01*
X-8962039Y12988362D01*
X-9057277Y12893124D01*
X-9152515Y12845505D01*
X-9342991Y12797886D01*
X-9485848Y12797886D01*
X-9676324Y12845505D01*
X-9771562Y12893124D01*
X-9866800Y12988362D01*
X-9914420Y13131220D01*
X-9914420Y13226458D01*
X-9866800Y13369315D01*
X-9819181Y13416934D01*
X-9914420Y14274077D02*
X-9914420Y14083600D01*
X-9866800Y13988362D01*
X-9819181Y13940743D01*
X-9676324Y13845505D01*
X-9485848Y13797886D01*
X-9104896Y13797886D01*
X-9009658Y13845505D01*
X-8962039Y13893124D01*
X-8914420Y13988362D01*
X-8914420Y14178839D01*
X-8962039Y14274077D01*
X-9009658Y14321696D01*
X-9104896Y14369315D01*
X-9342991Y14369315D01*
X-9438229Y14321696D01*
X-9485848Y14274077D01*
X-9533467Y14178839D01*
X-9533467Y13988362D01*
X-9485848Y13893124D01*
X-9438229Y13845505D01*
X-9342991Y13797886D01*
%TO.C,C2*%
X-25069467Y760458D02*
X-25117086Y712839D01*
X-25259943Y665220D01*
X-25355181Y665220D01*
X-25498039Y712839D01*
X-25593277Y808077D01*
X-25640896Y903315D01*
X-25688515Y1093791D01*
X-25688515Y1236648D01*
X-25640896Y1427124D01*
X-25593277Y1522362D01*
X-25498039Y1617600D01*
X-25355181Y1665220D01*
X-25259943Y1665220D01*
X-25117086Y1617600D01*
X-25069467Y1569981D01*
X-24688515Y1569981D02*
X-24640896Y1617600D01*
X-24545658Y1665220D01*
X-24307562Y1665220D01*
X-24212324Y1617600D01*
X-24164705Y1569981D01*
X-24117086Y1474743D01*
X-24117086Y1379505D01*
X-24164705Y1236648D01*
X-24736134Y665220D01*
X-24117086Y665220D01*
%TO.C,BZ1*%
X-30498229Y-5097352D02*
X-30450610Y-4954495D01*
X-30402991Y-4906876D01*
X-30307753Y-4859257D01*
X-30164896Y-4859257D01*
X-30069658Y-4906876D01*
X-30022039Y-4954495D01*
X-29974420Y-5049733D01*
X-29974420Y-5430685D01*
X-30974420Y-5430685D01*
X-30974420Y-5097352D01*
X-30926800Y-5002114D01*
X-30879181Y-4954495D01*
X-30783943Y-4906876D01*
X-30688705Y-4906876D01*
X-30593467Y-4954495D01*
X-30545848Y-5002114D01*
X-30498229Y-5097352D01*
X-30498229Y-5430685D01*
X-30974420Y-4525923D02*
X-30974420Y-3859257D01*
X-29974420Y-4525923D01*
X-29974420Y-3859257D01*
X-29974420Y-2954495D02*
X-29974420Y-3525923D01*
X-29974420Y-3240209D02*
X-30974420Y-3240209D01*
X-30831562Y-3335447D01*
X-30736324Y-3430685D01*
X-30688705Y-3525923D01*
X-35015372Y-787352D02*
X-35015372Y-25447D01*
X-34634420Y-406400D02*
X-35396324Y-406400D01*
%TO.C,C4*%
X7910533Y32256458D02*
X7862914Y32208839D01*
X7720057Y32161220D01*
X7624819Y32161220D01*
X7481961Y32208839D01*
X7386723Y32304077D01*
X7339104Y32399315D01*
X7291485Y32589791D01*
X7291485Y32732648D01*
X7339104Y32923124D01*
X7386723Y33018362D01*
X7481961Y33113600D01*
X7624819Y33161220D01*
X7720057Y33161220D01*
X7862914Y33113600D01*
X7910533Y33065981D01*
X8767676Y32827886D02*
X8767676Y32161220D01*
X8529580Y33208839D02*
X8291485Y32494553D01*
X8910533Y32494553D01*
%TO.C,J6*%
X-11774420Y28724267D02*
X-11060134Y28724267D01*
X-10917277Y28676648D01*
X-10822039Y28581410D01*
X-10774420Y28438553D01*
X-10774420Y28343315D01*
X-11774420Y29629029D02*
X-11774420Y29438553D01*
X-11726800Y29343315D01*
X-11679181Y29295696D01*
X-11536324Y29200458D01*
X-11345848Y29152839D01*
X-10964896Y29152839D01*
X-10869658Y29200458D01*
X-10822039Y29248077D01*
X-10774420Y29343315D01*
X-10774420Y29533791D01*
X-10822039Y29629029D01*
X-10869658Y29676648D01*
X-10964896Y29724267D01*
X-11202991Y29724267D01*
X-11298229Y29676648D01*
X-11345848Y29629029D01*
X-11393467Y29533791D01*
X-11393467Y29343315D01*
X-11345848Y29248077D01*
X-11298229Y29200458D01*
X-11202991Y29152839D01*
%TO.C,R6*%
X-25813467Y23541220D02*
X-26146800Y24017410D01*
X-26384896Y23541220D02*
X-26384896Y24541220D01*
X-26003943Y24541220D01*
X-25908705Y24493600D01*
X-25861086Y24445981D01*
X-25813467Y24350743D01*
X-25813467Y24207886D01*
X-25861086Y24112648D01*
X-25908705Y24065029D01*
X-26003943Y24017410D01*
X-26384896Y24017410D01*
X-24956324Y24541220D02*
X-25146800Y24541220D01*
X-25242039Y24493600D01*
X-25289658Y24445981D01*
X-25384896Y24303124D01*
X-25432515Y24112648D01*
X-25432515Y23731696D01*
X-25384896Y23636458D01*
X-25337277Y23588839D01*
X-25242039Y23541220D01*
X-25051562Y23541220D01*
X-24956324Y23588839D01*
X-24908705Y23636458D01*
X-24861086Y23731696D01*
X-24861086Y23969791D01*
X-24908705Y24065029D01*
X-24956324Y24112648D01*
X-25051562Y24160267D01*
X-25242039Y24160267D01*
X-25337277Y24112648D01*
X-25384896Y24065029D01*
X-25432515Y23969791D01*
%TO.C,R1*%
X-26633467Y-11018780D02*
X-26966800Y-10542590D01*
X-27204896Y-11018780D02*
X-27204896Y-10018780D01*
X-26823943Y-10018780D01*
X-26728705Y-10066400D01*
X-26681086Y-10114019D01*
X-26633467Y-10209257D01*
X-26633467Y-10352114D01*
X-26681086Y-10447352D01*
X-26728705Y-10494971D01*
X-26823943Y-10542590D01*
X-27204896Y-10542590D01*
X-25681086Y-11018780D02*
X-26252515Y-11018780D01*
X-25966800Y-11018780D02*
X-25966800Y-10018780D01*
X-26062039Y-10161638D01*
X-26157277Y-10256876D01*
X-26252515Y-10304495D01*
%TO.C,J2*%
X-23625134Y22061420D02*
X-23625134Y21347134D01*
X-23672753Y21204277D01*
X-23767991Y21109039D01*
X-23910848Y21061420D01*
X-24006086Y21061420D01*
X-23196562Y21966181D02*
X-23148943Y22013800D01*
X-23053705Y22061420D01*
X-22815610Y22061420D01*
X-22720372Y22013800D01*
X-22672753Y21966181D01*
X-22625134Y21870943D01*
X-22625134Y21775705D01*
X-22672753Y21632848D01*
X-23244181Y21061420D01*
X-22625134Y21061420D01*
%TO.C,C5*%
X-5083467Y29716458D02*
X-5131086Y29668839D01*
X-5273943Y29621220D01*
X-5369181Y29621220D01*
X-5512039Y29668839D01*
X-5607277Y29764077D01*
X-5654896Y29859315D01*
X-5702515Y30049791D01*
X-5702515Y30192648D01*
X-5654896Y30383124D01*
X-5607277Y30478362D01*
X-5512039Y30573600D01*
X-5369181Y30621220D01*
X-5273943Y30621220D01*
X-5131086Y30573600D01*
X-5083467Y30525981D01*
X-4178705Y30621220D02*
X-4654896Y30621220D01*
X-4702515Y30145029D01*
X-4654896Y30192648D01*
X-4559658Y30240267D01*
X-4321562Y30240267D01*
X-4226324Y30192648D01*
X-4178705Y30145029D01*
X-4131086Y30049791D01*
X-4131086Y29811696D01*
X-4178705Y29716458D01*
X-4226324Y29668839D01*
X-4321562Y29621220D01*
X-4559658Y29621220D01*
X-4654896Y29668839D01*
X-4702515Y29716458D01*
%TO.C,R4*%
X17835580Y36576934D02*
X17359390Y36243600D01*
X17835580Y36005505D02*
X16835580Y36005505D01*
X16835580Y36386458D01*
X16883200Y36481696D01*
X16930819Y36529315D01*
X17026057Y36576934D01*
X17168914Y36576934D01*
X17264152Y36529315D01*
X17311771Y36481696D01*
X17359390Y36386458D01*
X17359390Y36005505D01*
X17168914Y37434077D02*
X17835580Y37434077D01*
X16787961Y37195981D02*
X17502247Y36957886D01*
X17502247Y37576934D01*
%TO.C,Q1*%
X-35912039Y-17704019D02*
X-36007277Y-17656400D01*
X-36102515Y-17561161D01*
X-36245372Y-17418304D01*
X-36340610Y-17370685D01*
X-36435848Y-17370685D01*
X-36388229Y-17608780D02*
X-36483467Y-17561161D01*
X-36578705Y-17465923D01*
X-36626324Y-17275447D01*
X-36626324Y-16942114D01*
X-36578705Y-16751638D01*
X-36483467Y-16656400D01*
X-36388229Y-16608780D01*
X-36197753Y-16608780D01*
X-36102515Y-16656400D01*
X-36007277Y-16751638D01*
X-35959658Y-16942114D01*
X-35959658Y-17275447D01*
X-36007277Y-17465923D01*
X-36102515Y-17561161D01*
X-36197753Y-17608780D01*
X-36388229Y-17608780D01*
X-35007277Y-17608780D02*
X-35578705Y-17608780D01*
X-35292991Y-17608780D02*
X-35292991Y-16608780D01*
X-35388229Y-16751638D01*
X-35483467Y-16846876D01*
X-35578705Y-16894495D01*
%TO.C,U1*%
X-17028705Y4037220D02*
X-17028705Y3227696D01*
X-16981086Y3132458D01*
X-16933467Y3084839D01*
X-16838229Y3037220D01*
X-16647753Y3037220D01*
X-16552515Y3084839D01*
X-16504896Y3132458D01*
X-16457277Y3227696D01*
X-16457277Y4037220D01*
X-15457277Y3037220D02*
X-16028705Y3037220D01*
X-15742991Y3037220D02*
X-15742991Y4037220D01*
X-15838229Y3894362D01*
X-15933467Y3799124D01*
X-16028705Y3751505D01*
%TO.C,U3*%
X12275580Y21691696D02*
X13085104Y21691696D01*
X13180342Y21739315D01*
X13227961Y21786934D01*
X13275580Y21882172D01*
X13275580Y22072648D01*
X13227961Y22167886D01*
X13180342Y22215505D01*
X13085104Y22263124D01*
X12275580Y22263124D01*
X12275580Y22644077D02*
X12275580Y23263124D01*
X12656533Y22929791D01*
X12656533Y23072648D01*
X12704152Y23167886D01*
X12751771Y23215505D01*
X12847009Y23263124D01*
X13085104Y23263124D01*
X13180342Y23215505D01*
X13227961Y23167886D01*
X13275580Y23072648D01*
X13275580Y22786934D01*
X13227961Y22691696D01*
X13180342Y22644077D01*
%TO.C,C1*%
X-25109467Y-3811542D02*
X-25157086Y-3859161D01*
X-25299943Y-3906780D01*
X-25395181Y-3906780D01*
X-25538039Y-3859161D01*
X-25633277Y-3763923D01*
X-25680896Y-3668685D01*
X-25728515Y-3478209D01*
X-25728515Y-3335352D01*
X-25680896Y-3144876D01*
X-25633277Y-3049638D01*
X-25538039Y-2954400D01*
X-25395181Y-2906780D01*
X-25299943Y-2906780D01*
X-25157086Y-2954400D01*
X-25109467Y-3002019D01*
X-24157086Y-3906780D02*
X-24728515Y-3906780D01*
X-24442800Y-3906780D02*
X-24442800Y-2906780D01*
X-24538039Y-3049638D01*
X-24633277Y-3144876D01*
X-24728515Y-3192495D01*
%TO.C,F1*%
X-20043734Y19375429D02*
X-20377067Y19375429D01*
X-20377067Y18851620D02*
X-20377067Y19851620D01*
X-19900877Y19851620D01*
X-18996115Y18851620D02*
X-19567543Y18851620D01*
X-19281829Y18851620D02*
X-19281829Y19851620D01*
X-19377067Y19708762D01*
X-19472305Y19613524D01*
X-19567543Y19565905D01*
%TO.C,R2*%
X4445580Y5776934D02*
X3969390Y5443600D01*
X4445580Y5205505D02*
X3445580Y5205505D01*
X3445580Y5586458D01*
X3493200Y5681696D01*
X3540819Y5729315D01*
X3636057Y5776934D01*
X3778914Y5776934D01*
X3874152Y5729315D01*
X3921771Y5681696D01*
X3969390Y5586458D01*
X3969390Y5205505D01*
X3540819Y6157886D02*
X3493200Y6205505D01*
X3445580Y6300743D01*
X3445580Y6538839D01*
X3493200Y6634077D01*
X3540819Y6681696D01*
X3636057Y6729315D01*
X3731295Y6729315D01*
X3874152Y6681696D01*
X4445580Y6110267D01*
X4445580Y6729315D01*
%TO.C,J4*%
X19935866Y-7478780D02*
X19935866Y-8193066D01*
X19888247Y-8335923D01*
X19793009Y-8431161D01*
X19650152Y-8478780D01*
X19554914Y-8478780D01*
X20840628Y-7812114D02*
X20840628Y-8478780D01*
X20602533Y-7431161D02*
X20364438Y-8145447D01*
X20983485Y-8145447D01*
%TO.C,R7*%
X-39053467Y23541220D02*
X-39386800Y24017410D01*
X-39624896Y23541220D02*
X-39624896Y24541220D01*
X-39243943Y24541220D01*
X-39148705Y24493600D01*
X-39101086Y24445981D01*
X-39053467Y24350743D01*
X-39053467Y24207886D01*
X-39101086Y24112648D01*
X-39148705Y24065029D01*
X-39243943Y24017410D01*
X-39624896Y24017410D01*
X-38720134Y24541220D02*
X-38053467Y24541220D01*
X-38482039Y23541220D01*
%TO.C,R3*%
X-26788467Y-15268780D02*
X-27121800Y-14792590D01*
X-27359896Y-15268780D02*
X-27359896Y-14268780D01*
X-26978943Y-14268780D01*
X-26883705Y-14316400D01*
X-26836086Y-14364019D01*
X-26788467Y-14459257D01*
X-26788467Y-14602114D01*
X-26836086Y-14697352D01*
X-26883705Y-14744971D01*
X-26978943Y-14792590D01*
X-27359896Y-14792590D01*
X-26455134Y-14268780D02*
X-25836086Y-14268780D01*
X-26169420Y-14649733D01*
X-26026562Y-14649733D01*
X-25931324Y-14697352D01*
X-25883705Y-14744971D01*
X-25836086Y-14840209D01*
X-25836086Y-15078304D01*
X-25883705Y-15173542D01*
X-25931324Y-15221161D01*
X-26026562Y-15268780D01*
X-26312277Y-15268780D01*
X-26407515Y-15221161D01*
X-26455134Y-15173542D01*
%TO.C,J5*%
X19935866Y7761220D02*
X19935866Y7046934D01*
X19888247Y6904077D01*
X19793009Y6808839D01*
X19650152Y6761220D01*
X19554914Y6761220D01*
X20888247Y7761220D02*
X20412057Y7761220D01*
X20364438Y7285029D01*
X20412057Y7332648D01*
X20507295Y7380267D01*
X20745390Y7380267D01*
X20840628Y7332648D01*
X20888247Y7285029D01*
X20935866Y7189791D01*
X20935866Y6951696D01*
X20888247Y6856458D01*
X20840628Y6808839D01*
X20745390Y6761220D01*
X20507295Y6761220D01*
X20412057Y6808839D01*
X20364438Y6856458D01*
D13*
%TO.C,J1*%
X7763200Y7198600D02*
X10423200Y7198600D01*
X7763200Y7198600D02*
X7763200Y2058600D01*
X7763200Y9798600D02*
X9093200Y9798600D01*
X10423200Y7198600D02*
X10423200Y2058600D01*
X7763200Y8468600D02*
X7763200Y9798600D01*
X7763200Y2058600D02*
X10423200Y2058600D01*
%TO.C,R5*%
X12803200Y-7740400D02*
X15543200Y-7740400D01*
X14173200Y-430400D02*
X14173200Y-1200400D01*
X15543200Y-1200400D02*
X12803200Y-1200400D01*
X12803200Y-1200400D02*
X12803200Y-7740400D01*
X14173200Y-8510400D02*
X14173200Y-7740400D01*
X15543200Y-7740400D02*
X15543200Y-1200400D01*
%TO.C,U2*%
X-4656800Y43276100D02*
X7593200Y43276100D01*
X7883200Y43556100D02*
X5883200Y43556100D01*
X7603200Y43266100D02*
X7603200Y37526100D01*
X7603200Y37516100D02*
X-4656800Y37516100D01*
X7883200Y43556100D02*
X7883200Y41946100D01*
X-4656800Y37516100D02*
X-4656800Y43276100D01*
%TO.C,J3*%
X4785200Y-15706400D02*
X12465200Y-15706400D01*
X4785200Y-13046400D02*
X12465200Y-13046400D01*
X2185200Y-15706400D02*
X2185200Y-14376400D01*
X4785200Y-15706400D02*
X4785200Y-13046400D01*
X12465200Y-15706400D02*
X12465200Y-13046400D01*
X3515200Y-15706400D02*
X2185200Y-15706400D01*
%TO.C,C3*%
X11848200Y36747600D02*
X11533200Y36747600D01*
X14273200Y36747600D02*
X13958200Y36747600D01*
X14273200Y41687600D02*
X13958200Y41687600D01*
X14273200Y41687600D02*
X14273200Y36747600D01*
X11848200Y41687600D02*
X11533200Y41687600D01*
X11533200Y41687600D02*
X11533200Y36747600D01*
%TO.C,D1*%
X17434200Y-15202400D02*
X17434200Y-15358400D01*
X17434200Y-12886400D02*
X17434200Y-13042400D01*
X17953239Y-15202400D02*
G75*
G03*
X20035330Y-15202237I1040961J1080000D01*
G01*
X20035330Y-13042563D02*
G75*
G03*
X17953239Y-13042400I-1041130J-1079837D01*
G01*
X17434200Y-15357916D02*
G75*
G03*
X20666535Y-15201008I1560000J1235516D01*
G01*
X20666535Y-13043792D02*
G75*
G03*
X17434200Y-12886884I-1672335J-1078608D01*
G01*
%TO.C,C7*%
X-7346800Y16203600D02*
X-7346800Y15888600D01*
X-2406800Y13778600D02*
X-2406800Y13463600D01*
X-7346800Y13463600D02*
X-2406800Y13463600D01*
X-7346800Y16203600D02*
X-2406800Y16203600D01*
X-7346800Y13778600D02*
X-7346800Y13463600D01*
X-2406800Y16203600D02*
X-2406800Y15888600D01*
%TO.C,C6*%
X-14806800Y12582600D02*
X-16840800Y12582600D01*
X-11674800Y11102600D02*
X-15858800Y11102600D01*
X-10976800Y11942600D02*
X-12726800Y11942600D01*
X-12707800Y10502600D02*
X-14825800Y10502600D01*
X-14806800Y11542600D02*
X-16282800Y11542600D01*
X-14806800Y12022600D02*
X-16600800Y12022600D01*
X-10544800Y13343600D02*
X-12726800Y13343600D01*
X-10656800Y12702600D02*
X-12726800Y12702600D01*
X-10536800Y13543600D02*
X-16996800Y13543600D01*
X-10890800Y12102600D02*
X-12726800Y12102600D01*
X-10584800Y13023600D02*
X-12726800Y13023600D01*
X-10591800Y12983600D02*
X-12726800Y12983600D01*
X-12964800Y10422600D02*
X-14568800Y10422600D01*
X-11188800Y11622600D02*
X-12726800Y11622600D01*
X-10668800Y12662600D02*
X-12726800Y12662600D01*
X-14806800Y12983600D02*
X-16941800Y12983600D01*
X-10645800Y12742600D02*
X-12726800Y12742600D01*
X-14806800Y12422600D02*
X-16784800Y12422600D01*
X-13133800Y10382600D02*
X-14399800Y10382600D01*
X-10692800Y12582600D02*
X-12726800Y12582600D01*
X-10954800Y11982600D02*
X-12726800Y11982600D01*
X-14806800Y12542600D02*
X-16827800Y12542600D01*
X-12185800Y10742600D02*
X-15347800Y10742600D01*
X-10680800Y12622600D02*
X-12726800Y12622600D01*
X-14806800Y12822600D02*
X-16907800Y12822600D01*
X-11350800Y11422600D02*
X-12726800Y11422600D01*
X-10548800Y13303600D02*
X-12726800Y13303600D01*
X-14806800Y11422600D02*
X-16182800Y11422600D01*
X-10932800Y12022600D02*
X-12726800Y12022600D01*
X-11130800Y11702600D02*
X-12726800Y11702600D01*
X-10555800Y13223600D02*
X-12726800Y13223600D01*
X-11584800Y11182600D02*
X-15948800Y11182600D01*
X-11316800Y11462600D02*
X-12726800Y11462600D01*
X-10577800Y13063600D02*
X-12726800Y13063600D01*
X-14806800Y11702600D02*
X-16402800Y11702600D01*
X-10733800Y12462600D02*
X-12726800Y12462600D01*
X-11542800Y11222600D02*
X-15990800Y11222600D01*
X-11282800Y11502600D02*
X-12726800Y11502600D01*
X-11771800Y11022600D02*
X-15761800Y11022600D01*
X-12826800Y10462600D02*
X-14706800Y10462600D01*
X-14806800Y13063600D02*
X-16955800Y13063600D01*
X-14806800Y13023600D02*
X-16948800Y13023600D01*
X-10607800Y12903600D02*
X-12726800Y12903600D01*
X-10780800Y12342600D02*
X-12726800Y12342600D01*
X-14806800Y12182600D02*
X-16682800Y12182600D01*
X-11722800Y11062600D02*
X-15810800Y11062600D01*
X-14806800Y12622600D02*
X-16852800Y12622600D01*
X-14806800Y12943600D02*
X-16933800Y12943600D01*
X-14806800Y11782600D02*
X-16456800Y11782600D01*
X-10625800Y12822600D02*
X-12726800Y12822600D01*
X-14806800Y12302600D02*
X-16736800Y12302600D01*
X-11927800Y17083841D02*
X-11927800Y16453841D01*
X-14806800Y12262600D02*
X-16718800Y12262600D01*
X-11050800Y11822600D02*
X-12726800Y11822600D01*
X-10814800Y12262600D02*
X-12726800Y12262600D01*
X-10719800Y12502600D02*
X-12726800Y12502600D01*
X-11250800Y11542600D02*
X-12726800Y11542600D01*
X-11990800Y10862600D02*
X-15542800Y10862600D01*
X-12504800Y10582600D02*
X-15028800Y10582600D01*
X-14806800Y13343600D02*
X-16988800Y13343600D01*
X-14806800Y12502600D02*
X-16813800Y12502600D01*
X-14806800Y11662600D02*
X-16373800Y11662600D01*
X-11423800Y11342600D02*
X-12726800Y11342600D01*
X-10599800Y12943600D02*
X-12726800Y12943600D01*
X-14806800Y12903600D02*
X-16925800Y12903600D01*
X-10538800Y13463600D02*
X-16994800Y13463600D01*
X-14806800Y11382600D02*
X-16146800Y11382600D01*
X-14806800Y12102600D02*
X-16642800Y12102600D01*
X-10764800Y12382600D02*
X-12726800Y12382600D01*
X-14806800Y12462600D02*
X-16799800Y12462600D01*
X-14806800Y12382600D02*
X-16768800Y12382600D01*
X-14806800Y12782600D02*
X-16897800Y12782600D01*
X-14806800Y11742600D02*
X-16430800Y11742600D01*
X-10536800Y13503600D02*
X-16996800Y13503600D01*
X-12334800Y10662600D02*
X-15198800Y10662600D01*
X-14806800Y11942600D02*
X-16556800Y11942600D01*
X-14806800Y11622600D02*
X-16344800Y11622600D01*
X-14806800Y13183600D02*
X-16972800Y13183600D01*
X-10616800Y12862600D02*
X-12726800Y12862600D01*
X-14806800Y11302600D02*
X-16071800Y11302600D01*
X-10542800Y13383600D02*
X-16990800Y13383600D01*
X-14806800Y13303600D02*
X-16984800Y13303600D01*
X-14806800Y12742600D02*
X-16887800Y12742600D01*
X-14806800Y13143600D02*
X-16967800Y13143600D01*
X-10796800Y12302600D02*
X-12726800Y12302600D01*
X-14806800Y12142600D02*
X-16662800Y12142600D01*
X-12052800Y10822600D02*
X-15480800Y10822600D01*
X-10832800Y12222600D02*
X-12726800Y12222600D01*
X-11386800Y11382600D02*
X-12726800Y11382600D01*
X-14806800Y13263600D02*
X-16981800Y13263600D01*
X-14806800Y12062600D02*
X-16622800Y12062600D01*
X-14806800Y13103600D02*
X-16961800Y13103600D01*
X-14806800Y11982600D02*
X-16578800Y11982600D01*
X-11876800Y10942600D02*
X-15656800Y10942600D01*
X-14806800Y12702600D02*
X-16876800Y12702600D01*
X-10536800Y13583600D02*
X-16996800Y13583600D01*
X-14806800Y12222600D02*
X-16700800Y12222600D01*
X-12601800Y10542600D02*
X-14931800Y10542600D01*
X-11102800Y11742600D02*
X-12726800Y11742600D01*
X-11000800Y11902600D02*
X-12726800Y11902600D01*
X-14806800Y11462600D02*
X-16216800Y11462600D01*
X-10539800Y13423600D02*
X-16993800Y13423600D01*
X-14806800Y11822600D02*
X-16482800Y11822600D01*
X-10551800Y13263600D02*
X-12726800Y13263600D01*
X-10560800Y13183600D02*
X-12726800Y13183600D01*
X-14806800Y11582600D02*
X-16314800Y11582600D01*
X-10705800Y12542600D02*
X-12726800Y12542600D01*
X-10910800Y12062600D02*
X-12726800Y12062600D01*
X-14806800Y12662600D02*
X-16864800Y12662600D01*
X-12257800Y10702600D02*
X-15275800Y10702600D01*
X-14806800Y11342600D02*
X-16109800Y11342600D01*
X-11461800Y11302600D02*
X-12726800Y11302600D01*
X-12116800Y10782600D02*
X-15416800Y10782600D01*
X-11629800Y11142600D02*
X-15903800Y11142600D01*
X-10635800Y12782600D02*
X-12726800Y12782600D01*
X-10565800Y13143600D02*
X-12726800Y13143600D01*
X-11159800Y11662600D02*
X-12726800Y11662600D01*
X-14806800Y11902600D02*
X-16532800Y11902600D01*
X-12416800Y10622600D02*
X-15116800Y10622600D01*
X-11024800Y11862600D02*
X-12726800Y11862600D01*
X-10748800Y12422600D02*
X-12726800Y12422600D01*
X-13364800Y10342600D02*
X-14168800Y10342600D01*
X-11612800Y16768841D02*
X-12242800Y16768841D01*
X-14806800Y12342600D02*
X-16752800Y12342600D01*
X-11501800Y11262600D02*
X-16031800Y11262600D01*
X-10870800Y12142600D02*
X-12726800Y12142600D01*
X-11932800Y10902600D02*
X-15600800Y10902600D01*
X-11822800Y10982600D02*
X-15710800Y10982600D01*
X-14806800Y12862600D02*
X-16916800Y12862600D01*
X-14806800Y13223600D02*
X-16977800Y13223600D01*
X-14806800Y11862600D02*
X-16508800Y11862600D01*
X-11218800Y11582600D02*
X-12726800Y11582600D01*
X-10571800Y13103600D02*
X-12726800Y13103600D01*
X-10850800Y12182600D02*
X-12726800Y12182600D01*
X-14806800Y11502600D02*
X-16250800Y11502600D01*
X-11076800Y11782600D02*
X-12726800Y11782600D01*
X-10496800Y13583600D02*
G75*
G03*
X-10496800Y13583600I-3270000J0D01*
G01*
%TO.C,C2*%
X-27372800Y2172600D02*
X-27372800Y2487600D01*
X-22432800Y-252400D02*
X-22432800Y62600D01*
X-22432800Y2487600D02*
X-27372800Y2487600D01*
X-22432800Y2172600D02*
X-22432800Y2487600D01*
X-22432800Y-252400D02*
X-27372800Y-252400D01*
X-27372800Y-252400D02*
X-27372800Y62600D01*
%TO.C,BZ1*%
X-31526800Y-4216400D02*
G75*
G03*
X-31526800Y-4216400I-6100000J0D01*
G01*
%TO.C,SW1*%
X3758764Y-3796400D02*
X3758764Y-8296400D01*
X7758764Y-2546400D02*
X6258764Y-2546400D01*
X10258764Y-8296400D02*
X10258764Y-3796400D01*
X6258764Y-9546400D02*
X7758764Y-9546400D01*
%TO.C,C4*%
X4324200Y31573600D02*
X4324200Y29129600D01*
X4364200Y36079600D02*
X4364200Y33653600D01*
X4884200Y35785600D02*
X4884200Y33653600D01*
X3604200Y31573600D02*
X3604200Y28884600D01*
X3844200Y31573600D02*
X3844200Y28948600D01*
X6364200Y33888600D02*
X6364200Y31338600D01*
X4484200Y31573600D02*
X4484200Y29206600D01*
X3844200Y36278600D02*
X3844200Y33653600D01*
X5844200Y34863600D02*
X5844200Y30363600D01*
X3283200Y36403600D02*
X3283200Y33653600D01*
X3564200Y36351600D02*
X3564200Y33653600D01*
X4884200Y31573600D02*
X4884200Y29441600D01*
X4684200Y31573600D02*
X4684200Y29316600D01*
X4644200Y35934600D02*
X4644200Y33653600D01*
X5444200Y35326600D02*
X5444200Y29900600D01*
X4404200Y36060600D02*
X4404200Y33653600D01*
X5244200Y35511600D02*
X5244200Y29715600D01*
X3363200Y31573600D02*
X3363200Y28836600D01*
X3564200Y31573600D02*
X3564200Y28875600D01*
X2803200Y36443600D02*
X2803200Y28783600D01*
X5684200Y35067600D02*
X5684200Y30159600D01*
X4244200Y36133600D02*
X4244200Y33653600D01*
X4844200Y35811600D02*
X4844200Y33653600D01*
X6004200Y34627600D02*
X6004200Y30599600D01*
X4724200Y31573600D02*
X4724200Y29339600D01*
X3684200Y36323600D02*
X3684200Y33653600D01*
X4124200Y36181600D02*
X4124200Y33653600D01*
X2963200Y36436600D02*
X2963200Y33653600D01*
X3524200Y31573600D02*
X3524200Y28866600D01*
X4604200Y35956600D02*
X4604200Y33653600D01*
X3964200Y31573600D02*
X3964200Y28987600D01*
X6284200Y34091600D02*
X6284200Y31135600D01*
X5644200Y35113600D02*
X5644200Y30113600D01*
X5324200Y35440600D02*
X5324200Y29786600D01*
X5364200Y35403600D02*
X5364200Y29823600D01*
X4564200Y35978600D02*
X4564200Y33653600D01*
X6324200Y33994600D02*
X6324200Y31232600D01*
X4564200Y31573600D02*
X4564200Y29248600D01*
X5804200Y34917600D02*
X5804200Y30309600D01*
X3203200Y31573600D02*
X3203200Y28812600D01*
X3924200Y36253600D02*
X3924200Y33653600D01*
X3243200Y31573600D02*
X3243200Y28818600D01*
X4964200Y35729600D02*
X4964200Y33653600D01*
X6444200Y33641600D02*
X6444200Y31585600D01*
X3884200Y36266600D02*
X3884200Y33653600D01*
X5764200Y34968600D02*
X5764200Y30258600D01*
X3123200Y31573600D02*
X3123200Y28803600D01*
X5604200Y35159600D02*
X5604200Y30067600D01*
X4044200Y36211600D02*
X4044200Y33653600D01*
X4004200Y36226600D02*
X4004200Y33653600D01*
X4124200Y31573600D02*
X4124200Y29045600D01*
X3724200Y36312600D02*
X3724200Y33653600D01*
X3123200Y36423600D02*
X3123200Y33653600D01*
X5284200Y35476600D02*
X5284200Y29750600D01*
X6564200Y33054600D02*
X6564200Y32172600D01*
X4004200Y31573600D02*
X4004200Y29000600D01*
X4324200Y36097600D02*
X4324200Y33653600D01*
X4924200Y31573600D02*
X4924200Y29469600D01*
X3484200Y31573600D02*
X3484200Y28858600D01*
X5724200Y35018600D02*
X5724200Y30208600D01*
X3043200Y36430600D02*
X3043200Y33653600D01*
X3444200Y36376600D02*
X3444200Y33653600D01*
X4684200Y35910600D02*
X4684200Y33653600D01*
X3804200Y36290600D02*
X3804200Y33653600D01*
X4164200Y31573600D02*
X4164200Y29060600D01*
X4844200Y31573600D02*
X4844200Y29415600D01*
X3003200Y36433600D02*
X3003200Y33653600D01*
X6204200Y34267600D02*
X6204200Y30959600D01*
X3083200Y36427600D02*
X3083200Y33653600D01*
X4284200Y36115600D02*
X4284200Y33653600D01*
X6524200Y33306600D02*
X6524200Y31920600D01*
X3083200Y31573600D02*
X3083200Y28799600D01*
X3764200Y36301600D02*
X3764200Y33653600D01*
X4204200Y36149600D02*
X4204200Y33653600D01*
X4444200Y36040600D02*
X4444200Y33653600D01*
X4524200Y35999600D02*
X4524200Y33653600D01*
X4204200Y31573600D02*
X4204200Y29077600D01*
X3764200Y31573600D02*
X3764200Y28925600D01*
X4284200Y31573600D02*
X4284200Y29111600D01*
X-1044011Y35163600D02*
X-1044011Y34413600D01*
X6044200Y34562600D02*
X6044200Y30664600D01*
X2923200Y36438600D02*
X2923200Y28788600D01*
X5404200Y35365600D02*
X5404200Y29861600D01*
X3444200Y31573600D02*
X3444200Y28850600D01*
X2963200Y31573600D02*
X2963200Y28790600D01*
X4764200Y35862600D02*
X4764200Y33653600D01*
X3964200Y36239600D02*
X3964200Y33653600D01*
X5124200Y35609600D02*
X5124200Y29617600D01*
X5884200Y34808600D02*
X5884200Y30418600D01*
X3043200Y31573600D02*
X3043200Y28796600D01*
X5044200Y35671600D02*
X5044200Y29555600D01*
X5004200Y35701600D02*
X5004200Y33653600D01*
X4604200Y31573600D02*
X4604200Y29270600D01*
X3644200Y31573600D02*
X3644200Y28893600D01*
X5964200Y34690600D02*
X5964200Y30536600D01*
X4044200Y31573600D02*
X4044200Y29015600D01*
X3684200Y31573600D02*
X3684200Y28903600D01*
X-1419011Y34788600D02*
X-669011Y34788600D01*
X3243200Y36408600D02*
X3243200Y33653600D01*
X4404200Y31573600D02*
X4404200Y29166600D01*
X4924200Y35757600D02*
X4924200Y33653600D01*
X3884200Y31573600D02*
X3884200Y28960600D01*
X3403200Y31573600D02*
X3403200Y28843600D01*
X4804200Y35837600D02*
X4804200Y33653600D01*
X4084200Y31573600D02*
X4084200Y29029600D01*
X4164200Y36166600D02*
X4164200Y33653600D01*
X6484200Y33490600D02*
X6484200Y31736600D01*
X5484200Y35286600D02*
X5484200Y29940600D01*
X2883200Y36440600D02*
X2883200Y28786600D01*
X3924200Y31573600D02*
X3924200Y28973600D01*
X6124200Y34422600D02*
X6124200Y30804600D01*
X4244200Y31573600D02*
X4244200Y29093600D01*
X3323200Y36397600D02*
X3323200Y33653600D01*
X6404200Y33771600D02*
X6404200Y31455600D01*
X3363200Y36390600D02*
X3363200Y33653600D01*
X4804200Y31573600D02*
X4804200Y29389600D01*
X4084200Y36197600D02*
X4084200Y33653600D01*
X3524200Y36360600D02*
X3524200Y33653600D01*
X5564200Y35202600D02*
X5564200Y30024600D01*
X5004200Y31573600D02*
X5004200Y29525600D01*
X6164200Y34346600D02*
X6164200Y30880600D01*
X4524200Y31573600D02*
X4524200Y29227600D01*
X6084200Y34494600D02*
X6084200Y30732600D01*
X4364200Y31573600D02*
X4364200Y29147600D01*
X4964200Y31573600D02*
X4964200Y29497600D01*
X3163200Y36418600D02*
X3163200Y33653600D01*
X2723200Y36443600D02*
X2723200Y28783600D01*
X3804200Y31573600D02*
X3804200Y28936600D01*
X4484200Y36020600D02*
X4484200Y33653600D01*
X5524200Y35245600D02*
X5524200Y29981600D01*
X4644200Y31573600D02*
X4644200Y29292600D01*
X4444200Y31573600D02*
X4444200Y29186600D01*
X5084200Y35641600D02*
X5084200Y29585600D01*
X3604200Y36342600D02*
X3604200Y33653600D01*
X3163200Y31573600D02*
X3163200Y28808600D01*
X6244200Y34182600D02*
X6244200Y31044600D01*
X5204200Y35544600D02*
X5204200Y29682600D01*
X3323200Y31573600D02*
X3323200Y28829600D01*
X3403200Y36383600D02*
X3403200Y33653600D01*
X3724200Y31573600D02*
X3724200Y28914600D01*
X3203200Y36414600D02*
X3203200Y33653600D01*
X4764200Y31573600D02*
X4764200Y29364600D01*
X2843200Y36442600D02*
X2843200Y28784600D01*
X5924200Y34750600D02*
X5924200Y30476600D01*
X3484200Y36368600D02*
X3484200Y33653600D01*
X4724200Y35887600D02*
X4724200Y33653600D01*
X5164200Y35577600D02*
X5164200Y29649600D01*
X3644200Y36333600D02*
X3644200Y33653600D01*
X3283200Y31573600D02*
X3283200Y28823600D01*
X2763200Y36443600D02*
X2763200Y28783600D01*
X3003200Y31573600D02*
X3003200Y28793600D01*
X6593200Y32613600D02*
G75*
G03*
X6593200Y32613600I-3870000J0D01*
G01*
%TO.C,J6*%
X-31606800Y32668600D02*
X-16246800Y32668600D01*
X-29006800Y27468600D02*
X-16246800Y27468600D01*
X-29006800Y30068600D02*
X-31606800Y30068600D01*
X-16246800Y27468600D02*
X-16246800Y32668600D01*
X-31606800Y27468600D02*
X-31606800Y28798600D01*
X-31606800Y30068600D02*
X-31606800Y32668600D01*
X-29006800Y27468600D02*
X-29006800Y30068600D01*
X-30276800Y27468600D02*
X-31606800Y27468600D01*
%TO.C,R6*%
X-22376800Y22623600D02*
X-22376800Y25363600D01*
X-28916800Y22623600D02*
X-22376800Y22623600D01*
X-21606800Y23993600D02*
X-22376800Y23993600D01*
X-28916800Y25363600D02*
X-28916800Y22623600D01*
X-29686800Y23993600D02*
X-28916800Y23993600D01*
X-22376800Y25363600D02*
X-28916800Y25363600D01*
%TO.C,R1*%
X-23196800Y-11936400D02*
X-23196800Y-9196400D01*
X-23196800Y-9196400D02*
X-29736800Y-9196400D01*
X-29736800Y-11936400D02*
X-23196800Y-11936400D01*
X-22426800Y-10566400D02*
X-23196800Y-10566400D01*
X-29736800Y-9196400D02*
X-29736800Y-11936400D01*
X-30506800Y-10566400D02*
X-29736800Y-10566400D01*
%TO.C,J2*%
X-24621800Y17114600D02*
X-24621800Y6894600D01*
X-21961800Y17114600D02*
X-21961800Y6894600D01*
X-24621800Y18384600D02*
X-24621800Y19714600D01*
X-24621800Y19714600D02*
X-23291800Y19714600D01*
X-24621800Y17114600D02*
X-21961800Y17114600D01*
X-24621800Y6894600D02*
X-21961800Y6894600D01*
%TO.C,C5*%
X-7386800Y31443600D02*
X-7386800Y31128600D01*
X-2446800Y31443600D02*
X-2446800Y31128600D01*
X-7386800Y31443600D02*
X-2446800Y31443600D01*
X-7386800Y28703600D02*
X-2446800Y28703600D01*
X-7386800Y29018600D02*
X-7386800Y28703600D01*
X-2446800Y29018600D02*
X-2446800Y28703600D01*
%TO.C,R4*%
X18703200Y33323600D02*
X18703200Y39863600D01*
X17333200Y32553600D02*
X17333200Y33323600D01*
X17333200Y40633600D02*
X17333200Y39863600D01*
X15963200Y33323600D02*
X18703200Y33323600D01*
X15963200Y39863600D02*
X15963200Y33323600D01*
X18703200Y39863600D02*
X15963200Y39863600D01*
%TO.C,Q1*%
X-37796800Y-16156400D02*
X-34196800Y-16156400D01*
X-36816800Y-11856400D02*
G75*
G03*
X-37808675Y-16148141I820000J-2450000D01*
G01*
X-34188355Y-16134084D02*
G75*
G03*
X-35216800Y-11856400I-1808445J1827684D01*
G01*
%TO.C,G\u002A\u002A\u002A*%
G36*
X47968642Y-6018184D02*
G01*
X48494715Y-6018184D01*
X48510277Y-6074195D01*
X48551353Y-6179629D01*
X48609528Y-6313101D01*
X48618301Y-6332249D01*
X48741887Y-6600372D01*
X50563772Y-6600372D01*
X50687358Y-6332249D01*
X50747209Y-6196614D01*
X50791106Y-6086109D01*
X50810633Y-6022118D01*
X50810944Y-6018184D01*
X50788935Y-6004069D01*
X50719202Y-5992848D01*
X50596181Y-5984300D01*
X50414311Y-5978204D01*
X50168030Y-5974339D01*
X49851775Y-5972485D01*
X49652829Y-5972242D01*
X49297030Y-5973115D01*
X49014167Y-5975881D01*
X48798679Y-5980762D01*
X48645002Y-5987976D01*
X48547576Y-5997746D01*
X48500837Y-6010292D01*
X48494715Y-6018184D01*
X47968642Y-6018184D01*
X47302334Y-4555425D01*
X47827327Y-4555425D01*
X47843157Y-4605408D01*
X47883702Y-4702833D01*
X47938540Y-4824929D01*
X47997252Y-4948920D01*
X48049418Y-5052034D01*
X48075925Y-5098749D01*
X48101517Y-5111696D01*
X48164398Y-5122335D01*
X48270430Y-5130847D01*
X48425474Y-5137412D01*
X48635391Y-5142212D01*
X48906042Y-5145426D01*
X49243288Y-5147235D01*
X49652991Y-5147821D01*
X49667681Y-5147822D01*
X51228594Y-5147822D01*
X51353560Y-4863200D01*
X51412365Y-4725752D01*
X51456269Y-4616438D01*
X51477547Y-4554688D01*
X51478429Y-4549135D01*
X51441076Y-4540291D01*
X51336820Y-4532509D01*
X51177269Y-4526215D01*
X50974034Y-4521833D01*
X50738724Y-4519788D01*
X50673540Y-4519692D01*
X49868749Y-4519692D01*
X49868749Y-3577497D01*
X49436910Y-3577497D01*
X49436910Y-4519692D01*
X48632118Y-4519692D01*
X48379951Y-4521358D01*
X48163070Y-4526047D01*
X47991884Y-4533298D01*
X47876801Y-4542649D01*
X47828232Y-4553636D01*
X47827327Y-4555425D01*
X47302334Y-4555425D01*
X46642266Y-3106363D01*
X46981821Y-2360496D01*
X47563546Y-2360496D01*
X47759738Y-2910109D01*
X47955931Y-3459723D01*
X48209629Y-3459723D01*
X48691005Y-3459723D01*
X48808780Y-3459723D01*
X48876377Y-3456026D01*
X48911397Y-3431982D01*
X48924552Y-3368163D01*
X48926554Y-3246120D01*
X48940269Y-3088410D01*
X48980838Y-3004165D01*
X49047400Y-2993386D01*
X49139094Y-3056078D01*
X49255056Y-3192241D01*
X49292749Y-3244964D01*
X49443025Y-3461735D01*
X49553773Y-3459723D01*
X50655013Y-3459723D01*
X50775647Y-3459723D01*
X50869209Y-3444104D01*
X50923781Y-3381860D01*
X50940735Y-3341948D01*
X50971503Y-3274939D01*
X51014050Y-3239789D01*
X51091515Y-3226279D01*
X51207369Y-3224174D01*
X51335179Y-3227198D01*
X51408089Y-3243099D01*
X51449671Y-3282123D01*
X51478332Y-3341948D01*
X51532086Y-3428781D01*
X51611542Y-3458643D01*
X51640127Y-3459723D01*
X51720780Y-3451053D01*
X51753138Y-3430943D01*
X51739433Y-3385933D01*
X51701775Y-3281875D01*
X51645349Y-3132631D01*
X51575343Y-2952062D01*
X51547033Y-2880077D01*
X51340928Y-2357990D01*
X51206142Y-2369057D01*
X51159942Y-2374253D01*
X51121226Y-2387264D01*
X51085272Y-2416912D01*
X51047357Y-2472022D01*
X51002756Y-2561416D01*
X50946747Y-2693919D01*
X50874606Y-2878353D01*
X50781610Y-3123542D01*
X50732615Y-3253618D01*
X50655013Y-3459723D01*
X49553773Y-3459723D01*
X50038654Y-3450914D01*
X50266546Y-3446232D01*
X50427512Y-3440664D01*
X50533137Y-3432472D01*
X50595004Y-3419918D01*
X50624700Y-3401266D01*
X50633808Y-3374777D01*
X50634282Y-3361577D01*
X50626190Y-3321145D01*
X50591302Y-3295266D01*
X50513703Y-3278756D01*
X50377478Y-3266436D01*
X50332851Y-3263432D01*
X50031421Y-3243803D01*
X50323037Y-2882532D01*
X50437963Y-2733613D01*
X50531552Y-2599885D01*
X50593761Y-2496560D01*
X50614653Y-2440879D01*
X50609900Y-2405139D01*
X50586398Y-2381922D01*
X50530283Y-2368543D01*
X50427691Y-2362316D01*
X50264757Y-2360555D01*
X50199712Y-2360496D01*
X50015682Y-2361137D01*
X49896662Y-2365039D01*
X49829149Y-2375165D01*
X49799637Y-2394479D01*
X49794623Y-2425947D01*
X49797317Y-2448826D01*
X49813413Y-2499619D01*
X49856415Y-2528278D01*
X49945919Y-2543035D01*
X50035596Y-2548931D01*
X50156871Y-2558060D01*
X50238811Y-2569596D01*
X50261330Y-2578492D01*
X50237993Y-2614195D01*
X50174720Y-2697379D01*
X50081621Y-2815023D01*
X49986523Y-2932466D01*
X49874385Y-3076883D01*
X49783878Y-3207179D01*
X49725632Y-3307173D01*
X49709408Y-3354373D01*
X49704139Y-3414004D01*
X49682986Y-3400532D01*
X49660335Y-3365698D01*
X49610284Y-3291833D01*
X49534101Y-3185343D01*
X49486242Y-3120334D01*
X49418612Y-3018267D01*
X49398556Y-2959894D01*
X49411455Y-2949367D01*
X49493395Y-2914205D01*
X49563065Y-2824923D01*
X49604482Y-2705832D01*
X49609645Y-2647921D01*
X49595280Y-2530999D01*
X49545345Y-2449160D01*
X49449582Y-2397043D01*
X49297734Y-2369289D01*
X49079543Y-2360536D01*
X49059608Y-2360496D01*
X48691005Y-2360496D01*
X48691005Y-3459723D01*
X48209629Y-3459723D01*
X48391889Y-2939553D01*
X48457618Y-2749879D01*
X48512742Y-2586839D01*
X48552554Y-2464659D01*
X48572351Y-2397561D01*
X48573690Y-2389939D01*
X48539239Y-2369087D01*
X48457832Y-2360496D01*
X48402214Y-2364459D01*
X48361797Y-2385946D01*
X48327389Y-2439353D01*
X48289798Y-2539074D01*
X48239829Y-2699505D01*
X48238467Y-2704004D01*
X48189216Y-2859372D01*
X48144909Y-2986055D01*
X48112360Y-3065116D01*
X48103079Y-3080417D01*
X48078620Y-3059858D01*
X48037426Y-2978330D01*
X47985913Y-2849891D01*
X47946254Y-2736909D01*
X47888701Y-2566758D01*
X47846652Y-2457613D01*
X47810966Y-2395930D01*
X47772503Y-2368167D01*
X47722121Y-2360780D01*
X47692199Y-2360496D01*
X47563546Y-2360496D01*
X46981821Y-2360496D01*
X47683306Y-819615D01*
X48192672Y-819615D01*
X48203443Y-848477D01*
X48272543Y-864077D01*
X48407284Y-868687D01*
X48642318Y-868687D01*
X48939413Y-211114D01*
X49042245Y16441D01*
X49141304Y235560D01*
X49229069Y429615D01*
X49298020Y581978D01*
X49334448Y662379D01*
X49432387Y878299D01*
X49434648Y-682211D01*
X49436910Y-2242721D01*
X49867848Y-2242721D01*
X49878113Y-695462D01*
X49888378Y851798D01*
X50276299Y-8445D01*
X50664221Y-868687D01*
X50898815Y-868687D01*
X51034876Y-863925D01*
X51102841Y-848120D01*
X51112901Y-819615D01*
X51083435Y-752105D01*
X51026584Y-624544D01*
X50946550Y-446201D01*
X50847534Y-226344D01*
X50733739Y25761D01*
X50609366Y300845D01*
X50478617Y589640D01*
X50345692Y882878D01*
X50214794Y1171292D01*
X50090125Y1445614D01*
X49975885Y1696576D01*
X49876277Y1914910D01*
X49795502Y2091349D01*
X49737761Y2216624D01*
X49707257Y2281468D01*
X49704777Y2286403D01*
X49648051Y2394669D01*
X49596772Y2284243D01*
X49566683Y2218544D01*
X49509705Y2093293D01*
X49429958Y1917598D01*
X49331564Y1700566D01*
X49218642Y1451306D01*
X49095313Y1178927D01*
X48965696Y892536D01*
X48833913Y601243D01*
X48704083Y314154D01*
X48580328Y40379D01*
X48466766Y-210974D01*
X48367519Y-430797D01*
X48286708Y-609982D01*
X48228451Y-739420D01*
X48196870Y-810004D01*
X48192672Y-819615D01*
X47683306Y-819615D01*
X48103312Y102969D01*
X48319431Y577567D01*
X48526928Y1032983D01*
X48723408Y1463976D01*
X48906478Y1865305D01*
X49073742Y2231729D01*
X49222806Y2558006D01*
X49351276Y2838895D01*
X49456757Y3069155D01*
X49536855Y3243545D01*
X49589175Y3356823D01*
X49611164Y3403443D01*
X49621339Y3414146D01*
X49636235Y3410536D01*
X49657822Y3388532D01*
X49688072Y3344050D01*
X49728958Y3273006D01*
X49782449Y3171317D01*
X49850518Y3034899D01*
X49935137Y2859670D01*
X50038276Y2641547D01*
X50161907Y2376444D01*
X50308001Y2060281D01*
X50478531Y1688972D01*
X50675467Y1258435D01*
X50900780Y764587D01*
X51156443Y203343D01*
X51160655Y194092D01*
X52663342Y-3106401D01*
X51221326Y-6276493D01*
X51006204Y-6749261D01*
X50799337Y-7203594D01*
X50603174Y-7634128D01*
X50420165Y-8035503D01*
X50252759Y-8402355D01*
X50103405Y-8729323D01*
X49974552Y-9011045D01*
X49868650Y-9242158D01*
X49788147Y-9417301D01*
X49735492Y-9531111D01*
X49714010Y-9576527D01*
X49648710Y-9706469D01*
X48667993Y-7553484D01*
X49172956Y-7553484D01*
X49195419Y-7606039D01*
X49243771Y-7715629D01*
X49311562Y-7867740D01*
X49392342Y-8047858D01*
X49419154Y-8107427D01*
X49503206Y-8297738D01*
X49565488Y-8433551D01*
X49614258Y-8512735D01*
X49657771Y-8533158D01*
X49704286Y-8492687D01*
X49762057Y-8389192D01*
X49839343Y-8220540D01*
X49944399Y-7984599D01*
X49950924Y-7970122D01*
X50025788Y-7802620D01*
X50087075Y-7662496D01*
X50128444Y-7564458D01*
X50143556Y-7523245D01*
X50106766Y-7515722D01*
X50006265Y-7509498D01*
X49856855Y-7505170D01*
X49673338Y-7503333D01*
X49648629Y-7503309D01*
X49436494Y-7505028D01*
X49293125Y-7510869D01*
X49208833Y-7521854D01*
X49173929Y-7539003D01*
X49172956Y-7553484D01*
X48667993Y-7553484D01*
X48145487Y-6406416D01*
X47968642Y-6018184D01*
G37*
G36*
X51229672Y-2707505D02*
G01*
X51266344Y-2786497D01*
X51300289Y-2881770D01*
X51319927Y-2963560D01*
X51321299Y-2981598D01*
X51287219Y-3014083D01*
X51205092Y-3027879D01*
X51203525Y-3027883D01*
X51120779Y-3020663D01*
X51085758Y-3003271D01*
X51085750Y-3002995D01*
X51097434Y-2937538D01*
X51125614Y-2843517D01*
X51159985Y-2750082D01*
X51190241Y-2686388D01*
X51201852Y-2674560D01*
X51229672Y-2707505D01*
G37*
G36*
X49271126Y-2573415D02*
G01*
X49361525Y-2620976D01*
X49383855Y-2695983D01*
X49376190Y-2724066D01*
X49322321Y-2772324D01*
X49221196Y-2809519D01*
X49103912Y-2829678D01*
X49001564Y-2826827D01*
X48952726Y-2805421D01*
X48933549Y-2750510D01*
X48926554Y-2668017D01*
X48931608Y-2601542D01*
X48960414Y-2568776D01*
X49033434Y-2557831D01*
X49118038Y-2556786D01*
X49271126Y-2573415D01*
G37*
%TO.C,U1*%
X433200Y-16110400D02*
X433200Y-16730400D01*
X-17806800Y2709600D02*
X433200Y2709600D01*
X433200Y-16730400D02*
X-566800Y-16730400D01*
X-17806800Y2289600D02*
X-18186800Y2289600D01*
X433200Y2709600D02*
X433200Y2289600D01*
X-17806800Y2709600D02*
X-17806800Y2289600D01*
X-17806800Y-16730400D02*
X-16806800Y-16730400D01*
X-17806800Y-16110400D02*
X-17806800Y-16730400D01*
%TO.C,U3*%
X11823200Y27573600D02*
X11823200Y17333600D01*
X-4066800Y22453600D02*
X-6606800Y22453600D01*
X-4066800Y27573600D02*
X-4066800Y17333600D01*
X-4066800Y24993600D02*
X-6606800Y24993600D01*
X11823200Y17333600D02*
X-4066800Y17333600D01*
X-4066800Y19913600D02*
X-6606800Y19913600D01*
X11823200Y27573600D02*
X-4066800Y27573600D01*
%TO.C,C1*%
X-27412800Y-4824400D02*
X-22472800Y-4824400D01*
X-22472800Y-2084400D02*
X-22472800Y-2399400D01*
X-22472800Y-4509400D02*
X-22472800Y-4824400D01*
X-27412800Y-2084400D02*
X-27412800Y-2399400D01*
X-27412800Y-2084400D02*
X-22472800Y-2084400D01*
X-27412800Y-4509400D02*
X-27412800Y-4824400D01*
%TO.C,F1*%
X-17517600Y18035600D02*
X-17517600Y18350600D01*
X-12577600Y18035600D02*
X-17517600Y18035600D01*
X-12577600Y20775600D02*
X-17517600Y20775600D01*
X-12577600Y18035600D02*
X-12577600Y18350600D01*
X-17517600Y20460600D02*
X-17517600Y20775600D01*
X-12577600Y20460600D02*
X-12577600Y20775600D01*
%TO.C,R2*%
X5363200Y9213600D02*
X2623200Y9213600D01*
X3993200Y9983600D02*
X3993200Y9213600D01*
X2623200Y9213600D02*
X2623200Y2673600D01*
X2623200Y2673600D02*
X5363200Y2673600D01*
X5363200Y2673600D02*
X5363200Y9213600D01*
X3993200Y1903600D02*
X3993200Y2673600D01*
%TO.C,J4*%
X21599200Y-6816400D02*
X20269200Y-6816400D01*
X21599200Y-4216400D02*
X21599200Y3463600D01*
X21599200Y-5486400D02*
X21599200Y-6816400D01*
X21599200Y-4216400D02*
X18939200Y-4216400D01*
X21599200Y3463600D02*
X18939200Y3463600D01*
X18939200Y-4216400D02*
X18939200Y3463600D01*
%TO.C,R7*%
X-35616800Y25363600D02*
X-42156800Y25363600D01*
X-42156800Y22623600D02*
X-35616800Y22623600D01*
X-42926800Y23993600D02*
X-42156800Y23993600D01*
X-34846800Y23993600D02*
X-35616800Y23993600D01*
X-42156800Y25363600D02*
X-42156800Y22623600D01*
X-35616800Y22623600D02*
X-35616800Y25363600D01*
%TO.C,R3*%
X-23351800Y-13446400D02*
X-29891800Y-13446400D01*
X-22581800Y-14816400D02*
X-23351800Y-14816400D01*
X-23351800Y-16186400D02*
X-23351800Y-13446400D01*
X-29891800Y-16186400D02*
X-23351800Y-16186400D01*
X-29891800Y-13446400D02*
X-29891800Y-16186400D01*
X-30661800Y-14816400D02*
X-29891800Y-14816400D01*
%TO.C,J5*%
X21599200Y11028600D02*
X18939200Y11028600D01*
X18939200Y11028600D02*
X18939200Y21248600D01*
X21599200Y21248600D02*
X18939200Y21248600D01*
X21599200Y9758600D02*
X21599200Y8428600D01*
X21599200Y11028600D02*
X21599200Y21248600D01*
X21599200Y8428600D02*
X20269200Y8428600D01*
%TD*%
M02*
