M48
INCH
T1C0.0157
T2C0.0295
T3C0.0315
T4C0.0354
T5C0.0394
T6C0.0433
T7C0.0787
T8C0.1181
%
G90
G05
T1
X-0.782Y-0.146
X-0.062Y-0.456
X-0.062Y-0.506
X0.018Y0.154
T2
X-1.4672Y-0.5632
X-1.4172Y-0.5132
X-1.3672Y-0.5632
T3
X-1.731Y0.9446
X-1.331Y0.9446
X-1.2481Y-0.5833
X-1.242Y-0.416
X-1.2097Y0.9446
X-1.0804Y-0.136
X-1.0789Y0.044
X-0.8836Y-0.136
X-0.882Y0.044
X-0.8481Y-0.5833
X-0.842Y-0.416
X-0.8097Y0.9446
X-0.6909Y0.764
X-0.542Y0.584
X-0.542Y0.4856
X-0.494Y0.764
X-0.292Y1.184
X-0.2904Y0.584
X-0.0951Y1.184
X-0.0936Y0.584
X-0.092Y1.5904
X0.008Y1.5904
X0.058Y1.284
X0.108Y1.5904
X0.1564Y1.284
X0.1572Y0.434
X0.1572Y0.034
X0.208Y1.5904
X0.508Y1.6424
X0.508Y1.4456
X0.558Y0.024
X0.558Y-0.376
X0.6824Y1.6407
X0.6824Y1.2407
T4
X0.6978Y-0.556
X0.7978Y-0.556
T5
X-1.4814Y-0.0164
X-1.4814Y-0.3156
X-1.192Y1.2338
X-1.192Y1.1338
X-1.092Y1.2338
X-1.092Y1.1338
X-0.992Y1.2338
X-0.992Y1.1338
X-0.917Y0.7238
X-0.917Y0.6238
X-0.917Y0.5238
X-0.917Y0.4238
X-0.917Y0.3238
X-0.892Y1.2338
X-0.892Y1.1338
X-0.792Y1.2338
X-0.792Y1.1338
X-0.692Y1.2338
X-0.692Y1.1338
X0.1384Y-0.566
X0.2384Y-0.566
X0.3384Y-0.566
X0.358Y0.3334
X0.358Y0.2334
X0.358Y0.1334
X0.4384Y-0.566
X0.798Y0.7842
X0.798Y0.6842
X0.798Y0.5842
X0.798Y0.4842
X0.798Y0.3842
X0.798Y0.084
X0.798Y-0.016
X0.798Y-0.116
X0.798Y-0.216
T6
X-0.3054Y0.984
X-0.3054Y0.884
X-0.3054Y0.784
X0.1874Y-0.1101
X0.1874Y-0.366
X0.3645Y-0.1101
X0.3645Y-0.366
T7
X-0.4011Y-0.2488
T8
X-1.642Y1.584
X-1.642Y-0.516
X1.0674Y-0.5034
X1.658Y-0.5034
X1.958Y1.584
X1.958Y-0.516
T0
M30
